G75*
%MOIN*%
%OFA0B0*%
%FSLAX25Y25*%
%IPPOS*%
%LPD*%
%AMOC8*
5,1,8,0,0,1.08239X$1,22.5*
%
%ADD10C,0.05600*%
%ADD11C,0.21000*%
%ADD12C,0.09900*%
%ADD13C,0.06400*%
%ADD14R,0.09000X0.20000*%
%ADD15C,0.01200*%
%ADD16OC8,0.05000*%
%ADD17OC8,0.04362*%
%ADD18C,0.15000*%
%ADD19C,0.04000*%
%ADD20C,0.08600*%
D10*
X0014100Y0091133D02*
X0014100Y0096733D01*
X0014100Y0121133D02*
X0014100Y0126733D01*
X0014100Y0136133D02*
X0014100Y0141733D01*
X0014100Y0166133D02*
X0014100Y0171733D01*
X0014100Y0188633D02*
X0014100Y0194233D01*
X0014100Y0218633D02*
X0014100Y0224233D01*
X0126300Y0141433D02*
X0131900Y0141433D01*
X0156300Y0141433D02*
X0161900Y0141433D01*
X0344100Y0141733D02*
X0344100Y0136133D01*
X0344100Y0126733D02*
X0344100Y0121133D01*
X0344100Y0096733D02*
X0344100Y0091133D01*
X0344100Y0166133D02*
X0344100Y0171733D01*
X0344100Y0188633D02*
X0344100Y0194233D01*
X0344100Y0218633D02*
X0344100Y0224233D01*
D11*
X0336600Y0246433D03*
X0336600Y0063933D03*
X0021600Y0063933D03*
X0021600Y0246433D03*
D12*
X0128800Y0121383D02*
X0128800Y0111483D01*
X0144400Y0111483D02*
X0144400Y0121383D01*
D13*
X0094100Y0120733D02*
X0094100Y0127133D01*
X0094100Y0135733D02*
X0094100Y0142133D01*
X0074100Y0142133D02*
X0074100Y0135733D01*
X0074100Y0127133D02*
X0074100Y0120733D01*
X0054100Y0120733D02*
X0054100Y0127133D01*
X0054100Y0135733D02*
X0054100Y0142133D01*
X0024100Y0142133D02*
X0024100Y0135733D01*
X0024100Y0127133D02*
X0024100Y0120733D01*
X0024100Y0097133D02*
X0024100Y0090733D01*
X0054100Y0090733D02*
X0054100Y0097133D01*
X0074100Y0097133D02*
X0074100Y0090733D01*
X0094100Y0090733D02*
X0094100Y0097133D01*
X0094100Y0165733D02*
X0094100Y0172133D01*
X0074100Y0172133D02*
X0074100Y0165733D01*
X0054100Y0165733D02*
X0054100Y0172133D01*
X0054100Y0188233D02*
X0054100Y0194633D01*
X0074100Y0194633D02*
X0074100Y0188233D01*
X0094100Y0188233D02*
X0094100Y0194633D01*
X0094100Y0218233D02*
X0094100Y0224633D01*
X0074100Y0224633D02*
X0074100Y0218233D01*
X0054100Y0218233D02*
X0054100Y0224633D01*
X0024100Y0224633D02*
X0024100Y0218233D01*
X0024100Y0194633D02*
X0024100Y0188233D01*
X0024100Y0172133D02*
X0024100Y0165733D01*
X0264100Y0165733D02*
X0264100Y0172133D01*
X0284100Y0172133D02*
X0284100Y0165733D01*
X0304100Y0165733D02*
X0304100Y0172133D01*
X0304100Y0188233D02*
X0304100Y0194633D01*
X0284100Y0194633D02*
X0284100Y0188233D01*
X0264100Y0188233D02*
X0264100Y0194633D01*
X0264100Y0218233D02*
X0264100Y0224633D01*
X0284100Y0224633D02*
X0284100Y0218233D01*
X0304100Y0218233D02*
X0304100Y0224633D01*
X0334100Y0224633D02*
X0334100Y0218233D01*
X0334100Y0194633D02*
X0334100Y0188233D01*
X0334100Y0172133D02*
X0334100Y0165733D01*
X0334100Y0142133D02*
X0334100Y0135733D01*
X0334100Y0127133D02*
X0334100Y0120733D01*
X0304100Y0120733D02*
X0304100Y0127133D01*
X0304100Y0135733D02*
X0304100Y0142133D01*
X0284100Y0142133D02*
X0284100Y0135733D01*
X0284100Y0127133D02*
X0284100Y0120733D01*
X0264100Y0120733D02*
X0264100Y0127133D01*
X0264100Y0135733D02*
X0264100Y0142133D01*
X0264100Y0097133D02*
X0264100Y0090733D01*
X0284100Y0090733D02*
X0284100Y0097133D01*
X0304100Y0097133D02*
X0304100Y0090733D01*
X0334100Y0090733D02*
X0334100Y0097133D01*
D14*
X0309000Y0054033D03*
X0274200Y0054033D03*
X0084000Y0054033D03*
X0049200Y0054033D03*
D15*
X0005400Y0047733D02*
X0005400Y0261334D01*
X0038298Y0261334D01*
X0035815Y0258850D01*
X0034183Y0257219D01*
X0033300Y0255087D01*
X0033300Y0249549D01*
X0033245Y0249788D01*
X0032797Y0251071D01*
X0032207Y0252295D01*
X0031484Y0253446D01*
X0030636Y0254509D01*
X0029675Y0255470D01*
X0028613Y0256317D01*
X0027462Y0257040D01*
X0026238Y0257630D01*
X0024955Y0258078D01*
X0023630Y0258381D01*
X0022280Y0258533D01*
X0022200Y0258533D01*
X0022200Y0247033D01*
X0021000Y0247033D01*
X0021000Y0245833D01*
X0022200Y0245833D01*
X0022200Y0234333D01*
X0022280Y0234333D01*
X0023630Y0234485D01*
X0024955Y0234788D01*
X0026238Y0235237D01*
X0027462Y0235826D01*
X0028613Y0236549D01*
X0029675Y0237397D01*
X0030636Y0238358D01*
X0031484Y0239420D01*
X0032207Y0240571D01*
X0032797Y0241795D01*
X0033245Y0243078D01*
X0033300Y0243317D01*
X0033300Y0238836D01*
X0030815Y0236350D01*
X0029183Y0234719D01*
X0028300Y0232587D01*
X0028300Y0226963D01*
X0028205Y0227149D01*
X0027761Y0227760D01*
X0027227Y0228294D01*
X0026616Y0228738D01*
X0025943Y0229081D01*
X0025224Y0229315D01*
X0024500Y0229430D01*
X0024500Y0221833D01*
X0023700Y0221833D01*
X0023700Y0221033D01*
X0024500Y0221033D01*
X0024500Y0213437D01*
X0025224Y0213551D01*
X0025943Y0213785D01*
X0026616Y0214128D01*
X0027227Y0214572D01*
X0027761Y0215106D01*
X0028205Y0215717D01*
X0028300Y0215903D01*
X0028300Y0200333D01*
X0028065Y0200567D01*
X0025492Y0201633D01*
X0022708Y0201633D01*
X0020135Y0200567D01*
X0018617Y0199050D01*
X0017839Y0199828D01*
X0015413Y0200833D01*
X0012787Y0200833D01*
X0010361Y0199828D01*
X0008505Y0197972D01*
X0007500Y0195546D01*
X0007500Y0187320D01*
X0008505Y0184894D01*
X0010361Y0183038D01*
X0012787Y0182033D01*
X0015413Y0182033D01*
X0017839Y0183038D01*
X0018617Y0183816D01*
X0020135Y0182299D01*
X0022708Y0181233D01*
X0025492Y0181233D01*
X0028065Y0182299D01*
X0028300Y0182534D01*
X0028300Y0174463D01*
X0028205Y0174649D01*
X0027761Y0175260D01*
X0027227Y0175794D01*
X0026616Y0176238D01*
X0025943Y0176581D01*
X0025224Y0176815D01*
X0024500Y0176930D01*
X0024500Y0169333D01*
X0023700Y0169333D01*
X0023700Y0168533D01*
X0024500Y0168533D01*
X0024500Y0160937D01*
X0025224Y0161051D01*
X0025943Y0161285D01*
X0026616Y0161628D01*
X0027227Y0162072D01*
X0027761Y0162606D01*
X0028205Y0163217D01*
X0028300Y0163403D01*
X0028300Y0147833D01*
X0028065Y0148067D01*
X0025492Y0149133D01*
X0022708Y0149133D01*
X0020135Y0148067D01*
X0018617Y0146550D01*
X0017839Y0147328D01*
X0015413Y0148333D01*
X0012787Y0148333D01*
X0010361Y0147328D01*
X0008505Y0145472D01*
X0007500Y0143046D01*
X0007500Y0134820D01*
X0008505Y0132394D01*
X0010361Y0130538D01*
X0011310Y0130145D01*
X0011234Y0130089D01*
X0010744Y0129599D01*
X0010337Y0129039D01*
X0010022Y0128422D01*
X0009808Y0127763D01*
X0009700Y0127079D01*
X0009700Y0124133D01*
X0013900Y0124133D01*
X0013900Y0123733D01*
X0014300Y0123733D01*
X0014300Y0116733D01*
X0014446Y0116733D01*
X0015130Y0116841D01*
X0015789Y0117055D01*
X0016406Y0117370D01*
X0016966Y0117777D01*
X0017456Y0118267D01*
X0017863Y0118827D01*
X0018178Y0119444D01*
X0018392Y0120103D01*
X0018500Y0120787D01*
X0018500Y0123733D01*
X0014300Y0123733D01*
X0014300Y0124133D01*
X0018500Y0124133D01*
X0018500Y0127079D01*
X0018392Y0127763D01*
X0018178Y0128422D01*
X0017863Y0129039D01*
X0017456Y0129599D01*
X0016966Y0130089D01*
X0016890Y0130145D01*
X0017839Y0130538D01*
X0018617Y0131316D01*
X0020117Y0129817D01*
X0019995Y0129649D01*
X0019652Y0128976D01*
X0019418Y0128257D01*
X0019300Y0127511D01*
X0019300Y0124333D01*
X0023700Y0124333D01*
X0023700Y0123533D01*
X0024500Y0123533D01*
X0024500Y0115937D01*
X0025224Y0116051D01*
X0025943Y0116285D01*
X0026616Y0116628D01*
X0027227Y0117072D01*
X0027761Y0117606D01*
X0028205Y0118217D01*
X0028300Y0118403D01*
X0028300Y0102833D01*
X0028065Y0103067D01*
X0025492Y0104133D01*
X0022708Y0104133D01*
X0020135Y0103067D01*
X0018617Y0101550D01*
X0017839Y0102328D01*
X0015413Y0103333D01*
X0012787Y0103333D01*
X0010361Y0102328D01*
X0008505Y0100472D01*
X0007500Y0098046D01*
X0007500Y0089820D01*
X0008505Y0087394D01*
X0010361Y0085538D01*
X0012787Y0084533D01*
X0015413Y0084533D01*
X0017839Y0085538D01*
X0018617Y0086316D01*
X0020135Y0084799D01*
X0022708Y0083733D01*
X0025492Y0083733D01*
X0028065Y0084799D01*
X0030034Y0086768D01*
X0030671Y0088306D01*
X0032385Y0089016D01*
X0034017Y0090648D01*
X0039017Y0095648D01*
X0039900Y0097779D01*
X0039900Y0200633D01*
X0050293Y0200633D01*
X0050135Y0200567D01*
X0048166Y0198598D01*
X0047100Y0196025D01*
X0047100Y0186841D01*
X0048166Y0184268D01*
X0050135Y0182299D01*
X0052708Y0181233D01*
X0055492Y0181233D01*
X0058065Y0182299D01*
X0060034Y0184268D01*
X0061100Y0186841D01*
X0061100Y0196025D01*
X0060034Y0198598D01*
X0058065Y0200567D01*
X0057907Y0200633D01*
X0060990Y0200633D01*
X0061490Y0200133D01*
X0066710Y0200133D01*
X0070400Y0203824D01*
X0070400Y0209043D01*
X0066710Y0212733D01*
X0061490Y0212733D01*
X0060990Y0212233D01*
X0057907Y0212233D01*
X0058065Y0212299D01*
X0060034Y0214268D01*
X0061100Y0216841D01*
X0061100Y0226025D01*
X0060034Y0228598D01*
X0058065Y0230567D01*
X0055492Y0231633D01*
X0052708Y0231633D01*
X0050135Y0230567D01*
X0048166Y0228598D01*
X0047100Y0226025D01*
X0047100Y0216841D01*
X0048166Y0214268D01*
X0050135Y0212299D01*
X0050293Y0212233D01*
X0039900Y0212233D01*
X0039900Y0229031D01*
X0044017Y0233148D01*
X0044900Y0235279D01*
X0044900Y0251531D01*
X0046502Y0253133D01*
X0311698Y0253133D01*
X0313300Y0251531D01*
X0313300Y0235279D01*
X0314183Y0233148D01*
X0315815Y0231516D01*
X0318300Y0229031D01*
X0318300Y0127779D01*
X0319183Y0125648D01*
X0320815Y0124016D01*
X0325815Y0119016D01*
X0327529Y0118306D01*
X0328166Y0116768D01*
X0330135Y0114799D01*
X0332708Y0113733D01*
X0335492Y0113733D01*
X0338065Y0114799D01*
X0339583Y0116316D01*
X0340361Y0115538D01*
X0342787Y0114533D01*
X0345413Y0114533D01*
X0347839Y0115538D01*
X0349695Y0117394D01*
X0350700Y0119820D01*
X0350700Y0128046D01*
X0349695Y0130472D01*
X0347839Y0132328D01*
X0346890Y0132721D01*
X0346966Y0132777D01*
X0347456Y0133267D01*
X0347863Y0133827D01*
X0348178Y0134444D01*
X0348392Y0135103D01*
X0348500Y0135787D01*
X0348500Y0138733D01*
X0344300Y0138733D01*
X0344300Y0139133D01*
X0348500Y0139133D01*
X0348500Y0142079D01*
X0348392Y0142763D01*
X0348178Y0143422D01*
X0347863Y0144039D01*
X0347456Y0144599D01*
X0346966Y0145089D01*
X0346406Y0145496D01*
X0345789Y0145811D01*
X0345130Y0146025D01*
X0344446Y0146133D01*
X0344300Y0146133D01*
X0344300Y0139133D01*
X0343900Y0139133D01*
X0343900Y0138733D01*
X0339700Y0138733D01*
X0339700Y0135787D01*
X0339808Y0135103D01*
X0340022Y0134444D01*
X0340337Y0133827D01*
X0340744Y0133267D01*
X0341234Y0132777D01*
X0341310Y0132721D01*
X0340361Y0132328D01*
X0339583Y0131550D01*
X0338083Y0133049D01*
X0338205Y0133217D01*
X0338548Y0133891D01*
X0338782Y0134609D01*
X0338900Y0135355D01*
X0338900Y0138533D01*
X0334500Y0138533D01*
X0334500Y0139333D01*
X0338900Y0139333D01*
X0338900Y0142511D01*
X0338782Y0143257D01*
X0338548Y0143976D01*
X0338205Y0144649D01*
X0337761Y0145260D01*
X0337227Y0145794D01*
X0336616Y0146238D01*
X0335943Y0146581D01*
X0335224Y0146815D01*
X0334500Y0146930D01*
X0334500Y0139333D01*
X0333700Y0139333D01*
X0333700Y0146930D01*
X0332976Y0146815D01*
X0332257Y0146581D01*
X0331584Y0146238D01*
X0330973Y0145794D01*
X0330439Y0145260D01*
X0329995Y0144649D01*
X0329900Y0144463D01*
X0329900Y0160034D01*
X0330135Y0159799D01*
X0332708Y0158733D01*
X0335492Y0158733D01*
X0338065Y0159799D01*
X0339583Y0161316D01*
X0340361Y0160538D01*
X0342787Y0159533D01*
X0345413Y0159533D01*
X0347839Y0160538D01*
X0349695Y0162394D01*
X0350700Y0164820D01*
X0350700Y0173046D01*
X0349695Y0175472D01*
X0347839Y0177328D01*
X0345413Y0178333D01*
X0342787Y0178333D01*
X0340361Y0177328D01*
X0339583Y0176550D01*
X0338065Y0178067D01*
X0335492Y0179133D01*
X0332708Y0179133D01*
X0330135Y0178067D01*
X0329900Y0177833D01*
X0329900Y0185903D01*
X0329995Y0185717D01*
X0330439Y0185106D01*
X0330973Y0184572D01*
X0331584Y0184128D01*
X0332257Y0183785D01*
X0332976Y0183551D01*
X0333700Y0183437D01*
X0333700Y0191033D01*
X0334500Y0191033D01*
X0334500Y0183437D01*
X0335224Y0183551D01*
X0335943Y0183785D01*
X0336616Y0184128D01*
X0337227Y0184572D01*
X0337761Y0185106D01*
X0338205Y0185717D01*
X0338548Y0186391D01*
X0338782Y0187109D01*
X0338900Y0187855D01*
X0338900Y0191033D01*
X0334500Y0191033D01*
X0334500Y0191833D01*
X0338900Y0191833D01*
X0338900Y0195011D01*
X0338782Y0195757D01*
X0338548Y0196476D01*
X0338205Y0197149D01*
X0337761Y0197760D01*
X0337227Y0198294D01*
X0336616Y0198738D01*
X0335943Y0199081D01*
X0335224Y0199315D01*
X0334500Y0199430D01*
X0334500Y0191833D01*
X0333700Y0191833D01*
X0333700Y0199430D01*
X0332976Y0199315D01*
X0332257Y0199081D01*
X0331584Y0198738D01*
X0330973Y0198294D01*
X0330439Y0197760D01*
X0329995Y0197149D01*
X0329900Y0196963D01*
X0329900Y0212534D01*
X0330135Y0212299D01*
X0332708Y0211233D01*
X0335492Y0211233D01*
X0338065Y0212299D01*
X0339583Y0213816D01*
X0340361Y0213038D01*
X0342787Y0212033D01*
X0345413Y0212033D01*
X0347839Y0213038D01*
X0349695Y0214894D01*
X0350700Y0217320D01*
X0350700Y0225546D01*
X0349695Y0227972D01*
X0347839Y0229828D01*
X0345413Y0230833D01*
X0342787Y0230833D01*
X0340361Y0229828D01*
X0339583Y0229050D01*
X0338065Y0230567D01*
X0335492Y0231633D01*
X0332708Y0231633D01*
X0330135Y0230567D01*
X0329900Y0230333D01*
X0329900Y0232587D01*
X0329017Y0234719D01*
X0324900Y0238836D01*
X0324900Y0243317D01*
X0324955Y0243078D01*
X0325403Y0241795D01*
X0325993Y0240571D01*
X0326716Y0239420D01*
X0327564Y0238358D01*
X0328524Y0237397D01*
X0329587Y0236549D01*
X0330738Y0235826D01*
X0331962Y0235237D01*
X0333245Y0234788D01*
X0334570Y0234485D01*
X0335920Y0234333D01*
X0336000Y0234333D01*
X0336000Y0245833D01*
X0337200Y0245833D01*
X0337200Y0234333D01*
X0337280Y0234333D01*
X0338630Y0234485D01*
X0339955Y0234788D01*
X0341238Y0235237D01*
X0342462Y0235826D01*
X0343613Y0236549D01*
X0344675Y0237397D01*
X0345636Y0238358D01*
X0346484Y0239420D01*
X0347207Y0240571D01*
X0347797Y0241795D01*
X0348245Y0243078D01*
X0348548Y0244403D01*
X0348700Y0245754D01*
X0348700Y0245833D01*
X0337200Y0245833D01*
X0337200Y0247033D01*
X0348700Y0247033D01*
X0348700Y0247113D01*
X0348548Y0248463D01*
X0348245Y0249788D01*
X0347797Y0251071D01*
X0347207Y0252295D01*
X0346484Y0253446D01*
X0345636Y0254509D01*
X0344675Y0255470D01*
X0343613Y0256317D01*
X0342462Y0257040D01*
X0341238Y0257630D01*
X0339955Y0258078D01*
X0338630Y0258381D01*
X0337280Y0258533D01*
X0337200Y0258533D01*
X0337200Y0247033D01*
X0336000Y0247033D01*
X0336000Y0258533D01*
X0335920Y0258533D01*
X0334570Y0258381D01*
X0333245Y0258078D01*
X0331962Y0257630D01*
X0330738Y0257040D01*
X0329587Y0256317D01*
X0328524Y0255470D01*
X0327564Y0254509D01*
X0326716Y0253446D01*
X0325993Y0252295D01*
X0325403Y0251071D01*
X0324955Y0249788D01*
X0324900Y0249549D01*
X0324900Y0255087D01*
X0324017Y0257219D01*
X0319902Y0261334D01*
X0352721Y0261334D01*
X0352721Y0047733D01*
X0315100Y0047733D01*
X0315100Y0053433D01*
X0309600Y0053433D01*
X0309600Y0054633D01*
X0315100Y0054633D01*
X0315100Y0064244D01*
X0314991Y0064651D01*
X0314780Y0065015D01*
X0314482Y0065313D01*
X0314118Y0065524D01*
X0313711Y0065633D01*
X0309600Y0065633D01*
X0309600Y0054633D01*
X0308400Y0054633D01*
X0308400Y0053433D01*
X0302900Y0053433D01*
X0302900Y0047733D01*
X0280300Y0047733D01*
X0280300Y0053433D01*
X0274800Y0053433D01*
X0274800Y0054633D01*
X0280300Y0054633D01*
X0280300Y0064244D01*
X0280191Y0064651D01*
X0279980Y0065015D01*
X0279682Y0065313D01*
X0279318Y0065524D01*
X0278911Y0065633D01*
X0274800Y0065633D01*
X0274800Y0054633D01*
X0273600Y0054633D01*
X0273600Y0053433D01*
X0268100Y0053433D01*
X0268100Y0047733D01*
X0090100Y0047733D01*
X0090100Y0053433D01*
X0084600Y0053433D01*
X0084600Y0054633D01*
X0090100Y0054633D01*
X0090100Y0064244D01*
X0089991Y0064651D01*
X0089780Y0065015D01*
X0089482Y0065313D01*
X0089118Y0065524D01*
X0088711Y0065633D01*
X0084600Y0065633D01*
X0084600Y0054633D01*
X0083400Y0054633D01*
X0083400Y0053433D01*
X0077900Y0053433D01*
X0077900Y0047733D01*
X0055300Y0047733D01*
X0055300Y0053433D01*
X0049800Y0053433D01*
X0049800Y0054633D01*
X0055300Y0054633D01*
X0055300Y0064244D01*
X0055191Y0064651D01*
X0054980Y0065015D01*
X0054682Y0065313D01*
X0054318Y0065524D01*
X0053911Y0065633D01*
X0049800Y0065633D01*
X0049800Y0054633D01*
X0048600Y0054633D01*
X0048600Y0053433D01*
X0043100Y0053433D01*
X0043100Y0047733D01*
X0005400Y0047733D01*
X0005400Y0048727D02*
X0043100Y0048727D01*
X0043100Y0049926D02*
X0005400Y0049926D01*
X0005400Y0051124D02*
X0043100Y0051124D01*
X0043100Y0052323D02*
X0025055Y0052323D01*
X0024955Y0052288D02*
X0026238Y0052737D01*
X0027462Y0053326D01*
X0028613Y0054049D01*
X0029675Y0054897D01*
X0030636Y0055858D01*
X0031484Y0056920D01*
X0032207Y0058071D01*
X0032797Y0059295D01*
X0033245Y0060578D01*
X0033548Y0061903D01*
X0033700Y0063254D01*
X0033700Y0063333D01*
X0022200Y0063333D01*
X0022200Y0051833D01*
X0022280Y0051833D01*
X0023630Y0051985D01*
X0024955Y0052288D01*
X0022200Y0052323D02*
X0021000Y0052323D01*
X0021000Y0051833D02*
X0021000Y0063333D01*
X0022200Y0063333D01*
X0022200Y0064533D01*
X0033700Y0064533D01*
X0033700Y0064613D01*
X0033548Y0065963D01*
X0033245Y0067288D01*
X0032797Y0068571D01*
X0032207Y0069795D01*
X0031484Y0070946D01*
X0030636Y0072009D01*
X0029675Y0072970D01*
X0028613Y0073817D01*
X0027462Y0074540D01*
X0026238Y0075130D01*
X0024955Y0075578D01*
X0023630Y0075881D01*
X0022280Y0076033D01*
X0022200Y0076033D01*
X0022200Y0064533D01*
X0021000Y0064533D01*
X0021000Y0063333D01*
X0009500Y0063333D01*
X0009500Y0063254D01*
X0009652Y0061903D01*
X0009955Y0060578D01*
X0010403Y0059295D01*
X0010993Y0058071D01*
X0011716Y0056920D01*
X0012564Y0055858D01*
X0013524Y0054897D01*
X0014587Y0054049D01*
X0015738Y0053326D01*
X0016962Y0052737D01*
X0018245Y0052288D01*
X0019570Y0051985D01*
X0020920Y0051833D01*
X0021000Y0051833D01*
X0021000Y0053521D02*
X0022200Y0053521D01*
X0022200Y0054720D02*
X0021000Y0054720D01*
X0021000Y0055918D02*
X0022200Y0055918D01*
X0022200Y0057117D02*
X0021000Y0057117D01*
X0021000Y0058315D02*
X0022200Y0058315D01*
X0022200Y0059514D02*
X0021000Y0059514D01*
X0021000Y0060712D02*
X0022200Y0060712D01*
X0022200Y0061911D02*
X0021000Y0061911D01*
X0021000Y0063109D02*
X0022200Y0063109D01*
X0022200Y0064308D02*
X0043117Y0064308D01*
X0043100Y0064244D02*
X0043209Y0064651D01*
X0043420Y0065015D01*
X0043718Y0065313D01*
X0044082Y0065524D01*
X0044489Y0065633D01*
X0048600Y0065633D01*
X0048600Y0054633D01*
X0043100Y0054633D01*
X0043100Y0064244D01*
X0043100Y0063109D02*
X0033684Y0063109D01*
X0033549Y0061911D02*
X0043100Y0061911D01*
X0043100Y0060712D02*
X0033276Y0060712D01*
X0032873Y0059514D02*
X0043100Y0059514D01*
X0043100Y0058315D02*
X0032325Y0058315D01*
X0031607Y0057117D02*
X0043100Y0057117D01*
X0043100Y0055918D02*
X0030685Y0055918D01*
X0029454Y0054720D02*
X0043100Y0054720D01*
X0048600Y0054720D02*
X0049800Y0054720D01*
X0049800Y0055918D02*
X0048600Y0055918D01*
X0048600Y0057117D02*
X0049800Y0057117D01*
X0049800Y0058315D02*
X0048600Y0058315D01*
X0048600Y0059514D02*
X0049800Y0059514D01*
X0049800Y0060712D02*
X0048600Y0060712D01*
X0048600Y0061911D02*
X0049800Y0061911D01*
X0049800Y0063109D02*
X0048600Y0063109D01*
X0048600Y0064308D02*
X0049800Y0064308D01*
X0049800Y0065506D02*
X0048600Y0065506D01*
X0054348Y0065506D02*
X0078852Y0065506D01*
X0078882Y0065524D02*
X0078518Y0065313D01*
X0078220Y0065015D01*
X0078009Y0064651D01*
X0077900Y0064244D01*
X0077900Y0054633D01*
X0083400Y0054633D01*
X0083400Y0065633D01*
X0079289Y0065633D01*
X0078882Y0065524D01*
X0077917Y0064308D02*
X0055283Y0064308D01*
X0055300Y0063109D02*
X0077900Y0063109D01*
X0077900Y0061911D02*
X0055300Y0061911D01*
X0055300Y0060712D02*
X0077900Y0060712D01*
X0077900Y0059514D02*
X0055300Y0059514D01*
X0055300Y0058315D02*
X0077900Y0058315D01*
X0077900Y0057117D02*
X0055300Y0057117D01*
X0055300Y0055918D02*
X0077900Y0055918D01*
X0077900Y0054720D02*
X0055300Y0054720D01*
X0055300Y0052323D02*
X0077900Y0052323D01*
X0077900Y0051124D02*
X0055300Y0051124D01*
X0055300Y0049926D02*
X0077900Y0049926D01*
X0077900Y0048727D02*
X0055300Y0048727D01*
X0049800Y0053521D02*
X0083400Y0053521D01*
X0083400Y0054720D02*
X0084600Y0054720D01*
X0084600Y0055918D02*
X0083400Y0055918D01*
X0083400Y0057117D02*
X0084600Y0057117D01*
X0084600Y0058315D02*
X0083400Y0058315D01*
X0083400Y0059514D02*
X0084600Y0059514D01*
X0084600Y0060712D02*
X0083400Y0060712D01*
X0083400Y0061911D02*
X0084600Y0061911D01*
X0084600Y0063109D02*
X0083400Y0063109D01*
X0083400Y0064308D02*
X0084600Y0064308D01*
X0084600Y0065506D02*
X0083400Y0065506D01*
X0089148Y0065506D02*
X0269052Y0065506D01*
X0269082Y0065524D02*
X0268718Y0065313D01*
X0268420Y0065015D01*
X0268209Y0064651D01*
X0268100Y0064244D01*
X0268100Y0054633D01*
X0273600Y0054633D01*
X0273600Y0065633D01*
X0269489Y0065633D01*
X0269082Y0065524D01*
X0268117Y0064308D02*
X0090083Y0064308D01*
X0090100Y0063109D02*
X0268100Y0063109D01*
X0268100Y0061911D02*
X0090100Y0061911D01*
X0090100Y0060712D02*
X0268100Y0060712D01*
X0268100Y0059514D02*
X0090100Y0059514D01*
X0090100Y0058315D02*
X0268100Y0058315D01*
X0268100Y0057117D02*
X0090100Y0057117D01*
X0090100Y0055918D02*
X0268100Y0055918D01*
X0268100Y0054720D02*
X0090100Y0054720D01*
X0090100Y0052323D02*
X0268100Y0052323D01*
X0268100Y0051124D02*
X0090100Y0051124D01*
X0090100Y0049926D02*
X0268100Y0049926D01*
X0268100Y0048727D02*
X0090100Y0048727D01*
X0084600Y0053521D02*
X0273600Y0053521D01*
X0273600Y0054720D02*
X0274800Y0054720D01*
X0274800Y0055918D02*
X0273600Y0055918D01*
X0273600Y0057117D02*
X0274800Y0057117D01*
X0274800Y0058315D02*
X0273600Y0058315D01*
X0273600Y0059514D02*
X0274800Y0059514D01*
X0274800Y0060712D02*
X0273600Y0060712D01*
X0273600Y0061911D02*
X0274800Y0061911D01*
X0274800Y0063109D02*
X0273600Y0063109D01*
X0273600Y0064308D02*
X0274800Y0064308D01*
X0274800Y0065506D02*
X0273600Y0065506D01*
X0279348Y0065506D02*
X0303852Y0065506D01*
X0303882Y0065524D02*
X0303518Y0065313D01*
X0303220Y0065015D01*
X0303009Y0064651D01*
X0302900Y0064244D01*
X0302900Y0054633D01*
X0308400Y0054633D01*
X0308400Y0065633D01*
X0304289Y0065633D01*
X0303882Y0065524D01*
X0302917Y0064308D02*
X0280283Y0064308D01*
X0280300Y0063109D02*
X0302900Y0063109D01*
X0302900Y0061911D02*
X0280300Y0061911D01*
X0280300Y0060712D02*
X0302900Y0060712D01*
X0302900Y0059514D02*
X0280300Y0059514D01*
X0280300Y0058315D02*
X0302900Y0058315D01*
X0302900Y0057117D02*
X0280300Y0057117D01*
X0280300Y0055918D02*
X0302900Y0055918D01*
X0302900Y0054720D02*
X0280300Y0054720D01*
X0280300Y0052323D02*
X0302900Y0052323D01*
X0302900Y0051124D02*
X0280300Y0051124D01*
X0280300Y0049926D02*
X0302900Y0049926D01*
X0302900Y0048727D02*
X0280300Y0048727D01*
X0274800Y0053521D02*
X0308400Y0053521D01*
X0308400Y0054720D02*
X0309600Y0054720D01*
X0309600Y0055918D02*
X0308400Y0055918D01*
X0308400Y0057117D02*
X0309600Y0057117D01*
X0309600Y0058315D02*
X0308400Y0058315D01*
X0308400Y0059514D02*
X0309600Y0059514D01*
X0309600Y0060712D02*
X0308400Y0060712D01*
X0308400Y0061911D02*
X0309600Y0061911D01*
X0309600Y0063109D02*
X0308400Y0063109D01*
X0308400Y0064308D02*
X0309600Y0064308D01*
X0309600Y0065506D02*
X0308400Y0065506D01*
X0314148Y0065506D02*
X0324601Y0065506D01*
X0324652Y0065963D02*
X0324500Y0064613D01*
X0324500Y0064533D01*
X0336000Y0064533D01*
X0336000Y0063333D01*
X0337200Y0063333D01*
X0337200Y0051833D01*
X0337280Y0051833D01*
X0338630Y0051985D01*
X0339955Y0052288D01*
X0341238Y0052737D01*
X0342462Y0053326D01*
X0343613Y0054049D01*
X0344675Y0054897D01*
X0345636Y0055858D01*
X0346484Y0056920D01*
X0347207Y0058071D01*
X0347797Y0059295D01*
X0348245Y0060578D01*
X0348548Y0061903D01*
X0348700Y0063254D01*
X0348700Y0063333D01*
X0337200Y0063333D01*
X0337200Y0064533D01*
X0348700Y0064533D01*
X0348700Y0064613D01*
X0348548Y0065963D01*
X0348245Y0067288D01*
X0347797Y0068571D01*
X0347207Y0069795D01*
X0346484Y0070946D01*
X0345636Y0072009D01*
X0344675Y0072970D01*
X0343613Y0073817D01*
X0342462Y0074540D01*
X0341238Y0075130D01*
X0339955Y0075578D01*
X0338630Y0075881D01*
X0337280Y0076033D01*
X0337200Y0076033D01*
X0337200Y0064533D01*
X0336000Y0064533D01*
X0336000Y0076033D01*
X0335920Y0076033D01*
X0334570Y0075881D01*
X0333245Y0075578D01*
X0331962Y0075130D01*
X0330738Y0074540D01*
X0329587Y0073817D01*
X0328524Y0072970D01*
X0327564Y0072009D01*
X0326716Y0070946D01*
X0325993Y0069795D01*
X0325403Y0068571D01*
X0324955Y0067288D01*
X0324652Y0065963D01*
X0324821Y0066705D02*
X0033379Y0066705D01*
X0033599Y0065506D02*
X0044052Y0065506D01*
X0033030Y0067903D02*
X0325170Y0067903D01*
X0325659Y0069102D02*
X0032541Y0069102D01*
X0031890Y0070300D02*
X0326310Y0070300D01*
X0327157Y0071499D02*
X0031043Y0071499D01*
X0029948Y0072697D02*
X0328252Y0072697D01*
X0329713Y0073896D02*
X0028487Y0073896D01*
X0026311Y0075094D02*
X0331889Y0075094D01*
X0336000Y0075094D02*
X0337200Y0075094D01*
X0337200Y0073896D02*
X0336000Y0073896D01*
X0336000Y0072697D02*
X0337200Y0072697D01*
X0337200Y0071499D02*
X0336000Y0071499D01*
X0336000Y0070300D02*
X0337200Y0070300D01*
X0337200Y0069102D02*
X0336000Y0069102D01*
X0336000Y0067903D02*
X0337200Y0067903D01*
X0337200Y0066705D02*
X0336000Y0066705D01*
X0336000Y0065506D02*
X0337200Y0065506D01*
X0337200Y0064308D02*
X0352721Y0064308D01*
X0352721Y0065506D02*
X0348599Y0065506D01*
X0348379Y0066705D02*
X0352721Y0066705D01*
X0352721Y0067903D02*
X0348030Y0067903D01*
X0347541Y0069102D02*
X0352721Y0069102D01*
X0352721Y0070300D02*
X0346890Y0070300D01*
X0346043Y0071499D02*
X0352721Y0071499D01*
X0352721Y0072697D02*
X0344948Y0072697D01*
X0343487Y0073896D02*
X0352721Y0073896D01*
X0352721Y0075094D02*
X0341311Y0075094D01*
X0352721Y0076293D02*
X0005400Y0076293D01*
X0005400Y0077491D02*
X0352721Y0077491D01*
X0352721Y0078690D02*
X0005400Y0078690D01*
X0005400Y0079888D02*
X0352721Y0079888D01*
X0352721Y0081087D02*
X0005400Y0081087D01*
X0005400Y0082285D02*
X0352721Y0082285D01*
X0352721Y0083484D02*
X0308602Y0083484D01*
X0308462Y0083403D02*
X0311038Y0084891D01*
X0313142Y0086995D01*
X0314630Y0089571D01*
X0315400Y0092445D01*
X0315400Y0170421D01*
X0314630Y0173295D01*
X0313142Y0175871D01*
X0311038Y0177975D01*
X0308462Y0179463D01*
X0305588Y0180233D01*
X0302612Y0180233D01*
X0299738Y0179463D01*
X0297162Y0177975D01*
X0295058Y0175871D01*
X0294100Y0174213D01*
X0293142Y0175871D01*
X0291038Y0177975D01*
X0288462Y0179463D01*
X0285588Y0180233D01*
X0282612Y0180233D01*
X0279738Y0179463D01*
X0277162Y0177975D01*
X0275058Y0175871D01*
X0273570Y0173295D01*
X0272800Y0170421D01*
X0272800Y0122445D01*
X0272800Y0092445D01*
X0273570Y0089571D01*
X0275058Y0086995D01*
X0277162Y0084891D01*
X0279738Y0083403D01*
X0282612Y0082633D01*
X0285588Y0082633D01*
X0288462Y0083403D01*
X0291038Y0084891D01*
X0293142Y0086995D01*
X0294100Y0088654D01*
X0295058Y0086995D01*
X0297162Y0084891D01*
X0299738Y0083403D01*
X0302612Y0082633D01*
X0305588Y0082633D01*
X0308462Y0083403D01*
X0310677Y0084682D02*
X0352721Y0084682D01*
X0352721Y0085881D02*
X0312029Y0085881D01*
X0313191Y0087079D02*
X0330965Y0087079D01*
X0330973Y0087072D02*
X0331584Y0086628D01*
X0332257Y0086285D01*
X0332976Y0086051D01*
X0333700Y0085937D01*
X0333700Y0093533D01*
X0334500Y0093533D01*
X0334500Y0085937D01*
X0335224Y0086051D01*
X0335943Y0086285D01*
X0336616Y0086628D01*
X0337227Y0087072D01*
X0337761Y0087606D01*
X0338205Y0088217D01*
X0338548Y0088891D01*
X0338782Y0089609D01*
X0338900Y0090355D01*
X0338900Y0093533D01*
X0334500Y0093533D01*
X0334500Y0094333D01*
X0338900Y0094333D01*
X0338900Y0097511D01*
X0338782Y0098257D01*
X0338548Y0098976D01*
X0338205Y0099649D01*
X0337761Y0100260D01*
X0337227Y0100794D01*
X0336616Y0101238D01*
X0335943Y0101581D01*
X0335224Y0101815D01*
X0334500Y0101930D01*
X0334500Y0094333D01*
X0333700Y0094333D01*
X0333700Y0093533D01*
X0329300Y0093533D01*
X0329300Y0090355D01*
X0329418Y0089609D01*
X0329652Y0088891D01*
X0329995Y0088217D01*
X0330439Y0087606D01*
X0330973Y0087072D01*
X0329964Y0088278D02*
X0313883Y0088278D01*
X0314575Y0089477D02*
X0329461Y0089477D01*
X0329300Y0090675D02*
X0314926Y0090675D01*
X0315247Y0091874D02*
X0329300Y0091874D01*
X0329300Y0093072D02*
X0315400Y0093072D01*
X0315400Y0094271D02*
X0333700Y0094271D01*
X0333700Y0094333D02*
X0329300Y0094333D01*
X0329300Y0097511D01*
X0329418Y0098257D01*
X0329652Y0098976D01*
X0329995Y0099649D01*
X0330439Y0100260D01*
X0330973Y0100794D01*
X0331584Y0101238D01*
X0332257Y0101581D01*
X0332976Y0101815D01*
X0333700Y0101930D01*
X0333700Y0094333D01*
X0334500Y0094271D02*
X0339700Y0094271D01*
X0339700Y0094133D02*
X0343900Y0094133D01*
X0343900Y0093733D01*
X0344300Y0093733D01*
X0344300Y0086733D01*
X0344446Y0086733D01*
X0345130Y0086841D01*
X0345789Y0087055D01*
X0346406Y0087370D01*
X0346966Y0087777D01*
X0347456Y0088267D01*
X0347863Y0088827D01*
X0348178Y0089444D01*
X0348392Y0090103D01*
X0348500Y0090787D01*
X0348500Y0093733D01*
X0344300Y0093733D01*
X0344300Y0094133D01*
X0348500Y0094133D01*
X0348500Y0097079D01*
X0348392Y0097763D01*
X0348178Y0098422D01*
X0347863Y0099039D01*
X0347456Y0099599D01*
X0346966Y0100089D01*
X0346406Y0100496D01*
X0345789Y0100811D01*
X0345130Y0101025D01*
X0344446Y0101133D01*
X0344300Y0101133D01*
X0344300Y0094133D01*
X0343900Y0094133D01*
X0343900Y0101133D01*
X0343754Y0101133D01*
X0343070Y0101025D01*
X0342411Y0100811D01*
X0341794Y0100496D01*
X0341234Y0100089D01*
X0340744Y0099599D01*
X0340337Y0099039D01*
X0340022Y0098422D01*
X0339808Y0097763D01*
X0339700Y0097079D01*
X0339700Y0094133D01*
X0339700Y0093733D02*
X0339700Y0090787D01*
X0339808Y0090103D01*
X0340022Y0089444D01*
X0340337Y0088827D01*
X0340744Y0088267D01*
X0341234Y0087777D01*
X0341794Y0087370D01*
X0342411Y0087055D01*
X0343070Y0086841D01*
X0343754Y0086733D01*
X0343900Y0086733D01*
X0343900Y0093733D01*
X0339700Y0093733D01*
X0339700Y0093072D02*
X0338900Y0093072D01*
X0338900Y0091874D02*
X0339700Y0091874D01*
X0339718Y0090675D02*
X0338900Y0090675D01*
X0338739Y0089477D02*
X0340012Y0089477D01*
X0340736Y0088278D02*
X0338236Y0088278D01*
X0337235Y0087079D02*
X0342364Y0087079D01*
X0343900Y0087079D02*
X0344300Y0087079D01*
X0344300Y0088278D02*
X0343900Y0088278D01*
X0343900Y0089477D02*
X0344300Y0089477D01*
X0344300Y0090675D02*
X0343900Y0090675D01*
X0343900Y0091874D02*
X0344300Y0091874D01*
X0344300Y0093072D02*
X0343900Y0093072D01*
X0343900Y0094271D02*
X0344300Y0094271D01*
X0344300Y0095469D02*
X0343900Y0095469D01*
X0343900Y0096668D02*
X0344300Y0096668D01*
X0344300Y0097866D02*
X0343900Y0097866D01*
X0343900Y0099065D02*
X0344300Y0099065D01*
X0344300Y0100263D02*
X0343900Y0100263D01*
X0341473Y0100263D02*
X0337758Y0100263D01*
X0338503Y0099065D02*
X0340355Y0099065D01*
X0339842Y0097866D02*
X0338844Y0097866D01*
X0338900Y0096668D02*
X0339700Y0096668D01*
X0339700Y0095469D02*
X0338900Y0095469D01*
X0334500Y0095469D02*
X0333700Y0095469D01*
X0333700Y0096668D02*
X0334500Y0096668D01*
X0334500Y0097866D02*
X0333700Y0097866D01*
X0333700Y0099065D02*
X0334500Y0099065D01*
X0334500Y0100263D02*
X0333700Y0100263D01*
X0333700Y0101462D02*
X0334500Y0101462D01*
X0336178Y0101462D02*
X0352721Y0101462D01*
X0352721Y0102660D02*
X0315400Y0102660D01*
X0315400Y0101462D02*
X0332022Y0101462D01*
X0330442Y0100263D02*
X0315400Y0100263D01*
X0315400Y0099065D02*
X0329697Y0099065D01*
X0329356Y0097866D02*
X0315400Y0097866D01*
X0315400Y0096668D02*
X0329300Y0096668D01*
X0329300Y0095469D02*
X0315400Y0095469D01*
X0315400Y0103859D02*
X0352721Y0103859D01*
X0352721Y0105057D02*
X0315400Y0105057D01*
X0315400Y0106256D02*
X0352721Y0106256D01*
X0352721Y0107454D02*
X0315400Y0107454D01*
X0315400Y0108653D02*
X0352721Y0108653D01*
X0352721Y0109851D02*
X0315400Y0109851D01*
X0315400Y0111050D02*
X0352721Y0111050D01*
X0352721Y0112248D02*
X0315400Y0112248D01*
X0315400Y0113447D02*
X0352721Y0113447D01*
X0352721Y0114645D02*
X0345684Y0114645D01*
X0348144Y0115844D02*
X0352721Y0115844D01*
X0352721Y0117042D02*
X0349343Y0117042D01*
X0350046Y0118241D02*
X0352721Y0118241D01*
X0352721Y0119439D02*
X0350542Y0119439D01*
X0350700Y0120638D02*
X0352721Y0120638D01*
X0352721Y0121836D02*
X0350700Y0121836D01*
X0350700Y0123035D02*
X0352721Y0123035D01*
X0352721Y0124233D02*
X0350700Y0124233D01*
X0350700Y0125432D02*
X0352721Y0125432D01*
X0352721Y0126630D02*
X0350700Y0126630D01*
X0350700Y0127829D02*
X0352721Y0127829D01*
X0352721Y0129027D02*
X0350293Y0129027D01*
X0349797Y0130226D02*
X0352721Y0130226D01*
X0352721Y0131424D02*
X0348742Y0131424D01*
X0347127Y0132623D02*
X0352721Y0132623D01*
X0352721Y0133821D02*
X0347859Y0133821D01*
X0348365Y0135020D02*
X0352721Y0135020D01*
X0352721Y0136218D02*
X0348500Y0136218D01*
X0348500Y0137417D02*
X0352721Y0137417D01*
X0352721Y0138615D02*
X0348500Y0138615D01*
X0348500Y0139814D02*
X0352721Y0139814D01*
X0352721Y0141012D02*
X0348500Y0141012D01*
X0348479Y0142211D02*
X0352721Y0142211D01*
X0352721Y0143410D02*
X0348182Y0143410D01*
X0347448Y0144608D02*
X0352721Y0144608D01*
X0352721Y0145807D02*
X0345797Y0145807D01*
X0344300Y0145807D02*
X0343900Y0145807D01*
X0343900Y0146133D02*
X0343754Y0146133D01*
X0343070Y0146025D01*
X0342411Y0145811D01*
X0341794Y0145496D01*
X0341234Y0145089D01*
X0340744Y0144599D01*
X0340337Y0144039D01*
X0340022Y0143422D01*
X0339808Y0142763D01*
X0339700Y0142079D01*
X0339700Y0139133D01*
X0343900Y0139133D01*
X0343900Y0146133D01*
X0343900Y0144608D02*
X0344300Y0144608D01*
X0344300Y0143410D02*
X0343900Y0143410D01*
X0343900Y0142211D02*
X0344300Y0142211D01*
X0344300Y0141012D02*
X0343900Y0141012D01*
X0343900Y0139814D02*
X0344300Y0139814D01*
X0339700Y0139814D02*
X0338900Y0139814D01*
X0338900Y0141012D02*
X0339700Y0141012D01*
X0339721Y0142211D02*
X0338900Y0142211D01*
X0338732Y0143410D02*
X0340018Y0143410D01*
X0340752Y0144608D02*
X0338226Y0144608D01*
X0337210Y0145807D02*
X0342403Y0145807D01*
X0334500Y0145807D02*
X0333700Y0145807D01*
X0333700Y0144608D02*
X0334500Y0144608D01*
X0334500Y0143410D02*
X0333700Y0143410D01*
X0333700Y0142211D02*
X0334500Y0142211D01*
X0334500Y0141012D02*
X0333700Y0141012D01*
X0333700Y0139814D02*
X0334500Y0139814D01*
X0334500Y0138615D02*
X0339700Y0138615D01*
X0339700Y0137417D02*
X0338900Y0137417D01*
X0338900Y0136218D02*
X0339700Y0136218D01*
X0339835Y0135020D02*
X0338847Y0135020D01*
X0338513Y0133821D02*
X0340341Y0133821D01*
X0341073Y0132623D02*
X0338510Y0132623D01*
X0324193Y0120638D02*
X0315400Y0120638D01*
X0315400Y0121836D02*
X0322994Y0121836D01*
X0321796Y0123035D02*
X0315400Y0123035D01*
X0315400Y0124233D02*
X0320597Y0124233D01*
X0319399Y0125432D02*
X0315400Y0125432D01*
X0315400Y0126630D02*
X0318776Y0126630D01*
X0318300Y0127829D02*
X0315400Y0127829D01*
X0315400Y0129027D02*
X0318300Y0129027D01*
X0318300Y0130226D02*
X0315400Y0130226D01*
X0315400Y0131424D02*
X0318300Y0131424D01*
X0318300Y0132623D02*
X0315400Y0132623D01*
X0315400Y0133821D02*
X0318300Y0133821D01*
X0318300Y0135020D02*
X0315400Y0135020D01*
X0315400Y0136218D02*
X0318300Y0136218D01*
X0318300Y0137417D02*
X0315400Y0137417D01*
X0315400Y0138615D02*
X0318300Y0138615D01*
X0318300Y0139814D02*
X0315400Y0139814D01*
X0315400Y0141012D02*
X0318300Y0141012D01*
X0318300Y0142211D02*
X0315400Y0142211D01*
X0315400Y0143410D02*
X0318300Y0143410D01*
X0318300Y0144608D02*
X0315400Y0144608D01*
X0315400Y0145807D02*
X0318300Y0145807D01*
X0318300Y0147005D02*
X0315400Y0147005D01*
X0315400Y0148204D02*
X0318300Y0148204D01*
X0318300Y0149402D02*
X0315400Y0149402D01*
X0315400Y0150601D02*
X0318300Y0150601D01*
X0318300Y0151799D02*
X0315400Y0151799D01*
X0315400Y0152998D02*
X0318300Y0152998D01*
X0318300Y0154196D02*
X0315400Y0154196D01*
X0315400Y0155395D02*
X0318300Y0155395D01*
X0318300Y0156593D02*
X0315400Y0156593D01*
X0315400Y0157792D02*
X0318300Y0157792D01*
X0318300Y0158990D02*
X0315400Y0158990D01*
X0315400Y0160189D02*
X0318300Y0160189D01*
X0318300Y0161387D02*
X0315400Y0161387D01*
X0315400Y0162586D02*
X0318300Y0162586D01*
X0318300Y0163784D02*
X0315400Y0163784D01*
X0315400Y0164983D02*
X0318300Y0164983D01*
X0318300Y0166181D02*
X0315400Y0166181D01*
X0315400Y0167380D02*
X0318300Y0167380D01*
X0318300Y0168578D02*
X0315400Y0168578D01*
X0315400Y0169777D02*
X0318300Y0169777D01*
X0318300Y0170975D02*
X0315251Y0170975D01*
X0314930Y0172174D02*
X0318300Y0172174D01*
X0318300Y0173372D02*
X0314585Y0173372D01*
X0313893Y0174571D02*
X0318300Y0174571D01*
X0318300Y0175769D02*
X0313201Y0175769D01*
X0312046Y0176968D02*
X0318300Y0176968D01*
X0318300Y0178166D02*
X0310707Y0178166D01*
X0308632Y0179365D02*
X0318300Y0179365D01*
X0318300Y0180563D02*
X0272200Y0180563D01*
X0272200Y0179365D02*
X0279568Y0179365D01*
X0277493Y0178166D02*
X0272200Y0178166D01*
X0272200Y0176968D02*
X0276154Y0176968D01*
X0274999Y0175769D02*
X0272200Y0175769D01*
X0272200Y0174571D02*
X0274307Y0174571D01*
X0273615Y0173372D02*
X0272200Y0173372D01*
X0272200Y0172174D02*
X0273270Y0172174D01*
X0272949Y0170975D02*
X0272200Y0170975D01*
X0272200Y0169777D02*
X0272800Y0169777D01*
X0272800Y0168578D02*
X0272200Y0168578D01*
X0272200Y0167380D02*
X0272800Y0167380D01*
X0272800Y0166181D02*
X0272200Y0166181D01*
X0272200Y0164983D02*
X0272800Y0164983D01*
X0272800Y0163784D02*
X0272200Y0163784D01*
X0272200Y0162586D02*
X0272800Y0162586D01*
X0272800Y0161387D02*
X0272200Y0161387D01*
X0272200Y0160189D02*
X0272800Y0160189D01*
X0272800Y0158990D02*
X0272200Y0158990D01*
X0272200Y0157792D02*
X0272800Y0157792D01*
X0272800Y0156593D02*
X0272200Y0156593D01*
X0272200Y0155395D02*
X0272800Y0155395D01*
X0272800Y0154196D02*
X0272200Y0154196D01*
X0272200Y0152998D02*
X0272800Y0152998D01*
X0272800Y0151799D02*
X0272200Y0151799D01*
X0272200Y0150601D02*
X0272800Y0150601D01*
X0272800Y0149402D02*
X0272200Y0149402D01*
X0272200Y0148204D02*
X0272800Y0148204D01*
X0272800Y0147005D02*
X0272200Y0147005D01*
X0272200Y0145807D02*
X0272800Y0145807D01*
X0272800Y0144608D02*
X0272200Y0144608D01*
X0272200Y0143410D02*
X0272800Y0143410D01*
X0272800Y0142211D02*
X0272200Y0142211D01*
X0272200Y0141012D02*
X0272800Y0141012D01*
X0272800Y0139814D02*
X0272200Y0139814D01*
X0272200Y0138615D02*
X0272800Y0138615D01*
X0272800Y0137417D02*
X0272200Y0137417D01*
X0272200Y0136218D02*
X0272800Y0136218D01*
X0272800Y0135020D02*
X0272200Y0135020D01*
X0272200Y0133821D02*
X0272800Y0133821D01*
X0272800Y0132623D02*
X0272200Y0132623D01*
X0272200Y0131424D02*
X0272800Y0131424D01*
X0272800Y0130226D02*
X0272200Y0130226D01*
X0272200Y0129027D02*
X0272800Y0129027D01*
X0272800Y0127829D02*
X0272200Y0127829D01*
X0272200Y0126630D02*
X0272800Y0126630D01*
X0272800Y0125432D02*
X0272200Y0125432D01*
X0272200Y0125544D02*
X0272200Y0095544D01*
X0272200Y0089822D01*
X0270967Y0086845D01*
X0268688Y0084566D01*
X0265711Y0083333D01*
X0262489Y0083333D01*
X0259512Y0084566D01*
X0257233Y0086845D01*
X0256000Y0089822D01*
X0256000Y0225544D01*
X0257233Y0228521D01*
X0259512Y0230800D01*
X0262489Y0232033D01*
X0265711Y0232033D01*
X0268688Y0230800D01*
X0270967Y0228521D01*
X0272200Y0225544D01*
X0272200Y0125544D01*
X0272200Y0124233D02*
X0272800Y0124233D01*
X0272800Y0123035D02*
X0272200Y0123035D01*
X0272200Y0121836D02*
X0272800Y0121836D01*
X0272800Y0120638D02*
X0272200Y0120638D01*
X0272200Y0119439D02*
X0272800Y0119439D01*
X0272800Y0118241D02*
X0272200Y0118241D01*
X0272200Y0117042D02*
X0272800Y0117042D01*
X0272800Y0115844D02*
X0272200Y0115844D01*
X0272200Y0114645D02*
X0272800Y0114645D01*
X0272800Y0113447D02*
X0272200Y0113447D01*
X0272200Y0112248D02*
X0272800Y0112248D01*
X0272800Y0111050D02*
X0272200Y0111050D01*
X0272200Y0109851D02*
X0272800Y0109851D01*
X0272800Y0108653D02*
X0272200Y0108653D01*
X0272200Y0107454D02*
X0272800Y0107454D01*
X0272800Y0106256D02*
X0272200Y0106256D01*
X0272200Y0105057D02*
X0272800Y0105057D01*
X0272800Y0103859D02*
X0272200Y0103859D01*
X0272200Y0102660D02*
X0272800Y0102660D01*
X0272800Y0101462D02*
X0272200Y0101462D01*
X0272200Y0100263D02*
X0272800Y0100263D01*
X0272800Y0099065D02*
X0272200Y0099065D01*
X0272200Y0097866D02*
X0272800Y0097866D01*
X0272800Y0096668D02*
X0272200Y0096668D01*
X0272200Y0095469D02*
X0272800Y0095469D01*
X0272800Y0094271D02*
X0272200Y0094271D01*
X0272200Y0093072D02*
X0272800Y0093072D01*
X0272953Y0091874D02*
X0272200Y0091874D01*
X0272200Y0090675D02*
X0273274Y0090675D01*
X0273625Y0089477D02*
X0272057Y0089477D01*
X0271560Y0088278D02*
X0274317Y0088278D01*
X0275009Y0087079D02*
X0271064Y0087079D01*
X0270003Y0085881D02*
X0276171Y0085881D01*
X0277523Y0084682D02*
X0268805Y0084682D01*
X0266075Y0083484D02*
X0279598Y0083484D01*
X0288602Y0083484D02*
X0299598Y0083484D01*
X0297523Y0084682D02*
X0290677Y0084682D01*
X0292029Y0085881D02*
X0296171Y0085881D01*
X0295009Y0087079D02*
X0293191Y0087079D01*
X0293883Y0088278D02*
X0294317Y0088278D01*
X0315083Y0064308D02*
X0336000Y0064308D01*
X0336000Y0063333D02*
X0324500Y0063333D01*
X0324500Y0063254D01*
X0324652Y0061903D01*
X0324955Y0060578D01*
X0325403Y0059295D01*
X0325993Y0058071D01*
X0326716Y0056920D01*
X0327564Y0055858D01*
X0328524Y0054897D01*
X0329587Y0054049D01*
X0330738Y0053326D01*
X0331962Y0052737D01*
X0333245Y0052288D01*
X0334570Y0051985D01*
X0335920Y0051833D01*
X0336000Y0051833D01*
X0336000Y0063333D01*
X0336000Y0063109D02*
X0337200Y0063109D01*
X0337200Y0061911D02*
X0336000Y0061911D01*
X0336000Y0060712D02*
X0337200Y0060712D01*
X0337200Y0059514D02*
X0336000Y0059514D01*
X0336000Y0058315D02*
X0337200Y0058315D01*
X0337200Y0057117D02*
X0336000Y0057117D01*
X0336000Y0055918D02*
X0337200Y0055918D01*
X0337200Y0054720D02*
X0336000Y0054720D01*
X0336000Y0053521D02*
X0337200Y0053521D01*
X0337200Y0052323D02*
X0336000Y0052323D01*
X0333145Y0052323D02*
X0315100Y0052323D01*
X0315100Y0051124D02*
X0352721Y0051124D01*
X0352721Y0049926D02*
X0315100Y0049926D01*
X0315100Y0048727D02*
X0352721Y0048727D01*
X0352721Y0052323D02*
X0340055Y0052323D01*
X0342773Y0053521D02*
X0352721Y0053521D01*
X0352721Y0054720D02*
X0344454Y0054720D01*
X0345685Y0055918D02*
X0352721Y0055918D01*
X0352721Y0057117D02*
X0346607Y0057117D01*
X0347325Y0058315D02*
X0352721Y0058315D01*
X0352721Y0059514D02*
X0347873Y0059514D01*
X0348276Y0060712D02*
X0352721Y0060712D01*
X0352721Y0061911D02*
X0348549Y0061911D01*
X0348684Y0063109D02*
X0352721Y0063109D01*
X0330427Y0053521D02*
X0309600Y0053521D01*
X0315100Y0054720D02*
X0328746Y0054720D01*
X0327515Y0055918D02*
X0315100Y0055918D01*
X0315100Y0057117D02*
X0326593Y0057117D01*
X0325875Y0058315D02*
X0315100Y0058315D01*
X0315100Y0059514D02*
X0325327Y0059514D01*
X0324924Y0060712D02*
X0315100Y0060712D01*
X0315100Y0061911D02*
X0324651Y0061911D01*
X0324516Y0063109D02*
X0315100Y0063109D01*
X0333700Y0087079D02*
X0334500Y0087079D01*
X0334500Y0088278D02*
X0333700Y0088278D01*
X0333700Y0089477D02*
X0334500Y0089477D01*
X0334500Y0090675D02*
X0333700Y0090675D01*
X0333700Y0091874D02*
X0334500Y0091874D01*
X0334500Y0093072D02*
X0333700Y0093072D01*
X0345836Y0087079D02*
X0352721Y0087079D01*
X0352721Y0088278D02*
X0347464Y0088278D01*
X0348188Y0089477D02*
X0352721Y0089477D01*
X0352721Y0090675D02*
X0348482Y0090675D01*
X0348500Y0091874D02*
X0352721Y0091874D01*
X0352721Y0093072D02*
X0348500Y0093072D01*
X0348500Y0094271D02*
X0352721Y0094271D01*
X0352721Y0095469D02*
X0348500Y0095469D01*
X0348500Y0096668D02*
X0352721Y0096668D01*
X0352721Y0097866D02*
X0348358Y0097866D01*
X0347845Y0099065D02*
X0352721Y0099065D01*
X0352721Y0100263D02*
X0346727Y0100263D01*
X0342516Y0114645D02*
X0337695Y0114645D01*
X0339110Y0115844D02*
X0340055Y0115844D01*
X0330505Y0114645D02*
X0315400Y0114645D01*
X0315400Y0115844D02*
X0329090Y0115844D01*
X0328052Y0117042D02*
X0315400Y0117042D01*
X0315400Y0118241D02*
X0327556Y0118241D01*
X0325391Y0119439D02*
X0315400Y0119439D01*
X0329900Y0144608D02*
X0329974Y0144608D01*
X0329900Y0145807D02*
X0330990Y0145807D01*
X0329900Y0147005D02*
X0352721Y0147005D01*
X0352721Y0148204D02*
X0329900Y0148204D01*
X0329900Y0149402D02*
X0352721Y0149402D01*
X0352721Y0150601D02*
X0329900Y0150601D01*
X0329900Y0151799D02*
X0352721Y0151799D01*
X0352721Y0152998D02*
X0329900Y0152998D01*
X0329900Y0154196D02*
X0352721Y0154196D01*
X0352721Y0155395D02*
X0329900Y0155395D01*
X0329900Y0156593D02*
X0352721Y0156593D01*
X0352721Y0157792D02*
X0329900Y0157792D01*
X0329900Y0158990D02*
X0332087Y0158990D01*
X0336113Y0158990D02*
X0352721Y0158990D01*
X0352721Y0160189D02*
X0346996Y0160189D01*
X0348688Y0161387D02*
X0352721Y0161387D01*
X0352721Y0162586D02*
X0349774Y0162586D01*
X0350271Y0163784D02*
X0352721Y0163784D01*
X0352721Y0164983D02*
X0350700Y0164983D01*
X0350700Y0166181D02*
X0352721Y0166181D01*
X0352721Y0167380D02*
X0350700Y0167380D01*
X0350700Y0168578D02*
X0352721Y0168578D01*
X0352721Y0169777D02*
X0350700Y0169777D01*
X0350700Y0170975D02*
X0352721Y0170975D01*
X0352721Y0172174D02*
X0350700Y0172174D01*
X0350565Y0173372D02*
X0352721Y0173372D01*
X0352721Y0174571D02*
X0350068Y0174571D01*
X0349398Y0175769D02*
X0352721Y0175769D01*
X0352721Y0176968D02*
X0348199Y0176968D01*
X0345815Y0178166D02*
X0352721Y0178166D01*
X0352721Y0179365D02*
X0329900Y0179365D01*
X0329900Y0180563D02*
X0352721Y0180563D01*
X0352721Y0181762D02*
X0329900Y0181762D01*
X0329900Y0182960D02*
X0352721Y0182960D01*
X0352721Y0184159D02*
X0336659Y0184159D01*
X0337944Y0185357D02*
X0341153Y0185357D01*
X0341234Y0185277D02*
X0341794Y0184870D01*
X0342411Y0184555D01*
X0343070Y0184341D01*
X0343754Y0184233D01*
X0343900Y0184233D01*
X0343900Y0191233D01*
X0344300Y0191233D01*
X0344300Y0184233D01*
X0344446Y0184233D01*
X0345130Y0184341D01*
X0345789Y0184555D01*
X0346406Y0184870D01*
X0346966Y0185277D01*
X0347456Y0185767D01*
X0347863Y0186327D01*
X0348178Y0186944D01*
X0348392Y0187603D01*
X0348500Y0188287D01*
X0348500Y0191233D01*
X0344300Y0191233D01*
X0344300Y0191633D01*
X0348500Y0191633D01*
X0348500Y0194579D01*
X0348392Y0195263D01*
X0348178Y0195922D01*
X0347863Y0196539D01*
X0347456Y0197099D01*
X0346966Y0197589D01*
X0346406Y0197996D01*
X0345789Y0198311D01*
X0345130Y0198525D01*
X0344446Y0198633D01*
X0344300Y0198633D01*
X0344300Y0191633D01*
X0343900Y0191633D01*
X0343900Y0191233D01*
X0339700Y0191233D01*
X0339700Y0188287D01*
X0339808Y0187603D01*
X0340022Y0186944D01*
X0340337Y0186327D01*
X0340744Y0185767D01*
X0341234Y0185277D01*
X0340220Y0186556D02*
X0338602Y0186556D01*
X0338884Y0187754D02*
X0339784Y0187754D01*
X0339700Y0188953D02*
X0338900Y0188953D01*
X0338900Y0190151D02*
X0339700Y0190151D01*
X0339700Y0191633D02*
X0343900Y0191633D01*
X0343900Y0198633D01*
X0343754Y0198633D01*
X0343070Y0198525D01*
X0342411Y0198311D01*
X0341794Y0197996D01*
X0341234Y0197589D01*
X0340744Y0197099D01*
X0340337Y0196539D01*
X0340022Y0195922D01*
X0339808Y0195263D01*
X0339700Y0194579D01*
X0339700Y0191633D01*
X0339700Y0192548D02*
X0338900Y0192548D01*
X0338900Y0193747D02*
X0339700Y0193747D01*
X0339758Y0194945D02*
X0338900Y0194945D01*
X0338656Y0196144D02*
X0340135Y0196144D01*
X0340987Y0197343D02*
X0338065Y0197343D01*
X0336887Y0198541D02*
X0343173Y0198541D01*
X0343900Y0198541D02*
X0344300Y0198541D01*
X0345027Y0198541D02*
X0352721Y0198541D01*
X0352721Y0197343D02*
X0347213Y0197343D01*
X0348065Y0196144D02*
X0352721Y0196144D01*
X0352721Y0194945D02*
X0348442Y0194945D01*
X0348500Y0193747D02*
X0352721Y0193747D01*
X0352721Y0192548D02*
X0348500Y0192548D01*
X0348500Y0190151D02*
X0352721Y0190151D01*
X0352721Y0188953D02*
X0348500Y0188953D01*
X0348416Y0187754D02*
X0352721Y0187754D01*
X0352721Y0186556D02*
X0347980Y0186556D01*
X0347047Y0185357D02*
X0352721Y0185357D01*
X0352721Y0191350D02*
X0344300Y0191350D01*
X0343900Y0191350D02*
X0334500Y0191350D01*
X0334500Y0192548D02*
X0333700Y0192548D01*
X0333700Y0193747D02*
X0334500Y0193747D01*
X0334500Y0194945D02*
X0333700Y0194945D01*
X0333700Y0196144D02*
X0334500Y0196144D01*
X0334500Y0197343D02*
X0333700Y0197343D01*
X0333700Y0198541D02*
X0334500Y0198541D01*
X0331313Y0198541D02*
X0329900Y0198541D01*
X0329900Y0197343D02*
X0330135Y0197343D01*
X0329900Y0199740D02*
X0352721Y0199740D01*
X0352721Y0200938D02*
X0329900Y0200938D01*
X0329900Y0202137D02*
X0352721Y0202137D01*
X0352721Y0203335D02*
X0329900Y0203335D01*
X0329900Y0204534D02*
X0352721Y0204534D01*
X0352721Y0205732D02*
X0329900Y0205732D01*
X0329900Y0206931D02*
X0352721Y0206931D01*
X0352721Y0208129D02*
X0329900Y0208129D01*
X0329900Y0209328D02*
X0352721Y0209328D01*
X0352721Y0210526D02*
X0329900Y0210526D01*
X0329900Y0211725D02*
X0331521Y0211725D01*
X0336679Y0211725D02*
X0352721Y0211725D01*
X0352721Y0212923D02*
X0347562Y0212923D01*
X0348922Y0214122D02*
X0352721Y0214122D01*
X0352721Y0215320D02*
X0349872Y0215320D01*
X0350368Y0216519D02*
X0352721Y0216519D01*
X0352721Y0217717D02*
X0350700Y0217717D01*
X0350700Y0218916D02*
X0352721Y0218916D01*
X0352721Y0220114D02*
X0350700Y0220114D01*
X0350700Y0221313D02*
X0352721Y0221313D01*
X0352721Y0222511D02*
X0350700Y0222511D01*
X0350700Y0223710D02*
X0352721Y0223710D01*
X0352721Y0224908D02*
X0350700Y0224908D01*
X0350468Y0226107D02*
X0352721Y0226107D01*
X0352721Y0227305D02*
X0349971Y0227305D01*
X0349163Y0228504D02*
X0352721Y0228504D01*
X0352721Y0229702D02*
X0347965Y0229702D01*
X0352721Y0230901D02*
X0337260Y0230901D01*
X0338930Y0229702D02*
X0340235Y0229702D01*
X0338679Y0234496D02*
X0352721Y0234496D01*
X0352721Y0233298D02*
X0329605Y0233298D01*
X0329900Y0232099D02*
X0352721Y0232099D01*
X0352721Y0235695D02*
X0342190Y0235695D01*
X0344045Y0236893D02*
X0352721Y0236893D01*
X0352721Y0238092D02*
X0345371Y0238092D01*
X0346380Y0239290D02*
X0352721Y0239290D01*
X0352721Y0240489D02*
X0347155Y0240489D01*
X0347745Y0241687D02*
X0352721Y0241687D01*
X0352721Y0242886D02*
X0348178Y0242886D01*
X0348475Y0244084D02*
X0352721Y0244084D01*
X0352721Y0245283D02*
X0348647Y0245283D01*
X0348636Y0247680D02*
X0352721Y0247680D01*
X0352721Y0248879D02*
X0348453Y0248879D01*
X0348144Y0250077D02*
X0352721Y0250077D01*
X0352721Y0251276D02*
X0347698Y0251276D01*
X0347095Y0252474D02*
X0352721Y0252474D01*
X0352721Y0253673D02*
X0346303Y0253673D01*
X0345274Y0254871D02*
X0352721Y0254871D01*
X0352721Y0256070D02*
X0343923Y0256070D01*
X0341988Y0257268D02*
X0352721Y0257268D01*
X0352721Y0258467D02*
X0337869Y0258467D01*
X0337200Y0258467D02*
X0336000Y0258467D01*
X0335331Y0258467D02*
X0322769Y0258467D01*
X0321570Y0259665D02*
X0352721Y0259665D01*
X0352721Y0260864D02*
X0320372Y0260864D01*
X0323967Y0257268D02*
X0331212Y0257268D01*
X0329277Y0256070D02*
X0324493Y0256070D01*
X0324900Y0254871D02*
X0327926Y0254871D01*
X0326897Y0253673D02*
X0324900Y0253673D01*
X0324900Y0252474D02*
X0326105Y0252474D01*
X0325502Y0251276D02*
X0324900Y0251276D01*
X0324900Y0250077D02*
X0325056Y0250077D01*
X0336000Y0250077D02*
X0337200Y0250077D01*
X0337200Y0248879D02*
X0336000Y0248879D01*
X0336000Y0247680D02*
X0337200Y0247680D01*
X0337200Y0246481D02*
X0352721Y0246481D01*
X0337200Y0245283D02*
X0336000Y0245283D01*
X0336000Y0244084D02*
X0337200Y0244084D01*
X0337200Y0242886D02*
X0336000Y0242886D01*
X0336000Y0241687D02*
X0337200Y0241687D01*
X0337200Y0240489D02*
X0336000Y0240489D01*
X0336000Y0239290D02*
X0337200Y0239290D01*
X0337200Y0238092D02*
X0336000Y0238092D01*
X0336000Y0236893D02*
X0337200Y0236893D01*
X0337200Y0235695D02*
X0336000Y0235695D01*
X0336000Y0234496D02*
X0337200Y0234496D01*
X0334521Y0234496D02*
X0329109Y0234496D01*
X0328041Y0235695D02*
X0331010Y0235695D01*
X0329155Y0236893D02*
X0326842Y0236893D01*
X0327829Y0238092D02*
X0325644Y0238092D01*
X0324900Y0239290D02*
X0326820Y0239290D01*
X0326045Y0240489D02*
X0324900Y0240489D01*
X0324900Y0241687D02*
X0325455Y0241687D01*
X0325022Y0242886D02*
X0324900Y0242886D01*
X0313300Y0242886D02*
X0044900Y0242886D01*
X0044900Y0244084D02*
X0313300Y0244084D01*
X0313300Y0245283D02*
X0044900Y0245283D01*
X0044900Y0246481D02*
X0313300Y0246481D01*
X0313300Y0247680D02*
X0044900Y0247680D01*
X0044900Y0248879D02*
X0313300Y0248879D01*
X0313300Y0250077D02*
X0044900Y0250077D01*
X0044900Y0251276D02*
X0313300Y0251276D01*
X0312357Y0252474D02*
X0045843Y0252474D01*
X0037828Y0260864D02*
X0005400Y0260864D01*
X0005400Y0259665D02*
X0036630Y0259665D01*
X0035431Y0258467D02*
X0022869Y0258467D01*
X0022200Y0258467D02*
X0021000Y0258467D01*
X0021000Y0258533D02*
X0020920Y0258533D01*
X0019570Y0258381D01*
X0018245Y0258078D01*
X0016962Y0257630D01*
X0015738Y0257040D01*
X0014587Y0256317D01*
X0013524Y0255470D01*
X0012564Y0254509D01*
X0011716Y0253446D01*
X0010993Y0252295D01*
X0010403Y0251071D01*
X0009955Y0249788D01*
X0009652Y0248463D01*
X0009500Y0247113D01*
X0009500Y0247033D01*
X0021000Y0247033D01*
X0021000Y0258533D01*
X0020331Y0258467D02*
X0005400Y0258467D01*
X0005400Y0257268D02*
X0016212Y0257268D01*
X0014277Y0256070D02*
X0005400Y0256070D01*
X0005400Y0254871D02*
X0012926Y0254871D01*
X0011897Y0253673D02*
X0005400Y0253673D01*
X0005400Y0252474D02*
X0011105Y0252474D01*
X0010502Y0251276D02*
X0005400Y0251276D01*
X0005400Y0250077D02*
X0010056Y0250077D01*
X0009747Y0248879D02*
X0005400Y0248879D01*
X0005400Y0247680D02*
X0009564Y0247680D01*
X0009500Y0245833D02*
X0009500Y0245754D01*
X0009652Y0244403D01*
X0009955Y0243078D01*
X0010403Y0241795D01*
X0010993Y0240571D01*
X0011716Y0239420D01*
X0012564Y0238358D01*
X0013524Y0237397D01*
X0014587Y0236549D01*
X0015738Y0235826D01*
X0016962Y0235237D01*
X0018245Y0234788D01*
X0019570Y0234485D01*
X0020920Y0234333D01*
X0021000Y0234333D01*
X0021000Y0245833D01*
X0009500Y0245833D01*
X0009553Y0245283D02*
X0005400Y0245283D01*
X0005400Y0246481D02*
X0021000Y0246481D01*
X0021000Y0245283D02*
X0022200Y0245283D01*
X0022200Y0244084D02*
X0021000Y0244084D01*
X0021000Y0242886D02*
X0022200Y0242886D01*
X0022200Y0241687D02*
X0021000Y0241687D01*
X0021000Y0240489D02*
X0022200Y0240489D01*
X0022200Y0239290D02*
X0021000Y0239290D01*
X0021000Y0238092D02*
X0022200Y0238092D01*
X0022200Y0236893D02*
X0021000Y0236893D01*
X0021000Y0235695D02*
X0022200Y0235695D01*
X0022200Y0234496D02*
X0021000Y0234496D01*
X0019521Y0234496D02*
X0005400Y0234496D01*
X0005400Y0233298D02*
X0028595Y0233298D01*
X0028300Y0232099D02*
X0005400Y0232099D01*
X0005400Y0230901D02*
X0028300Y0230901D01*
X0028300Y0229702D02*
X0005400Y0229702D01*
X0005400Y0228504D02*
X0013005Y0228504D01*
X0013070Y0228525D02*
X0012411Y0228311D01*
X0011794Y0227996D01*
X0011234Y0227589D01*
X0010744Y0227099D01*
X0010337Y0226539D01*
X0010022Y0225922D01*
X0009808Y0225263D01*
X0009700Y0224579D01*
X0009700Y0221633D01*
X0013900Y0221633D01*
X0013900Y0221233D01*
X0014300Y0221233D01*
X0014300Y0214233D01*
X0014446Y0214233D01*
X0015130Y0214341D01*
X0015789Y0214555D01*
X0016406Y0214870D01*
X0016966Y0215277D01*
X0017456Y0215767D01*
X0017863Y0216327D01*
X0018178Y0216944D01*
X0018392Y0217603D01*
X0018500Y0218287D01*
X0018500Y0221233D01*
X0014300Y0221233D01*
X0014300Y0221633D01*
X0018500Y0221633D01*
X0018500Y0224579D01*
X0018392Y0225263D01*
X0018178Y0225922D01*
X0017863Y0226539D01*
X0017456Y0227099D01*
X0016966Y0227589D01*
X0016406Y0227996D01*
X0015789Y0228311D01*
X0015130Y0228525D01*
X0014446Y0228633D01*
X0014300Y0228633D01*
X0014300Y0221633D01*
X0013900Y0221633D01*
X0013900Y0228633D01*
X0013754Y0228633D01*
X0013070Y0228525D01*
X0013900Y0228504D02*
X0014300Y0228504D01*
X0015195Y0228504D02*
X0021261Y0228504D01*
X0020973Y0228294D02*
X0020439Y0227760D01*
X0019995Y0227149D01*
X0019652Y0226476D01*
X0019418Y0225757D01*
X0019300Y0225011D01*
X0019300Y0221833D01*
X0023700Y0221833D01*
X0023700Y0229430D01*
X0022976Y0229315D01*
X0022257Y0229081D01*
X0021584Y0228738D01*
X0020973Y0228294D01*
X0020108Y0227305D02*
X0017250Y0227305D01*
X0018084Y0226107D02*
X0019532Y0226107D01*
X0019300Y0224908D02*
X0018448Y0224908D01*
X0018500Y0223710D02*
X0019300Y0223710D01*
X0019300Y0222511D02*
X0018500Y0222511D01*
X0019300Y0221033D02*
X0019300Y0217855D01*
X0019418Y0217109D01*
X0019652Y0216391D01*
X0019995Y0215717D01*
X0020439Y0215106D01*
X0020973Y0214572D01*
X0021584Y0214128D01*
X0022257Y0213785D01*
X0022976Y0213551D01*
X0023700Y0213437D01*
X0023700Y0221033D01*
X0019300Y0221033D01*
X0019300Y0220114D02*
X0018500Y0220114D01*
X0018500Y0218916D02*
X0019300Y0218916D01*
X0019322Y0217717D02*
X0018410Y0217717D01*
X0017961Y0216519D02*
X0019610Y0216519D01*
X0020283Y0215320D02*
X0017010Y0215320D01*
X0014300Y0215320D02*
X0013900Y0215320D01*
X0013900Y0214233D02*
X0013900Y0221233D01*
X0009700Y0221233D01*
X0009700Y0218287D01*
X0009808Y0217603D01*
X0010022Y0216944D01*
X0010337Y0216327D01*
X0010744Y0215767D01*
X0011234Y0215277D01*
X0011794Y0214870D01*
X0012411Y0214555D01*
X0013070Y0214341D01*
X0013754Y0214233D01*
X0013900Y0214233D01*
X0013900Y0216519D02*
X0014300Y0216519D01*
X0014300Y0217717D02*
X0013900Y0217717D01*
X0013900Y0218916D02*
X0014300Y0218916D01*
X0014300Y0220114D02*
X0013900Y0220114D01*
X0013900Y0221313D02*
X0005400Y0221313D01*
X0005400Y0222511D02*
X0009700Y0222511D01*
X0009700Y0223710D02*
X0005400Y0223710D01*
X0005400Y0224908D02*
X0009752Y0224908D01*
X0010116Y0226107D02*
X0005400Y0226107D01*
X0005400Y0227305D02*
X0010950Y0227305D01*
X0013900Y0227305D02*
X0014300Y0227305D01*
X0014300Y0226107D02*
X0013900Y0226107D01*
X0013900Y0224908D02*
X0014300Y0224908D01*
X0014300Y0223710D02*
X0013900Y0223710D01*
X0013900Y0222511D02*
X0014300Y0222511D01*
X0014300Y0221313D02*
X0023700Y0221313D01*
X0023700Y0222511D02*
X0024500Y0222511D01*
X0024500Y0223710D02*
X0023700Y0223710D01*
X0023700Y0224908D02*
X0024500Y0224908D01*
X0024500Y0226107D02*
X0023700Y0226107D01*
X0023700Y0227305D02*
X0024500Y0227305D01*
X0024500Y0228504D02*
X0023700Y0228504D01*
X0026939Y0228504D02*
X0028300Y0228504D01*
X0028300Y0227305D02*
X0028092Y0227305D01*
X0024500Y0220114D02*
X0023700Y0220114D01*
X0023700Y0218916D02*
X0024500Y0218916D01*
X0024500Y0217717D02*
X0023700Y0217717D01*
X0023700Y0216519D02*
X0024500Y0216519D01*
X0024500Y0215320D02*
X0023700Y0215320D01*
X0023700Y0214122D02*
X0024500Y0214122D01*
X0026604Y0214122D02*
X0028300Y0214122D01*
X0028300Y0215320D02*
X0027917Y0215320D01*
X0028300Y0212923D02*
X0005400Y0212923D01*
X0005400Y0211725D02*
X0028300Y0211725D01*
X0028300Y0210526D02*
X0005400Y0210526D01*
X0005400Y0209328D02*
X0028300Y0209328D01*
X0028300Y0208129D02*
X0005400Y0208129D01*
X0005400Y0206931D02*
X0028300Y0206931D01*
X0028300Y0205732D02*
X0005400Y0205732D01*
X0005400Y0204534D02*
X0028300Y0204534D01*
X0028300Y0203335D02*
X0005400Y0203335D01*
X0005400Y0202137D02*
X0028300Y0202137D01*
X0028300Y0200938D02*
X0027170Y0200938D01*
X0021030Y0200938D02*
X0005400Y0200938D01*
X0005400Y0199740D02*
X0010273Y0199740D01*
X0009074Y0198541D02*
X0005400Y0198541D01*
X0005400Y0197343D02*
X0008244Y0197343D01*
X0007748Y0196144D02*
X0005400Y0196144D01*
X0005400Y0194945D02*
X0007500Y0194945D01*
X0007500Y0193747D02*
X0005400Y0193747D01*
X0005400Y0192548D02*
X0007500Y0192548D01*
X0007500Y0191350D02*
X0005400Y0191350D01*
X0005400Y0190151D02*
X0007500Y0190151D01*
X0007500Y0188953D02*
X0005400Y0188953D01*
X0005400Y0187754D02*
X0007500Y0187754D01*
X0007817Y0186556D02*
X0005400Y0186556D01*
X0005400Y0185357D02*
X0008313Y0185357D01*
X0009240Y0184159D02*
X0005400Y0184159D01*
X0005400Y0182960D02*
X0010548Y0182960D01*
X0005400Y0181762D02*
X0021431Y0181762D01*
X0019473Y0182960D02*
X0017652Y0182960D01*
X0022257Y0176581D02*
X0022976Y0176815D01*
X0023700Y0176930D01*
X0023700Y0169333D01*
X0019300Y0169333D01*
X0019300Y0172511D01*
X0019418Y0173257D01*
X0019652Y0173976D01*
X0019995Y0174649D01*
X0020439Y0175260D01*
X0020973Y0175794D01*
X0021584Y0176238D01*
X0022257Y0176581D01*
X0020948Y0175769D02*
X0015870Y0175769D01*
X0015789Y0175811D02*
X0015130Y0176025D01*
X0014446Y0176133D01*
X0014300Y0176133D01*
X0014300Y0169133D01*
X0018500Y0169133D01*
X0018500Y0172079D01*
X0018392Y0172763D01*
X0018178Y0173422D01*
X0017863Y0174039D01*
X0017456Y0174599D01*
X0016966Y0175089D01*
X0016406Y0175496D01*
X0015789Y0175811D01*
X0014300Y0175769D02*
X0013900Y0175769D01*
X0013900Y0176133D02*
X0013754Y0176133D01*
X0013070Y0176025D01*
X0012411Y0175811D01*
X0011794Y0175496D01*
X0011234Y0175089D01*
X0010744Y0174599D01*
X0010337Y0174039D01*
X0010022Y0173422D01*
X0009808Y0172763D01*
X0009700Y0172079D01*
X0009700Y0169133D01*
X0013900Y0169133D01*
X0013900Y0168733D01*
X0014300Y0168733D01*
X0014300Y0161733D01*
X0014446Y0161733D01*
X0015130Y0161841D01*
X0015789Y0162055D01*
X0016406Y0162370D01*
X0016966Y0162777D01*
X0017456Y0163267D01*
X0017863Y0163827D01*
X0018178Y0164444D01*
X0018392Y0165103D01*
X0018500Y0165787D01*
X0018500Y0168733D01*
X0014300Y0168733D01*
X0014300Y0169133D01*
X0013900Y0169133D01*
X0013900Y0176133D01*
X0013900Y0174571D02*
X0014300Y0174571D01*
X0014300Y0173372D02*
X0013900Y0173372D01*
X0013900Y0172174D02*
X0014300Y0172174D01*
X0014300Y0170975D02*
X0013900Y0170975D01*
X0013900Y0169777D02*
X0014300Y0169777D01*
X0013900Y0168733D02*
X0009700Y0168733D01*
X0009700Y0165787D01*
X0009808Y0165103D01*
X0010022Y0164444D01*
X0010337Y0163827D01*
X0010744Y0163267D01*
X0011234Y0162777D01*
X0011794Y0162370D01*
X0012411Y0162055D01*
X0013070Y0161841D01*
X0013754Y0161733D01*
X0013900Y0161733D01*
X0013900Y0168733D01*
X0013900Y0168578D02*
X0014300Y0168578D01*
X0014300Y0167380D02*
X0013900Y0167380D01*
X0013900Y0166181D02*
X0014300Y0166181D01*
X0014300Y0164983D02*
X0013900Y0164983D01*
X0013900Y0163784D02*
X0014300Y0163784D01*
X0014300Y0162586D02*
X0013900Y0162586D01*
X0011497Y0162586D02*
X0005400Y0162586D01*
X0005400Y0163784D02*
X0010368Y0163784D01*
X0009847Y0164983D02*
X0005400Y0164983D01*
X0005400Y0166181D02*
X0009700Y0166181D01*
X0009700Y0167380D02*
X0005400Y0167380D01*
X0005400Y0168578D02*
X0009700Y0168578D01*
X0009700Y0169777D02*
X0005400Y0169777D01*
X0005400Y0170975D02*
X0009700Y0170975D01*
X0009715Y0172174D02*
X0005400Y0172174D01*
X0005400Y0173372D02*
X0010006Y0173372D01*
X0010723Y0174571D02*
X0005400Y0174571D01*
X0005400Y0175769D02*
X0012330Y0175769D01*
X0017477Y0174571D02*
X0019955Y0174571D01*
X0019456Y0173372D02*
X0018194Y0173372D01*
X0018485Y0172174D02*
X0019300Y0172174D01*
X0019300Y0170975D02*
X0018500Y0170975D01*
X0018500Y0169777D02*
X0019300Y0169777D01*
X0019300Y0168533D02*
X0019300Y0165355D01*
X0019418Y0164609D01*
X0019652Y0163891D01*
X0019995Y0163217D01*
X0020439Y0162606D01*
X0020973Y0162072D01*
X0021584Y0161628D01*
X0022257Y0161285D01*
X0022976Y0161051D01*
X0023700Y0160937D01*
X0023700Y0168533D01*
X0019300Y0168533D01*
X0018500Y0168578D02*
X0023700Y0168578D01*
X0023700Y0167380D02*
X0024500Y0167380D01*
X0024500Y0166181D02*
X0023700Y0166181D01*
X0023700Y0164983D02*
X0024500Y0164983D01*
X0024500Y0163784D02*
X0023700Y0163784D01*
X0023700Y0162586D02*
X0024500Y0162586D01*
X0024500Y0161387D02*
X0023700Y0161387D01*
X0022056Y0161387D02*
X0005400Y0161387D01*
X0005400Y0160189D02*
X0028300Y0160189D01*
X0028300Y0161387D02*
X0026144Y0161387D01*
X0027741Y0162586D02*
X0028300Y0162586D01*
X0028300Y0158990D02*
X0005400Y0158990D01*
X0005400Y0157792D02*
X0028300Y0157792D01*
X0028300Y0156593D02*
X0005400Y0156593D01*
X0005400Y0155395D02*
X0028300Y0155395D01*
X0028300Y0154196D02*
X0005400Y0154196D01*
X0005400Y0152998D02*
X0028300Y0152998D01*
X0028300Y0151799D02*
X0005400Y0151799D01*
X0005400Y0150601D02*
X0028300Y0150601D01*
X0028300Y0149402D02*
X0005400Y0149402D01*
X0005400Y0148204D02*
X0012475Y0148204D01*
X0010038Y0147005D02*
X0005400Y0147005D01*
X0005400Y0145807D02*
X0008840Y0145807D01*
X0008147Y0144608D02*
X0005400Y0144608D01*
X0005400Y0143410D02*
X0007651Y0143410D01*
X0007500Y0142211D02*
X0005400Y0142211D01*
X0005400Y0141012D02*
X0007500Y0141012D01*
X0007500Y0139814D02*
X0005400Y0139814D01*
X0005400Y0138615D02*
X0007500Y0138615D01*
X0007500Y0137417D02*
X0005400Y0137417D01*
X0005400Y0136218D02*
X0007500Y0136218D01*
X0007500Y0135020D02*
X0005400Y0135020D01*
X0005400Y0133821D02*
X0007914Y0133821D01*
X0008410Y0132623D02*
X0005400Y0132623D01*
X0005400Y0131424D02*
X0009475Y0131424D01*
X0011115Y0130226D02*
X0005400Y0130226D01*
X0005400Y0129027D02*
X0010331Y0129027D01*
X0009830Y0127829D02*
X0005400Y0127829D01*
X0005400Y0126630D02*
X0009700Y0126630D01*
X0009700Y0125432D02*
X0005400Y0125432D01*
X0005400Y0124233D02*
X0009700Y0124233D01*
X0009700Y0123733D02*
X0009700Y0120787D01*
X0009808Y0120103D01*
X0010022Y0119444D01*
X0010337Y0118827D01*
X0010744Y0118267D01*
X0011234Y0117777D01*
X0011794Y0117370D01*
X0012411Y0117055D01*
X0013070Y0116841D01*
X0013754Y0116733D01*
X0013900Y0116733D01*
X0013900Y0123733D01*
X0009700Y0123733D01*
X0009700Y0123035D02*
X0005400Y0123035D01*
X0005400Y0121836D02*
X0009700Y0121836D01*
X0009724Y0120638D02*
X0005400Y0120638D01*
X0005400Y0119439D02*
X0010025Y0119439D01*
X0010770Y0118241D02*
X0005400Y0118241D01*
X0005400Y0117042D02*
X0012451Y0117042D01*
X0013900Y0117042D02*
X0014300Y0117042D01*
X0014300Y0118241D02*
X0013900Y0118241D01*
X0013900Y0119439D02*
X0014300Y0119439D01*
X0014300Y0120638D02*
X0013900Y0120638D01*
X0013900Y0121836D02*
X0014300Y0121836D01*
X0014300Y0123035D02*
X0013900Y0123035D01*
X0018500Y0123035D02*
X0019300Y0123035D01*
X0019300Y0123533D02*
X0019300Y0120355D01*
X0019418Y0119609D01*
X0019652Y0118891D01*
X0019995Y0118217D01*
X0020439Y0117606D01*
X0020973Y0117072D01*
X0021584Y0116628D01*
X0022257Y0116285D01*
X0022976Y0116051D01*
X0023700Y0115937D01*
X0023700Y0123533D01*
X0019300Y0123533D01*
X0018500Y0124233D02*
X0023700Y0124233D01*
X0023700Y0123035D02*
X0024500Y0123035D01*
X0024500Y0121836D02*
X0023700Y0121836D01*
X0023700Y0120638D02*
X0024500Y0120638D01*
X0024500Y0119439D02*
X0023700Y0119439D01*
X0023700Y0118241D02*
X0024500Y0118241D01*
X0024500Y0117042D02*
X0023700Y0117042D01*
X0021014Y0117042D02*
X0015748Y0117042D01*
X0017430Y0118241D02*
X0019983Y0118241D01*
X0019473Y0119439D02*
X0018175Y0119439D01*
X0018476Y0120638D02*
X0019300Y0120638D01*
X0019300Y0121836D02*
X0018500Y0121836D01*
X0018500Y0125432D02*
X0019300Y0125432D01*
X0019300Y0126630D02*
X0018500Y0126630D01*
X0018370Y0127829D02*
X0019350Y0127829D01*
X0019678Y0129027D02*
X0017869Y0129027D01*
X0017085Y0130226D02*
X0019708Y0130226D01*
X0028217Y0118241D02*
X0028300Y0118241D01*
X0028300Y0117042D02*
X0027186Y0117042D01*
X0028300Y0115844D02*
X0005400Y0115844D01*
X0005400Y0114645D02*
X0028300Y0114645D01*
X0028300Y0113447D02*
X0005400Y0113447D01*
X0005400Y0112248D02*
X0028300Y0112248D01*
X0028300Y0111050D02*
X0005400Y0111050D01*
X0005400Y0109851D02*
X0028300Y0109851D01*
X0028300Y0108653D02*
X0005400Y0108653D01*
X0005400Y0107454D02*
X0028300Y0107454D01*
X0028300Y0106256D02*
X0005400Y0106256D01*
X0005400Y0105057D02*
X0028300Y0105057D01*
X0028300Y0103859D02*
X0026155Y0103859D01*
X0022045Y0103859D02*
X0005400Y0103859D01*
X0005400Y0102660D02*
X0011163Y0102660D01*
X0009495Y0101462D02*
X0005400Y0101462D01*
X0005400Y0100263D02*
X0008418Y0100263D01*
X0007922Y0099065D02*
X0005400Y0099065D01*
X0005400Y0097866D02*
X0007500Y0097866D01*
X0007500Y0096668D02*
X0005400Y0096668D01*
X0005400Y0095469D02*
X0007500Y0095469D01*
X0007500Y0094271D02*
X0005400Y0094271D01*
X0005400Y0093072D02*
X0007500Y0093072D01*
X0007500Y0091874D02*
X0005400Y0091874D01*
X0005400Y0090675D02*
X0007500Y0090675D01*
X0007642Y0089477D02*
X0005400Y0089477D01*
X0005400Y0088278D02*
X0008139Y0088278D01*
X0008820Y0087079D02*
X0005400Y0087079D01*
X0005400Y0085881D02*
X0010018Y0085881D01*
X0012427Y0084682D02*
X0005400Y0084682D01*
X0005400Y0083484D02*
X0049598Y0083484D01*
X0049738Y0083403D02*
X0052612Y0082633D01*
X0055588Y0082633D01*
X0058462Y0083403D01*
X0061038Y0084891D01*
X0063142Y0086995D01*
X0064100Y0088654D01*
X0065058Y0086995D01*
X0067162Y0084891D01*
X0069738Y0083403D01*
X0072612Y0082633D01*
X0075588Y0082633D01*
X0078462Y0083403D01*
X0081038Y0084891D01*
X0083142Y0086995D01*
X0084630Y0089571D01*
X0085400Y0092445D01*
X0085400Y0140421D01*
X0085400Y0170421D01*
X0084630Y0173295D01*
X0083142Y0175871D01*
X0081038Y0177975D01*
X0078462Y0179463D01*
X0075588Y0180233D01*
X0072612Y0180233D01*
X0069738Y0179463D01*
X0067162Y0177975D01*
X0065058Y0175871D01*
X0064100Y0174213D01*
X0063142Y0175871D01*
X0061038Y0177975D01*
X0058462Y0179463D01*
X0055588Y0180233D01*
X0052612Y0180233D01*
X0049738Y0179463D01*
X0047162Y0177975D01*
X0045058Y0175871D01*
X0043570Y0173295D01*
X0042800Y0170421D01*
X0042800Y0092445D01*
X0043570Y0089571D01*
X0045058Y0086995D01*
X0047162Y0084891D01*
X0049738Y0083403D01*
X0047523Y0084682D02*
X0027784Y0084682D01*
X0029147Y0085881D02*
X0046171Y0085881D01*
X0045009Y0087079D02*
X0030163Y0087079D01*
X0030660Y0088278D02*
X0044317Y0088278D01*
X0043625Y0089477D02*
X0032846Y0089477D01*
X0034017Y0090648D02*
X0034017Y0090648D01*
X0034044Y0090675D02*
X0043274Y0090675D01*
X0042953Y0091874D02*
X0035243Y0091874D01*
X0036441Y0093072D02*
X0042800Y0093072D01*
X0042800Y0094271D02*
X0037640Y0094271D01*
X0038838Y0095469D02*
X0042800Y0095469D01*
X0042800Y0096668D02*
X0039439Y0096668D01*
X0039900Y0097866D02*
X0042800Y0097866D01*
X0042800Y0099065D02*
X0039900Y0099065D01*
X0039900Y0100263D02*
X0042800Y0100263D01*
X0042800Y0101462D02*
X0039900Y0101462D01*
X0039900Y0102660D02*
X0042800Y0102660D01*
X0042800Y0103859D02*
X0039900Y0103859D01*
X0039900Y0105057D02*
X0042800Y0105057D01*
X0042800Y0106256D02*
X0039900Y0106256D01*
X0039900Y0107454D02*
X0042800Y0107454D01*
X0042800Y0108653D02*
X0039900Y0108653D01*
X0039900Y0109851D02*
X0042800Y0109851D01*
X0042800Y0111050D02*
X0039900Y0111050D01*
X0039900Y0112248D02*
X0042800Y0112248D01*
X0042800Y0113447D02*
X0039900Y0113447D01*
X0039900Y0114645D02*
X0042800Y0114645D01*
X0042800Y0115844D02*
X0039900Y0115844D01*
X0039900Y0117042D02*
X0042800Y0117042D01*
X0042800Y0118241D02*
X0039900Y0118241D01*
X0039900Y0119439D02*
X0042800Y0119439D01*
X0042800Y0120638D02*
X0039900Y0120638D01*
X0039900Y0121836D02*
X0042800Y0121836D01*
X0042800Y0123035D02*
X0039900Y0123035D01*
X0039900Y0124233D02*
X0042800Y0124233D01*
X0042800Y0125432D02*
X0039900Y0125432D01*
X0039900Y0126630D02*
X0042800Y0126630D01*
X0042800Y0127829D02*
X0039900Y0127829D01*
X0039900Y0129027D02*
X0042800Y0129027D01*
X0042800Y0130226D02*
X0039900Y0130226D01*
X0039900Y0131424D02*
X0042800Y0131424D01*
X0042800Y0132623D02*
X0039900Y0132623D01*
X0039900Y0133821D02*
X0042800Y0133821D01*
X0042800Y0135020D02*
X0039900Y0135020D01*
X0039900Y0136218D02*
X0042800Y0136218D01*
X0042800Y0137417D02*
X0039900Y0137417D01*
X0039900Y0138615D02*
X0042800Y0138615D01*
X0042800Y0139814D02*
X0039900Y0139814D01*
X0039900Y0141012D02*
X0042800Y0141012D01*
X0042800Y0142211D02*
X0039900Y0142211D01*
X0039900Y0143410D02*
X0042800Y0143410D01*
X0042800Y0144608D02*
X0039900Y0144608D01*
X0039900Y0145807D02*
X0042800Y0145807D01*
X0042800Y0147005D02*
X0039900Y0147005D01*
X0039900Y0148204D02*
X0042800Y0148204D01*
X0042800Y0149402D02*
X0039900Y0149402D01*
X0039900Y0150601D02*
X0042800Y0150601D01*
X0042800Y0151799D02*
X0039900Y0151799D01*
X0039900Y0152998D02*
X0042800Y0152998D01*
X0042800Y0154196D02*
X0039900Y0154196D01*
X0039900Y0155395D02*
X0042800Y0155395D01*
X0042800Y0156593D02*
X0039900Y0156593D01*
X0039900Y0157792D02*
X0042800Y0157792D01*
X0042800Y0158990D02*
X0039900Y0158990D01*
X0039900Y0160189D02*
X0042800Y0160189D01*
X0042800Y0161387D02*
X0039900Y0161387D01*
X0039900Y0162586D02*
X0042800Y0162586D01*
X0042800Y0163784D02*
X0039900Y0163784D01*
X0039900Y0164983D02*
X0042800Y0164983D01*
X0042800Y0166181D02*
X0039900Y0166181D01*
X0039900Y0167380D02*
X0042800Y0167380D01*
X0042800Y0168578D02*
X0039900Y0168578D01*
X0039900Y0169777D02*
X0042800Y0169777D01*
X0042949Y0170975D02*
X0039900Y0170975D01*
X0039900Y0172174D02*
X0043270Y0172174D01*
X0043615Y0173372D02*
X0039900Y0173372D01*
X0039900Y0174571D02*
X0044307Y0174571D01*
X0044999Y0175769D02*
X0039900Y0175769D01*
X0039900Y0176968D02*
X0046154Y0176968D01*
X0047493Y0178166D02*
X0039900Y0178166D01*
X0039900Y0179365D02*
X0049568Y0179365D01*
X0051431Y0181762D02*
X0039900Y0181762D01*
X0039900Y0182960D02*
X0049473Y0182960D01*
X0048275Y0184159D02*
X0039900Y0184159D01*
X0039900Y0185357D02*
X0047714Y0185357D01*
X0047218Y0186556D02*
X0039900Y0186556D01*
X0039900Y0187754D02*
X0047100Y0187754D01*
X0047100Y0188953D02*
X0039900Y0188953D01*
X0039900Y0190151D02*
X0047100Y0190151D01*
X0047100Y0191350D02*
X0039900Y0191350D01*
X0039900Y0192548D02*
X0047100Y0192548D01*
X0047100Y0193747D02*
X0039900Y0193747D01*
X0039900Y0194945D02*
X0047100Y0194945D01*
X0047149Y0196144D02*
X0039900Y0196144D01*
X0039900Y0197343D02*
X0047646Y0197343D01*
X0048142Y0198541D02*
X0039900Y0198541D01*
X0039900Y0199740D02*
X0049307Y0199740D01*
X0058893Y0199740D02*
X0086000Y0199740D01*
X0086000Y0200938D02*
X0067515Y0200938D01*
X0068713Y0202137D02*
X0086000Y0202137D01*
X0086000Y0203335D02*
X0069912Y0203335D01*
X0070400Y0204534D02*
X0086000Y0204534D01*
X0086000Y0205732D02*
X0070400Y0205732D01*
X0070400Y0206931D02*
X0086000Y0206931D01*
X0086000Y0208129D02*
X0070400Y0208129D01*
X0070115Y0209328D02*
X0086000Y0209328D01*
X0086000Y0210526D02*
X0068916Y0210526D01*
X0067718Y0211725D02*
X0086000Y0211725D01*
X0086000Y0212923D02*
X0058690Y0212923D01*
X0059888Y0214122D02*
X0071596Y0214122D01*
X0071584Y0214128D02*
X0072257Y0213785D01*
X0072976Y0213551D01*
X0073700Y0213437D01*
X0073700Y0221033D01*
X0074500Y0221033D01*
X0074500Y0213437D01*
X0075224Y0213551D01*
X0075943Y0213785D01*
X0076616Y0214128D01*
X0077227Y0214572D01*
X0077761Y0215106D01*
X0078205Y0215717D01*
X0078548Y0216391D01*
X0078782Y0217109D01*
X0078900Y0217855D01*
X0078900Y0221033D01*
X0074500Y0221033D01*
X0074500Y0221833D01*
X0078900Y0221833D01*
X0078900Y0225011D01*
X0078782Y0225757D01*
X0078548Y0226476D01*
X0078205Y0227149D01*
X0077761Y0227760D01*
X0077227Y0228294D01*
X0076616Y0228738D01*
X0075943Y0229081D01*
X0075224Y0229315D01*
X0074500Y0229430D01*
X0074500Y0221833D01*
X0073700Y0221833D01*
X0073700Y0221033D01*
X0069300Y0221033D01*
X0069300Y0217855D01*
X0069418Y0217109D01*
X0069652Y0216391D01*
X0069995Y0215717D01*
X0070439Y0215106D01*
X0070973Y0214572D01*
X0071584Y0214128D01*
X0070283Y0215320D02*
X0060470Y0215320D01*
X0060967Y0216519D02*
X0069610Y0216519D01*
X0069322Y0217717D02*
X0061100Y0217717D01*
X0061100Y0218916D02*
X0069300Y0218916D01*
X0069300Y0220114D02*
X0061100Y0220114D01*
X0061100Y0221313D02*
X0073700Y0221313D01*
X0073700Y0221833D02*
X0069300Y0221833D01*
X0069300Y0225011D01*
X0069418Y0225757D01*
X0069652Y0226476D01*
X0069995Y0227149D01*
X0070439Y0227760D01*
X0070973Y0228294D01*
X0071584Y0228738D01*
X0072257Y0229081D01*
X0072976Y0229315D01*
X0073700Y0229430D01*
X0073700Y0221833D01*
X0073700Y0222511D02*
X0074500Y0222511D01*
X0074500Y0221313D02*
X0086000Y0221313D01*
X0086000Y0222511D02*
X0078900Y0222511D01*
X0078900Y0223710D02*
X0086000Y0223710D01*
X0086000Y0224908D02*
X0078900Y0224908D01*
X0078668Y0226107D02*
X0086233Y0226107D01*
X0086000Y0225544D02*
X0086000Y0089822D01*
X0087233Y0086845D01*
X0089512Y0084566D01*
X0092489Y0083333D01*
X0095711Y0083333D01*
X0098688Y0084566D01*
X0100967Y0086845D01*
X0102200Y0089822D01*
X0102200Y0095544D01*
X0102200Y0125544D01*
X0102200Y0225544D01*
X0100967Y0228521D01*
X0098688Y0230800D01*
X0095711Y0232033D01*
X0092489Y0232033D01*
X0089512Y0230800D01*
X0087233Y0228521D01*
X0086000Y0225544D01*
X0086729Y0227305D02*
X0078092Y0227305D01*
X0076939Y0228504D02*
X0087226Y0228504D01*
X0088414Y0229702D02*
X0058930Y0229702D01*
X0060073Y0228504D02*
X0071261Y0228504D01*
X0070108Y0227305D02*
X0060570Y0227305D01*
X0061066Y0226107D02*
X0069532Y0226107D01*
X0069300Y0224908D02*
X0061100Y0224908D01*
X0061100Y0223710D02*
X0069300Y0223710D01*
X0069300Y0222511D02*
X0061100Y0222511D01*
X0057260Y0230901D02*
X0089755Y0230901D01*
X0098445Y0230901D02*
X0259755Y0230901D01*
X0258414Y0229702D02*
X0099786Y0229702D01*
X0100974Y0228504D02*
X0257226Y0228504D01*
X0256729Y0227305D02*
X0101471Y0227305D01*
X0101967Y0226107D02*
X0256233Y0226107D01*
X0256000Y0224908D02*
X0102200Y0224908D01*
X0102200Y0223710D02*
X0256000Y0223710D01*
X0256000Y0222511D02*
X0102200Y0222511D01*
X0102200Y0221313D02*
X0256000Y0221313D01*
X0256000Y0220114D02*
X0102200Y0220114D01*
X0102200Y0218916D02*
X0256000Y0218916D01*
X0256000Y0217717D02*
X0102200Y0217717D01*
X0102200Y0216519D02*
X0256000Y0216519D01*
X0256000Y0215320D02*
X0102200Y0215320D01*
X0102200Y0214122D02*
X0256000Y0214122D01*
X0256000Y0212923D02*
X0102200Y0212923D01*
X0102200Y0211725D02*
X0256000Y0211725D01*
X0256000Y0210526D02*
X0102200Y0210526D01*
X0102200Y0209328D02*
X0256000Y0209328D01*
X0256000Y0208129D02*
X0102200Y0208129D01*
X0102200Y0206931D02*
X0256000Y0206931D01*
X0256000Y0205732D02*
X0102200Y0205732D01*
X0102200Y0204534D02*
X0256000Y0204534D01*
X0256000Y0203335D02*
X0102200Y0203335D01*
X0102200Y0202137D02*
X0256000Y0202137D01*
X0256000Y0200938D02*
X0102200Y0200938D01*
X0102200Y0199740D02*
X0256000Y0199740D01*
X0256000Y0198541D02*
X0102200Y0198541D01*
X0102200Y0197343D02*
X0256000Y0197343D01*
X0256000Y0196144D02*
X0102200Y0196144D01*
X0102200Y0194945D02*
X0256000Y0194945D01*
X0256000Y0193747D02*
X0102200Y0193747D01*
X0102200Y0192548D02*
X0256000Y0192548D01*
X0256000Y0191350D02*
X0102200Y0191350D01*
X0102200Y0190151D02*
X0256000Y0190151D01*
X0256000Y0188953D02*
X0102200Y0188953D01*
X0102200Y0187754D02*
X0256000Y0187754D01*
X0256000Y0186556D02*
X0102200Y0186556D01*
X0102200Y0185357D02*
X0256000Y0185357D01*
X0256000Y0184159D02*
X0127784Y0184159D01*
X0126710Y0185233D02*
X0121490Y0185233D01*
X0117800Y0181543D01*
X0117800Y0176324D01*
X0118300Y0175824D01*
X0118300Y0167779D01*
X0119183Y0165648D01*
X0146683Y0138148D01*
X0148315Y0136516D01*
X0150446Y0135633D01*
X0153056Y0135633D01*
X0154987Y0134833D01*
X0163213Y0134833D01*
X0165639Y0135838D01*
X0167495Y0137694D01*
X0168500Y0140120D01*
X0168500Y0142746D01*
X0167495Y0145172D01*
X0165639Y0147028D01*
X0163213Y0148033D01*
X0154987Y0148033D01*
X0153725Y0147510D01*
X0129900Y0171336D01*
X0129900Y0175824D01*
X0130400Y0176324D01*
X0130400Y0181543D01*
X0126710Y0185233D01*
X0128982Y0182960D02*
X0256000Y0182960D01*
X0256000Y0181762D02*
X0130181Y0181762D01*
X0130400Y0180563D02*
X0256000Y0180563D01*
X0256000Y0179365D02*
X0130400Y0179365D01*
X0130400Y0178166D02*
X0256000Y0178166D01*
X0256000Y0176968D02*
X0130400Y0176968D01*
X0129900Y0175769D02*
X0256000Y0175769D01*
X0256000Y0174571D02*
X0129900Y0174571D01*
X0129900Y0173372D02*
X0256000Y0173372D01*
X0256000Y0172174D02*
X0129900Y0172174D01*
X0130260Y0170975D02*
X0256000Y0170975D01*
X0256000Y0169777D02*
X0131459Y0169777D01*
X0132657Y0168578D02*
X0256000Y0168578D01*
X0256000Y0167380D02*
X0133856Y0167380D01*
X0135054Y0166181D02*
X0256000Y0166181D01*
X0256000Y0164983D02*
X0136253Y0164983D01*
X0137451Y0163784D02*
X0256000Y0163784D01*
X0256000Y0162586D02*
X0138650Y0162586D01*
X0139848Y0161387D02*
X0256000Y0161387D01*
X0256000Y0160189D02*
X0141047Y0160189D01*
X0142245Y0158990D02*
X0256000Y0158990D01*
X0256000Y0157792D02*
X0143444Y0157792D01*
X0144642Y0156593D02*
X0256000Y0156593D01*
X0256000Y0155395D02*
X0145841Y0155395D01*
X0147039Y0154196D02*
X0256000Y0154196D01*
X0256000Y0152998D02*
X0148238Y0152998D01*
X0149436Y0151799D02*
X0256000Y0151799D01*
X0256000Y0150601D02*
X0150635Y0150601D01*
X0151833Y0149402D02*
X0256000Y0149402D01*
X0256000Y0148204D02*
X0153032Y0148204D01*
X0145017Y0139814D02*
X0138373Y0139814D01*
X0138500Y0140120D02*
X0138500Y0142746D01*
X0137495Y0145172D01*
X0135639Y0147028D01*
X0133213Y0148033D01*
X0124987Y0148033D01*
X0122561Y0147028D01*
X0120705Y0145172D01*
X0119700Y0142746D01*
X0119700Y0140120D01*
X0120705Y0137694D01*
X0122561Y0135838D01*
X0124987Y0134833D01*
X0133213Y0134833D01*
X0135639Y0135838D01*
X0137495Y0137694D01*
X0138500Y0140120D01*
X0138500Y0141012D02*
X0143818Y0141012D01*
X0142620Y0142211D02*
X0138500Y0142211D01*
X0138225Y0143410D02*
X0141421Y0143410D01*
X0140223Y0144608D02*
X0137729Y0144608D01*
X0136860Y0145807D02*
X0139024Y0145807D01*
X0137826Y0147005D02*
X0135662Y0147005D01*
X0136627Y0148204D02*
X0102200Y0148204D01*
X0102200Y0149402D02*
X0135429Y0149402D01*
X0134230Y0150601D02*
X0102200Y0150601D01*
X0102200Y0151799D02*
X0133032Y0151799D01*
X0131833Y0152998D02*
X0102200Y0152998D01*
X0102200Y0154196D02*
X0130635Y0154196D01*
X0129436Y0155395D02*
X0102200Y0155395D01*
X0102200Y0156593D02*
X0128237Y0156593D01*
X0127039Y0157792D02*
X0102200Y0157792D01*
X0102200Y0158990D02*
X0125840Y0158990D01*
X0124642Y0160189D02*
X0102200Y0160189D01*
X0102200Y0161387D02*
X0123443Y0161387D01*
X0122245Y0162586D02*
X0102200Y0162586D01*
X0102200Y0163784D02*
X0121046Y0163784D01*
X0119848Y0164983D02*
X0102200Y0164983D01*
X0102200Y0166181D02*
X0118962Y0166181D01*
X0118466Y0167380D02*
X0102200Y0167380D01*
X0102200Y0168578D02*
X0118300Y0168578D01*
X0118300Y0169777D02*
X0102200Y0169777D01*
X0102200Y0170975D02*
X0118300Y0170975D01*
X0118300Y0172174D02*
X0102200Y0172174D01*
X0102200Y0173372D02*
X0118300Y0173372D01*
X0118300Y0174571D02*
X0102200Y0174571D01*
X0102200Y0175769D02*
X0118300Y0175769D01*
X0117800Y0176968D02*
X0102200Y0176968D01*
X0102200Y0178166D02*
X0117800Y0178166D01*
X0117800Y0179365D02*
X0102200Y0179365D01*
X0102200Y0180563D02*
X0117800Y0180563D01*
X0118019Y0181762D02*
X0102200Y0181762D01*
X0102200Y0182960D02*
X0119218Y0182960D01*
X0120416Y0184159D02*
X0102200Y0184159D01*
X0086000Y0184159D02*
X0076659Y0184159D01*
X0076616Y0184128D02*
X0077227Y0184572D01*
X0077761Y0185106D01*
X0078205Y0185717D01*
X0078548Y0186391D01*
X0078782Y0187109D01*
X0078900Y0187855D01*
X0078900Y0191033D01*
X0074500Y0191033D01*
X0074500Y0183437D01*
X0075224Y0183551D01*
X0075943Y0183785D01*
X0076616Y0184128D01*
X0077944Y0185357D02*
X0086000Y0185357D01*
X0086000Y0186556D02*
X0078602Y0186556D01*
X0078884Y0187754D02*
X0086000Y0187754D01*
X0086000Y0188953D02*
X0078900Y0188953D01*
X0078900Y0190151D02*
X0086000Y0190151D01*
X0086000Y0191350D02*
X0074500Y0191350D01*
X0074500Y0191033D02*
X0074500Y0191833D01*
X0078900Y0191833D01*
X0078900Y0195011D01*
X0078782Y0195757D01*
X0078548Y0196476D01*
X0078205Y0197149D01*
X0077761Y0197760D01*
X0077227Y0198294D01*
X0076616Y0198738D01*
X0075943Y0199081D01*
X0075224Y0199315D01*
X0074500Y0199430D01*
X0074500Y0191833D01*
X0073700Y0191833D01*
X0073700Y0191033D01*
X0074500Y0191033D01*
X0073700Y0191033D02*
X0073700Y0183437D01*
X0072976Y0183551D01*
X0072257Y0183785D01*
X0071584Y0184128D01*
X0070973Y0184572D01*
X0070439Y0185106D01*
X0069995Y0185717D01*
X0069652Y0186391D01*
X0069418Y0187109D01*
X0069300Y0187855D01*
X0069300Y0191033D01*
X0073700Y0191033D01*
X0073700Y0191350D02*
X0061100Y0191350D01*
X0061100Y0192548D02*
X0069300Y0192548D01*
X0069300Y0191833D02*
X0073700Y0191833D01*
X0073700Y0199430D01*
X0072976Y0199315D01*
X0072257Y0199081D01*
X0071584Y0198738D01*
X0070973Y0198294D01*
X0070439Y0197760D01*
X0069995Y0197149D01*
X0069652Y0196476D01*
X0069418Y0195757D01*
X0069300Y0195011D01*
X0069300Y0191833D01*
X0069300Y0190151D02*
X0061100Y0190151D01*
X0061100Y0188953D02*
X0069300Y0188953D01*
X0069316Y0187754D02*
X0061100Y0187754D01*
X0060982Y0186556D02*
X0069598Y0186556D01*
X0070256Y0185357D02*
X0060486Y0185357D01*
X0059925Y0184159D02*
X0071541Y0184159D01*
X0073700Y0184159D02*
X0074500Y0184159D01*
X0074500Y0185357D02*
X0073700Y0185357D01*
X0073700Y0186556D02*
X0074500Y0186556D01*
X0074500Y0187754D02*
X0073700Y0187754D01*
X0073700Y0188953D02*
X0074500Y0188953D01*
X0074500Y0190151D02*
X0073700Y0190151D01*
X0073700Y0192548D02*
X0074500Y0192548D01*
X0074500Y0193747D02*
X0073700Y0193747D01*
X0073700Y0194945D02*
X0074500Y0194945D01*
X0074500Y0196144D02*
X0073700Y0196144D01*
X0073700Y0197343D02*
X0074500Y0197343D01*
X0074500Y0198541D02*
X0073700Y0198541D01*
X0071313Y0198541D02*
X0060058Y0198541D01*
X0060554Y0197343D02*
X0070135Y0197343D01*
X0069544Y0196144D02*
X0061051Y0196144D01*
X0061100Y0194945D02*
X0069300Y0194945D01*
X0069300Y0193747D02*
X0061100Y0193747D01*
X0058727Y0182960D02*
X0086000Y0182960D01*
X0086000Y0181762D02*
X0056769Y0181762D01*
X0058632Y0179365D02*
X0069568Y0179365D01*
X0067493Y0178166D02*
X0060707Y0178166D01*
X0062046Y0176968D02*
X0066154Y0176968D01*
X0064999Y0175769D02*
X0063201Y0175769D01*
X0063893Y0174571D02*
X0064307Y0174571D01*
X0078632Y0179365D02*
X0086000Y0179365D01*
X0086000Y0180563D02*
X0039900Y0180563D01*
X0028300Y0180563D02*
X0005400Y0180563D01*
X0005400Y0179365D02*
X0028300Y0179365D01*
X0028300Y0178166D02*
X0005400Y0178166D01*
X0005400Y0176968D02*
X0028300Y0176968D01*
X0028300Y0175769D02*
X0027252Y0175769D01*
X0028245Y0174571D02*
X0028300Y0174571D01*
X0024500Y0174571D02*
X0023700Y0174571D01*
X0023700Y0175769D02*
X0024500Y0175769D01*
X0024500Y0173372D02*
X0023700Y0173372D01*
X0023700Y0172174D02*
X0024500Y0172174D01*
X0024500Y0170975D02*
X0023700Y0170975D01*
X0023700Y0169777D02*
X0024500Y0169777D01*
X0019300Y0167380D02*
X0018500Y0167380D01*
X0018500Y0166181D02*
X0019300Y0166181D01*
X0019359Y0164983D02*
X0018353Y0164983D01*
X0017832Y0163784D02*
X0019706Y0163784D01*
X0020459Y0162586D02*
X0016703Y0162586D01*
X0015725Y0148204D02*
X0020464Y0148204D01*
X0019072Y0147005D02*
X0018162Y0147005D01*
X0027736Y0148204D02*
X0028300Y0148204D01*
X0028300Y0181762D02*
X0026769Y0181762D01*
X0019307Y0199740D02*
X0017927Y0199740D01*
X0021596Y0214122D02*
X0005400Y0214122D01*
X0005400Y0215320D02*
X0011190Y0215320D01*
X0010239Y0216519D02*
X0005400Y0216519D01*
X0005400Y0217717D02*
X0009790Y0217717D01*
X0009700Y0218916D02*
X0005400Y0218916D01*
X0005400Y0220114D02*
X0009700Y0220114D01*
X0023679Y0234496D02*
X0029091Y0234496D01*
X0030159Y0235695D02*
X0027190Y0235695D01*
X0029045Y0236893D02*
X0031358Y0236893D01*
X0030371Y0238092D02*
X0032556Y0238092D01*
X0033300Y0239290D02*
X0031380Y0239290D01*
X0032155Y0240489D02*
X0033300Y0240489D01*
X0033300Y0241687D02*
X0032745Y0241687D01*
X0033178Y0242886D02*
X0033300Y0242886D01*
X0033300Y0250077D02*
X0033144Y0250077D01*
X0033300Y0251276D02*
X0032698Y0251276D01*
X0033300Y0252474D02*
X0032095Y0252474D01*
X0031303Y0253673D02*
X0033300Y0253673D01*
X0033300Y0254871D02*
X0030274Y0254871D01*
X0028923Y0256070D02*
X0033707Y0256070D01*
X0034233Y0257268D02*
X0026988Y0257268D01*
X0022200Y0257268D02*
X0021000Y0257268D01*
X0021000Y0256070D02*
X0022200Y0256070D01*
X0022200Y0254871D02*
X0021000Y0254871D01*
X0021000Y0253673D02*
X0022200Y0253673D01*
X0022200Y0252474D02*
X0021000Y0252474D01*
X0021000Y0251276D02*
X0022200Y0251276D01*
X0022200Y0250077D02*
X0021000Y0250077D01*
X0021000Y0248879D02*
X0022200Y0248879D01*
X0022200Y0247680D02*
X0021000Y0247680D01*
X0009725Y0244084D02*
X0005400Y0244084D01*
X0005400Y0242886D02*
X0010022Y0242886D01*
X0010455Y0241687D02*
X0005400Y0241687D01*
X0005400Y0240489D02*
X0011045Y0240489D01*
X0011820Y0239290D02*
X0005400Y0239290D01*
X0005400Y0238092D02*
X0012829Y0238092D01*
X0014155Y0236893D02*
X0005400Y0236893D01*
X0005400Y0235695D02*
X0016010Y0235695D01*
X0039900Y0228504D02*
X0048127Y0228504D01*
X0047630Y0227305D02*
X0039900Y0227305D01*
X0039900Y0226107D02*
X0047134Y0226107D01*
X0047100Y0224908D02*
X0039900Y0224908D01*
X0039900Y0223710D02*
X0047100Y0223710D01*
X0047100Y0222511D02*
X0039900Y0222511D01*
X0039900Y0221313D02*
X0047100Y0221313D01*
X0047100Y0220114D02*
X0039900Y0220114D01*
X0039900Y0218916D02*
X0047100Y0218916D01*
X0047100Y0217717D02*
X0039900Y0217717D01*
X0039900Y0216519D02*
X0047233Y0216519D01*
X0047730Y0215320D02*
X0039900Y0215320D01*
X0039900Y0214122D02*
X0048312Y0214122D01*
X0049510Y0212923D02*
X0039900Y0212923D01*
X0040572Y0229702D02*
X0049270Y0229702D01*
X0050940Y0230901D02*
X0041770Y0230901D01*
X0042969Y0232099D02*
X0315231Y0232099D01*
X0314121Y0233298D02*
X0044079Y0233298D01*
X0044576Y0234496D02*
X0313624Y0234496D01*
X0313300Y0235695D02*
X0044900Y0235695D01*
X0044900Y0236893D02*
X0313300Y0236893D01*
X0313300Y0238092D02*
X0044900Y0238092D01*
X0044900Y0239290D02*
X0313300Y0239290D01*
X0313300Y0240489D02*
X0044900Y0240489D01*
X0044900Y0241687D02*
X0313300Y0241687D01*
X0316430Y0230901D02*
X0307260Y0230901D01*
X0308065Y0230567D02*
X0305492Y0231633D01*
X0302708Y0231633D01*
X0300135Y0230567D01*
X0298166Y0228598D01*
X0297100Y0226025D01*
X0297100Y0216841D01*
X0298166Y0214268D01*
X0300135Y0212299D01*
X0302708Y0211233D01*
X0305492Y0211233D01*
X0308065Y0212299D01*
X0310034Y0214268D01*
X0311100Y0216841D01*
X0311100Y0226025D01*
X0310034Y0228598D01*
X0308065Y0230567D01*
X0308930Y0229702D02*
X0317628Y0229702D01*
X0318300Y0228504D02*
X0310073Y0228504D01*
X0310570Y0227305D02*
X0318300Y0227305D01*
X0318300Y0226107D02*
X0311066Y0226107D01*
X0311100Y0224908D02*
X0318300Y0224908D01*
X0318300Y0223710D02*
X0311100Y0223710D01*
X0311100Y0222511D02*
X0318300Y0222511D01*
X0318300Y0221313D02*
X0311100Y0221313D01*
X0311100Y0220114D02*
X0318300Y0220114D01*
X0318300Y0218916D02*
X0311100Y0218916D01*
X0311100Y0217717D02*
X0318300Y0217717D01*
X0318300Y0216519D02*
X0310967Y0216519D01*
X0310470Y0215320D02*
X0318300Y0215320D01*
X0318300Y0214122D02*
X0309888Y0214122D01*
X0308690Y0212923D02*
X0318300Y0212923D01*
X0318300Y0211725D02*
X0306679Y0211725D01*
X0301521Y0211725D02*
X0272200Y0211725D01*
X0272200Y0212923D02*
X0299510Y0212923D01*
X0298312Y0214122D02*
X0286604Y0214122D01*
X0286616Y0214128D02*
X0287227Y0214572D01*
X0287761Y0215106D01*
X0288205Y0215717D01*
X0288548Y0216391D01*
X0288782Y0217109D01*
X0288900Y0217855D01*
X0288900Y0221033D01*
X0284500Y0221033D01*
X0284500Y0213437D01*
X0285224Y0213551D01*
X0285943Y0213785D01*
X0286616Y0214128D01*
X0287917Y0215320D02*
X0297730Y0215320D01*
X0297233Y0216519D02*
X0288590Y0216519D01*
X0288878Y0217717D02*
X0297100Y0217717D01*
X0297100Y0218916D02*
X0288900Y0218916D01*
X0288900Y0220114D02*
X0297100Y0220114D01*
X0297100Y0221313D02*
X0284500Y0221313D01*
X0284500Y0221033D02*
X0284500Y0221833D01*
X0288900Y0221833D01*
X0288900Y0225011D01*
X0288782Y0225757D01*
X0288548Y0226476D01*
X0288205Y0227149D01*
X0287761Y0227760D01*
X0287227Y0228294D01*
X0286616Y0228738D01*
X0285943Y0229081D01*
X0285224Y0229315D01*
X0284500Y0229430D01*
X0284500Y0221833D01*
X0283700Y0221833D01*
X0283700Y0221033D01*
X0284500Y0221033D01*
X0283700Y0221033D02*
X0283700Y0213437D01*
X0282976Y0213551D01*
X0282257Y0213785D01*
X0281584Y0214128D01*
X0280973Y0214572D01*
X0280439Y0215106D01*
X0279995Y0215717D01*
X0279652Y0216391D01*
X0279418Y0217109D01*
X0279300Y0217855D01*
X0279300Y0221033D01*
X0283700Y0221033D01*
X0283700Y0221313D02*
X0272200Y0221313D01*
X0272200Y0222511D02*
X0279300Y0222511D01*
X0279300Y0221833D02*
X0283700Y0221833D01*
X0283700Y0229430D01*
X0282976Y0229315D01*
X0282257Y0229081D01*
X0281584Y0228738D01*
X0280973Y0228294D01*
X0280439Y0227760D01*
X0279995Y0227149D01*
X0279652Y0226476D01*
X0279418Y0225757D01*
X0279300Y0225011D01*
X0279300Y0221833D01*
X0279300Y0220114D02*
X0272200Y0220114D01*
X0272200Y0218916D02*
X0279300Y0218916D01*
X0279322Y0217717D02*
X0272200Y0217717D01*
X0272200Y0216519D02*
X0279610Y0216519D01*
X0280283Y0215320D02*
X0272200Y0215320D01*
X0272200Y0214122D02*
X0281596Y0214122D01*
X0283700Y0214122D02*
X0284500Y0214122D01*
X0284500Y0215320D02*
X0283700Y0215320D01*
X0283700Y0216519D02*
X0284500Y0216519D01*
X0284500Y0217717D02*
X0283700Y0217717D01*
X0283700Y0218916D02*
X0284500Y0218916D01*
X0284500Y0220114D02*
X0283700Y0220114D01*
X0283700Y0222511D02*
X0284500Y0222511D01*
X0284500Y0223710D02*
X0283700Y0223710D01*
X0283700Y0224908D02*
X0284500Y0224908D01*
X0284500Y0226107D02*
X0283700Y0226107D01*
X0283700Y0227305D02*
X0284500Y0227305D01*
X0284500Y0228504D02*
X0283700Y0228504D01*
X0281261Y0228504D02*
X0270974Y0228504D01*
X0271471Y0227305D02*
X0280108Y0227305D01*
X0279532Y0226107D02*
X0271967Y0226107D01*
X0272200Y0224908D02*
X0279300Y0224908D01*
X0279300Y0223710D02*
X0272200Y0223710D01*
X0269786Y0229702D02*
X0299270Y0229702D01*
X0298127Y0228504D02*
X0286939Y0228504D01*
X0288092Y0227305D02*
X0297630Y0227305D01*
X0297134Y0226107D02*
X0288668Y0226107D01*
X0288900Y0224908D02*
X0297100Y0224908D01*
X0297100Y0223710D02*
X0288900Y0223710D01*
X0288900Y0222511D02*
X0297100Y0222511D01*
X0300940Y0230901D02*
X0268445Y0230901D01*
X0272200Y0210526D02*
X0318300Y0210526D01*
X0318300Y0209328D02*
X0272200Y0209328D01*
X0272200Y0208129D02*
X0318300Y0208129D01*
X0318300Y0206931D02*
X0272200Y0206931D01*
X0272200Y0205732D02*
X0318300Y0205732D01*
X0318300Y0204534D02*
X0272200Y0204534D01*
X0272200Y0203335D02*
X0318300Y0203335D01*
X0318300Y0202137D02*
X0272200Y0202137D01*
X0272200Y0200938D02*
X0301030Y0200938D01*
X0300135Y0200567D02*
X0302708Y0201633D01*
X0305492Y0201633D01*
X0308065Y0200567D01*
X0310034Y0198598D01*
X0311100Y0196025D01*
X0311100Y0186841D01*
X0310034Y0184268D01*
X0308065Y0182299D01*
X0305492Y0181233D01*
X0302708Y0181233D01*
X0300135Y0182299D01*
X0298166Y0184268D01*
X0297100Y0186841D01*
X0297100Y0196025D01*
X0298166Y0198598D01*
X0300135Y0200567D01*
X0299307Y0199740D02*
X0272200Y0199740D01*
X0272200Y0198541D02*
X0281313Y0198541D01*
X0281584Y0198738D02*
X0280973Y0198294D01*
X0280439Y0197760D01*
X0279995Y0197149D01*
X0279652Y0196476D01*
X0279418Y0195757D01*
X0279300Y0195011D01*
X0279300Y0191833D01*
X0283700Y0191833D01*
X0283700Y0191033D01*
X0284500Y0191033D01*
X0284500Y0183437D01*
X0285224Y0183551D01*
X0285943Y0183785D01*
X0286616Y0184128D01*
X0287227Y0184572D01*
X0287761Y0185106D01*
X0288205Y0185717D01*
X0288548Y0186391D01*
X0288782Y0187109D01*
X0288900Y0187855D01*
X0288900Y0191033D01*
X0284500Y0191033D01*
X0284500Y0191833D01*
X0288900Y0191833D01*
X0288900Y0195011D01*
X0288782Y0195757D01*
X0288548Y0196476D01*
X0288205Y0197149D01*
X0287761Y0197760D01*
X0287227Y0198294D01*
X0286616Y0198738D01*
X0285943Y0199081D01*
X0285224Y0199315D01*
X0284500Y0199430D01*
X0284500Y0191833D01*
X0283700Y0191833D01*
X0283700Y0199430D01*
X0282976Y0199315D01*
X0282257Y0199081D01*
X0281584Y0198738D01*
X0280135Y0197343D02*
X0272200Y0197343D01*
X0272200Y0196144D02*
X0279544Y0196144D01*
X0279300Y0194945D02*
X0272200Y0194945D01*
X0272200Y0193747D02*
X0279300Y0193747D01*
X0279300Y0192548D02*
X0272200Y0192548D01*
X0272200Y0191350D02*
X0283700Y0191350D01*
X0283700Y0191033D02*
X0279300Y0191033D01*
X0279300Y0187855D01*
X0279418Y0187109D01*
X0279652Y0186391D01*
X0279995Y0185717D01*
X0280439Y0185106D01*
X0280973Y0184572D01*
X0281584Y0184128D01*
X0282257Y0183785D01*
X0282976Y0183551D01*
X0283700Y0183437D01*
X0283700Y0191033D01*
X0284500Y0191350D02*
X0297100Y0191350D01*
X0297100Y0192548D02*
X0288900Y0192548D01*
X0288900Y0193747D02*
X0297100Y0193747D01*
X0297100Y0194945D02*
X0288900Y0194945D01*
X0288656Y0196144D02*
X0297149Y0196144D01*
X0297646Y0197343D02*
X0288065Y0197343D01*
X0286887Y0198541D02*
X0298142Y0198541D01*
X0307170Y0200938D02*
X0318300Y0200938D01*
X0318300Y0199740D02*
X0308893Y0199740D01*
X0310058Y0198541D02*
X0318300Y0198541D01*
X0318300Y0197343D02*
X0310554Y0197343D01*
X0311051Y0196144D02*
X0318300Y0196144D01*
X0318300Y0194945D02*
X0311100Y0194945D01*
X0311100Y0193747D02*
X0318300Y0193747D01*
X0318300Y0192548D02*
X0311100Y0192548D01*
X0311100Y0191350D02*
X0318300Y0191350D01*
X0318300Y0190151D02*
X0311100Y0190151D01*
X0311100Y0188953D02*
X0318300Y0188953D01*
X0318300Y0187754D02*
X0311100Y0187754D01*
X0310982Y0186556D02*
X0318300Y0186556D01*
X0318300Y0185357D02*
X0310486Y0185357D01*
X0309925Y0184159D02*
X0318300Y0184159D01*
X0318300Y0182960D02*
X0308727Y0182960D01*
X0306769Y0181762D02*
X0318300Y0181762D01*
X0329900Y0184159D02*
X0331541Y0184159D01*
X0330256Y0185357D02*
X0329900Y0185357D01*
X0333700Y0185357D02*
X0334500Y0185357D01*
X0334500Y0184159D02*
X0333700Y0184159D01*
X0333700Y0186556D02*
X0334500Y0186556D01*
X0334500Y0187754D02*
X0333700Y0187754D01*
X0333700Y0188953D02*
X0334500Y0188953D01*
X0334500Y0190151D02*
X0333700Y0190151D01*
X0343900Y0190151D02*
X0344300Y0190151D01*
X0344300Y0188953D02*
X0343900Y0188953D01*
X0343900Y0187754D02*
X0344300Y0187754D01*
X0344300Y0186556D02*
X0343900Y0186556D01*
X0343900Y0185357D02*
X0344300Y0185357D01*
X0344300Y0192548D02*
X0343900Y0192548D01*
X0343900Y0193747D02*
X0344300Y0193747D01*
X0344300Y0194945D02*
X0343900Y0194945D01*
X0343900Y0196144D02*
X0344300Y0196144D01*
X0344300Y0197343D02*
X0343900Y0197343D01*
X0340638Y0212923D02*
X0338690Y0212923D01*
X0330940Y0230901D02*
X0329900Y0230901D01*
X0336000Y0251276D02*
X0337200Y0251276D01*
X0337200Y0252474D02*
X0336000Y0252474D01*
X0336000Y0253673D02*
X0337200Y0253673D01*
X0337200Y0254871D02*
X0336000Y0254871D01*
X0336000Y0256070D02*
X0337200Y0256070D01*
X0337200Y0257268D02*
X0336000Y0257268D01*
X0284500Y0198541D02*
X0283700Y0198541D01*
X0283700Y0197343D02*
X0284500Y0197343D01*
X0284500Y0196144D02*
X0283700Y0196144D01*
X0283700Y0194945D02*
X0284500Y0194945D01*
X0284500Y0193747D02*
X0283700Y0193747D01*
X0283700Y0192548D02*
X0284500Y0192548D01*
X0284500Y0190151D02*
X0283700Y0190151D01*
X0283700Y0188953D02*
X0284500Y0188953D01*
X0284500Y0187754D02*
X0283700Y0187754D01*
X0283700Y0186556D02*
X0284500Y0186556D01*
X0284500Y0185357D02*
X0283700Y0185357D01*
X0283700Y0184159D02*
X0284500Y0184159D01*
X0286659Y0184159D02*
X0298275Y0184159D01*
X0297714Y0185357D02*
X0287944Y0185357D01*
X0288602Y0186556D02*
X0297218Y0186556D01*
X0297100Y0187754D02*
X0288884Y0187754D01*
X0288900Y0188953D02*
X0297100Y0188953D01*
X0297100Y0190151D02*
X0288900Y0190151D01*
X0281541Y0184159D02*
X0272200Y0184159D01*
X0272200Y0185357D02*
X0280256Y0185357D01*
X0279598Y0186556D02*
X0272200Y0186556D01*
X0272200Y0187754D02*
X0279316Y0187754D01*
X0279300Y0188953D02*
X0272200Y0188953D01*
X0272200Y0190151D02*
X0279300Y0190151D01*
X0272200Y0182960D02*
X0299473Y0182960D01*
X0301431Y0181762D02*
X0272200Y0181762D01*
X0288632Y0179365D02*
X0299568Y0179365D01*
X0297493Y0178166D02*
X0290707Y0178166D01*
X0292046Y0176968D02*
X0296154Y0176968D01*
X0294999Y0175769D02*
X0293201Y0175769D01*
X0293893Y0174571D02*
X0294307Y0174571D01*
X0329900Y0178166D02*
X0330374Y0178166D01*
X0337826Y0178166D02*
X0342385Y0178166D01*
X0340001Y0176968D02*
X0339165Y0176968D01*
X0338455Y0160189D02*
X0341204Y0160189D01*
X0256000Y0147005D02*
X0165662Y0147005D01*
X0166860Y0145807D02*
X0256000Y0145807D01*
X0256000Y0144608D02*
X0167729Y0144608D01*
X0168225Y0143410D02*
X0256000Y0143410D01*
X0256000Y0142211D02*
X0168500Y0142211D01*
X0168500Y0141012D02*
X0256000Y0141012D01*
X0256000Y0139814D02*
X0168373Y0139814D01*
X0167877Y0138615D02*
X0256000Y0138615D01*
X0256000Y0137417D02*
X0167218Y0137417D01*
X0166019Y0136218D02*
X0256000Y0136218D01*
X0256000Y0135020D02*
X0163664Y0135020D01*
X0154536Y0135020D02*
X0133664Y0135020D01*
X0136019Y0136218D02*
X0149033Y0136218D01*
X0147414Y0137417D02*
X0137218Y0137417D01*
X0137877Y0138615D02*
X0146215Y0138615D01*
X0136218Y0126340D02*
X0133756Y0128801D01*
X0130540Y0130133D01*
X0127060Y0130133D01*
X0123844Y0128801D01*
X0121382Y0126340D01*
X0120050Y0123124D01*
X0120050Y0109743D01*
X0121382Y0106527D01*
X0123844Y0104065D01*
X0127060Y0102733D01*
X0130540Y0102733D01*
X0133756Y0104065D01*
X0136218Y0106527D01*
X0137550Y0109743D01*
X0137550Y0123124D01*
X0136218Y0126340D01*
X0135927Y0126630D02*
X0140479Y0126630D01*
X0140753Y0126841D02*
X0140072Y0126318D01*
X0139465Y0125711D01*
X0138942Y0125030D01*
X0138513Y0124286D01*
X0138184Y0123493D01*
X0137962Y0122664D01*
X0137850Y0121812D01*
X0137850Y0117033D01*
X0143800Y0117033D01*
X0143800Y0115833D01*
X0145000Y0115833D01*
X0145000Y0104956D01*
X0145681Y0105045D01*
X0146510Y0105267D01*
X0147303Y0105596D01*
X0148047Y0106025D01*
X0148728Y0106548D01*
X0149335Y0107155D01*
X0149858Y0107836D01*
X0150287Y0108580D01*
X0150616Y0109373D01*
X0150838Y0110202D01*
X0150950Y0111054D01*
X0150950Y0115833D01*
X0145000Y0115833D01*
X0145000Y0117033D01*
X0150950Y0117033D01*
X0150950Y0121812D01*
X0150838Y0122664D01*
X0150616Y0123493D01*
X0150287Y0124286D01*
X0149858Y0125030D01*
X0149335Y0125711D01*
X0148728Y0126318D01*
X0148047Y0126841D01*
X0147303Y0127270D01*
X0146510Y0127599D01*
X0145681Y0127821D01*
X0145000Y0127911D01*
X0145000Y0117033D01*
X0143800Y0117033D01*
X0143800Y0127911D01*
X0143119Y0127821D01*
X0142290Y0127599D01*
X0141497Y0127270D01*
X0140753Y0126841D01*
X0139251Y0125432D02*
X0136594Y0125432D01*
X0137090Y0124233D02*
X0138491Y0124233D01*
X0138062Y0123035D02*
X0137550Y0123035D01*
X0137550Y0121836D02*
X0137853Y0121836D01*
X0137850Y0120638D02*
X0137550Y0120638D01*
X0137550Y0119439D02*
X0137850Y0119439D01*
X0137850Y0118241D02*
X0137550Y0118241D01*
X0137550Y0117042D02*
X0137850Y0117042D01*
X0137850Y0115833D02*
X0137850Y0111054D01*
X0137962Y0110202D01*
X0138184Y0109373D01*
X0138513Y0108580D01*
X0138942Y0107836D01*
X0139465Y0107155D01*
X0140072Y0106548D01*
X0140753Y0106025D01*
X0141497Y0105596D01*
X0142290Y0105267D01*
X0143119Y0105045D01*
X0143800Y0104956D01*
X0143800Y0115833D01*
X0137850Y0115833D01*
X0137550Y0115844D02*
X0143800Y0115844D01*
X0143800Y0117042D02*
X0145000Y0117042D01*
X0145000Y0115844D02*
X0256000Y0115844D01*
X0256000Y0117042D02*
X0150950Y0117042D01*
X0150950Y0118241D02*
X0256000Y0118241D01*
X0256000Y0119439D02*
X0150950Y0119439D01*
X0150950Y0120638D02*
X0256000Y0120638D01*
X0256000Y0121836D02*
X0150947Y0121836D01*
X0150738Y0123035D02*
X0256000Y0123035D01*
X0256000Y0124233D02*
X0150309Y0124233D01*
X0149549Y0125432D02*
X0256000Y0125432D01*
X0256000Y0126630D02*
X0148321Y0126630D01*
X0145621Y0127829D02*
X0256000Y0127829D01*
X0256000Y0129027D02*
X0133210Y0129027D01*
X0134729Y0127829D02*
X0143179Y0127829D01*
X0143800Y0127829D02*
X0145000Y0127829D01*
X0145000Y0126630D02*
X0143800Y0126630D01*
X0143800Y0125432D02*
X0145000Y0125432D01*
X0145000Y0124233D02*
X0143800Y0124233D01*
X0143800Y0123035D02*
X0145000Y0123035D01*
X0145000Y0121836D02*
X0143800Y0121836D01*
X0143800Y0120638D02*
X0145000Y0120638D01*
X0145000Y0119439D02*
X0143800Y0119439D01*
X0143800Y0118241D02*
X0145000Y0118241D01*
X0145000Y0114645D02*
X0143800Y0114645D01*
X0143800Y0113447D02*
X0145000Y0113447D01*
X0145000Y0112248D02*
X0143800Y0112248D01*
X0143800Y0111050D02*
X0145000Y0111050D01*
X0145000Y0109851D02*
X0143800Y0109851D01*
X0143800Y0108653D02*
X0145000Y0108653D01*
X0145000Y0107454D02*
X0143800Y0107454D01*
X0143800Y0106256D02*
X0145000Y0106256D01*
X0145000Y0105057D02*
X0143800Y0105057D01*
X0143075Y0105057D02*
X0134748Y0105057D01*
X0135947Y0106256D02*
X0140453Y0106256D01*
X0139235Y0107454D02*
X0136602Y0107454D01*
X0137099Y0108653D02*
X0138483Y0108653D01*
X0138056Y0109851D02*
X0137550Y0109851D01*
X0137550Y0111050D02*
X0137851Y0111050D01*
X0137850Y0112248D02*
X0137550Y0112248D01*
X0137550Y0113447D02*
X0137850Y0113447D01*
X0137850Y0114645D02*
X0137550Y0114645D01*
X0145725Y0105057D02*
X0256000Y0105057D01*
X0256000Y0103859D02*
X0133258Y0103859D01*
X0124342Y0103859D02*
X0102200Y0103859D01*
X0102200Y0105057D02*
X0122852Y0105057D01*
X0121653Y0106256D02*
X0102200Y0106256D01*
X0102200Y0107454D02*
X0120998Y0107454D01*
X0120501Y0108653D02*
X0102200Y0108653D01*
X0102200Y0109851D02*
X0120050Y0109851D01*
X0120050Y0111050D02*
X0102200Y0111050D01*
X0102200Y0112248D02*
X0120050Y0112248D01*
X0120050Y0113447D02*
X0102200Y0113447D01*
X0102200Y0114645D02*
X0120050Y0114645D01*
X0120050Y0115844D02*
X0102200Y0115844D01*
X0102200Y0117042D02*
X0120050Y0117042D01*
X0120050Y0118241D02*
X0102200Y0118241D01*
X0102200Y0119439D02*
X0120050Y0119439D01*
X0120050Y0120638D02*
X0102200Y0120638D01*
X0102200Y0121836D02*
X0120050Y0121836D01*
X0120050Y0123035D02*
X0102200Y0123035D01*
X0102200Y0124233D02*
X0120510Y0124233D01*
X0121006Y0125432D02*
X0102200Y0125432D01*
X0102200Y0126630D02*
X0121673Y0126630D01*
X0122871Y0127829D02*
X0102200Y0127829D01*
X0102200Y0129027D02*
X0124390Y0129027D01*
X0124536Y0135020D02*
X0102200Y0135020D01*
X0102200Y0136218D02*
X0122181Y0136218D01*
X0120982Y0137417D02*
X0102200Y0137417D01*
X0102200Y0138615D02*
X0120323Y0138615D01*
X0119827Y0139814D02*
X0102200Y0139814D01*
X0102200Y0141012D02*
X0119700Y0141012D01*
X0119700Y0142211D02*
X0102200Y0142211D01*
X0102200Y0143410D02*
X0119975Y0143410D01*
X0120471Y0144608D02*
X0102200Y0144608D01*
X0102200Y0145807D02*
X0121340Y0145807D01*
X0122538Y0147005D02*
X0102200Y0147005D01*
X0086000Y0147005D02*
X0085400Y0147005D01*
X0085400Y0145807D02*
X0086000Y0145807D01*
X0086000Y0144608D02*
X0085400Y0144608D01*
X0085400Y0143410D02*
X0086000Y0143410D01*
X0086000Y0142211D02*
X0085400Y0142211D01*
X0085400Y0141012D02*
X0086000Y0141012D01*
X0086000Y0139814D02*
X0085400Y0139814D01*
X0085400Y0138615D02*
X0086000Y0138615D01*
X0086000Y0137417D02*
X0085400Y0137417D01*
X0085400Y0136218D02*
X0086000Y0136218D01*
X0086000Y0135020D02*
X0085400Y0135020D01*
X0085400Y0133821D02*
X0086000Y0133821D01*
X0086000Y0132623D02*
X0085400Y0132623D01*
X0085400Y0131424D02*
X0086000Y0131424D01*
X0086000Y0130226D02*
X0085400Y0130226D01*
X0085400Y0129027D02*
X0086000Y0129027D01*
X0086000Y0127829D02*
X0085400Y0127829D01*
X0085400Y0126630D02*
X0086000Y0126630D01*
X0086000Y0125432D02*
X0085400Y0125432D01*
X0085400Y0124233D02*
X0086000Y0124233D01*
X0086000Y0123035D02*
X0085400Y0123035D01*
X0085400Y0121836D02*
X0086000Y0121836D01*
X0086000Y0120638D02*
X0085400Y0120638D01*
X0085400Y0119439D02*
X0086000Y0119439D01*
X0086000Y0118241D02*
X0085400Y0118241D01*
X0085400Y0117042D02*
X0086000Y0117042D01*
X0086000Y0115844D02*
X0085400Y0115844D01*
X0085400Y0114645D02*
X0086000Y0114645D01*
X0086000Y0113447D02*
X0085400Y0113447D01*
X0085400Y0112248D02*
X0086000Y0112248D01*
X0086000Y0111050D02*
X0085400Y0111050D01*
X0085400Y0109851D02*
X0086000Y0109851D01*
X0086000Y0108653D02*
X0085400Y0108653D01*
X0085400Y0107454D02*
X0086000Y0107454D01*
X0086000Y0106256D02*
X0085400Y0106256D01*
X0085400Y0105057D02*
X0086000Y0105057D01*
X0086000Y0103859D02*
X0085400Y0103859D01*
X0085400Y0102660D02*
X0086000Y0102660D01*
X0086000Y0101462D02*
X0085400Y0101462D01*
X0085400Y0100263D02*
X0086000Y0100263D01*
X0086000Y0099065D02*
X0085400Y0099065D01*
X0085400Y0097866D02*
X0086000Y0097866D01*
X0086000Y0096668D02*
X0085400Y0096668D01*
X0085400Y0095469D02*
X0086000Y0095469D01*
X0086000Y0094271D02*
X0085400Y0094271D01*
X0085400Y0093072D02*
X0086000Y0093072D01*
X0086000Y0091874D02*
X0085247Y0091874D01*
X0084926Y0090675D02*
X0086000Y0090675D01*
X0086143Y0089477D02*
X0084575Y0089477D01*
X0083883Y0088278D02*
X0086639Y0088278D01*
X0087136Y0087079D02*
X0083191Y0087079D01*
X0082029Y0085881D02*
X0088197Y0085881D01*
X0089395Y0084682D02*
X0080677Y0084682D01*
X0078602Y0083484D02*
X0092125Y0083484D01*
X0096075Y0083484D02*
X0262125Y0083484D01*
X0259395Y0084682D02*
X0098805Y0084682D01*
X0100003Y0085881D02*
X0258197Y0085881D01*
X0257136Y0087079D02*
X0101064Y0087079D01*
X0101560Y0088278D02*
X0256639Y0088278D01*
X0256143Y0089477D02*
X0102057Y0089477D01*
X0102200Y0090675D02*
X0256000Y0090675D01*
X0256000Y0091874D02*
X0102200Y0091874D01*
X0102200Y0093072D02*
X0256000Y0093072D01*
X0256000Y0094271D02*
X0102200Y0094271D01*
X0102200Y0095469D02*
X0256000Y0095469D01*
X0256000Y0096668D02*
X0102200Y0096668D01*
X0102200Y0097866D02*
X0256000Y0097866D01*
X0256000Y0099065D02*
X0102200Y0099065D01*
X0102200Y0100263D02*
X0256000Y0100263D01*
X0256000Y0101462D02*
X0102200Y0101462D01*
X0102200Y0102660D02*
X0256000Y0102660D01*
X0256000Y0106256D02*
X0148347Y0106256D01*
X0149565Y0107454D02*
X0256000Y0107454D01*
X0256000Y0108653D02*
X0150317Y0108653D01*
X0150744Y0109851D02*
X0256000Y0109851D01*
X0256000Y0111050D02*
X0150949Y0111050D01*
X0150950Y0112248D02*
X0256000Y0112248D01*
X0256000Y0113447D02*
X0150950Y0113447D01*
X0150950Y0114645D02*
X0256000Y0114645D01*
X0256000Y0130226D02*
X0102200Y0130226D01*
X0102200Y0131424D02*
X0256000Y0131424D01*
X0256000Y0132623D02*
X0102200Y0132623D01*
X0102200Y0133821D02*
X0256000Y0133821D01*
X0086000Y0148204D02*
X0085400Y0148204D01*
X0085400Y0149402D02*
X0086000Y0149402D01*
X0086000Y0150601D02*
X0085400Y0150601D01*
X0085400Y0151799D02*
X0086000Y0151799D01*
X0086000Y0152998D02*
X0085400Y0152998D01*
X0085400Y0154196D02*
X0086000Y0154196D01*
X0086000Y0155395D02*
X0085400Y0155395D01*
X0085400Y0156593D02*
X0086000Y0156593D01*
X0086000Y0157792D02*
X0085400Y0157792D01*
X0085400Y0158990D02*
X0086000Y0158990D01*
X0086000Y0160189D02*
X0085400Y0160189D01*
X0085400Y0161387D02*
X0086000Y0161387D01*
X0086000Y0162586D02*
X0085400Y0162586D01*
X0085400Y0163784D02*
X0086000Y0163784D01*
X0086000Y0164983D02*
X0085400Y0164983D01*
X0085400Y0166181D02*
X0086000Y0166181D01*
X0086000Y0167380D02*
X0085400Y0167380D01*
X0085400Y0168578D02*
X0086000Y0168578D01*
X0086000Y0169777D02*
X0085400Y0169777D01*
X0085251Y0170975D02*
X0086000Y0170975D01*
X0086000Y0172174D02*
X0084930Y0172174D01*
X0084585Y0173372D02*
X0086000Y0173372D01*
X0086000Y0174571D02*
X0083893Y0174571D01*
X0083201Y0175769D02*
X0086000Y0175769D01*
X0086000Y0176968D02*
X0082046Y0176968D01*
X0080707Y0178166D02*
X0086000Y0178166D01*
X0086000Y0192548D02*
X0078900Y0192548D01*
X0078900Y0193747D02*
X0086000Y0193747D01*
X0086000Y0194945D02*
X0078900Y0194945D01*
X0078656Y0196144D02*
X0086000Y0196144D01*
X0086000Y0197343D02*
X0078065Y0197343D01*
X0076887Y0198541D02*
X0086000Y0198541D01*
X0086000Y0214122D02*
X0076604Y0214122D01*
X0077917Y0215320D02*
X0086000Y0215320D01*
X0086000Y0216519D02*
X0078590Y0216519D01*
X0078878Y0217717D02*
X0086000Y0217717D01*
X0086000Y0218916D02*
X0078900Y0218916D01*
X0078900Y0220114D02*
X0086000Y0220114D01*
X0074500Y0220114D02*
X0073700Y0220114D01*
X0073700Y0218916D02*
X0074500Y0218916D01*
X0074500Y0217717D02*
X0073700Y0217717D01*
X0073700Y0216519D02*
X0074500Y0216519D01*
X0074500Y0215320D02*
X0073700Y0215320D01*
X0073700Y0214122D02*
X0074500Y0214122D01*
X0074500Y0223710D02*
X0073700Y0223710D01*
X0073700Y0224908D02*
X0074500Y0224908D01*
X0074500Y0226107D02*
X0073700Y0226107D01*
X0073700Y0227305D02*
X0074500Y0227305D01*
X0074500Y0228504D02*
X0073700Y0228504D01*
X0019728Y0102660D02*
X0017037Y0102660D01*
X0018182Y0085881D02*
X0019053Y0085881D01*
X0020416Y0084682D02*
X0015773Y0084682D01*
X0018245Y0075578D02*
X0016962Y0075130D01*
X0015738Y0074540D01*
X0014587Y0073817D01*
X0013524Y0072970D01*
X0012564Y0072009D01*
X0011716Y0070946D01*
X0010993Y0069795D01*
X0010403Y0068571D01*
X0009955Y0067288D01*
X0009652Y0065963D01*
X0009500Y0064613D01*
X0009500Y0064533D01*
X0021000Y0064533D01*
X0021000Y0076033D01*
X0020920Y0076033D01*
X0019570Y0075881D01*
X0018245Y0075578D01*
X0016889Y0075094D02*
X0005400Y0075094D01*
X0005400Y0073896D02*
X0014713Y0073896D01*
X0013252Y0072697D02*
X0005400Y0072697D01*
X0005400Y0071499D02*
X0012157Y0071499D01*
X0011310Y0070300D02*
X0005400Y0070300D01*
X0005400Y0069102D02*
X0010659Y0069102D01*
X0010170Y0067903D02*
X0005400Y0067903D01*
X0005400Y0066705D02*
X0009821Y0066705D01*
X0009601Y0065506D02*
X0005400Y0065506D01*
X0005400Y0064308D02*
X0021000Y0064308D01*
X0021000Y0065506D02*
X0022200Y0065506D01*
X0022200Y0066705D02*
X0021000Y0066705D01*
X0021000Y0067903D02*
X0022200Y0067903D01*
X0022200Y0069102D02*
X0021000Y0069102D01*
X0021000Y0070300D02*
X0022200Y0070300D01*
X0022200Y0071499D02*
X0021000Y0071499D01*
X0021000Y0072697D02*
X0022200Y0072697D01*
X0022200Y0073896D02*
X0021000Y0073896D01*
X0021000Y0075094D02*
X0022200Y0075094D01*
X0009516Y0063109D02*
X0005400Y0063109D01*
X0005400Y0061911D02*
X0009651Y0061911D01*
X0009924Y0060712D02*
X0005400Y0060712D01*
X0005400Y0059514D02*
X0010327Y0059514D01*
X0010875Y0058315D02*
X0005400Y0058315D01*
X0005400Y0057117D02*
X0011593Y0057117D01*
X0012515Y0055918D02*
X0005400Y0055918D01*
X0005400Y0054720D02*
X0013746Y0054720D01*
X0015427Y0053521D02*
X0005400Y0053521D01*
X0005400Y0052323D02*
X0018145Y0052323D01*
X0027773Y0053521D02*
X0048600Y0053521D01*
X0058602Y0083484D02*
X0069598Y0083484D01*
X0067523Y0084682D02*
X0060677Y0084682D01*
X0062029Y0085881D02*
X0066171Y0085881D01*
X0065009Y0087079D02*
X0063191Y0087079D01*
X0063883Y0088278D02*
X0064317Y0088278D01*
D16*
X0056600Y0103933D03*
X0051600Y0108933D03*
X0056600Y0113933D03*
X0071600Y0108933D03*
X0076600Y0103933D03*
X0076600Y0113933D03*
X0106600Y0116433D03*
X0106600Y0106433D03*
X0106600Y0096433D03*
X0109100Y0088933D03*
X0116600Y0088933D03*
X0126600Y0088933D03*
X0134100Y0088933D03*
X0141600Y0088933D03*
X0149100Y0088933D03*
X0156600Y0088933D03*
X0164100Y0088933D03*
X0164100Y0081433D03*
X0156600Y0081433D03*
X0149100Y0081433D03*
X0141600Y0081433D03*
X0134100Y0081433D03*
X0126600Y0081433D03*
X0116600Y0081433D03*
X0091600Y0061433D03*
X0091600Y0053933D03*
X0099100Y0053933D03*
X0104100Y0051433D03*
X0111600Y0051433D03*
X0119100Y0051433D03*
X0126600Y0051433D03*
X0134100Y0051433D03*
X0141600Y0051433D03*
X0149100Y0051433D03*
X0156600Y0051433D03*
X0164100Y0051433D03*
X0171600Y0051433D03*
X0179100Y0051433D03*
X0186600Y0051433D03*
X0194100Y0051433D03*
X0201600Y0051433D03*
X0209100Y0051433D03*
X0216600Y0051433D03*
X0224100Y0051433D03*
X0231600Y0051433D03*
X0239100Y0051433D03*
X0246600Y0051433D03*
X0254100Y0051433D03*
X0259100Y0053933D03*
X0266600Y0053933D03*
X0266600Y0061433D03*
X0241600Y0081433D03*
X0241600Y0088933D03*
X0249100Y0088933D03*
X0254100Y0096433D03*
X0241600Y0096433D03*
X0231600Y0096433D03*
X0231600Y0088933D03*
X0231600Y0081433D03*
X0224100Y0081433D03*
X0216600Y0081433D03*
X0209100Y0081433D03*
X0201600Y0081433D03*
X0194100Y0081433D03*
X0186600Y0081433D03*
X0179100Y0081433D03*
X0171600Y0081433D03*
X0154100Y0098933D03*
X0154100Y0108933D03*
X0161600Y0118933D03*
X0161600Y0126433D03*
X0184100Y0126433D03*
X0191600Y0126433D03*
X0199100Y0126433D03*
X0206600Y0126433D03*
X0206600Y0118933D03*
X0199100Y0118933D03*
X0199100Y0113933D03*
X0191600Y0118933D03*
X0191600Y0133933D03*
X0184100Y0133933D03*
X0184100Y0143933D03*
X0191600Y0143933D03*
X0199100Y0133933D03*
X0206600Y0133933D03*
X0211600Y0143933D03*
X0219100Y0131433D03*
X0226600Y0131433D03*
X0226600Y0121433D03*
X0219100Y0121433D03*
X0199100Y0098933D03*
X0199100Y0088933D03*
X0116600Y0126433D03*
X0106600Y0126433D03*
X0071600Y0148933D03*
X0076600Y0153933D03*
X0071600Y0158933D03*
X0056600Y0153933D03*
X0051600Y0148933D03*
X0051600Y0158933D03*
X0044100Y0178933D03*
X0044100Y0186433D03*
X0044100Y0196433D03*
X0064100Y0206433D03*
X0044100Y0216433D03*
X0044100Y0228933D03*
X0049100Y0241433D03*
X0049100Y0248933D03*
X0061600Y0248933D03*
X0071600Y0248933D03*
X0081600Y0248933D03*
X0091600Y0248933D03*
X0101600Y0248933D03*
X0111600Y0248933D03*
X0121600Y0248933D03*
X0124100Y0238933D03*
X0131600Y0238933D03*
X0126600Y0231433D03*
X0131600Y0223933D03*
X0136600Y0231433D03*
X0146600Y0231433D03*
X0141600Y0223933D03*
X0151600Y0223933D03*
X0156600Y0231433D03*
X0166600Y0231433D03*
X0161600Y0223933D03*
X0171600Y0223933D03*
X0176600Y0231433D03*
X0186600Y0231433D03*
X0181600Y0223933D03*
X0191600Y0223933D03*
X0196600Y0231433D03*
X0206600Y0231433D03*
X0201600Y0223933D03*
X0211600Y0223933D03*
X0216600Y0218933D03*
X0224100Y0218933D03*
X0231600Y0218933D03*
X0236600Y0223933D03*
X0231600Y0231433D03*
X0224100Y0231433D03*
X0216600Y0231433D03*
X0211600Y0238933D03*
X0201600Y0238933D03*
X0191600Y0238933D03*
X0181600Y0238933D03*
X0171600Y0238933D03*
X0161600Y0238933D03*
X0151600Y0238933D03*
X0141600Y0238933D03*
X0154100Y0188933D03*
X0161600Y0188933D03*
X0161600Y0178933D03*
X0161600Y0171433D03*
X0154100Y0171433D03*
X0146600Y0171433D03*
X0139100Y0171433D03*
X0139100Y0178933D03*
X0146600Y0178933D03*
X0154100Y0178933D03*
X0169100Y0178933D03*
X0169100Y0171433D03*
X0176600Y0171433D03*
X0184100Y0171433D03*
X0191600Y0171433D03*
X0191600Y0178933D03*
X0184100Y0178933D03*
X0176600Y0178933D03*
X0184100Y0163933D03*
X0191600Y0163933D03*
X0191600Y0156433D03*
X0184100Y0156433D03*
X0216600Y0156433D03*
X0224100Y0156433D03*
X0224100Y0163933D03*
X0216600Y0163933D03*
X0216600Y0171433D03*
X0224100Y0171433D03*
X0224100Y0178933D03*
X0216600Y0178933D03*
X0231600Y0176433D03*
X0231600Y0168933D03*
X0224100Y0193933D03*
X0216600Y0193933D03*
X0216600Y0201433D03*
X0224100Y0201433D03*
X0229100Y0196433D03*
X0231600Y0201433D03*
X0229100Y0238933D03*
X0221600Y0238933D03*
X0236600Y0238933D03*
X0236600Y0243933D03*
X0236600Y0251433D03*
X0246600Y0251433D03*
X0256600Y0251433D03*
X0266600Y0251433D03*
X0276600Y0251433D03*
X0286600Y0251433D03*
X0296600Y0251433D03*
X0306600Y0251433D03*
X0306600Y0243933D03*
X0316600Y0226433D03*
X0316600Y0216433D03*
X0316600Y0206433D03*
X0316600Y0196433D03*
X0316600Y0186433D03*
X0316600Y0176433D03*
X0306600Y0158933D03*
X0301600Y0153933D03*
X0306600Y0148933D03*
X0286600Y0148933D03*
X0281600Y0153933D03*
X0286600Y0158933D03*
X0319100Y0121433D03*
X0319100Y0113933D03*
X0306600Y0108933D03*
X0301600Y0103933D03*
X0301600Y0113933D03*
X0286600Y0108933D03*
X0281600Y0103933D03*
X0281600Y0113933D03*
X0319100Y0103933D03*
X0319100Y0093933D03*
X0319100Y0083933D03*
X0316600Y0073933D03*
X0311600Y0068933D03*
X0316600Y0063933D03*
X0316600Y0056433D03*
X0316600Y0048933D03*
X0124100Y0178933D03*
X0039100Y0091433D03*
X0039100Y0083933D03*
X0034100Y0078933D03*
X0041600Y0073933D03*
X0046600Y0068933D03*
X0041600Y0063933D03*
X0041600Y0056433D03*
X0041600Y0048933D03*
X0009100Y0051433D03*
X0009100Y0078933D03*
D17*
X0041600Y0096433D03*
X0041600Y0103933D03*
X0041600Y0111433D03*
X0041600Y0118933D03*
X0041600Y0126433D03*
X0041600Y0133933D03*
X0041600Y0141433D03*
X0041600Y0148933D03*
X0041600Y0156433D03*
X0041600Y0163933D03*
X0041600Y0171433D03*
X0316600Y0168933D03*
X0316600Y0161433D03*
X0316600Y0153933D03*
X0316600Y0146433D03*
X0316600Y0138933D03*
X0316600Y0131433D03*
D18*
X0304100Y0123933D02*
X0304100Y0093933D01*
X0284100Y0093933D02*
X0284100Y0123933D01*
X0284100Y0138933D01*
X0284100Y0168933D01*
X0304100Y0168933D02*
X0304100Y0138933D01*
X0304100Y0123933D01*
X0074100Y0123933D02*
X0074100Y0093933D01*
X0054100Y0093933D02*
X0054100Y0123933D01*
X0054100Y0138933D01*
X0054100Y0168933D01*
X0074100Y0168933D02*
X0074100Y0138933D01*
X0074100Y0123933D01*
D19*
X0076600Y0113933D01*
X0071600Y0108933D01*
X0076600Y0103933D01*
X0056600Y0103933D02*
X0051600Y0108933D01*
X0056600Y0113933D01*
X0054100Y0123933D01*
X0034100Y0138933D02*
X0024100Y0138933D01*
X0014100Y0138933D01*
X0034100Y0138933D02*
X0034100Y0098933D01*
X0029100Y0093933D01*
X0024100Y0093933D01*
X0014100Y0093933D01*
X0034100Y0138933D02*
X0034100Y0191433D01*
X0034100Y0206433D01*
X0064100Y0206433D01*
X0034100Y0206433D02*
X0034100Y0231433D01*
X0039100Y0236433D01*
X0039100Y0253933D01*
X0044100Y0258933D01*
X0314100Y0258933D01*
X0319100Y0253933D01*
X0319100Y0236433D01*
X0324100Y0231433D01*
X0324100Y0221433D01*
X0334100Y0221433D01*
X0344100Y0221433D01*
X0324100Y0221433D02*
X0324100Y0168933D01*
X0324100Y0128933D01*
X0329100Y0123933D01*
X0334100Y0123933D01*
X0344100Y0123933D01*
X0306600Y0108933D02*
X0301600Y0103933D01*
X0306600Y0108933D02*
X0301600Y0113933D01*
X0304100Y0123933D01*
X0284100Y0123933D02*
X0281600Y0113933D01*
X0286600Y0108933D01*
X0281600Y0103933D01*
X0286600Y0148933D02*
X0281600Y0153933D01*
X0286600Y0158933D01*
X0284100Y0168933D01*
X0304100Y0168933D02*
X0306600Y0158933D01*
X0301600Y0153933D01*
X0306600Y0148933D01*
X0324100Y0168933D02*
X0344100Y0168933D01*
X0334100Y0168933D01*
X0159100Y0141433D02*
X0151600Y0141433D01*
X0124100Y0168933D01*
X0124100Y0178933D01*
X0076600Y0153933D02*
X0071600Y0148933D01*
X0076600Y0153933D02*
X0071600Y0158933D01*
X0074100Y0168933D01*
X0054100Y0168933D02*
X0051600Y0158933D01*
X0056600Y0153933D01*
X0051600Y0148933D01*
X0034100Y0191433D02*
X0024100Y0191433D01*
X0014100Y0191433D01*
D20*
X0094100Y0191433D02*
X0094100Y0168933D01*
X0094100Y0138933D01*
X0094100Y0123933D01*
X0094100Y0093933D01*
X0094100Y0091433D01*
X0094100Y0188933D02*
X0094100Y0191433D01*
X0094100Y0221433D01*
X0094100Y0223933D01*
X0264100Y0223933D02*
X0264100Y0221433D01*
X0264100Y0191433D01*
X0264100Y0168933D01*
X0264100Y0138933D01*
X0264100Y0123933D01*
X0264100Y0093933D01*
X0264100Y0091433D01*
M02*
