G75*
%MOIN*%
%OFA0B0*%
%FSLAX25Y25*%
%IPPOS*%
%LPD*%
%AMOC8*
5,1,8,0,0,1.08239X$1,22.5*
%
%ADD10R,0.07087X0.06299*%
%ADD11R,0.06299X0.07087*%
%ADD12R,0.10236X0.08661*%
%ADD13C,0.05600*%
%ADD14C,0.21000*%
%ADD15R,0.21260X0.24409*%
%ADD16R,0.03937X0.06299*%
%ADD17C,0.09900*%
%ADD18C,0.06400*%
%ADD19R,0.06299X0.07874*%
%ADD20R,0.07874X0.06299*%
%ADD21R,0.03150X0.05512*%
%ADD22R,0.03150X0.07480*%
%ADD23C,0.06000*%
%ADD24R,0.09000X0.20000*%
%ADD25C,0.06600*%
%ADD26C,0.04000*%
%ADD27C,0.02400*%
%ADD28C,0.01200*%
%ADD29OC8,0.05000*%
%ADD30OC8,0.04362*%
%ADD31C,0.03200*%
%ADD32C,0.15000*%
%ADD33C,0.08600*%
D10*
X0204100Y0148421D03*
X0204100Y0159445D03*
X0184100Y0188421D03*
X0171600Y0188421D03*
X0171600Y0199445D03*
X0184100Y0199445D03*
X0144100Y0199445D03*
X0144100Y0188421D03*
X0121600Y0210921D03*
X0111600Y0210921D03*
X0111600Y0221945D03*
X0121600Y0221945D03*
X0246600Y0221945D03*
X0246600Y0210921D03*
D11*
X0232112Y0186433D03*
X0221088Y0186433D03*
X0202112Y0211433D03*
X0191088Y0211433D03*
X0162112Y0211433D03*
X0151088Y0211433D03*
X0233588Y0158933D03*
X0244612Y0158933D03*
X0174612Y0108933D03*
X0163588Y0108933D03*
X0163588Y0098933D03*
X0174612Y0098933D03*
D12*
X0224257Y0143933D03*
X0243943Y0143933D03*
D13*
X0161900Y0141433D02*
X0156300Y0141433D01*
X0131900Y0141433D02*
X0126300Y0141433D01*
X0014100Y0141733D02*
X0014100Y0136133D01*
X0014100Y0126733D02*
X0014100Y0121133D01*
X0014100Y0096733D02*
X0014100Y0091133D01*
X0014100Y0166133D02*
X0014100Y0171733D01*
X0014100Y0188633D02*
X0014100Y0194233D01*
X0014100Y0218633D02*
X0014100Y0224233D01*
X0344100Y0224233D02*
X0344100Y0218633D01*
X0344100Y0194233D02*
X0344100Y0188633D01*
X0344100Y0171733D02*
X0344100Y0166133D01*
X0344100Y0141733D02*
X0344100Y0136133D01*
X0344100Y0126733D02*
X0344100Y0121133D01*
X0344100Y0096733D02*
X0344100Y0091133D01*
D14*
X0336600Y0063933D03*
X0336600Y0246433D03*
X0021600Y0246433D03*
X0021600Y0063933D03*
D15*
X0199100Y0126276D03*
D16*
X0190124Y0097535D03*
X0208076Y0097535D03*
D17*
X0144400Y0111483D02*
X0144400Y0121383D01*
X0128800Y0121383D02*
X0128800Y0111483D01*
D18*
X0094100Y0120733D02*
X0094100Y0127133D01*
X0094100Y0135733D02*
X0094100Y0142133D01*
X0074100Y0142133D02*
X0074100Y0135733D01*
X0074100Y0127133D02*
X0074100Y0120733D01*
X0054100Y0120733D02*
X0054100Y0127133D01*
X0054100Y0135733D02*
X0054100Y0142133D01*
X0024100Y0142133D02*
X0024100Y0135733D01*
X0024100Y0127133D02*
X0024100Y0120733D01*
X0024100Y0097133D02*
X0024100Y0090733D01*
X0054100Y0090733D02*
X0054100Y0097133D01*
X0074100Y0097133D02*
X0074100Y0090733D01*
X0094100Y0090733D02*
X0094100Y0097133D01*
X0094100Y0165733D02*
X0094100Y0172133D01*
X0074100Y0172133D02*
X0074100Y0165733D01*
X0054100Y0165733D02*
X0054100Y0172133D01*
X0054100Y0188233D02*
X0054100Y0194633D01*
X0074100Y0194633D02*
X0074100Y0188233D01*
X0094100Y0188233D02*
X0094100Y0194633D01*
X0094100Y0218233D02*
X0094100Y0224633D01*
X0074100Y0224633D02*
X0074100Y0218233D01*
X0054100Y0218233D02*
X0054100Y0224633D01*
X0024100Y0224633D02*
X0024100Y0218233D01*
X0024100Y0194633D02*
X0024100Y0188233D01*
X0024100Y0172133D02*
X0024100Y0165733D01*
X0264100Y0165733D02*
X0264100Y0172133D01*
X0284100Y0172133D02*
X0284100Y0165733D01*
X0304100Y0165733D02*
X0304100Y0172133D01*
X0304100Y0188233D02*
X0304100Y0194633D01*
X0284100Y0194633D02*
X0284100Y0188233D01*
X0264100Y0188233D02*
X0264100Y0194633D01*
X0264100Y0218233D02*
X0264100Y0224633D01*
X0284100Y0224633D02*
X0284100Y0218233D01*
X0304100Y0218233D02*
X0304100Y0224633D01*
X0334100Y0224633D02*
X0334100Y0218233D01*
X0334100Y0194633D02*
X0334100Y0188233D01*
X0334100Y0172133D02*
X0334100Y0165733D01*
X0334100Y0142133D02*
X0334100Y0135733D01*
X0334100Y0127133D02*
X0334100Y0120733D01*
X0304100Y0120733D02*
X0304100Y0127133D01*
X0304100Y0135733D02*
X0304100Y0142133D01*
X0284100Y0142133D02*
X0284100Y0135733D01*
X0284100Y0127133D02*
X0284100Y0120733D01*
X0264100Y0120733D02*
X0264100Y0127133D01*
X0264100Y0135733D02*
X0264100Y0142133D01*
X0264100Y0097133D02*
X0264100Y0090733D01*
X0284100Y0090733D02*
X0284100Y0097133D01*
X0304100Y0097133D02*
X0304100Y0090733D01*
X0334100Y0090733D02*
X0334100Y0097133D01*
D19*
X0182112Y0211433D03*
X0171088Y0211433D03*
X0142112Y0211433D03*
X0131088Y0211433D03*
D20*
X0204100Y0199445D03*
X0204100Y0188421D03*
X0204100Y0179445D03*
X0204100Y0168421D03*
X0244100Y0168421D03*
X0244100Y0179445D03*
X0244100Y0188421D03*
X0244100Y0199445D03*
D21*
X0230002Y0211134D03*
X0218198Y0211134D03*
D22*
X0224100Y0212134D03*
D23*
X0225100Y0218449D02*
X0223100Y0218449D01*
X0223100Y0226819D01*
X0225100Y0226819D01*
X0225100Y0218449D01*
X0225100Y0224448D02*
X0223100Y0224448D01*
D24*
X0274200Y0054033D03*
X0291600Y0054033D03*
X0309000Y0054033D03*
X0084000Y0054033D03*
X0066600Y0054033D03*
X0049200Y0054033D03*
D25*
X0128800Y0116433D02*
X0128800Y0136133D01*
X0129100Y0138933D01*
X0204100Y0159445D02*
X0204100Y0168421D01*
X0204100Y0179445D02*
X0204100Y0188421D01*
X0184100Y0199445D02*
X0184100Y0211433D01*
X0191088Y0211433D01*
X0184100Y0211433D02*
X0182112Y0211433D01*
X0171088Y0211433D02*
X0171088Y0199957D01*
X0171600Y0199445D01*
X0171088Y0211433D02*
X0162112Y0211433D01*
X0151088Y0211433D02*
X0144100Y0211433D01*
X0144100Y0199445D01*
X0144100Y0211433D02*
X0142112Y0211433D01*
X0131088Y0211433D02*
X0130576Y0210921D01*
X0121600Y0210921D01*
X0111600Y0210921D01*
X0111600Y0221945D02*
X0111600Y0231433D01*
X0106600Y0236433D01*
X0059100Y0236433D01*
X0054100Y0231433D01*
X0054100Y0221433D01*
X0054100Y0191433D01*
X0202112Y0211433D02*
X0204100Y0211433D01*
X0209100Y0211433D01*
X0239100Y0211433D02*
X0244100Y0211433D01*
X0246600Y0211433D01*
X0246600Y0210921D01*
X0246600Y0221945D02*
X0246600Y0231433D01*
X0251600Y0236433D01*
X0299100Y0236433D01*
X0304100Y0231433D01*
X0304100Y0228933D01*
X0304100Y0221433D01*
X0304100Y0191433D01*
X0304100Y0188933D01*
X0244100Y0188421D02*
X0244100Y0186433D01*
X0232112Y0186433D01*
X0244100Y0186433D02*
X0244100Y0179445D01*
D26*
X0221088Y0186433D02*
X0221600Y0189445D01*
X0221600Y0193933D01*
X0224100Y0196433D01*
X0224100Y0212134D01*
X0224100Y0222634D01*
X0217899Y0211433D02*
X0209100Y0211433D01*
X0217899Y0211433D02*
X0218198Y0211134D01*
X0230002Y0211134D02*
X0230301Y0211433D01*
X0239100Y0211433D01*
X0244612Y0158933D02*
X0244612Y0144602D01*
X0243943Y0143933D01*
X0244100Y0143776D01*
X0244100Y0116433D01*
X0236600Y0108933D01*
X0214100Y0108933D01*
X0208076Y0102909D01*
X0208076Y0097535D01*
X0190124Y0097535D02*
X0190124Y0102909D01*
X0184100Y0108933D01*
X0174612Y0108933D01*
X0174612Y0098933D01*
X0174612Y0108933D02*
X0174100Y0109445D01*
X0174100Y0136433D01*
X0169100Y0141433D01*
X0159100Y0141433D01*
X0129100Y0141433D02*
X0128800Y0141133D01*
X0124100Y0178933D02*
X0096600Y0206433D01*
X0064100Y0206433D01*
D27*
X0129100Y0141433D02*
X0129100Y0138933D01*
X0204100Y0199445D02*
X0204100Y0211433D01*
X0244100Y0211433D02*
X0244100Y0199445D01*
D28*
X0005400Y0261334D02*
X0005400Y0047733D01*
X0043100Y0047733D01*
X0043100Y0053433D01*
X0044100Y0053433D01*
X0044100Y0054633D01*
X0043100Y0054633D01*
X0043100Y0064244D01*
X0043209Y0064651D01*
X0043420Y0065015D01*
X0043718Y0065313D01*
X0044082Y0065524D01*
X0044100Y0065529D01*
X0044100Y0076154D01*
X0043570Y0077071D01*
X0042800Y0079945D01*
X0042800Y0170421D01*
X0043570Y0173295D01*
X0045058Y0175871D01*
X0046600Y0177414D01*
X0046600Y0233933D01*
X0048052Y0235385D01*
X0048081Y0235455D01*
X0050078Y0237452D01*
X0050078Y0237452D01*
X0053081Y0240455D01*
X0053081Y0240455D01*
X0055078Y0242452D01*
X0055148Y0242481D01*
X0059100Y0246433D01*
X0121600Y0246433D01*
X0121600Y0222545D01*
X0122200Y0222545D01*
X0122200Y0226694D01*
X0125354Y0226694D01*
X0125761Y0226585D01*
X0126126Y0226375D01*
X0126424Y0226077D01*
X0126634Y0225712D01*
X0126743Y0225305D01*
X0126743Y0222545D01*
X0122200Y0222545D01*
X0122200Y0221433D01*
X0199100Y0221433D01*
X0199100Y0246433D01*
X0239100Y0246433D01*
X0239100Y0221433D01*
X0234100Y0221433D01*
X0234100Y0216433D01*
X0214100Y0216433D01*
X0214100Y0221433D01*
X0199100Y0221433D01*
X0199100Y0246433D01*
X0299100Y0246433D01*
X0303052Y0242481D01*
X0303122Y0242452D01*
X0305119Y0240455D01*
X0310119Y0235455D01*
X0310148Y0235385D01*
X0314100Y0231433D01*
X0314100Y0174213D01*
X0314630Y0173295D01*
X0315400Y0170421D01*
X0315400Y0079945D01*
X0314630Y0077071D01*
X0314100Y0076154D01*
X0314100Y0065529D01*
X0314118Y0065524D01*
X0313711Y0065633D01*
X0309600Y0065633D01*
X0309600Y0054633D01*
X0315100Y0054633D01*
X0315100Y0064244D01*
X0314991Y0064651D01*
X0314780Y0065015D01*
X0314482Y0065313D01*
X0314118Y0065524D01*
X0314482Y0065313D01*
X0314780Y0065015D01*
X0314991Y0064651D01*
X0315100Y0064244D01*
X0315100Y0054633D01*
X0314100Y0054633D01*
X0314100Y0053433D01*
X0315100Y0053433D01*
X0309600Y0053433D01*
X0309600Y0054633D01*
X0308400Y0054633D01*
X0308400Y0065633D01*
X0305800Y0065633D01*
X0319100Y0078933D01*
X0319100Y0045533D01*
X0315100Y0045533D01*
X0315100Y0053433D01*
X0315100Y0047733D01*
X0352721Y0047733D01*
X0352721Y0261334D01*
X0005400Y0261334D01*
X0005400Y0260864D02*
X0352721Y0260864D01*
X0352721Y0259665D02*
X0005400Y0259665D01*
X0005400Y0258467D02*
X0020331Y0258467D01*
X0020920Y0258533D02*
X0019570Y0258381D01*
X0018245Y0258078D01*
X0016962Y0257630D01*
X0015738Y0257040D01*
X0014587Y0256317D01*
X0013524Y0255470D01*
X0012564Y0254509D01*
X0011716Y0253446D01*
X0010993Y0252295D01*
X0010403Y0251071D01*
X0009955Y0249788D01*
X0009652Y0248463D01*
X0009500Y0247113D01*
X0009500Y0247033D01*
X0021000Y0247033D01*
X0021000Y0245833D01*
X0022200Y0245833D01*
X0022200Y0234333D01*
X0022280Y0234333D01*
X0023630Y0234485D01*
X0024955Y0234788D01*
X0026238Y0235237D01*
X0027462Y0235826D01*
X0028613Y0236549D01*
X0029675Y0237397D01*
X0030636Y0238358D01*
X0031484Y0239420D01*
X0032207Y0240571D01*
X0032797Y0241795D01*
X0033245Y0243078D01*
X0033548Y0244403D01*
X0033700Y0245754D01*
X0033700Y0245833D01*
X0022200Y0245833D01*
X0022200Y0247033D01*
X0033700Y0247033D01*
X0033700Y0247113D01*
X0033548Y0248463D01*
X0033245Y0249788D01*
X0032797Y0251071D01*
X0032207Y0252295D01*
X0031484Y0253446D01*
X0030636Y0254509D01*
X0029675Y0255470D01*
X0028613Y0256317D01*
X0027462Y0257040D01*
X0026238Y0257630D01*
X0024955Y0258078D01*
X0023630Y0258381D01*
X0022280Y0258533D01*
X0022200Y0258533D01*
X0022200Y0247033D01*
X0021000Y0247033D01*
X0021000Y0258533D01*
X0020920Y0258533D01*
X0021000Y0258467D02*
X0022200Y0258467D01*
X0022869Y0258467D02*
X0335331Y0258467D01*
X0335920Y0258533D02*
X0334570Y0258381D01*
X0333245Y0258078D01*
X0331962Y0257630D01*
X0330738Y0257040D01*
X0329587Y0256317D01*
X0328524Y0255470D01*
X0327564Y0254509D01*
X0326716Y0253446D01*
X0325993Y0252295D01*
X0325403Y0251071D01*
X0324955Y0249788D01*
X0324652Y0248463D01*
X0324500Y0247113D01*
X0324500Y0247033D01*
X0336000Y0247033D01*
X0336000Y0245833D01*
X0337200Y0245833D01*
X0337200Y0234333D01*
X0337280Y0234333D01*
X0338630Y0234485D01*
X0339955Y0234788D01*
X0341238Y0235237D01*
X0342462Y0235826D01*
X0343613Y0236549D01*
X0344675Y0237397D01*
X0345636Y0238358D01*
X0346484Y0239420D01*
X0347207Y0240571D01*
X0347797Y0241795D01*
X0348245Y0243078D01*
X0348548Y0244403D01*
X0348700Y0245754D01*
X0348700Y0245833D01*
X0337200Y0245833D01*
X0337200Y0247033D01*
X0348700Y0247033D01*
X0348700Y0247113D01*
X0348548Y0248463D01*
X0348245Y0249788D01*
X0347797Y0251071D01*
X0347207Y0252295D01*
X0346484Y0253446D01*
X0345636Y0254509D01*
X0344675Y0255470D01*
X0343613Y0256317D01*
X0342462Y0257040D01*
X0341238Y0257630D01*
X0339955Y0258078D01*
X0338630Y0258381D01*
X0337280Y0258533D01*
X0337200Y0258533D01*
X0337200Y0247033D01*
X0336000Y0247033D01*
X0336000Y0258533D01*
X0335920Y0258533D01*
X0336000Y0258467D02*
X0337200Y0258467D01*
X0337869Y0258467D02*
X0352721Y0258467D01*
X0352721Y0257268D02*
X0341988Y0257268D01*
X0343923Y0256070D02*
X0352721Y0256070D01*
X0352721Y0254871D02*
X0345274Y0254871D01*
X0346303Y0253673D02*
X0352721Y0253673D01*
X0352721Y0252474D02*
X0347095Y0252474D01*
X0347698Y0251276D02*
X0352721Y0251276D01*
X0352721Y0250077D02*
X0348144Y0250077D01*
X0348453Y0248879D02*
X0352721Y0248879D01*
X0352721Y0247680D02*
X0348636Y0247680D01*
X0348647Y0245283D02*
X0352721Y0245283D01*
X0352721Y0246481D02*
X0337200Y0246481D01*
X0337200Y0245283D02*
X0336000Y0245283D01*
X0336000Y0245833D02*
X0336000Y0234333D01*
X0335920Y0234333D01*
X0334570Y0234485D01*
X0333245Y0234788D01*
X0331962Y0235237D01*
X0330738Y0235826D01*
X0329587Y0236549D01*
X0328524Y0237397D01*
X0327564Y0238358D01*
X0326716Y0239420D01*
X0325993Y0240571D01*
X0325403Y0241795D01*
X0324955Y0243078D01*
X0324652Y0244403D01*
X0324500Y0245754D01*
X0324500Y0245833D01*
X0336000Y0245833D01*
X0336000Y0246481D02*
X0022200Y0246481D01*
X0022200Y0245283D02*
X0021000Y0245283D01*
X0021000Y0245833D02*
X0021000Y0234333D01*
X0020920Y0234333D01*
X0019570Y0234485D01*
X0018245Y0234788D01*
X0016962Y0235237D01*
X0015738Y0235826D01*
X0014587Y0236549D01*
X0013524Y0237397D01*
X0012564Y0238358D01*
X0011716Y0239420D01*
X0010993Y0240571D01*
X0010403Y0241795D01*
X0009955Y0243078D01*
X0009652Y0244403D01*
X0009500Y0245754D01*
X0009500Y0245833D01*
X0021000Y0245833D01*
X0021000Y0246481D02*
X0005400Y0246481D01*
X0005400Y0245283D02*
X0009553Y0245283D01*
X0009725Y0244084D02*
X0005400Y0244084D01*
X0005400Y0242886D02*
X0010022Y0242886D01*
X0010455Y0241687D02*
X0005400Y0241687D01*
X0005400Y0240489D02*
X0011045Y0240489D01*
X0011820Y0239290D02*
X0005400Y0239290D01*
X0005400Y0238092D02*
X0012829Y0238092D01*
X0014155Y0236893D02*
X0005400Y0236893D01*
X0005400Y0235695D02*
X0016010Y0235695D01*
X0019521Y0234496D02*
X0005400Y0234496D01*
X0005400Y0233298D02*
X0046600Y0233298D01*
X0046600Y0232099D02*
X0005400Y0232099D01*
X0005400Y0230901D02*
X0046600Y0230901D01*
X0046600Y0229702D02*
X0005400Y0229702D01*
X0005400Y0228504D02*
X0013005Y0228504D01*
X0013070Y0228525D02*
X0012411Y0228311D01*
X0011794Y0227996D01*
X0011234Y0227589D01*
X0010744Y0227099D01*
X0010337Y0226539D01*
X0010022Y0225922D01*
X0009808Y0225263D01*
X0009700Y0224579D01*
X0009700Y0221633D01*
X0013900Y0221633D01*
X0013900Y0221233D01*
X0014300Y0221233D01*
X0014300Y0214233D01*
X0014446Y0214233D01*
X0015130Y0214341D01*
X0015789Y0214555D01*
X0016406Y0214870D01*
X0016966Y0215277D01*
X0017456Y0215767D01*
X0017863Y0216327D01*
X0018178Y0216944D01*
X0018392Y0217603D01*
X0018500Y0218287D01*
X0018500Y0221233D01*
X0014300Y0221233D01*
X0014300Y0221633D01*
X0018500Y0221633D01*
X0018500Y0224579D01*
X0018392Y0225263D01*
X0018178Y0225922D01*
X0017863Y0226539D01*
X0017456Y0227099D01*
X0016966Y0227589D01*
X0016406Y0227996D01*
X0015789Y0228311D01*
X0015130Y0228525D01*
X0014446Y0228633D01*
X0014300Y0228633D01*
X0014300Y0221633D01*
X0013900Y0221633D01*
X0013900Y0228633D01*
X0013754Y0228633D01*
X0013070Y0228525D01*
X0013900Y0228504D02*
X0014300Y0228504D01*
X0015195Y0228504D02*
X0021261Y0228504D01*
X0020973Y0228294D02*
X0020439Y0227760D01*
X0019995Y0227149D01*
X0019652Y0226476D01*
X0019418Y0225757D01*
X0019300Y0225011D01*
X0019300Y0221833D01*
X0023700Y0221833D01*
X0023700Y0221033D01*
X0024500Y0221033D01*
X0024500Y0213437D01*
X0025224Y0213551D01*
X0025943Y0213785D01*
X0026616Y0214128D01*
X0027227Y0214572D01*
X0027761Y0215106D01*
X0028205Y0215717D01*
X0028548Y0216391D01*
X0028782Y0217109D01*
X0028900Y0217855D01*
X0028900Y0221033D01*
X0024500Y0221033D01*
X0024500Y0221833D01*
X0028900Y0221833D01*
X0028900Y0225011D01*
X0028782Y0225757D01*
X0028548Y0226476D01*
X0028205Y0227149D01*
X0027761Y0227760D01*
X0027227Y0228294D01*
X0026616Y0228738D01*
X0025943Y0229081D01*
X0025224Y0229315D01*
X0024500Y0229430D01*
X0024500Y0221833D01*
X0023700Y0221833D01*
X0023700Y0229430D01*
X0022976Y0229315D01*
X0022257Y0229081D01*
X0021584Y0228738D01*
X0020973Y0228294D01*
X0020108Y0227305D02*
X0017250Y0227305D01*
X0018084Y0226107D02*
X0019532Y0226107D01*
X0019300Y0224908D02*
X0018448Y0224908D01*
X0018500Y0223710D02*
X0019300Y0223710D01*
X0019300Y0222511D02*
X0018500Y0222511D01*
X0019300Y0221033D02*
X0019300Y0217855D01*
X0019418Y0217109D01*
X0019652Y0216391D01*
X0019995Y0215717D01*
X0020439Y0215106D01*
X0020973Y0214572D01*
X0021584Y0214128D01*
X0022257Y0213785D01*
X0022976Y0213551D01*
X0023700Y0213437D01*
X0023700Y0221033D01*
X0019300Y0221033D01*
X0019300Y0220114D02*
X0018500Y0220114D01*
X0018500Y0218916D02*
X0019300Y0218916D01*
X0019322Y0217717D02*
X0018410Y0217717D01*
X0017961Y0216519D02*
X0019610Y0216519D01*
X0020283Y0215320D02*
X0017010Y0215320D01*
X0014300Y0215320D02*
X0013900Y0215320D01*
X0013900Y0214233D02*
X0013900Y0221233D01*
X0009700Y0221233D01*
X0009700Y0218287D01*
X0009808Y0217603D01*
X0010022Y0216944D01*
X0010337Y0216327D01*
X0010744Y0215767D01*
X0011234Y0215277D01*
X0011794Y0214870D01*
X0012411Y0214555D01*
X0013070Y0214341D01*
X0013754Y0214233D01*
X0013900Y0214233D01*
X0013900Y0216519D02*
X0014300Y0216519D01*
X0014300Y0217717D02*
X0013900Y0217717D01*
X0013900Y0218916D02*
X0014300Y0218916D01*
X0014300Y0220114D02*
X0013900Y0220114D01*
X0013900Y0221313D02*
X0005400Y0221313D01*
X0005400Y0222511D02*
X0009700Y0222511D01*
X0009700Y0223710D02*
X0005400Y0223710D01*
X0005400Y0224908D02*
X0009752Y0224908D01*
X0010116Y0226107D02*
X0005400Y0226107D01*
X0005400Y0227305D02*
X0010950Y0227305D01*
X0013900Y0227305D02*
X0014300Y0227305D01*
X0014300Y0226107D02*
X0013900Y0226107D01*
X0013900Y0224908D02*
X0014300Y0224908D01*
X0014300Y0223710D02*
X0013900Y0223710D01*
X0013900Y0222511D02*
X0014300Y0222511D01*
X0014300Y0221313D02*
X0023700Y0221313D01*
X0024500Y0221313D02*
X0046600Y0221313D01*
X0046600Y0222511D02*
X0028900Y0222511D01*
X0028900Y0223710D02*
X0046600Y0223710D01*
X0046600Y0224908D02*
X0028900Y0224908D01*
X0028668Y0226107D02*
X0046600Y0226107D01*
X0046600Y0227305D02*
X0028092Y0227305D01*
X0026939Y0228504D02*
X0046600Y0228504D01*
X0047163Y0234496D02*
X0023679Y0234496D01*
X0022200Y0234496D02*
X0021000Y0234496D01*
X0021000Y0235695D02*
X0022200Y0235695D01*
X0022200Y0236893D02*
X0021000Y0236893D01*
X0021000Y0238092D02*
X0022200Y0238092D01*
X0022200Y0239290D02*
X0021000Y0239290D01*
X0021000Y0240489D02*
X0022200Y0240489D01*
X0022200Y0241687D02*
X0021000Y0241687D01*
X0021000Y0242886D02*
X0022200Y0242886D01*
X0022200Y0244084D02*
X0021000Y0244084D01*
X0021000Y0247680D02*
X0022200Y0247680D01*
X0022200Y0248879D02*
X0021000Y0248879D01*
X0021000Y0250077D02*
X0022200Y0250077D01*
X0022200Y0251276D02*
X0021000Y0251276D01*
X0021000Y0252474D02*
X0022200Y0252474D01*
X0022200Y0253673D02*
X0021000Y0253673D01*
X0021000Y0254871D02*
X0022200Y0254871D01*
X0022200Y0256070D02*
X0021000Y0256070D01*
X0021000Y0257268D02*
X0022200Y0257268D01*
X0026988Y0257268D02*
X0331212Y0257268D01*
X0329277Y0256070D02*
X0028923Y0256070D01*
X0030274Y0254871D02*
X0327926Y0254871D01*
X0326897Y0253673D02*
X0031303Y0253673D01*
X0032095Y0252474D02*
X0326105Y0252474D01*
X0325502Y0251276D02*
X0032698Y0251276D01*
X0033144Y0250077D02*
X0325056Y0250077D01*
X0324747Y0248879D02*
X0033453Y0248879D01*
X0033636Y0247680D02*
X0324564Y0247680D01*
X0324553Y0245283D02*
X0300250Y0245283D01*
X0301449Y0244084D02*
X0324725Y0244084D01*
X0325022Y0242886D02*
X0302647Y0242886D01*
X0303887Y0241687D02*
X0325455Y0241687D01*
X0326045Y0240489D02*
X0305085Y0240489D01*
X0306284Y0239290D02*
X0326820Y0239290D01*
X0327829Y0238092D02*
X0307482Y0238092D01*
X0308681Y0236893D02*
X0329155Y0236893D01*
X0331010Y0235695D02*
X0309879Y0235695D01*
X0311037Y0234496D02*
X0334521Y0234496D01*
X0336000Y0234496D02*
X0337200Y0234496D01*
X0337200Y0235695D02*
X0336000Y0235695D01*
X0336000Y0236893D02*
X0337200Y0236893D01*
X0337200Y0238092D02*
X0336000Y0238092D01*
X0336000Y0239290D02*
X0337200Y0239290D01*
X0337200Y0240489D02*
X0336000Y0240489D01*
X0336000Y0241687D02*
X0337200Y0241687D01*
X0337200Y0242886D02*
X0336000Y0242886D01*
X0336000Y0244084D02*
X0337200Y0244084D01*
X0337200Y0247680D02*
X0336000Y0247680D01*
X0336000Y0248879D02*
X0337200Y0248879D01*
X0337200Y0250077D02*
X0336000Y0250077D01*
X0336000Y0251276D02*
X0337200Y0251276D01*
X0337200Y0252474D02*
X0336000Y0252474D01*
X0336000Y0253673D02*
X0337200Y0253673D01*
X0337200Y0254871D02*
X0336000Y0254871D01*
X0336000Y0256070D02*
X0337200Y0256070D01*
X0337200Y0257268D02*
X0336000Y0257268D01*
X0348475Y0244084D02*
X0352721Y0244084D01*
X0352721Y0242886D02*
X0348178Y0242886D01*
X0347745Y0241687D02*
X0352721Y0241687D01*
X0352721Y0240489D02*
X0347155Y0240489D01*
X0346380Y0239290D02*
X0352721Y0239290D01*
X0352721Y0238092D02*
X0345371Y0238092D01*
X0344045Y0236893D02*
X0352721Y0236893D01*
X0352721Y0235695D02*
X0342190Y0235695D01*
X0338679Y0234496D02*
X0352721Y0234496D01*
X0352721Y0233298D02*
X0312235Y0233298D01*
X0313434Y0232099D02*
X0352721Y0232099D01*
X0352721Y0230901D02*
X0337260Y0230901D01*
X0338065Y0230567D02*
X0335492Y0231633D01*
X0332708Y0231633D01*
X0330135Y0230567D01*
X0328166Y0228598D01*
X0327100Y0226025D01*
X0327100Y0216841D01*
X0328166Y0214268D01*
X0330135Y0212299D01*
X0332708Y0211233D01*
X0335492Y0211233D01*
X0338065Y0212299D01*
X0339583Y0213816D01*
X0340361Y0213038D01*
X0342787Y0212033D01*
X0345413Y0212033D01*
X0347839Y0213038D01*
X0349695Y0214894D01*
X0350700Y0217320D01*
X0350700Y0225546D01*
X0349695Y0227972D01*
X0347839Y0229828D01*
X0345413Y0230833D01*
X0342787Y0230833D01*
X0340361Y0229828D01*
X0339583Y0229050D01*
X0338065Y0230567D01*
X0338930Y0229702D02*
X0340235Y0229702D01*
X0347965Y0229702D02*
X0352721Y0229702D01*
X0352721Y0228504D02*
X0349163Y0228504D01*
X0349971Y0227305D02*
X0352721Y0227305D01*
X0352721Y0226107D02*
X0350468Y0226107D01*
X0350700Y0224908D02*
X0352721Y0224908D01*
X0352721Y0223710D02*
X0350700Y0223710D01*
X0350700Y0222511D02*
X0352721Y0222511D01*
X0352721Y0221313D02*
X0350700Y0221313D01*
X0350700Y0220114D02*
X0352721Y0220114D01*
X0352721Y0218916D02*
X0350700Y0218916D01*
X0350700Y0217717D02*
X0352721Y0217717D01*
X0352721Y0216519D02*
X0350368Y0216519D01*
X0349872Y0215320D02*
X0352721Y0215320D01*
X0352721Y0214122D02*
X0348922Y0214122D01*
X0347562Y0212923D02*
X0352721Y0212923D01*
X0352721Y0211725D02*
X0336679Y0211725D01*
X0338690Y0212923D02*
X0340638Y0212923D01*
X0331521Y0211725D02*
X0314100Y0211725D01*
X0314100Y0212923D02*
X0329510Y0212923D01*
X0328312Y0214122D02*
X0314100Y0214122D01*
X0314100Y0215320D02*
X0327730Y0215320D01*
X0327233Y0216519D02*
X0314100Y0216519D01*
X0314100Y0217717D02*
X0327100Y0217717D01*
X0327100Y0218916D02*
X0314100Y0218916D01*
X0314100Y0220114D02*
X0327100Y0220114D01*
X0327100Y0221313D02*
X0314100Y0221313D01*
X0314100Y0222511D02*
X0327100Y0222511D01*
X0327100Y0223710D02*
X0314100Y0223710D01*
X0314100Y0224908D02*
X0327100Y0224908D01*
X0327134Y0226107D02*
X0314100Y0226107D01*
X0314100Y0227305D02*
X0327630Y0227305D01*
X0328127Y0228504D02*
X0314100Y0228504D01*
X0314100Y0229702D02*
X0329270Y0229702D01*
X0330940Y0230901D02*
X0314100Y0230901D01*
X0314100Y0210526D02*
X0352721Y0210526D01*
X0352721Y0209328D02*
X0314100Y0209328D01*
X0314100Y0208129D02*
X0352721Y0208129D01*
X0352721Y0206931D02*
X0314100Y0206931D01*
X0314100Y0205732D02*
X0352721Y0205732D01*
X0352721Y0204534D02*
X0314100Y0204534D01*
X0314100Y0203335D02*
X0352721Y0203335D01*
X0352721Y0202137D02*
X0314100Y0202137D01*
X0314100Y0200938D02*
X0352721Y0200938D01*
X0352721Y0199740D02*
X0314100Y0199740D01*
X0314100Y0198541D02*
X0331313Y0198541D01*
X0331584Y0198738D02*
X0330973Y0198294D01*
X0330439Y0197760D01*
X0329995Y0197149D01*
X0329652Y0196476D01*
X0329418Y0195757D01*
X0329300Y0195011D01*
X0329300Y0191833D01*
X0333700Y0191833D01*
X0333700Y0191033D01*
X0334500Y0191033D01*
X0334500Y0183437D01*
X0335224Y0183551D01*
X0335943Y0183785D01*
X0336616Y0184128D01*
X0337227Y0184572D01*
X0337761Y0185106D01*
X0338205Y0185717D01*
X0338548Y0186391D01*
X0338782Y0187109D01*
X0338900Y0187855D01*
X0338900Y0191033D01*
X0334500Y0191033D01*
X0334500Y0191833D01*
X0338900Y0191833D01*
X0338900Y0195011D01*
X0338782Y0195757D01*
X0338548Y0196476D01*
X0338205Y0197149D01*
X0337761Y0197760D01*
X0337227Y0198294D01*
X0336616Y0198738D01*
X0335943Y0199081D01*
X0335224Y0199315D01*
X0334500Y0199430D01*
X0334500Y0191833D01*
X0333700Y0191833D01*
X0333700Y0199430D01*
X0332976Y0199315D01*
X0332257Y0199081D01*
X0331584Y0198738D01*
X0330135Y0197343D02*
X0314100Y0197343D01*
X0314100Y0196144D02*
X0329544Y0196144D01*
X0329300Y0194945D02*
X0314100Y0194945D01*
X0314100Y0193747D02*
X0329300Y0193747D01*
X0329300Y0192548D02*
X0314100Y0192548D01*
X0314100Y0191350D02*
X0333700Y0191350D01*
X0333700Y0191033D02*
X0329300Y0191033D01*
X0329300Y0187855D01*
X0329418Y0187109D01*
X0329652Y0186391D01*
X0329995Y0185717D01*
X0330439Y0185106D01*
X0330973Y0184572D01*
X0331584Y0184128D01*
X0332257Y0183785D01*
X0332976Y0183551D01*
X0333700Y0183437D01*
X0333700Y0191033D01*
X0334500Y0191350D02*
X0343900Y0191350D01*
X0343900Y0191233D02*
X0339700Y0191233D01*
X0339700Y0188287D01*
X0339808Y0187603D01*
X0340022Y0186944D01*
X0340337Y0186327D01*
X0340744Y0185767D01*
X0341234Y0185277D01*
X0341794Y0184870D01*
X0342411Y0184555D01*
X0343070Y0184341D01*
X0343754Y0184233D01*
X0343900Y0184233D01*
X0343900Y0191233D01*
X0344300Y0191233D01*
X0344300Y0184233D01*
X0344446Y0184233D01*
X0345130Y0184341D01*
X0345789Y0184555D01*
X0346406Y0184870D01*
X0346966Y0185277D01*
X0347456Y0185767D01*
X0347863Y0186327D01*
X0348178Y0186944D01*
X0348392Y0187603D01*
X0348500Y0188287D01*
X0348500Y0191233D01*
X0344300Y0191233D01*
X0344300Y0191633D01*
X0348500Y0191633D01*
X0348500Y0194579D01*
X0348392Y0195263D01*
X0348178Y0195922D01*
X0347863Y0196539D01*
X0347456Y0197099D01*
X0346966Y0197589D01*
X0346406Y0197996D01*
X0345789Y0198311D01*
X0345130Y0198525D01*
X0344446Y0198633D01*
X0344300Y0198633D01*
X0344300Y0191633D01*
X0343900Y0191633D01*
X0343900Y0191233D01*
X0343900Y0191633D02*
X0339700Y0191633D01*
X0339700Y0194579D01*
X0339808Y0195263D01*
X0340022Y0195922D01*
X0340337Y0196539D01*
X0340744Y0197099D01*
X0341234Y0197589D01*
X0341794Y0197996D01*
X0342411Y0198311D01*
X0343070Y0198525D01*
X0343754Y0198633D01*
X0343900Y0198633D01*
X0343900Y0191633D01*
X0344300Y0191350D02*
X0352721Y0191350D01*
X0352721Y0192548D02*
X0348500Y0192548D01*
X0348500Y0193747D02*
X0352721Y0193747D01*
X0352721Y0194945D02*
X0348442Y0194945D01*
X0348065Y0196144D02*
X0352721Y0196144D01*
X0352721Y0197343D02*
X0347213Y0197343D01*
X0345027Y0198541D02*
X0352721Y0198541D01*
X0352721Y0190151D02*
X0348500Y0190151D01*
X0348500Y0188953D02*
X0352721Y0188953D01*
X0352721Y0187754D02*
X0348416Y0187754D01*
X0347980Y0186556D02*
X0352721Y0186556D01*
X0352721Y0185357D02*
X0347047Y0185357D01*
X0344300Y0185357D02*
X0343900Y0185357D01*
X0343900Y0186556D02*
X0344300Y0186556D01*
X0344300Y0187754D02*
X0343900Y0187754D01*
X0343900Y0188953D02*
X0344300Y0188953D01*
X0344300Y0190151D02*
X0343900Y0190151D01*
X0343900Y0192548D02*
X0344300Y0192548D01*
X0344300Y0193747D02*
X0343900Y0193747D01*
X0343900Y0194945D02*
X0344300Y0194945D01*
X0344300Y0196144D02*
X0343900Y0196144D01*
X0343900Y0197343D02*
X0344300Y0197343D01*
X0344300Y0198541D02*
X0343900Y0198541D01*
X0343173Y0198541D02*
X0336887Y0198541D01*
X0338065Y0197343D02*
X0340987Y0197343D01*
X0340135Y0196144D02*
X0338656Y0196144D01*
X0338900Y0194945D02*
X0339758Y0194945D01*
X0339700Y0193747D02*
X0338900Y0193747D01*
X0338900Y0192548D02*
X0339700Y0192548D01*
X0339700Y0190151D02*
X0338900Y0190151D01*
X0338900Y0188953D02*
X0339700Y0188953D01*
X0339784Y0187754D02*
X0338884Y0187754D01*
X0338602Y0186556D02*
X0340220Y0186556D01*
X0341153Y0185357D02*
X0337944Y0185357D01*
X0336659Y0184159D02*
X0352721Y0184159D01*
X0352721Y0182960D02*
X0314100Y0182960D01*
X0314100Y0181762D02*
X0352721Y0181762D01*
X0352721Y0180563D02*
X0314100Y0180563D01*
X0314100Y0179365D02*
X0352721Y0179365D01*
X0352721Y0178166D02*
X0345815Y0178166D01*
X0345413Y0178333D02*
X0342787Y0178333D01*
X0340361Y0177328D01*
X0339583Y0176550D01*
X0338065Y0178067D01*
X0335492Y0179133D01*
X0332708Y0179133D01*
X0330135Y0178067D01*
X0328166Y0176098D01*
X0327100Y0173525D01*
X0327100Y0164341D01*
X0328166Y0161768D01*
X0330135Y0159799D01*
X0332708Y0158733D01*
X0335492Y0158733D01*
X0338065Y0159799D01*
X0339583Y0161316D01*
X0340361Y0160538D01*
X0342787Y0159533D01*
X0345413Y0159533D01*
X0347839Y0160538D01*
X0349695Y0162394D01*
X0350700Y0164820D01*
X0350700Y0173046D01*
X0349695Y0175472D01*
X0347839Y0177328D01*
X0345413Y0178333D01*
X0342385Y0178166D02*
X0337826Y0178166D01*
X0339165Y0176968D02*
X0340001Y0176968D01*
X0348199Y0176968D02*
X0352721Y0176968D01*
X0352721Y0175769D02*
X0349398Y0175769D01*
X0350068Y0174571D02*
X0352721Y0174571D01*
X0352721Y0173372D02*
X0350565Y0173372D01*
X0350700Y0172174D02*
X0352721Y0172174D01*
X0352721Y0170975D02*
X0350700Y0170975D01*
X0350700Y0169777D02*
X0352721Y0169777D01*
X0352721Y0168578D02*
X0350700Y0168578D01*
X0350700Y0167380D02*
X0352721Y0167380D01*
X0352721Y0166181D02*
X0350700Y0166181D01*
X0350700Y0164983D02*
X0352721Y0164983D01*
X0352721Y0163784D02*
X0350271Y0163784D01*
X0349774Y0162586D02*
X0352721Y0162586D01*
X0352721Y0161387D02*
X0348688Y0161387D01*
X0346996Y0160189D02*
X0352721Y0160189D01*
X0352721Y0158990D02*
X0336113Y0158990D01*
X0338455Y0160189D02*
X0341204Y0160189D01*
X0332087Y0158990D02*
X0315400Y0158990D01*
X0315400Y0157792D02*
X0352721Y0157792D01*
X0352721Y0156593D02*
X0315400Y0156593D01*
X0315400Y0155395D02*
X0352721Y0155395D01*
X0352721Y0154196D02*
X0315400Y0154196D01*
X0315400Y0152998D02*
X0352721Y0152998D01*
X0352721Y0151799D02*
X0315400Y0151799D01*
X0315400Y0150601D02*
X0352721Y0150601D01*
X0352721Y0149402D02*
X0315400Y0149402D01*
X0315400Y0148204D02*
X0352721Y0148204D01*
X0352721Y0147005D02*
X0315400Y0147005D01*
X0315400Y0145807D02*
X0330990Y0145807D01*
X0330973Y0145794D02*
X0330439Y0145260D01*
X0329995Y0144649D01*
X0329652Y0143976D01*
X0329418Y0143257D01*
X0329300Y0142511D01*
X0329300Y0139333D01*
X0333700Y0139333D01*
X0333700Y0138533D01*
X0329300Y0138533D01*
X0329300Y0135355D01*
X0329418Y0134609D01*
X0329652Y0133891D01*
X0329995Y0133217D01*
X0330117Y0133049D01*
X0328166Y0131098D01*
X0327100Y0128525D01*
X0327100Y0119341D01*
X0328166Y0116768D01*
X0330135Y0114799D01*
X0332708Y0113733D01*
X0335492Y0113733D01*
X0338065Y0114799D01*
X0339583Y0116316D01*
X0340361Y0115538D01*
X0342787Y0114533D01*
X0345413Y0114533D01*
X0347839Y0115538D01*
X0349695Y0117394D01*
X0350700Y0119820D01*
X0350700Y0128046D01*
X0349695Y0130472D01*
X0347839Y0132328D01*
X0346890Y0132721D01*
X0346966Y0132777D01*
X0347456Y0133267D01*
X0347863Y0133827D01*
X0348178Y0134444D01*
X0348392Y0135103D01*
X0348500Y0135787D01*
X0348500Y0138733D01*
X0344300Y0138733D01*
X0344300Y0139133D01*
X0348500Y0139133D01*
X0348500Y0142079D01*
X0348392Y0142763D01*
X0348178Y0143422D01*
X0347863Y0144039D01*
X0347456Y0144599D01*
X0346966Y0145089D01*
X0346406Y0145496D01*
X0345789Y0145811D01*
X0345130Y0146025D01*
X0344446Y0146133D01*
X0344300Y0146133D01*
X0344300Y0139133D01*
X0343900Y0139133D01*
X0343900Y0138733D01*
X0339700Y0138733D01*
X0339700Y0135787D01*
X0339808Y0135103D01*
X0340022Y0134444D01*
X0340337Y0133827D01*
X0340744Y0133267D01*
X0341234Y0132777D01*
X0341310Y0132721D01*
X0340361Y0132328D01*
X0339583Y0131550D01*
X0338083Y0133049D01*
X0338205Y0133217D01*
X0338548Y0133891D01*
X0338782Y0134609D01*
X0338900Y0135355D01*
X0338900Y0138533D01*
X0334500Y0138533D01*
X0334500Y0139333D01*
X0338900Y0139333D01*
X0338900Y0142511D01*
X0338782Y0143257D01*
X0338548Y0143976D01*
X0338205Y0144649D01*
X0337761Y0145260D01*
X0337227Y0145794D01*
X0336616Y0146238D01*
X0335943Y0146581D01*
X0335224Y0146815D01*
X0334500Y0146930D01*
X0334500Y0139333D01*
X0333700Y0139333D01*
X0333700Y0146930D01*
X0332976Y0146815D01*
X0332257Y0146581D01*
X0331584Y0146238D01*
X0330973Y0145794D01*
X0329974Y0144608D02*
X0315400Y0144608D01*
X0315400Y0143410D02*
X0329468Y0143410D01*
X0329300Y0142211D02*
X0315400Y0142211D01*
X0315400Y0141012D02*
X0329300Y0141012D01*
X0329300Y0139814D02*
X0315400Y0139814D01*
X0315400Y0138615D02*
X0333700Y0138615D01*
X0334500Y0138615D02*
X0339700Y0138615D01*
X0339700Y0139133D02*
X0343900Y0139133D01*
X0343900Y0146133D01*
X0343754Y0146133D01*
X0343070Y0146025D01*
X0342411Y0145811D01*
X0341794Y0145496D01*
X0341234Y0145089D01*
X0340744Y0144599D01*
X0340337Y0144039D01*
X0340022Y0143422D01*
X0339808Y0142763D01*
X0339700Y0142079D01*
X0339700Y0139133D01*
X0339700Y0139814D02*
X0338900Y0139814D01*
X0338900Y0141012D02*
X0339700Y0141012D01*
X0339721Y0142211D02*
X0338900Y0142211D01*
X0338732Y0143410D02*
X0340018Y0143410D01*
X0340752Y0144608D02*
X0338226Y0144608D01*
X0337210Y0145807D02*
X0342403Y0145807D01*
X0343900Y0145807D02*
X0344300Y0145807D01*
X0344300Y0144608D02*
X0343900Y0144608D01*
X0343900Y0143410D02*
X0344300Y0143410D01*
X0344300Y0142211D02*
X0343900Y0142211D01*
X0343900Y0141012D02*
X0344300Y0141012D01*
X0344300Y0139814D02*
X0343900Y0139814D01*
X0339700Y0137417D02*
X0338900Y0137417D01*
X0338900Y0136218D02*
X0339700Y0136218D01*
X0339835Y0135020D02*
X0338847Y0135020D01*
X0338513Y0133821D02*
X0340341Y0133821D01*
X0341073Y0132623D02*
X0338510Y0132623D01*
X0347127Y0132623D02*
X0352721Y0132623D01*
X0352721Y0133821D02*
X0347859Y0133821D01*
X0348365Y0135020D02*
X0352721Y0135020D01*
X0352721Y0136218D02*
X0348500Y0136218D01*
X0348500Y0137417D02*
X0352721Y0137417D01*
X0352721Y0138615D02*
X0348500Y0138615D01*
X0348500Y0139814D02*
X0352721Y0139814D01*
X0352721Y0141012D02*
X0348500Y0141012D01*
X0348479Y0142211D02*
X0352721Y0142211D01*
X0352721Y0143410D02*
X0348182Y0143410D01*
X0347448Y0144608D02*
X0352721Y0144608D01*
X0352721Y0145807D02*
X0345797Y0145807D01*
X0334500Y0145807D02*
X0333700Y0145807D01*
X0333700Y0144608D02*
X0334500Y0144608D01*
X0334500Y0143410D02*
X0333700Y0143410D01*
X0333700Y0142211D02*
X0334500Y0142211D01*
X0334500Y0141012D02*
X0333700Y0141012D01*
X0333700Y0139814D02*
X0334500Y0139814D01*
X0329300Y0137417D02*
X0315400Y0137417D01*
X0315400Y0136218D02*
X0329300Y0136218D01*
X0329353Y0135020D02*
X0315400Y0135020D01*
X0315400Y0133821D02*
X0329687Y0133821D01*
X0329690Y0132623D02*
X0315400Y0132623D01*
X0315400Y0131424D02*
X0328492Y0131424D01*
X0327804Y0130226D02*
X0315400Y0130226D01*
X0315400Y0129027D02*
X0327308Y0129027D01*
X0327100Y0127829D02*
X0315400Y0127829D01*
X0315400Y0126630D02*
X0327100Y0126630D01*
X0327100Y0125432D02*
X0315400Y0125432D01*
X0315400Y0124233D02*
X0327100Y0124233D01*
X0327100Y0123035D02*
X0315400Y0123035D01*
X0315400Y0121836D02*
X0327100Y0121836D01*
X0327100Y0120638D02*
X0315400Y0120638D01*
X0315400Y0119439D02*
X0327100Y0119439D01*
X0327556Y0118241D02*
X0315400Y0118241D01*
X0315400Y0117042D02*
X0328052Y0117042D01*
X0329090Y0115844D02*
X0315400Y0115844D01*
X0315400Y0114645D02*
X0330505Y0114645D01*
X0337695Y0114645D02*
X0342516Y0114645D01*
X0340055Y0115844D02*
X0339110Y0115844D01*
X0345684Y0114645D02*
X0352721Y0114645D01*
X0352721Y0113447D02*
X0315400Y0113447D01*
X0315400Y0112248D02*
X0352721Y0112248D01*
X0352721Y0111050D02*
X0315400Y0111050D01*
X0315400Y0109851D02*
X0352721Y0109851D01*
X0352721Y0108653D02*
X0315400Y0108653D01*
X0315400Y0107454D02*
X0352721Y0107454D01*
X0352721Y0106256D02*
X0315400Y0106256D01*
X0315400Y0105057D02*
X0352721Y0105057D01*
X0352721Y0103859D02*
X0315400Y0103859D01*
X0315400Y0102660D02*
X0352721Y0102660D01*
X0352721Y0101462D02*
X0336178Y0101462D01*
X0335943Y0101581D02*
X0335224Y0101815D01*
X0334500Y0101930D01*
X0334500Y0094333D01*
X0338900Y0094333D01*
X0338900Y0097511D01*
X0338782Y0098257D01*
X0338548Y0098976D01*
X0338205Y0099649D01*
X0337761Y0100260D01*
X0337227Y0100794D01*
X0336616Y0101238D01*
X0335943Y0101581D01*
X0334500Y0101462D02*
X0333700Y0101462D01*
X0333700Y0101930D02*
X0332976Y0101815D01*
X0332257Y0101581D01*
X0331584Y0101238D01*
X0330973Y0100794D01*
X0330439Y0100260D01*
X0329995Y0099649D01*
X0329652Y0098976D01*
X0329418Y0098257D01*
X0329300Y0097511D01*
X0329300Y0094333D01*
X0333700Y0094333D01*
X0333700Y0093533D01*
X0334500Y0093533D01*
X0334500Y0085937D01*
X0335224Y0086051D01*
X0335943Y0086285D01*
X0336616Y0086628D01*
X0337227Y0087072D01*
X0337761Y0087606D01*
X0338205Y0088217D01*
X0338548Y0088891D01*
X0338782Y0089609D01*
X0338900Y0090355D01*
X0338900Y0093533D01*
X0334500Y0093533D01*
X0334500Y0094333D01*
X0333700Y0094333D01*
X0333700Y0101930D01*
X0333700Y0100263D02*
X0334500Y0100263D01*
X0334500Y0099065D02*
X0333700Y0099065D01*
X0333700Y0097866D02*
X0334500Y0097866D01*
X0334500Y0096668D02*
X0333700Y0096668D01*
X0333700Y0095469D02*
X0334500Y0095469D01*
X0334500Y0094271D02*
X0339700Y0094271D01*
X0339700Y0094133D02*
X0343900Y0094133D01*
X0343900Y0093733D01*
X0344300Y0093733D01*
X0344300Y0086733D01*
X0344446Y0086733D01*
X0345130Y0086841D01*
X0345789Y0087055D01*
X0346406Y0087370D01*
X0346966Y0087777D01*
X0347456Y0088267D01*
X0347863Y0088827D01*
X0348178Y0089444D01*
X0348392Y0090103D01*
X0348500Y0090787D01*
X0348500Y0093733D01*
X0344300Y0093733D01*
X0344300Y0094133D01*
X0348500Y0094133D01*
X0348500Y0097079D01*
X0348392Y0097763D01*
X0348178Y0098422D01*
X0347863Y0099039D01*
X0347456Y0099599D01*
X0346966Y0100089D01*
X0346406Y0100496D01*
X0345789Y0100811D01*
X0345130Y0101025D01*
X0344446Y0101133D01*
X0344300Y0101133D01*
X0344300Y0094133D01*
X0343900Y0094133D01*
X0343900Y0101133D01*
X0343754Y0101133D01*
X0343070Y0101025D01*
X0342411Y0100811D01*
X0341794Y0100496D01*
X0341234Y0100089D01*
X0340744Y0099599D01*
X0340337Y0099039D01*
X0340022Y0098422D01*
X0339808Y0097763D01*
X0339700Y0097079D01*
X0339700Y0094133D01*
X0339700Y0093733D02*
X0339700Y0090787D01*
X0339808Y0090103D01*
X0340022Y0089444D01*
X0340337Y0088827D01*
X0340744Y0088267D01*
X0341234Y0087777D01*
X0341794Y0087370D01*
X0342411Y0087055D01*
X0343070Y0086841D01*
X0343754Y0086733D01*
X0343900Y0086733D01*
X0343900Y0093733D01*
X0339700Y0093733D01*
X0339700Y0093072D02*
X0338900Y0093072D01*
X0338900Y0091874D02*
X0339700Y0091874D01*
X0339718Y0090675D02*
X0338900Y0090675D01*
X0338739Y0089477D02*
X0340012Y0089477D01*
X0340736Y0088278D02*
X0338236Y0088278D01*
X0337235Y0087079D02*
X0342364Y0087079D01*
X0343900Y0087079D02*
X0344300Y0087079D01*
X0344300Y0088278D02*
X0343900Y0088278D01*
X0343900Y0089477D02*
X0344300Y0089477D01*
X0344300Y0090675D02*
X0343900Y0090675D01*
X0343900Y0091874D02*
X0344300Y0091874D01*
X0344300Y0093072D02*
X0343900Y0093072D01*
X0343900Y0094271D02*
X0344300Y0094271D01*
X0344300Y0095469D02*
X0343900Y0095469D01*
X0343900Y0096668D02*
X0344300Y0096668D01*
X0344300Y0097866D02*
X0343900Y0097866D01*
X0343900Y0099065D02*
X0344300Y0099065D01*
X0344300Y0100263D02*
X0343900Y0100263D01*
X0341473Y0100263D02*
X0337758Y0100263D01*
X0338503Y0099065D02*
X0340355Y0099065D01*
X0339842Y0097866D02*
X0338844Y0097866D01*
X0338900Y0096668D02*
X0339700Y0096668D01*
X0339700Y0095469D02*
X0338900Y0095469D01*
X0334500Y0093072D02*
X0333700Y0093072D01*
X0333700Y0093533D02*
X0333700Y0085937D01*
X0332976Y0086051D01*
X0332257Y0086285D01*
X0331584Y0086628D01*
X0330973Y0087072D01*
X0330439Y0087606D01*
X0329995Y0088217D01*
X0329652Y0088891D01*
X0329418Y0089609D01*
X0329300Y0090355D01*
X0329300Y0093533D01*
X0333700Y0093533D01*
X0333700Y0094271D02*
X0315400Y0094271D01*
X0315400Y0095469D02*
X0329300Y0095469D01*
X0329300Y0096668D02*
X0315400Y0096668D01*
X0315400Y0097866D02*
X0329356Y0097866D01*
X0329697Y0099065D02*
X0315400Y0099065D01*
X0315400Y0100263D02*
X0330442Y0100263D01*
X0332022Y0101462D02*
X0315400Y0101462D01*
X0315400Y0093072D02*
X0329300Y0093072D01*
X0329300Y0091874D02*
X0315400Y0091874D01*
X0315400Y0090675D02*
X0329300Y0090675D01*
X0329461Y0089477D02*
X0315400Y0089477D01*
X0315400Y0088278D02*
X0329964Y0088278D01*
X0330965Y0087079D02*
X0315400Y0087079D01*
X0315400Y0085881D02*
X0352721Y0085881D01*
X0352721Y0087079D02*
X0345836Y0087079D01*
X0347464Y0088278D02*
X0352721Y0088278D01*
X0352721Y0089477D02*
X0348188Y0089477D01*
X0348482Y0090675D02*
X0352721Y0090675D01*
X0352721Y0091874D02*
X0348500Y0091874D01*
X0348500Y0093072D02*
X0352721Y0093072D01*
X0352721Y0094271D02*
X0348500Y0094271D01*
X0348500Y0095469D02*
X0352721Y0095469D01*
X0352721Y0096668D02*
X0348500Y0096668D01*
X0348358Y0097866D02*
X0352721Y0097866D01*
X0352721Y0099065D02*
X0347845Y0099065D01*
X0346727Y0100263D02*
X0352721Y0100263D01*
X0334500Y0091874D02*
X0333700Y0091874D01*
X0333700Y0090675D02*
X0334500Y0090675D01*
X0334500Y0089477D02*
X0333700Y0089477D01*
X0333700Y0088278D02*
X0334500Y0088278D01*
X0334500Y0087079D02*
X0333700Y0087079D01*
X0334570Y0075881D02*
X0333245Y0075578D01*
X0331962Y0075130D01*
X0330738Y0074540D01*
X0329587Y0073817D01*
X0328524Y0072970D01*
X0327564Y0072009D01*
X0326716Y0070946D01*
X0325993Y0069795D01*
X0325403Y0068571D01*
X0324955Y0067288D01*
X0324652Y0065963D01*
X0324500Y0064613D01*
X0324500Y0064533D01*
X0336000Y0064533D01*
X0336000Y0063333D01*
X0337200Y0063333D01*
X0337200Y0051833D01*
X0337280Y0051833D01*
X0338630Y0051985D01*
X0339955Y0052288D01*
X0341238Y0052737D01*
X0342462Y0053326D01*
X0343613Y0054049D01*
X0344675Y0054897D01*
X0345636Y0055858D01*
X0346484Y0056920D01*
X0347207Y0058071D01*
X0347797Y0059295D01*
X0348245Y0060578D01*
X0348548Y0061903D01*
X0348700Y0063254D01*
X0348700Y0063333D01*
X0337200Y0063333D01*
X0337200Y0064533D01*
X0348700Y0064533D01*
X0348700Y0064613D01*
X0348548Y0065963D01*
X0348245Y0067288D01*
X0347797Y0068571D01*
X0347207Y0069795D01*
X0346484Y0070946D01*
X0345636Y0072009D01*
X0344675Y0072970D01*
X0343613Y0073817D01*
X0342462Y0074540D01*
X0341238Y0075130D01*
X0339955Y0075578D01*
X0338630Y0075881D01*
X0337280Y0076033D01*
X0337200Y0076033D01*
X0337200Y0064533D01*
X0336000Y0064533D01*
X0336000Y0076033D01*
X0335920Y0076033D01*
X0334570Y0075881D01*
X0336000Y0075094D02*
X0337200Y0075094D01*
X0337200Y0073896D02*
X0336000Y0073896D01*
X0336000Y0072697D02*
X0337200Y0072697D01*
X0337200Y0071499D02*
X0336000Y0071499D01*
X0336000Y0070300D02*
X0337200Y0070300D01*
X0337200Y0069102D02*
X0336000Y0069102D01*
X0336000Y0067903D02*
X0337200Y0067903D01*
X0337200Y0066705D02*
X0336000Y0066705D01*
X0336000Y0065506D02*
X0337200Y0065506D01*
X0337200Y0064308D02*
X0352721Y0064308D01*
X0352721Y0065506D02*
X0348599Y0065506D01*
X0348379Y0066705D02*
X0352721Y0066705D01*
X0352721Y0067903D02*
X0348030Y0067903D01*
X0347541Y0069102D02*
X0352721Y0069102D01*
X0352721Y0070300D02*
X0346890Y0070300D01*
X0346043Y0071499D02*
X0352721Y0071499D01*
X0352721Y0072697D02*
X0344948Y0072697D01*
X0343487Y0073896D02*
X0352721Y0073896D01*
X0352721Y0075094D02*
X0341311Y0075094D01*
X0331889Y0075094D02*
X0314100Y0075094D01*
X0315261Y0075094D02*
X0319100Y0075094D01*
X0319100Y0073896D02*
X0314063Y0073896D01*
X0314100Y0073896D02*
X0329713Y0073896D01*
X0328252Y0072697D02*
X0314100Y0072697D01*
X0314100Y0071499D02*
X0327157Y0071499D01*
X0326310Y0070300D02*
X0314100Y0070300D01*
X0314100Y0069102D02*
X0325659Y0069102D01*
X0325170Y0067903D02*
X0314100Y0067903D01*
X0314100Y0066705D02*
X0324821Y0066705D01*
X0324601Y0065506D02*
X0314148Y0065506D01*
X0319100Y0065506D01*
X0319100Y0064308D02*
X0315083Y0064308D01*
X0336000Y0064308D01*
X0336000Y0063333D02*
X0324500Y0063333D01*
X0324500Y0063254D01*
X0324652Y0061903D01*
X0324955Y0060578D01*
X0325403Y0059295D01*
X0325993Y0058071D01*
X0326716Y0056920D01*
X0327564Y0055858D01*
X0328524Y0054897D01*
X0329587Y0054049D01*
X0330738Y0053326D01*
X0331962Y0052737D01*
X0333245Y0052288D01*
X0334570Y0051985D01*
X0335920Y0051833D01*
X0336000Y0051833D01*
X0336000Y0063333D01*
X0336000Y0063109D02*
X0337200Y0063109D01*
X0337200Y0061911D02*
X0336000Y0061911D01*
X0336000Y0060712D02*
X0337200Y0060712D01*
X0337200Y0059514D02*
X0336000Y0059514D01*
X0336000Y0058315D02*
X0337200Y0058315D01*
X0337200Y0057117D02*
X0336000Y0057117D01*
X0336000Y0055918D02*
X0337200Y0055918D01*
X0337200Y0054720D02*
X0336000Y0054720D01*
X0336000Y0053521D02*
X0337200Y0053521D01*
X0337200Y0052323D02*
X0336000Y0052323D01*
X0333145Y0052323D02*
X0315100Y0052323D01*
X0319100Y0052323D01*
X0319100Y0053521D02*
X0309600Y0053521D01*
X0309600Y0054720D02*
X0308400Y0054720D01*
X0308400Y0055918D02*
X0309600Y0055918D01*
X0309600Y0057117D02*
X0308400Y0057117D01*
X0308400Y0058315D02*
X0309600Y0058315D01*
X0309600Y0059514D02*
X0308400Y0059514D01*
X0308400Y0060712D02*
X0309600Y0060712D01*
X0309600Y0061911D02*
X0308400Y0061911D01*
X0308400Y0063109D02*
X0309600Y0063109D01*
X0309600Y0064308D02*
X0308400Y0064308D01*
X0308400Y0065506D02*
X0309600Y0065506D01*
X0308070Y0067903D02*
X0319100Y0067903D01*
X0319100Y0066705D02*
X0306872Y0066705D01*
X0309269Y0069102D02*
X0319100Y0069102D01*
X0319100Y0070300D02*
X0310467Y0070300D01*
X0311666Y0071499D02*
X0319100Y0071499D01*
X0319100Y0072697D02*
X0312864Y0072697D01*
X0314180Y0076293D02*
X0352721Y0076293D01*
X0352721Y0077491D02*
X0314742Y0077491D01*
X0315064Y0078690D02*
X0352721Y0078690D01*
X0352721Y0079888D02*
X0315385Y0079888D01*
X0315400Y0081087D02*
X0352721Y0081087D01*
X0352721Y0082285D02*
X0315400Y0082285D01*
X0315400Y0083484D02*
X0352721Y0083484D01*
X0352721Y0084682D02*
X0315400Y0084682D01*
X0318857Y0078690D02*
X0319100Y0078690D01*
X0319100Y0077491D02*
X0317658Y0077491D01*
X0316460Y0076293D02*
X0319100Y0076293D01*
X0319100Y0063109D02*
X0315100Y0063109D01*
X0324516Y0063109D01*
X0324651Y0061911D02*
X0315100Y0061911D01*
X0319100Y0061911D01*
X0319100Y0060712D02*
X0315100Y0060712D01*
X0324924Y0060712D01*
X0325327Y0059514D02*
X0315100Y0059514D01*
X0319100Y0059514D01*
X0319100Y0058315D02*
X0315100Y0058315D01*
X0325875Y0058315D01*
X0326593Y0057117D02*
X0315100Y0057117D01*
X0319100Y0057117D01*
X0319100Y0055918D02*
X0315100Y0055918D01*
X0327515Y0055918D01*
X0328746Y0054720D02*
X0315100Y0054720D01*
X0319100Y0054720D01*
X0319100Y0051124D02*
X0315100Y0051124D01*
X0352721Y0051124D01*
X0352721Y0049926D02*
X0315100Y0049926D01*
X0319100Y0049926D01*
X0319100Y0048727D02*
X0315100Y0048727D01*
X0352721Y0048727D01*
X0352721Y0052323D02*
X0340055Y0052323D01*
X0342773Y0053521D02*
X0352721Y0053521D01*
X0352721Y0054720D02*
X0344454Y0054720D01*
X0345685Y0055918D02*
X0352721Y0055918D01*
X0352721Y0057117D02*
X0346607Y0057117D01*
X0347325Y0058315D02*
X0352721Y0058315D01*
X0352721Y0059514D02*
X0347873Y0059514D01*
X0348276Y0060712D02*
X0352721Y0060712D01*
X0352721Y0061911D02*
X0348549Y0061911D01*
X0348684Y0063109D02*
X0352721Y0063109D01*
X0330427Y0053521D02*
X0314100Y0053521D01*
X0315100Y0047529D02*
X0319100Y0047529D01*
X0319100Y0046330D02*
X0315100Y0046330D01*
X0279100Y0046330D02*
X0079100Y0046330D01*
X0079100Y0045533D02*
X0079100Y0063933D01*
X0094100Y0063933D01*
X0104100Y0053933D01*
X0254100Y0053933D01*
X0264100Y0063933D01*
X0279100Y0063933D01*
X0279100Y0045533D01*
X0079100Y0045533D01*
X0079100Y0047529D02*
X0279100Y0047529D01*
X0279100Y0048727D02*
X0079100Y0048727D01*
X0079100Y0049926D02*
X0279100Y0049926D01*
X0279100Y0051124D02*
X0079100Y0051124D01*
X0079100Y0052323D02*
X0279100Y0052323D01*
X0279100Y0053521D02*
X0079100Y0053521D01*
X0079100Y0054720D02*
X0103313Y0054720D01*
X0102115Y0055918D02*
X0079100Y0055918D01*
X0079100Y0057117D02*
X0100916Y0057117D01*
X0099718Y0058315D02*
X0079100Y0058315D01*
X0079100Y0059514D02*
X0098519Y0059514D01*
X0097321Y0060712D02*
X0079100Y0060712D01*
X0079100Y0061911D02*
X0096122Y0061911D01*
X0094924Y0063109D02*
X0079100Y0063109D01*
X0054100Y0063109D02*
X0039100Y0063109D01*
X0039100Y0061911D02*
X0054100Y0061911D01*
X0054100Y0060712D02*
X0039100Y0060712D01*
X0039100Y0059514D02*
X0054100Y0059514D01*
X0054100Y0058315D02*
X0039100Y0058315D01*
X0039100Y0057117D02*
X0054100Y0057117D01*
X0054100Y0055918D02*
X0039100Y0055918D01*
X0039100Y0054720D02*
X0054100Y0054720D01*
X0054100Y0053521D02*
X0039100Y0053521D01*
X0039100Y0052323D02*
X0054100Y0052323D01*
X0054100Y0051124D02*
X0039100Y0051124D01*
X0039100Y0049926D02*
X0054100Y0049926D01*
X0054100Y0048727D02*
X0039100Y0048727D01*
X0039100Y0047529D02*
X0054100Y0047529D01*
X0054100Y0046330D02*
X0039100Y0046330D01*
X0039100Y0045533D02*
X0039100Y0078933D01*
X0054100Y0063933D01*
X0054100Y0045533D01*
X0039100Y0045533D01*
X0043100Y0048727D02*
X0005400Y0048727D01*
X0005400Y0049926D02*
X0043100Y0049926D01*
X0043100Y0051124D02*
X0005400Y0051124D01*
X0005400Y0052323D02*
X0018145Y0052323D01*
X0018245Y0052288D02*
X0019570Y0051985D01*
X0020920Y0051833D01*
X0021000Y0051833D01*
X0021000Y0063333D01*
X0022200Y0063333D01*
X0022200Y0051833D01*
X0022280Y0051833D01*
X0023630Y0051985D01*
X0024955Y0052288D01*
X0026238Y0052737D01*
X0027462Y0053326D01*
X0028613Y0054049D01*
X0029675Y0054897D01*
X0030636Y0055858D01*
X0031484Y0056920D01*
X0032207Y0058071D01*
X0032797Y0059295D01*
X0033245Y0060578D01*
X0033548Y0061903D01*
X0033700Y0063254D01*
X0033700Y0063333D01*
X0022200Y0063333D01*
X0022200Y0064533D01*
X0033700Y0064533D01*
X0033700Y0064613D01*
X0033548Y0065963D01*
X0033245Y0067288D01*
X0032797Y0068571D01*
X0032207Y0069795D01*
X0031484Y0070946D01*
X0030636Y0072009D01*
X0029675Y0072970D01*
X0028613Y0073817D01*
X0027462Y0074540D01*
X0026238Y0075130D01*
X0024955Y0075578D01*
X0023630Y0075881D01*
X0022280Y0076033D01*
X0022200Y0076033D01*
X0022200Y0064533D01*
X0021000Y0064533D01*
X0021000Y0063333D01*
X0009500Y0063333D01*
X0009500Y0063254D01*
X0009652Y0061903D01*
X0009955Y0060578D01*
X0010403Y0059295D01*
X0010993Y0058071D01*
X0011716Y0056920D01*
X0012564Y0055858D01*
X0013524Y0054897D01*
X0014587Y0054049D01*
X0015738Y0053326D01*
X0016962Y0052737D01*
X0018245Y0052288D01*
X0021000Y0052323D02*
X0022200Y0052323D01*
X0022200Y0053521D02*
X0021000Y0053521D01*
X0021000Y0054720D02*
X0022200Y0054720D01*
X0022200Y0055918D02*
X0021000Y0055918D01*
X0021000Y0057117D02*
X0022200Y0057117D01*
X0022200Y0058315D02*
X0021000Y0058315D01*
X0021000Y0059514D02*
X0022200Y0059514D01*
X0022200Y0060712D02*
X0021000Y0060712D01*
X0021000Y0061911D02*
X0022200Y0061911D01*
X0022200Y0063109D02*
X0021000Y0063109D01*
X0021000Y0064308D02*
X0005400Y0064308D01*
X0005400Y0065506D02*
X0009601Y0065506D01*
X0009652Y0065963D02*
X0009500Y0064613D01*
X0009500Y0064533D01*
X0021000Y0064533D01*
X0021000Y0076033D01*
X0020920Y0076033D01*
X0019570Y0075881D01*
X0018245Y0075578D01*
X0016962Y0075130D01*
X0015738Y0074540D01*
X0014587Y0073817D01*
X0013524Y0072970D01*
X0012564Y0072009D01*
X0011716Y0070946D01*
X0010993Y0069795D01*
X0010403Y0068571D01*
X0009955Y0067288D01*
X0009652Y0065963D01*
X0009821Y0066705D02*
X0005400Y0066705D01*
X0005400Y0067903D02*
X0010170Y0067903D01*
X0010659Y0069102D02*
X0005400Y0069102D01*
X0005400Y0070300D02*
X0011310Y0070300D01*
X0012157Y0071499D02*
X0005400Y0071499D01*
X0005400Y0072697D02*
X0013252Y0072697D01*
X0014713Y0073896D02*
X0005400Y0073896D01*
X0005400Y0075094D02*
X0016889Y0075094D01*
X0021000Y0075094D02*
X0022200Y0075094D01*
X0022200Y0073896D02*
X0021000Y0073896D01*
X0021000Y0072697D02*
X0022200Y0072697D01*
X0022200Y0071499D02*
X0021000Y0071499D01*
X0021000Y0070300D02*
X0022200Y0070300D01*
X0022200Y0069102D02*
X0021000Y0069102D01*
X0021000Y0067903D02*
X0022200Y0067903D01*
X0022200Y0066705D02*
X0021000Y0066705D01*
X0021000Y0065506D02*
X0022200Y0065506D01*
X0022200Y0064308D02*
X0043117Y0064308D01*
X0043100Y0063109D02*
X0033684Y0063109D01*
X0033549Y0061911D02*
X0043100Y0061911D01*
X0043100Y0060712D02*
X0033276Y0060712D01*
X0032873Y0059514D02*
X0043100Y0059514D01*
X0043100Y0058315D02*
X0032325Y0058315D01*
X0031607Y0057117D02*
X0043100Y0057117D01*
X0043100Y0055918D02*
X0030685Y0055918D01*
X0029454Y0054720D02*
X0043100Y0054720D01*
X0044100Y0053521D02*
X0027773Y0053521D01*
X0025055Y0052323D02*
X0043100Y0052323D01*
X0039100Y0064308D02*
X0053725Y0064308D01*
X0052527Y0065506D02*
X0039100Y0065506D01*
X0039100Y0066705D02*
X0051328Y0066705D01*
X0050130Y0067903D02*
X0039100Y0067903D01*
X0039100Y0069102D02*
X0048931Y0069102D01*
X0047733Y0070300D02*
X0039100Y0070300D01*
X0039100Y0071499D02*
X0046534Y0071499D01*
X0045336Y0072697D02*
X0039100Y0072697D01*
X0039100Y0073896D02*
X0044137Y0073896D01*
X0044100Y0073896D02*
X0028487Y0073896D01*
X0029948Y0072697D02*
X0044100Y0072697D01*
X0044100Y0071499D02*
X0031043Y0071499D01*
X0031890Y0070300D02*
X0044100Y0070300D01*
X0044100Y0069102D02*
X0032541Y0069102D01*
X0033030Y0067903D02*
X0044100Y0067903D01*
X0044100Y0066705D02*
X0033379Y0066705D01*
X0033599Y0065506D02*
X0044052Y0065506D01*
X0044100Y0075094D02*
X0026311Y0075094D01*
X0025492Y0083733D02*
X0022708Y0083733D01*
X0020135Y0084799D01*
X0018617Y0086316D01*
X0017839Y0085538D01*
X0015413Y0084533D01*
X0012787Y0084533D01*
X0010361Y0085538D01*
X0008505Y0087394D01*
X0007500Y0089820D01*
X0007500Y0098046D01*
X0008505Y0100472D01*
X0010361Y0102328D01*
X0012787Y0103333D01*
X0015413Y0103333D01*
X0017839Y0102328D01*
X0018617Y0101550D01*
X0020135Y0103067D01*
X0022708Y0104133D01*
X0025492Y0104133D01*
X0028065Y0103067D01*
X0030034Y0101098D01*
X0031100Y0098525D01*
X0031100Y0089341D01*
X0030034Y0086768D01*
X0028065Y0084799D01*
X0025492Y0083733D01*
X0027784Y0084682D02*
X0042800Y0084682D01*
X0042800Y0083484D02*
X0005400Y0083484D01*
X0005400Y0084682D02*
X0012427Y0084682D01*
X0010018Y0085881D02*
X0005400Y0085881D01*
X0005400Y0087079D02*
X0008820Y0087079D01*
X0008139Y0088278D02*
X0005400Y0088278D01*
X0005400Y0089477D02*
X0007642Y0089477D01*
X0007500Y0090675D02*
X0005400Y0090675D01*
X0005400Y0091874D02*
X0007500Y0091874D01*
X0007500Y0093072D02*
X0005400Y0093072D01*
X0005400Y0094271D02*
X0007500Y0094271D01*
X0007500Y0095469D02*
X0005400Y0095469D01*
X0005400Y0096668D02*
X0007500Y0096668D01*
X0007500Y0097866D02*
X0005400Y0097866D01*
X0005400Y0099065D02*
X0007922Y0099065D01*
X0008418Y0100263D02*
X0005400Y0100263D01*
X0005400Y0101462D02*
X0009495Y0101462D01*
X0011163Y0102660D02*
X0005400Y0102660D01*
X0005400Y0103859D02*
X0022045Y0103859D01*
X0019728Y0102660D02*
X0017037Y0102660D01*
X0026155Y0103859D02*
X0042800Y0103859D01*
X0042800Y0105057D02*
X0005400Y0105057D01*
X0005400Y0106256D02*
X0042800Y0106256D01*
X0042800Y0107454D02*
X0005400Y0107454D01*
X0005400Y0108653D02*
X0042800Y0108653D01*
X0042800Y0109851D02*
X0005400Y0109851D01*
X0005400Y0111050D02*
X0042800Y0111050D01*
X0042800Y0112248D02*
X0005400Y0112248D01*
X0005400Y0113447D02*
X0042800Y0113447D01*
X0042800Y0114645D02*
X0005400Y0114645D01*
X0005400Y0115844D02*
X0042800Y0115844D01*
X0042800Y0117042D02*
X0027186Y0117042D01*
X0027227Y0117072D02*
X0027761Y0117606D01*
X0028205Y0118217D01*
X0028548Y0118891D01*
X0028782Y0119609D01*
X0028900Y0120355D01*
X0028900Y0123533D01*
X0024500Y0123533D01*
X0024500Y0115937D01*
X0025224Y0116051D01*
X0025943Y0116285D01*
X0026616Y0116628D01*
X0027227Y0117072D01*
X0028217Y0118241D02*
X0042800Y0118241D01*
X0042800Y0119439D02*
X0028727Y0119439D01*
X0028900Y0120638D02*
X0042800Y0120638D01*
X0042800Y0121836D02*
X0028900Y0121836D01*
X0028900Y0123035D02*
X0042800Y0123035D01*
X0042800Y0124233D02*
X0024500Y0124233D01*
X0024500Y0124333D02*
X0028900Y0124333D01*
X0028900Y0127511D01*
X0028782Y0128257D01*
X0028548Y0128976D01*
X0028205Y0129649D01*
X0028083Y0129817D01*
X0030034Y0131768D01*
X0031100Y0134341D01*
X0031100Y0143525D01*
X0030034Y0146098D01*
X0028065Y0148067D01*
X0025492Y0149133D01*
X0022708Y0149133D01*
X0020135Y0148067D01*
X0018617Y0146550D01*
X0017839Y0147328D01*
X0015413Y0148333D01*
X0012787Y0148333D01*
X0010361Y0147328D01*
X0008505Y0145472D01*
X0007500Y0143046D01*
X0007500Y0134820D01*
X0008505Y0132394D01*
X0010361Y0130538D01*
X0011310Y0130145D01*
X0011234Y0130089D01*
X0010744Y0129599D01*
X0010337Y0129039D01*
X0010022Y0128422D01*
X0009808Y0127763D01*
X0009700Y0127079D01*
X0009700Y0124133D01*
X0013900Y0124133D01*
X0013900Y0123733D01*
X0014300Y0123733D01*
X0014300Y0116733D01*
X0014446Y0116733D01*
X0015130Y0116841D01*
X0015789Y0117055D01*
X0016406Y0117370D01*
X0016966Y0117777D01*
X0017456Y0118267D01*
X0017863Y0118827D01*
X0018178Y0119444D01*
X0018392Y0120103D01*
X0018500Y0120787D01*
X0018500Y0123733D01*
X0014300Y0123733D01*
X0014300Y0124133D01*
X0018500Y0124133D01*
X0018500Y0127079D01*
X0018392Y0127763D01*
X0018178Y0128422D01*
X0017863Y0129039D01*
X0017456Y0129599D01*
X0016966Y0130089D01*
X0016890Y0130145D01*
X0017839Y0130538D01*
X0018617Y0131316D01*
X0020117Y0129817D01*
X0019995Y0129649D01*
X0019652Y0128976D01*
X0019418Y0128257D01*
X0019300Y0127511D01*
X0019300Y0124333D01*
X0023700Y0124333D01*
X0023700Y0123533D01*
X0024500Y0123533D01*
X0024500Y0124333D01*
X0023700Y0124233D02*
X0018500Y0124233D01*
X0019300Y0123533D02*
X0019300Y0120355D01*
X0019418Y0119609D01*
X0019652Y0118891D01*
X0019995Y0118217D01*
X0020439Y0117606D01*
X0020973Y0117072D01*
X0021584Y0116628D01*
X0022257Y0116285D01*
X0022976Y0116051D01*
X0023700Y0115937D01*
X0023700Y0123533D01*
X0019300Y0123533D01*
X0019300Y0123035D02*
X0018500Y0123035D01*
X0018500Y0121836D02*
X0019300Y0121836D01*
X0019300Y0120638D02*
X0018476Y0120638D01*
X0018175Y0119439D02*
X0019473Y0119439D01*
X0019983Y0118241D02*
X0017430Y0118241D01*
X0015748Y0117042D02*
X0021014Y0117042D01*
X0023700Y0117042D02*
X0024500Y0117042D01*
X0024500Y0118241D02*
X0023700Y0118241D01*
X0023700Y0119439D02*
X0024500Y0119439D01*
X0024500Y0120638D02*
X0023700Y0120638D01*
X0023700Y0121836D02*
X0024500Y0121836D01*
X0024500Y0123035D02*
X0023700Y0123035D01*
X0019300Y0125432D02*
X0018500Y0125432D01*
X0018500Y0126630D02*
X0019300Y0126630D01*
X0019350Y0127829D02*
X0018370Y0127829D01*
X0017869Y0129027D02*
X0019678Y0129027D01*
X0019708Y0130226D02*
X0017085Y0130226D01*
X0011115Y0130226D02*
X0005400Y0130226D01*
X0005400Y0131424D02*
X0009475Y0131424D01*
X0008410Y0132623D02*
X0005400Y0132623D01*
X0005400Y0133821D02*
X0007914Y0133821D01*
X0007500Y0135020D02*
X0005400Y0135020D01*
X0005400Y0136218D02*
X0007500Y0136218D01*
X0007500Y0137417D02*
X0005400Y0137417D01*
X0005400Y0138615D02*
X0007500Y0138615D01*
X0007500Y0139814D02*
X0005400Y0139814D01*
X0005400Y0141012D02*
X0007500Y0141012D01*
X0007500Y0142211D02*
X0005400Y0142211D01*
X0005400Y0143410D02*
X0007651Y0143410D01*
X0008147Y0144608D02*
X0005400Y0144608D01*
X0005400Y0145807D02*
X0008840Y0145807D01*
X0010038Y0147005D02*
X0005400Y0147005D01*
X0005400Y0148204D02*
X0012475Y0148204D01*
X0015725Y0148204D02*
X0020464Y0148204D01*
X0019072Y0147005D02*
X0018162Y0147005D01*
X0027736Y0148204D02*
X0042800Y0148204D01*
X0042800Y0149402D02*
X0005400Y0149402D01*
X0005400Y0150601D02*
X0042800Y0150601D01*
X0042800Y0151799D02*
X0005400Y0151799D01*
X0005400Y0152998D02*
X0042800Y0152998D01*
X0042800Y0154196D02*
X0005400Y0154196D01*
X0005400Y0155395D02*
X0042800Y0155395D01*
X0042800Y0156593D02*
X0005400Y0156593D01*
X0005400Y0157792D02*
X0042800Y0157792D01*
X0042800Y0158990D02*
X0005400Y0158990D01*
X0005400Y0160189D02*
X0042800Y0160189D01*
X0042800Y0161387D02*
X0026144Y0161387D01*
X0025943Y0161285D02*
X0026616Y0161628D01*
X0027227Y0162072D01*
X0027761Y0162606D01*
X0028205Y0163217D01*
X0028548Y0163891D01*
X0028782Y0164609D01*
X0028900Y0165355D01*
X0028900Y0168533D01*
X0024500Y0168533D01*
X0024500Y0160937D01*
X0025224Y0161051D01*
X0025943Y0161285D01*
X0024500Y0161387D02*
X0023700Y0161387D01*
X0023700Y0160937D02*
X0023700Y0168533D01*
X0024500Y0168533D01*
X0024500Y0169333D01*
X0028900Y0169333D01*
X0028900Y0172511D01*
X0028782Y0173257D01*
X0028548Y0173976D01*
X0028205Y0174649D01*
X0027761Y0175260D01*
X0027227Y0175794D01*
X0026616Y0176238D01*
X0025943Y0176581D01*
X0025224Y0176815D01*
X0024500Y0176930D01*
X0024500Y0169333D01*
X0023700Y0169333D01*
X0023700Y0168533D01*
X0019300Y0168533D01*
X0019300Y0165355D01*
X0019418Y0164609D01*
X0019652Y0163891D01*
X0019995Y0163217D01*
X0020439Y0162606D01*
X0020973Y0162072D01*
X0021584Y0161628D01*
X0022257Y0161285D01*
X0022976Y0161051D01*
X0023700Y0160937D01*
X0023700Y0162586D02*
X0024500Y0162586D01*
X0024500Y0163784D02*
X0023700Y0163784D01*
X0023700Y0164983D02*
X0024500Y0164983D01*
X0024500Y0166181D02*
X0023700Y0166181D01*
X0023700Y0167380D02*
X0024500Y0167380D01*
X0024500Y0168578D02*
X0042800Y0168578D01*
X0042800Y0167380D02*
X0028900Y0167380D01*
X0028900Y0166181D02*
X0042800Y0166181D01*
X0042800Y0164983D02*
X0028841Y0164983D01*
X0028494Y0163784D02*
X0042800Y0163784D01*
X0042800Y0162586D02*
X0027741Y0162586D01*
X0022056Y0161387D02*
X0005400Y0161387D01*
X0005400Y0162586D02*
X0011497Y0162586D01*
X0011234Y0162777D02*
X0011794Y0162370D01*
X0012411Y0162055D01*
X0013070Y0161841D01*
X0013754Y0161733D01*
X0013900Y0161733D01*
X0013900Y0168733D01*
X0014300Y0168733D01*
X0014300Y0161733D01*
X0014446Y0161733D01*
X0015130Y0161841D01*
X0015789Y0162055D01*
X0016406Y0162370D01*
X0016966Y0162777D01*
X0017456Y0163267D01*
X0017863Y0163827D01*
X0018178Y0164444D01*
X0018392Y0165103D01*
X0018500Y0165787D01*
X0018500Y0168733D01*
X0014300Y0168733D01*
X0014300Y0169133D01*
X0018500Y0169133D01*
X0018500Y0172079D01*
X0018392Y0172763D01*
X0018178Y0173422D01*
X0017863Y0174039D01*
X0017456Y0174599D01*
X0016966Y0175089D01*
X0016406Y0175496D01*
X0015789Y0175811D01*
X0015130Y0176025D01*
X0014446Y0176133D01*
X0014300Y0176133D01*
X0014300Y0169133D01*
X0013900Y0169133D01*
X0013900Y0168733D01*
X0009700Y0168733D01*
X0009700Y0165787D01*
X0009808Y0165103D01*
X0010022Y0164444D01*
X0010337Y0163827D01*
X0010744Y0163267D01*
X0011234Y0162777D01*
X0010368Y0163784D02*
X0005400Y0163784D01*
X0005400Y0164983D02*
X0009847Y0164983D01*
X0009700Y0166181D02*
X0005400Y0166181D01*
X0005400Y0167380D02*
X0009700Y0167380D01*
X0009700Y0168578D02*
X0005400Y0168578D01*
X0005400Y0169777D02*
X0009700Y0169777D01*
X0009700Y0169133D02*
X0013900Y0169133D01*
X0013900Y0176133D01*
X0013754Y0176133D01*
X0013070Y0176025D01*
X0012411Y0175811D01*
X0011794Y0175496D01*
X0011234Y0175089D01*
X0010744Y0174599D01*
X0010337Y0174039D01*
X0010022Y0173422D01*
X0009808Y0172763D01*
X0009700Y0172079D01*
X0009700Y0169133D01*
X0009700Y0170975D02*
X0005400Y0170975D01*
X0005400Y0172174D02*
X0009715Y0172174D01*
X0010006Y0173372D02*
X0005400Y0173372D01*
X0005400Y0174571D02*
X0010723Y0174571D01*
X0012330Y0175769D02*
X0005400Y0175769D01*
X0005400Y0176968D02*
X0046154Y0176968D01*
X0046600Y0178166D02*
X0005400Y0178166D01*
X0005400Y0179365D02*
X0046600Y0179365D01*
X0046600Y0180563D02*
X0005400Y0180563D01*
X0005400Y0181762D02*
X0021431Y0181762D01*
X0022708Y0181233D02*
X0025492Y0181233D01*
X0028065Y0182299D01*
X0030034Y0184268D01*
X0031100Y0186841D01*
X0031100Y0196025D01*
X0030034Y0198598D01*
X0028065Y0200567D01*
X0025492Y0201633D01*
X0022708Y0201633D01*
X0020135Y0200567D01*
X0018617Y0199050D01*
X0017839Y0199828D01*
X0015413Y0200833D01*
X0012787Y0200833D01*
X0010361Y0199828D01*
X0008505Y0197972D01*
X0007500Y0195546D01*
X0007500Y0187320D01*
X0008505Y0184894D01*
X0010361Y0183038D01*
X0012787Y0182033D01*
X0015413Y0182033D01*
X0017839Y0183038D01*
X0018617Y0183816D01*
X0020135Y0182299D01*
X0022708Y0181233D01*
X0019473Y0182960D02*
X0017652Y0182960D01*
X0010548Y0182960D02*
X0005400Y0182960D01*
X0005400Y0184159D02*
X0009240Y0184159D01*
X0008313Y0185357D02*
X0005400Y0185357D01*
X0005400Y0186556D02*
X0007817Y0186556D01*
X0007500Y0187754D02*
X0005400Y0187754D01*
X0005400Y0188953D02*
X0007500Y0188953D01*
X0007500Y0190151D02*
X0005400Y0190151D01*
X0005400Y0191350D02*
X0007500Y0191350D01*
X0007500Y0192548D02*
X0005400Y0192548D01*
X0005400Y0193747D02*
X0007500Y0193747D01*
X0007500Y0194945D02*
X0005400Y0194945D01*
X0005400Y0196144D02*
X0007748Y0196144D01*
X0008244Y0197343D02*
X0005400Y0197343D01*
X0005400Y0198541D02*
X0009074Y0198541D01*
X0010273Y0199740D02*
X0005400Y0199740D01*
X0005400Y0200938D02*
X0021030Y0200938D01*
X0019307Y0199740D02*
X0017927Y0199740D01*
X0027170Y0200938D02*
X0046600Y0200938D01*
X0046600Y0199740D02*
X0028893Y0199740D01*
X0030058Y0198541D02*
X0046600Y0198541D01*
X0046600Y0197343D02*
X0030554Y0197343D01*
X0031051Y0196144D02*
X0046600Y0196144D01*
X0046600Y0194945D02*
X0031100Y0194945D01*
X0031100Y0193747D02*
X0046600Y0193747D01*
X0046600Y0192548D02*
X0031100Y0192548D01*
X0031100Y0191350D02*
X0046600Y0191350D01*
X0046600Y0190151D02*
X0031100Y0190151D01*
X0031100Y0188953D02*
X0046600Y0188953D01*
X0046600Y0187754D02*
X0031100Y0187754D01*
X0030982Y0186556D02*
X0046600Y0186556D01*
X0046600Y0185357D02*
X0030486Y0185357D01*
X0029925Y0184159D02*
X0046600Y0184159D01*
X0046600Y0182960D02*
X0028727Y0182960D01*
X0026769Y0181762D02*
X0046600Y0181762D01*
X0044999Y0175769D02*
X0027252Y0175769D01*
X0028245Y0174571D02*
X0044307Y0174571D01*
X0043615Y0173372D02*
X0028744Y0173372D01*
X0028900Y0172174D02*
X0043270Y0172174D01*
X0042949Y0170975D02*
X0028900Y0170975D01*
X0028900Y0169777D02*
X0042800Y0169777D01*
X0024500Y0169777D02*
X0023700Y0169777D01*
X0023700Y0169333D02*
X0023700Y0176930D01*
X0022976Y0176815D01*
X0022257Y0176581D01*
X0021584Y0176238D01*
X0020973Y0175794D01*
X0020439Y0175260D01*
X0019995Y0174649D01*
X0019652Y0173976D01*
X0019418Y0173257D01*
X0019300Y0172511D01*
X0019300Y0169333D01*
X0023700Y0169333D01*
X0023700Y0168578D02*
X0018500Y0168578D01*
X0018500Y0167380D02*
X0019300Y0167380D01*
X0019300Y0166181D02*
X0018500Y0166181D01*
X0018353Y0164983D02*
X0019359Y0164983D01*
X0019706Y0163784D02*
X0017832Y0163784D01*
X0016703Y0162586D02*
X0020459Y0162586D01*
X0014300Y0162586D02*
X0013900Y0162586D01*
X0013900Y0163784D02*
X0014300Y0163784D01*
X0014300Y0164983D02*
X0013900Y0164983D01*
X0013900Y0166181D02*
X0014300Y0166181D01*
X0014300Y0167380D02*
X0013900Y0167380D01*
X0013900Y0168578D02*
X0014300Y0168578D01*
X0014300Y0169777D02*
X0013900Y0169777D01*
X0013900Y0170975D02*
X0014300Y0170975D01*
X0014300Y0172174D02*
X0013900Y0172174D01*
X0013900Y0173372D02*
X0014300Y0173372D01*
X0014300Y0174571D02*
X0013900Y0174571D01*
X0013900Y0175769D02*
X0014300Y0175769D01*
X0015870Y0175769D02*
X0020948Y0175769D01*
X0019955Y0174571D02*
X0017477Y0174571D01*
X0018194Y0173372D02*
X0019456Y0173372D01*
X0019300Y0172174D02*
X0018485Y0172174D01*
X0018500Y0170975D02*
X0019300Y0170975D01*
X0019300Y0169777D02*
X0018500Y0169777D01*
X0023700Y0170975D02*
X0024500Y0170975D01*
X0024500Y0172174D02*
X0023700Y0172174D01*
X0023700Y0173372D02*
X0024500Y0173372D01*
X0024500Y0174571D02*
X0023700Y0174571D01*
X0023700Y0175769D02*
X0024500Y0175769D01*
X0005400Y0202137D02*
X0046600Y0202137D01*
X0046600Y0203335D02*
X0005400Y0203335D01*
X0005400Y0204534D02*
X0046600Y0204534D01*
X0046600Y0205732D02*
X0005400Y0205732D01*
X0005400Y0206931D02*
X0046600Y0206931D01*
X0046600Y0208129D02*
X0005400Y0208129D01*
X0005400Y0209328D02*
X0046600Y0209328D01*
X0046600Y0210526D02*
X0005400Y0210526D01*
X0005400Y0211725D02*
X0046600Y0211725D01*
X0046600Y0212923D02*
X0005400Y0212923D01*
X0005400Y0214122D02*
X0021596Y0214122D01*
X0023700Y0214122D02*
X0024500Y0214122D01*
X0024500Y0215320D02*
X0023700Y0215320D01*
X0023700Y0216519D02*
X0024500Y0216519D01*
X0024500Y0217717D02*
X0023700Y0217717D01*
X0023700Y0218916D02*
X0024500Y0218916D01*
X0024500Y0220114D02*
X0023700Y0220114D01*
X0023700Y0222511D02*
X0024500Y0222511D01*
X0024500Y0223710D02*
X0023700Y0223710D01*
X0023700Y0224908D02*
X0024500Y0224908D01*
X0024500Y0226107D02*
X0023700Y0226107D01*
X0023700Y0227305D02*
X0024500Y0227305D01*
X0024500Y0228504D02*
X0023700Y0228504D01*
X0027190Y0235695D02*
X0048321Y0235695D01*
X0049519Y0236893D02*
X0029045Y0236893D01*
X0030371Y0238092D02*
X0050718Y0238092D01*
X0051916Y0239290D02*
X0031380Y0239290D01*
X0032155Y0240489D02*
X0053115Y0240489D01*
X0054313Y0241687D02*
X0032745Y0241687D01*
X0033178Y0242886D02*
X0055553Y0242886D01*
X0056751Y0244084D02*
X0033475Y0244084D01*
X0033647Y0245283D02*
X0057950Y0245283D01*
X0046600Y0220114D02*
X0028900Y0220114D01*
X0028900Y0218916D02*
X0046600Y0218916D01*
X0046600Y0217717D02*
X0028878Y0217717D01*
X0028590Y0216519D02*
X0046600Y0216519D01*
X0046600Y0215320D02*
X0027917Y0215320D01*
X0026604Y0214122D02*
X0046600Y0214122D01*
X0011190Y0215320D02*
X0005400Y0215320D01*
X0005400Y0216519D02*
X0010239Y0216519D01*
X0009790Y0217717D02*
X0005400Y0217717D01*
X0005400Y0218916D02*
X0009700Y0218916D01*
X0009700Y0220114D02*
X0005400Y0220114D01*
X0005400Y0247680D02*
X0009564Y0247680D01*
X0009747Y0248879D02*
X0005400Y0248879D01*
X0005400Y0250077D02*
X0010056Y0250077D01*
X0010502Y0251276D02*
X0005400Y0251276D01*
X0005400Y0252474D02*
X0011105Y0252474D01*
X0011897Y0253673D02*
X0005400Y0253673D01*
X0005400Y0254871D02*
X0012926Y0254871D01*
X0014277Y0256070D02*
X0005400Y0256070D01*
X0005400Y0257268D02*
X0016212Y0257268D01*
X0121600Y0245283D02*
X0199100Y0245283D01*
X0239100Y0245283D01*
X0239100Y0244084D02*
X0199100Y0244084D01*
X0121600Y0244084D01*
X0121600Y0242886D02*
X0199100Y0242886D01*
X0239100Y0242886D01*
X0239100Y0241687D02*
X0199100Y0241687D01*
X0121600Y0241687D01*
X0121600Y0240489D02*
X0199100Y0240489D01*
X0239100Y0240489D01*
X0239100Y0239290D02*
X0199100Y0239290D01*
X0121600Y0239290D01*
X0121600Y0238092D02*
X0199100Y0238092D01*
X0239100Y0238092D01*
X0239100Y0236893D02*
X0199100Y0236893D01*
X0121600Y0236893D01*
X0121600Y0235695D02*
X0199100Y0235695D01*
X0239100Y0235695D01*
X0239100Y0234496D02*
X0199100Y0234496D01*
X0121600Y0234496D01*
X0121600Y0233298D02*
X0199100Y0233298D01*
X0239100Y0233298D01*
X0239100Y0232099D02*
X0199100Y0232099D01*
X0121600Y0232099D01*
X0121600Y0230901D02*
X0199100Y0230901D01*
X0239100Y0230901D01*
X0239100Y0229702D02*
X0199100Y0229702D01*
X0121600Y0229702D01*
X0121600Y0228504D02*
X0199100Y0228504D01*
X0239100Y0228504D01*
X0239100Y0227305D02*
X0199100Y0227305D01*
X0121600Y0227305D01*
X0121600Y0226107D02*
X0122200Y0226107D01*
X0122200Y0224908D02*
X0121600Y0224908D01*
X0121600Y0223710D02*
X0122200Y0223710D01*
X0122200Y0222511D02*
X0199100Y0222511D01*
X0239100Y0222511D01*
X0239100Y0223710D02*
X0199100Y0223710D01*
X0126743Y0223710D01*
X0126743Y0224908D02*
X0199100Y0224908D01*
X0239100Y0224908D01*
X0239100Y0226107D02*
X0199100Y0226107D01*
X0126394Y0226107D01*
X0136600Y0191433D02*
X0138957Y0191433D01*
X0138957Y0189021D01*
X0143500Y0189021D01*
X0143500Y0187821D01*
X0144700Y0187821D01*
X0144700Y0183672D01*
X0147854Y0183672D01*
X0148261Y0183781D01*
X0148626Y0183991D01*
X0148924Y0184289D01*
X0149134Y0184654D01*
X0149243Y0185061D01*
X0149243Y0187821D01*
X0144700Y0187821D01*
X0144700Y0189021D01*
X0149243Y0189021D01*
X0149243Y0191433D01*
X0166457Y0191433D01*
X0166457Y0189021D01*
X0171000Y0189021D01*
X0171000Y0187821D01*
X0172200Y0187821D01*
X0172200Y0183672D01*
X0175354Y0183672D01*
X0175761Y0183781D01*
X0176126Y0183991D01*
X0176424Y0184289D01*
X0176634Y0184654D01*
X0176743Y0185061D01*
X0176743Y0187821D01*
X0172200Y0187821D01*
X0172200Y0189021D01*
X0176743Y0189021D01*
X0176743Y0191433D01*
X0178957Y0191433D01*
X0178957Y0189021D01*
X0183500Y0189021D01*
X0183500Y0187821D01*
X0184700Y0187821D01*
X0184700Y0183672D01*
X0187854Y0183672D01*
X0188261Y0183781D01*
X0188626Y0183991D01*
X0188924Y0184289D01*
X0189134Y0184654D01*
X0189243Y0185061D01*
X0189243Y0187821D01*
X0184700Y0187821D01*
X0184700Y0189021D01*
X0189243Y0189021D01*
X0189243Y0191433D01*
X0194100Y0191433D01*
X0194100Y0151433D01*
X0198957Y0151433D01*
X0198957Y0149021D01*
X0203500Y0149021D01*
X0203500Y0147821D01*
X0204700Y0147821D01*
X0204700Y0143672D01*
X0207854Y0143672D01*
X0208261Y0143781D01*
X0208626Y0143991D01*
X0208924Y0144289D01*
X0209134Y0144654D01*
X0209243Y0145061D01*
X0209243Y0147821D01*
X0204700Y0147821D01*
X0204700Y0149021D01*
X0209243Y0149021D01*
X0209243Y0151433D01*
X0214100Y0151433D01*
X0214100Y0203933D01*
X0234100Y0203933D01*
X0234100Y0192976D01*
X0228365Y0192976D01*
X0227263Y0192520D01*
X0226419Y0191676D01*
X0225962Y0190573D01*
X0225962Y0188049D01*
X0225838Y0187749D01*
X0225838Y0190187D01*
X0225729Y0190594D01*
X0225518Y0190959D01*
X0225220Y0191257D01*
X0224855Y0191467D01*
X0224448Y0191576D01*
X0221688Y0191576D01*
X0221688Y0187033D01*
X0220488Y0187033D01*
X0220488Y0185833D01*
X0216339Y0185833D01*
X0216339Y0182679D01*
X0216448Y0182272D01*
X0216658Y0181907D01*
X0216956Y0181609D01*
X0217321Y0181399D01*
X0217728Y0181290D01*
X0220488Y0181290D01*
X0220488Y0185833D01*
X0221688Y0185833D01*
X0221688Y0181290D01*
X0224448Y0181290D01*
X0224855Y0181399D01*
X0225220Y0181609D01*
X0225518Y0181907D01*
X0225729Y0182272D01*
X0225838Y0182679D01*
X0225838Y0185117D01*
X0225962Y0184817D01*
X0225962Y0182293D01*
X0226419Y0181190D01*
X0227263Y0180346D01*
X0228365Y0179890D01*
X0234100Y0179890D01*
X0234100Y0159533D01*
X0232988Y0159533D01*
X0232988Y0158333D01*
X0228839Y0158333D01*
X0228839Y0155179D01*
X0228948Y0154772D01*
X0229158Y0154407D01*
X0229456Y0154109D01*
X0229821Y0153899D01*
X0230228Y0153790D01*
X0232988Y0153790D01*
X0232988Y0158333D01*
X0234100Y0158333D01*
X0234100Y0138933D01*
X0230837Y0138933D01*
X0230867Y0138985D01*
X0230976Y0139392D01*
X0230976Y0143333D01*
X0224858Y0143333D01*
X0224858Y0144533D01*
X0230976Y0144533D01*
X0230976Y0148474D01*
X0230867Y0148881D01*
X0230656Y0149246D01*
X0230358Y0149544D01*
X0229993Y0149755D01*
X0229586Y0149864D01*
X0224857Y0149864D01*
X0224857Y0144533D01*
X0223657Y0144533D01*
X0223657Y0143333D01*
X0217539Y0143333D01*
X0217539Y0139392D01*
X0217648Y0138985D01*
X0217678Y0138933D01*
X0211265Y0138933D01*
X0211221Y0139098D01*
X0211010Y0139463D01*
X0210712Y0139761D01*
X0210347Y0139971D01*
X0209941Y0140080D01*
X0199700Y0140080D01*
X0199700Y0138933D01*
X0198500Y0138933D01*
X0198500Y0140080D01*
X0188259Y0140080D01*
X0187852Y0139971D01*
X0187488Y0139761D01*
X0187190Y0139463D01*
X0186979Y0139098D01*
X0186935Y0138933D01*
X0181600Y0138933D01*
X0181600Y0168933D01*
X0136600Y0168933D01*
X0136600Y0191433D01*
X0136600Y0191350D02*
X0138957Y0191350D01*
X0138957Y0190151D02*
X0136600Y0190151D01*
X0136600Y0188953D02*
X0143500Y0188953D01*
X0143500Y0187821D02*
X0138957Y0187821D01*
X0138957Y0185061D01*
X0139066Y0184654D01*
X0139276Y0184289D01*
X0139574Y0183991D01*
X0139939Y0183781D01*
X0140346Y0183672D01*
X0143500Y0183672D01*
X0143500Y0187821D01*
X0143500Y0187754D02*
X0144700Y0187754D01*
X0144700Y0186556D02*
X0143500Y0186556D01*
X0143500Y0185357D02*
X0144700Y0185357D01*
X0144700Y0184159D02*
X0143500Y0184159D01*
X0139407Y0184159D02*
X0136600Y0184159D01*
X0136600Y0185357D02*
X0138957Y0185357D01*
X0138957Y0186556D02*
X0136600Y0186556D01*
X0136600Y0187754D02*
X0138957Y0187754D01*
X0136600Y0182960D02*
X0194100Y0182960D01*
X0194100Y0181762D02*
X0136600Y0181762D01*
X0136600Y0180563D02*
X0194100Y0180563D01*
X0194100Y0179365D02*
X0136600Y0179365D01*
X0136600Y0178166D02*
X0194100Y0178166D01*
X0194100Y0176968D02*
X0136600Y0176968D01*
X0136600Y0175769D02*
X0194100Y0175769D01*
X0194100Y0174571D02*
X0136600Y0174571D01*
X0136600Y0173372D02*
X0194100Y0173372D01*
X0194100Y0172174D02*
X0136600Y0172174D01*
X0136600Y0170975D02*
X0194100Y0170975D01*
X0194100Y0169777D02*
X0136600Y0169777D01*
X0148793Y0184159D02*
X0166907Y0184159D01*
X0166776Y0184289D02*
X0167074Y0183991D01*
X0167439Y0183781D01*
X0167846Y0183672D01*
X0171000Y0183672D01*
X0171000Y0187821D01*
X0166457Y0187821D01*
X0166457Y0185061D01*
X0166566Y0184654D01*
X0166776Y0184289D01*
X0166457Y0185357D02*
X0149243Y0185357D01*
X0149243Y0186556D02*
X0166457Y0186556D01*
X0166457Y0187754D02*
X0149243Y0187754D01*
X0149243Y0190151D02*
X0166457Y0190151D01*
X0166457Y0191350D02*
X0149243Y0191350D01*
X0144700Y0188953D02*
X0171000Y0188953D01*
X0171000Y0187754D02*
X0172200Y0187754D01*
X0172200Y0186556D02*
X0171000Y0186556D01*
X0171000Y0185357D02*
X0172200Y0185357D01*
X0172200Y0184159D02*
X0171000Y0184159D01*
X0172200Y0188953D02*
X0183500Y0188953D01*
X0183500Y0187821D02*
X0178957Y0187821D01*
X0178957Y0185061D01*
X0179066Y0184654D01*
X0179276Y0184289D01*
X0179574Y0183991D01*
X0179939Y0183781D01*
X0180346Y0183672D01*
X0183500Y0183672D01*
X0183500Y0187821D01*
X0183500Y0187754D02*
X0184700Y0187754D01*
X0184700Y0186556D02*
X0183500Y0186556D01*
X0183500Y0185357D02*
X0184700Y0185357D01*
X0184700Y0184159D02*
X0183500Y0184159D01*
X0179407Y0184159D02*
X0176293Y0184159D01*
X0176743Y0185357D02*
X0178957Y0185357D01*
X0178957Y0186556D02*
X0176743Y0186556D01*
X0176743Y0187754D02*
X0178957Y0187754D01*
X0178957Y0190151D02*
X0176743Y0190151D01*
X0176743Y0191350D02*
X0178957Y0191350D01*
X0184700Y0188953D02*
X0194100Y0188953D01*
X0194100Y0190151D02*
X0189243Y0190151D01*
X0189243Y0191350D02*
X0194100Y0191350D01*
X0194100Y0187754D02*
X0189243Y0187754D01*
X0189243Y0186556D02*
X0194100Y0186556D01*
X0194100Y0185357D02*
X0189243Y0185357D01*
X0188793Y0184159D02*
X0194100Y0184159D01*
X0214100Y0184159D02*
X0216339Y0184159D01*
X0216339Y0185357D02*
X0214100Y0185357D01*
X0214100Y0186556D02*
X0220488Y0186556D01*
X0220488Y0187033D02*
X0216339Y0187033D01*
X0216339Y0190187D01*
X0216448Y0190594D01*
X0216658Y0190959D01*
X0216956Y0191257D01*
X0217321Y0191467D01*
X0217728Y0191576D01*
X0220488Y0191576D01*
X0220488Y0187033D01*
X0220488Y0187754D02*
X0221688Y0187754D01*
X0221688Y0188953D02*
X0220488Y0188953D01*
X0220488Y0190151D02*
X0221688Y0190151D01*
X0221688Y0191350D02*
X0220488Y0191350D01*
X0217118Y0191350D02*
X0214100Y0191350D01*
X0214100Y0192548D02*
X0227332Y0192548D01*
X0226284Y0191350D02*
X0225059Y0191350D01*
X0225838Y0190151D02*
X0225962Y0190151D01*
X0225962Y0188953D02*
X0225838Y0188953D01*
X0225838Y0187754D02*
X0225840Y0187754D01*
X0221688Y0185357D02*
X0220488Y0185357D01*
X0220488Y0184159D02*
X0221688Y0184159D01*
X0221688Y0182960D02*
X0220488Y0182960D01*
X0220488Y0181762D02*
X0221688Y0181762D01*
X0225373Y0181762D02*
X0226182Y0181762D01*
X0225962Y0182960D02*
X0225838Y0182960D01*
X0225838Y0184159D02*
X0225962Y0184159D01*
X0227046Y0180563D02*
X0214100Y0180563D01*
X0214100Y0179365D02*
X0234100Y0179365D01*
X0234100Y0178166D02*
X0214100Y0178166D01*
X0214100Y0176968D02*
X0234100Y0176968D01*
X0234100Y0175769D02*
X0214100Y0175769D01*
X0214100Y0174571D02*
X0234100Y0174571D01*
X0234100Y0173372D02*
X0214100Y0173372D01*
X0214100Y0172174D02*
X0234100Y0172174D01*
X0234100Y0170975D02*
X0214100Y0170975D01*
X0214100Y0169777D02*
X0234100Y0169777D01*
X0234100Y0168578D02*
X0214100Y0168578D01*
X0214100Y0167380D02*
X0234100Y0167380D01*
X0234100Y0166181D02*
X0214100Y0166181D01*
X0214100Y0164983D02*
X0234100Y0164983D01*
X0234100Y0163784D02*
X0232988Y0163784D01*
X0232988Y0164076D02*
X0230228Y0164076D01*
X0229821Y0163967D01*
X0229456Y0163757D01*
X0229158Y0163459D01*
X0228948Y0163094D01*
X0228839Y0162687D01*
X0228839Y0159533D01*
X0232988Y0159533D01*
X0232988Y0164076D01*
X0232988Y0162586D02*
X0234100Y0162586D01*
X0234100Y0161387D02*
X0232988Y0161387D01*
X0232988Y0160189D02*
X0234100Y0160189D01*
X0232988Y0158990D02*
X0214100Y0158990D01*
X0214100Y0157792D02*
X0228839Y0157792D01*
X0228839Y0156593D02*
X0214100Y0156593D01*
X0214100Y0155395D02*
X0228839Y0155395D01*
X0229369Y0154196D02*
X0214100Y0154196D01*
X0214100Y0152998D02*
X0234100Y0152998D01*
X0234100Y0154196D02*
X0232988Y0154196D01*
X0232988Y0155395D02*
X0234100Y0155395D01*
X0234100Y0156593D02*
X0232988Y0156593D01*
X0232988Y0157792D02*
X0234100Y0157792D01*
X0228839Y0160189D02*
X0214100Y0160189D01*
X0214100Y0161387D02*
X0228839Y0161387D01*
X0228839Y0162586D02*
X0214100Y0162586D01*
X0214100Y0163784D02*
X0229504Y0163784D01*
X0234100Y0151799D02*
X0214100Y0151799D01*
X0217859Y0149246D02*
X0217648Y0148881D01*
X0217539Y0148474D01*
X0217539Y0144533D01*
X0223657Y0144533D01*
X0223657Y0149864D01*
X0218929Y0149864D01*
X0218522Y0149755D01*
X0218157Y0149544D01*
X0217859Y0149246D01*
X0218015Y0149402D02*
X0209243Y0149402D01*
X0209243Y0150601D02*
X0234100Y0150601D01*
X0234100Y0149402D02*
X0230500Y0149402D01*
X0230976Y0148204D02*
X0234100Y0148204D01*
X0234100Y0147005D02*
X0230976Y0147005D01*
X0230976Y0145807D02*
X0234100Y0145807D01*
X0234100Y0144608D02*
X0230976Y0144608D01*
X0230976Y0142211D02*
X0234100Y0142211D01*
X0234100Y0141433D02*
X0181600Y0141433D01*
X0181600Y0113933D01*
X0234100Y0113933D01*
X0234100Y0141433D01*
X0234100Y0141012D02*
X0181600Y0141012D01*
X0217539Y0141012D01*
X0217539Y0139814D02*
X0210620Y0139814D01*
X0209108Y0144608D02*
X0217539Y0144608D01*
X0217539Y0145807D02*
X0209243Y0145807D01*
X0209243Y0147005D02*
X0217539Y0147005D01*
X0217539Y0148204D02*
X0204700Y0148204D01*
X0204700Y0147005D02*
X0203500Y0147005D01*
X0203500Y0147821D02*
X0203500Y0143672D01*
X0200346Y0143672D01*
X0199939Y0143781D01*
X0199574Y0143991D01*
X0199276Y0144289D01*
X0199066Y0144654D01*
X0198957Y0145061D01*
X0198957Y0147821D01*
X0203500Y0147821D01*
X0203500Y0148204D02*
X0181600Y0148204D01*
X0181600Y0149402D02*
X0198957Y0149402D01*
X0198957Y0150601D02*
X0181600Y0150601D01*
X0181600Y0151799D02*
X0194100Y0151799D01*
X0194100Y0152998D02*
X0181600Y0152998D01*
X0181600Y0154196D02*
X0194100Y0154196D01*
X0194100Y0155395D02*
X0181600Y0155395D01*
X0181600Y0156593D02*
X0194100Y0156593D01*
X0194100Y0157792D02*
X0181600Y0157792D01*
X0181600Y0158990D02*
X0194100Y0158990D01*
X0194100Y0160189D02*
X0181600Y0160189D01*
X0181600Y0161387D02*
X0194100Y0161387D01*
X0194100Y0162586D02*
X0181600Y0162586D01*
X0181600Y0163784D02*
X0194100Y0163784D01*
X0194100Y0164983D02*
X0181600Y0164983D01*
X0181600Y0166181D02*
X0194100Y0166181D01*
X0194100Y0167380D02*
X0181600Y0167380D01*
X0181600Y0168578D02*
X0194100Y0168578D01*
X0214100Y0181762D02*
X0216804Y0181762D01*
X0216339Y0182960D02*
X0214100Y0182960D01*
X0214100Y0187754D02*
X0216339Y0187754D01*
X0216339Y0188953D02*
X0214100Y0188953D01*
X0214100Y0190151D02*
X0216339Y0190151D01*
X0214100Y0193747D02*
X0234100Y0193747D01*
X0234100Y0194945D02*
X0214100Y0194945D01*
X0214100Y0196144D02*
X0234100Y0196144D01*
X0234100Y0197343D02*
X0214100Y0197343D01*
X0214100Y0198541D02*
X0234100Y0198541D01*
X0234100Y0199740D02*
X0214100Y0199740D01*
X0214100Y0200938D02*
X0234100Y0200938D01*
X0234100Y0202137D02*
X0214100Y0202137D01*
X0214100Y0203335D02*
X0234100Y0203335D01*
X0234100Y0216519D02*
X0214100Y0216519D01*
X0214100Y0217717D02*
X0234100Y0217717D01*
X0234100Y0218916D02*
X0214100Y0218916D01*
X0214100Y0220114D02*
X0234100Y0220114D01*
X0234100Y0221313D02*
X0214100Y0221313D01*
X0314100Y0190151D02*
X0329300Y0190151D01*
X0329300Y0188953D02*
X0314100Y0188953D01*
X0314100Y0187754D02*
X0329316Y0187754D01*
X0329598Y0186556D02*
X0314100Y0186556D01*
X0314100Y0185357D02*
X0330256Y0185357D01*
X0331541Y0184159D02*
X0314100Y0184159D01*
X0314100Y0178166D02*
X0330374Y0178166D01*
X0329035Y0176968D02*
X0314100Y0176968D01*
X0314100Y0175769D02*
X0328029Y0175769D01*
X0327533Y0174571D02*
X0314100Y0174571D01*
X0314585Y0173372D02*
X0327100Y0173372D01*
X0327100Y0172174D02*
X0314930Y0172174D01*
X0315251Y0170975D02*
X0327100Y0170975D01*
X0327100Y0169777D02*
X0315400Y0169777D01*
X0315400Y0168578D02*
X0327100Y0168578D01*
X0327100Y0167380D02*
X0315400Y0167380D01*
X0315400Y0166181D02*
X0327100Y0166181D01*
X0327100Y0164983D02*
X0315400Y0164983D01*
X0315400Y0163784D02*
X0327330Y0163784D01*
X0327827Y0162586D02*
X0315400Y0162586D01*
X0315400Y0161387D02*
X0328546Y0161387D01*
X0329745Y0160189D02*
X0315400Y0160189D01*
X0333700Y0184159D02*
X0334500Y0184159D01*
X0334500Y0185357D02*
X0333700Y0185357D01*
X0333700Y0186556D02*
X0334500Y0186556D01*
X0334500Y0187754D02*
X0333700Y0187754D01*
X0333700Y0188953D02*
X0334500Y0188953D01*
X0334500Y0190151D02*
X0333700Y0190151D01*
X0333700Y0192548D02*
X0334500Y0192548D01*
X0334500Y0193747D02*
X0333700Y0193747D01*
X0333700Y0194945D02*
X0334500Y0194945D01*
X0334500Y0196144D02*
X0333700Y0196144D01*
X0333700Y0197343D02*
X0334500Y0197343D01*
X0334500Y0198541D02*
X0333700Y0198541D01*
X0348742Y0131424D02*
X0352721Y0131424D01*
X0352721Y0130226D02*
X0349797Y0130226D01*
X0350293Y0129027D02*
X0352721Y0129027D01*
X0352721Y0127829D02*
X0350700Y0127829D01*
X0350700Y0126630D02*
X0352721Y0126630D01*
X0352721Y0125432D02*
X0350700Y0125432D01*
X0350700Y0124233D02*
X0352721Y0124233D01*
X0352721Y0123035D02*
X0350700Y0123035D01*
X0350700Y0121836D02*
X0352721Y0121836D01*
X0352721Y0120638D02*
X0350700Y0120638D01*
X0350542Y0119439D02*
X0352721Y0119439D01*
X0352721Y0118241D02*
X0350046Y0118241D01*
X0349343Y0117042D02*
X0352721Y0117042D01*
X0352721Y0115844D02*
X0348144Y0115844D01*
X0279100Y0063109D02*
X0263276Y0063109D01*
X0262078Y0061911D02*
X0279100Y0061911D01*
X0279100Y0060712D02*
X0260879Y0060712D01*
X0259681Y0059514D02*
X0279100Y0059514D01*
X0279100Y0058315D02*
X0258482Y0058315D01*
X0257284Y0057117D02*
X0279100Y0057117D01*
X0279100Y0055918D02*
X0256085Y0055918D01*
X0254887Y0054720D02*
X0279100Y0054720D01*
X0245055Y0079888D02*
X0113145Y0079888D01*
X0114100Y0078933D02*
X0101600Y0091433D01*
X0101600Y0131433D01*
X0121700Y0131433D01*
X0121700Y0126657D01*
X0121382Y0126340D01*
X0120050Y0123124D01*
X0120050Y0109743D01*
X0121382Y0106527D01*
X0123844Y0104065D01*
X0127060Y0102733D01*
X0130540Y0102733D01*
X0133756Y0104065D01*
X0136218Y0106527D01*
X0137550Y0109743D01*
X0137550Y0123124D01*
X0136218Y0126340D01*
X0135900Y0126657D01*
X0135900Y0131433D01*
X0166600Y0131433D01*
X0166600Y0114076D01*
X0164188Y0114076D01*
X0164188Y0109533D01*
X0162988Y0109533D01*
X0162988Y0108333D01*
X0158839Y0108333D01*
X0158839Y0105179D01*
X0158948Y0104772D01*
X0159158Y0104407D01*
X0159456Y0104109D01*
X0159762Y0103933D01*
X0159456Y0103757D01*
X0159158Y0103459D01*
X0158948Y0103094D01*
X0158839Y0102687D01*
X0158839Y0099533D01*
X0162988Y0099533D01*
X0162988Y0098333D01*
X0158839Y0098333D01*
X0158839Y0095179D01*
X0158948Y0094772D01*
X0159158Y0094407D01*
X0159456Y0094109D01*
X0159821Y0093899D01*
X0160228Y0093790D01*
X0162988Y0093790D01*
X0162988Y0098333D01*
X0164188Y0098333D01*
X0164188Y0093790D01*
X0166600Y0093790D01*
X0166600Y0088933D01*
X0196600Y0088933D01*
X0196600Y0112471D01*
X0198500Y0112471D01*
X0198500Y0116433D01*
X0199700Y0116433D01*
X0199700Y0112471D01*
X0201600Y0112471D01*
X0201600Y0088933D01*
X0226600Y0088933D01*
X0226600Y0098933D01*
X0256600Y0098933D01*
X0256600Y0091433D01*
X0244100Y0078933D01*
X0114100Y0078933D01*
X0111946Y0081087D02*
X0246254Y0081087D01*
X0247452Y0082285D02*
X0110748Y0082285D01*
X0109549Y0083484D02*
X0248651Y0083484D01*
X0249849Y0084682D02*
X0108351Y0084682D01*
X0107152Y0085881D02*
X0251048Y0085881D01*
X0252246Y0087079D02*
X0105954Y0087079D01*
X0104755Y0088278D02*
X0253445Y0088278D01*
X0254643Y0089477D02*
X0226600Y0089477D01*
X0226600Y0090675D02*
X0255842Y0090675D01*
X0256600Y0091874D02*
X0226600Y0091874D01*
X0226600Y0093072D02*
X0256600Y0093072D01*
X0256600Y0094271D02*
X0226600Y0094271D01*
X0226600Y0095469D02*
X0256600Y0095469D01*
X0256600Y0096668D02*
X0226600Y0096668D01*
X0226600Y0097866D02*
X0256600Y0097866D01*
X0234100Y0114645D02*
X0181600Y0114645D01*
X0181600Y0115844D02*
X0234100Y0115844D01*
X0234100Y0117042D02*
X0181600Y0117042D01*
X0181600Y0118241D02*
X0234100Y0118241D01*
X0234100Y0119439D02*
X0181600Y0119439D01*
X0181600Y0120638D02*
X0234100Y0120638D01*
X0234100Y0121836D02*
X0181600Y0121836D01*
X0181600Y0123035D02*
X0234100Y0123035D01*
X0234100Y0124233D02*
X0181600Y0124233D01*
X0181600Y0125432D02*
X0234100Y0125432D01*
X0234100Y0126630D02*
X0181600Y0126630D01*
X0181600Y0127829D02*
X0234100Y0127829D01*
X0234100Y0129027D02*
X0181600Y0129027D01*
X0181600Y0130226D02*
X0234100Y0130226D01*
X0234100Y0131424D02*
X0181600Y0131424D01*
X0181600Y0132623D02*
X0234100Y0132623D01*
X0234100Y0133821D02*
X0181600Y0133821D01*
X0181600Y0135020D02*
X0234100Y0135020D01*
X0234100Y0136218D02*
X0181600Y0136218D01*
X0181600Y0137417D02*
X0234100Y0137417D01*
X0234100Y0138615D02*
X0181600Y0138615D01*
X0181600Y0139814D02*
X0234100Y0139814D01*
X0230976Y0139814D01*
X0230976Y0141012D02*
X0234100Y0141012D01*
X0234100Y0143410D02*
X0224858Y0143410D01*
X0224857Y0144608D02*
X0223657Y0144608D01*
X0223657Y0143410D02*
X0181600Y0143410D01*
X0181600Y0144608D02*
X0199092Y0144608D01*
X0198957Y0145807D02*
X0181600Y0145807D01*
X0181600Y0147005D02*
X0198957Y0147005D01*
X0203500Y0145807D02*
X0204700Y0145807D01*
X0204700Y0144608D02*
X0203500Y0144608D01*
X0199700Y0139814D02*
X0198500Y0139814D01*
X0187580Y0139814D02*
X0181600Y0139814D01*
X0181600Y0142211D02*
X0217539Y0142211D01*
X0223657Y0145807D02*
X0224857Y0145807D01*
X0224857Y0147005D02*
X0223657Y0147005D01*
X0223657Y0148204D02*
X0224857Y0148204D01*
X0224857Y0149402D02*
X0223657Y0149402D01*
X0199700Y0115844D02*
X0198500Y0115844D01*
X0198500Y0114645D02*
X0199700Y0114645D01*
X0199700Y0113447D02*
X0198500Y0113447D01*
X0196600Y0112248D02*
X0201600Y0112248D01*
X0201600Y0111050D02*
X0196600Y0111050D01*
X0196600Y0109851D02*
X0201600Y0109851D01*
X0201600Y0108653D02*
X0196600Y0108653D01*
X0196600Y0107454D02*
X0201600Y0107454D01*
X0201600Y0106256D02*
X0196600Y0106256D01*
X0196600Y0105057D02*
X0201600Y0105057D01*
X0201600Y0103859D02*
X0196600Y0103859D01*
X0196600Y0102660D02*
X0201600Y0102660D01*
X0201600Y0101462D02*
X0196600Y0101462D01*
X0196600Y0100263D02*
X0201600Y0100263D01*
X0201600Y0099065D02*
X0196600Y0099065D01*
X0196600Y0097866D02*
X0201600Y0097866D01*
X0201600Y0096668D02*
X0196600Y0096668D01*
X0196600Y0095469D02*
X0201600Y0095469D01*
X0201600Y0094271D02*
X0196600Y0094271D01*
X0196600Y0093072D02*
X0201600Y0093072D01*
X0201600Y0091874D02*
X0196600Y0091874D01*
X0196600Y0090675D02*
X0201600Y0090675D01*
X0201600Y0089477D02*
X0196600Y0089477D01*
X0166600Y0089477D02*
X0103557Y0089477D01*
X0102358Y0090675D02*
X0166600Y0090675D01*
X0166600Y0091874D02*
X0101600Y0091874D01*
X0101600Y0093072D02*
X0166600Y0093072D01*
X0164188Y0094271D02*
X0162988Y0094271D01*
X0162988Y0095469D02*
X0164188Y0095469D01*
X0164188Y0096668D02*
X0162988Y0096668D01*
X0162988Y0097866D02*
X0164188Y0097866D01*
X0164188Y0099533D02*
X0162988Y0099533D01*
X0162988Y0103790D01*
X0162988Y0108333D01*
X0164188Y0108333D01*
X0164188Y0099533D01*
X0164188Y0100263D02*
X0162988Y0100263D01*
X0162988Y0099065D02*
X0101600Y0099065D01*
X0101600Y0100263D02*
X0158839Y0100263D01*
X0158839Y0101462D02*
X0101600Y0101462D01*
X0101600Y0102660D02*
X0158839Y0102660D01*
X0159633Y0103859D02*
X0133258Y0103859D01*
X0134748Y0105057D02*
X0143075Y0105057D01*
X0143119Y0105045D02*
X0142290Y0105267D01*
X0141497Y0105596D01*
X0140753Y0106025D01*
X0140072Y0106548D01*
X0139465Y0107155D01*
X0138942Y0107836D01*
X0138513Y0108580D01*
X0138184Y0109373D01*
X0137962Y0110202D01*
X0137850Y0111054D01*
X0137850Y0115833D01*
X0143800Y0115833D01*
X0145000Y0115833D01*
X0145000Y0104956D01*
X0145681Y0105045D01*
X0146510Y0105267D01*
X0147303Y0105596D01*
X0148047Y0106025D01*
X0148728Y0106548D01*
X0149335Y0107155D01*
X0149858Y0107836D01*
X0150287Y0108580D01*
X0150616Y0109373D01*
X0150838Y0110202D01*
X0150950Y0111054D01*
X0150950Y0115833D01*
X0145000Y0115833D01*
X0145000Y0117033D01*
X0150950Y0117033D01*
X0150950Y0121812D01*
X0150838Y0122664D01*
X0150616Y0123493D01*
X0150287Y0124286D01*
X0149858Y0125030D01*
X0149335Y0125711D01*
X0148728Y0126318D01*
X0148047Y0126841D01*
X0147303Y0127270D01*
X0146510Y0127599D01*
X0145681Y0127821D01*
X0145000Y0127911D01*
X0145000Y0117033D01*
X0143800Y0117033D01*
X0143800Y0115833D01*
X0143800Y0104956D01*
X0143119Y0105045D01*
X0143800Y0105057D02*
X0145000Y0105057D01*
X0145725Y0105057D02*
X0158871Y0105057D01*
X0158839Y0106256D02*
X0148347Y0106256D01*
X0149565Y0107454D02*
X0158839Y0107454D01*
X0158839Y0109533D02*
X0162988Y0109533D01*
X0162988Y0114076D01*
X0160228Y0114076D01*
X0159821Y0113967D01*
X0159456Y0113757D01*
X0159158Y0113459D01*
X0158948Y0113094D01*
X0158839Y0112687D01*
X0158839Y0109533D01*
X0158839Y0109851D02*
X0150744Y0109851D01*
X0150949Y0111050D02*
X0158839Y0111050D01*
X0158839Y0112248D02*
X0150950Y0112248D01*
X0150950Y0113447D02*
X0159151Y0113447D01*
X0162988Y0113447D02*
X0164188Y0113447D01*
X0164188Y0112248D02*
X0162988Y0112248D01*
X0162988Y0111050D02*
X0164188Y0111050D01*
X0164188Y0109851D02*
X0162988Y0109851D01*
X0162988Y0108653D02*
X0150317Y0108653D01*
X0145000Y0108653D02*
X0143800Y0108653D01*
X0143800Y0109851D02*
X0145000Y0109851D01*
X0145000Y0111050D02*
X0143800Y0111050D01*
X0143800Y0112248D02*
X0145000Y0112248D01*
X0145000Y0113447D02*
X0143800Y0113447D01*
X0143800Y0114645D02*
X0145000Y0114645D01*
X0145000Y0115844D02*
X0166600Y0115844D01*
X0166600Y0117042D02*
X0150950Y0117042D01*
X0150950Y0118241D02*
X0166600Y0118241D01*
X0166600Y0119439D02*
X0150950Y0119439D01*
X0150950Y0120638D02*
X0166600Y0120638D01*
X0166600Y0121836D02*
X0150947Y0121836D01*
X0150738Y0123035D02*
X0166600Y0123035D01*
X0166600Y0124233D02*
X0150309Y0124233D01*
X0149549Y0125432D02*
X0166600Y0125432D01*
X0166600Y0126630D02*
X0148321Y0126630D01*
X0145621Y0127829D02*
X0166600Y0127829D01*
X0166600Y0129027D02*
X0135900Y0129027D01*
X0135900Y0127829D02*
X0143179Y0127829D01*
X0143119Y0127821D02*
X0142290Y0127599D01*
X0141497Y0127270D01*
X0140753Y0126841D01*
X0140072Y0126318D01*
X0139465Y0125711D01*
X0138942Y0125030D01*
X0138513Y0124286D01*
X0138184Y0123493D01*
X0137962Y0122664D01*
X0137850Y0121812D01*
X0137850Y0117033D01*
X0143800Y0117033D01*
X0143800Y0127911D01*
X0143119Y0127821D01*
X0143800Y0127829D02*
X0145000Y0127829D01*
X0145000Y0126630D02*
X0143800Y0126630D01*
X0143800Y0125432D02*
X0145000Y0125432D01*
X0145000Y0124233D02*
X0143800Y0124233D01*
X0143800Y0123035D02*
X0145000Y0123035D01*
X0145000Y0121836D02*
X0143800Y0121836D01*
X0143800Y0120638D02*
X0145000Y0120638D01*
X0145000Y0119439D02*
X0143800Y0119439D01*
X0143800Y0118241D02*
X0145000Y0118241D01*
X0145000Y0117042D02*
X0143800Y0117042D01*
X0143800Y0115844D02*
X0137550Y0115844D01*
X0137550Y0117042D02*
X0137850Y0117042D01*
X0137850Y0118241D02*
X0137550Y0118241D01*
X0137550Y0119439D02*
X0137850Y0119439D01*
X0137850Y0120638D02*
X0137550Y0120638D01*
X0137550Y0121836D02*
X0137853Y0121836D01*
X0138062Y0123035D02*
X0137550Y0123035D01*
X0137090Y0124233D02*
X0138491Y0124233D01*
X0139251Y0125432D02*
X0136594Y0125432D01*
X0135927Y0126630D02*
X0140479Y0126630D01*
X0135900Y0130226D02*
X0166600Y0130226D01*
X0166600Y0131424D02*
X0135900Y0131424D01*
X0121700Y0131424D02*
X0101600Y0131424D01*
X0101600Y0130226D02*
X0121700Y0130226D01*
X0121700Y0129027D02*
X0101600Y0129027D01*
X0101600Y0127829D02*
X0121700Y0127829D01*
X0121673Y0126630D02*
X0101600Y0126630D01*
X0101600Y0125432D02*
X0121006Y0125432D01*
X0120510Y0124233D02*
X0101600Y0124233D01*
X0101600Y0123035D02*
X0120050Y0123035D01*
X0120050Y0121836D02*
X0101600Y0121836D01*
X0101600Y0120638D02*
X0120050Y0120638D01*
X0120050Y0119439D02*
X0101600Y0119439D01*
X0101600Y0118241D02*
X0120050Y0118241D01*
X0120050Y0117042D02*
X0101600Y0117042D01*
X0101600Y0115844D02*
X0120050Y0115844D01*
X0120050Y0114645D02*
X0101600Y0114645D01*
X0101600Y0113447D02*
X0120050Y0113447D01*
X0120050Y0112248D02*
X0101600Y0112248D01*
X0101600Y0111050D02*
X0120050Y0111050D01*
X0120050Y0109851D02*
X0101600Y0109851D01*
X0101600Y0108653D02*
X0120501Y0108653D01*
X0120998Y0107454D02*
X0101600Y0107454D01*
X0101600Y0106256D02*
X0121653Y0106256D01*
X0122852Y0105057D02*
X0101600Y0105057D01*
X0101600Y0103859D02*
X0124342Y0103859D01*
X0135947Y0106256D02*
X0140453Y0106256D01*
X0139235Y0107454D02*
X0136602Y0107454D01*
X0137099Y0108653D02*
X0138483Y0108653D01*
X0138056Y0109851D02*
X0137550Y0109851D01*
X0137550Y0111050D02*
X0137851Y0111050D01*
X0137850Y0112248D02*
X0137550Y0112248D01*
X0137550Y0113447D02*
X0137850Y0113447D01*
X0137850Y0114645D02*
X0137550Y0114645D01*
X0143800Y0107454D02*
X0145000Y0107454D01*
X0145000Y0106256D02*
X0143800Y0106256D01*
X0150950Y0114645D02*
X0166600Y0114645D01*
X0164188Y0107454D02*
X0162988Y0107454D01*
X0162988Y0106256D02*
X0164188Y0106256D01*
X0164188Y0105057D02*
X0162988Y0105057D01*
X0162988Y0103859D02*
X0164188Y0103859D01*
X0164188Y0102660D02*
X0162988Y0102660D01*
X0162988Y0101462D02*
X0164188Y0101462D01*
X0158839Y0097866D02*
X0101600Y0097866D01*
X0101600Y0096668D02*
X0158839Y0096668D01*
X0158839Y0095469D02*
X0101600Y0095469D01*
X0101600Y0094271D02*
X0159295Y0094271D01*
X0042800Y0094271D02*
X0031100Y0094271D01*
X0031100Y0095469D02*
X0042800Y0095469D01*
X0042800Y0096668D02*
X0031100Y0096668D01*
X0031100Y0097866D02*
X0042800Y0097866D01*
X0042800Y0099065D02*
X0030877Y0099065D01*
X0030380Y0100263D02*
X0042800Y0100263D01*
X0042800Y0101462D02*
X0029671Y0101462D01*
X0028472Y0102660D02*
X0042800Y0102660D01*
X0042800Y0093072D02*
X0031100Y0093072D01*
X0031100Y0091874D02*
X0042800Y0091874D01*
X0042800Y0090675D02*
X0031100Y0090675D01*
X0031100Y0089477D02*
X0042800Y0089477D01*
X0042800Y0088278D02*
X0030660Y0088278D01*
X0030163Y0087079D02*
X0042800Y0087079D01*
X0042800Y0085881D02*
X0029147Y0085881D01*
X0020416Y0084682D02*
X0015773Y0084682D01*
X0018182Y0085881D02*
X0019053Y0085881D01*
X0005400Y0082285D02*
X0042800Y0082285D01*
X0042800Y0081087D02*
X0005400Y0081087D01*
X0005400Y0079888D02*
X0042815Y0079888D01*
X0043136Y0078690D02*
X0005400Y0078690D01*
X0005400Y0077491D02*
X0043458Y0077491D01*
X0044020Y0076293D02*
X0005400Y0076293D01*
X0005400Y0063109D02*
X0009516Y0063109D01*
X0009651Y0061911D02*
X0005400Y0061911D01*
X0005400Y0060712D02*
X0009924Y0060712D01*
X0010327Y0059514D02*
X0005400Y0059514D01*
X0005400Y0058315D02*
X0010875Y0058315D01*
X0011593Y0057117D02*
X0005400Y0057117D01*
X0005400Y0055918D02*
X0012515Y0055918D01*
X0013746Y0054720D02*
X0005400Y0054720D01*
X0005400Y0053521D02*
X0015427Y0053521D01*
X0039100Y0075094D02*
X0042939Y0075094D01*
X0041740Y0076293D02*
X0039100Y0076293D01*
X0039100Y0077491D02*
X0040542Y0077491D01*
X0039343Y0078690D02*
X0039100Y0078690D01*
X0013900Y0116733D02*
X0013900Y0123733D01*
X0009700Y0123733D01*
X0009700Y0120787D01*
X0009808Y0120103D01*
X0010022Y0119444D01*
X0010337Y0118827D01*
X0010744Y0118267D01*
X0011234Y0117777D01*
X0011794Y0117370D01*
X0012411Y0117055D01*
X0013070Y0116841D01*
X0013754Y0116733D01*
X0013900Y0116733D01*
X0013900Y0117042D02*
X0014300Y0117042D01*
X0014300Y0118241D02*
X0013900Y0118241D01*
X0013900Y0119439D02*
X0014300Y0119439D01*
X0014300Y0120638D02*
X0013900Y0120638D01*
X0013900Y0121836D02*
X0014300Y0121836D01*
X0014300Y0123035D02*
X0013900Y0123035D01*
X0009700Y0123035D02*
X0005400Y0123035D01*
X0005400Y0124233D02*
X0009700Y0124233D01*
X0009700Y0125432D02*
X0005400Y0125432D01*
X0005400Y0126630D02*
X0009700Y0126630D01*
X0009830Y0127829D02*
X0005400Y0127829D01*
X0005400Y0129027D02*
X0010331Y0129027D01*
X0009700Y0121836D02*
X0005400Y0121836D01*
X0005400Y0120638D02*
X0009724Y0120638D01*
X0010025Y0119439D02*
X0005400Y0119439D01*
X0005400Y0118241D02*
X0010770Y0118241D01*
X0012451Y0117042D02*
X0005400Y0117042D01*
X0028900Y0125432D02*
X0042800Y0125432D01*
X0042800Y0126630D02*
X0028900Y0126630D01*
X0028850Y0127829D02*
X0042800Y0127829D01*
X0042800Y0129027D02*
X0028522Y0129027D01*
X0028492Y0130226D02*
X0042800Y0130226D01*
X0042800Y0131424D02*
X0029691Y0131424D01*
X0030388Y0132623D02*
X0042800Y0132623D01*
X0042800Y0133821D02*
X0030885Y0133821D01*
X0031100Y0135020D02*
X0042800Y0135020D01*
X0042800Y0136218D02*
X0031100Y0136218D01*
X0031100Y0137417D02*
X0042800Y0137417D01*
X0042800Y0138615D02*
X0031100Y0138615D01*
X0031100Y0139814D02*
X0042800Y0139814D01*
X0042800Y0141012D02*
X0031100Y0141012D01*
X0031100Y0142211D02*
X0042800Y0142211D01*
X0042800Y0143410D02*
X0031100Y0143410D01*
X0030652Y0144608D02*
X0042800Y0144608D01*
X0042800Y0145807D02*
X0030155Y0145807D01*
X0029127Y0147005D02*
X0042800Y0147005D01*
D29*
X0051600Y0148933D03*
X0056600Y0153933D03*
X0051600Y0158933D03*
X0071600Y0158933D03*
X0076600Y0153933D03*
X0071600Y0148933D03*
X0106600Y0126433D03*
X0116600Y0126433D03*
X0106600Y0116433D03*
X0106600Y0106433D03*
X0106600Y0096433D03*
X0109100Y0088933D03*
X0116600Y0088933D03*
X0126600Y0088933D03*
X0134100Y0088933D03*
X0141600Y0088933D03*
X0149100Y0088933D03*
X0156600Y0088933D03*
X0164100Y0088933D03*
X0164100Y0081433D03*
X0156600Y0081433D03*
X0149100Y0081433D03*
X0141600Y0081433D03*
X0134100Y0081433D03*
X0126600Y0081433D03*
X0116600Y0081433D03*
X0091600Y0061433D03*
X0091600Y0053933D03*
X0099100Y0053933D03*
X0104100Y0051433D03*
X0111600Y0051433D03*
X0119100Y0051433D03*
X0126600Y0051433D03*
X0134100Y0051433D03*
X0141600Y0051433D03*
X0149100Y0051433D03*
X0156600Y0051433D03*
X0164100Y0051433D03*
X0171600Y0051433D03*
X0179100Y0051433D03*
X0186600Y0051433D03*
X0194100Y0051433D03*
X0201600Y0051433D03*
X0209100Y0051433D03*
X0216600Y0051433D03*
X0224100Y0051433D03*
X0231600Y0051433D03*
X0239100Y0051433D03*
X0246600Y0051433D03*
X0254100Y0051433D03*
X0259100Y0053933D03*
X0266600Y0053933D03*
X0266600Y0061433D03*
X0241600Y0081433D03*
X0241600Y0088933D03*
X0249100Y0088933D03*
X0254100Y0096433D03*
X0241600Y0096433D03*
X0231600Y0096433D03*
X0231600Y0088933D03*
X0231600Y0081433D03*
X0224100Y0081433D03*
X0216600Y0081433D03*
X0209100Y0081433D03*
X0201600Y0081433D03*
X0194100Y0081433D03*
X0186600Y0081433D03*
X0179100Y0081433D03*
X0171600Y0081433D03*
X0154100Y0098933D03*
X0154100Y0108933D03*
X0161600Y0118933D03*
X0161600Y0126433D03*
X0184100Y0126433D03*
X0191600Y0126433D03*
X0199100Y0126433D03*
X0206600Y0126433D03*
X0206600Y0118933D03*
X0199100Y0118933D03*
X0199100Y0113933D03*
X0191600Y0118933D03*
X0191600Y0133933D03*
X0184100Y0133933D03*
X0184100Y0143933D03*
X0191600Y0143933D03*
X0199100Y0133933D03*
X0206600Y0133933D03*
X0211600Y0143933D03*
X0219100Y0131433D03*
X0226600Y0131433D03*
X0226600Y0121433D03*
X0219100Y0121433D03*
X0199100Y0098933D03*
X0199100Y0088933D03*
X0281600Y0103933D03*
X0286600Y0108933D03*
X0281600Y0113933D03*
X0301600Y0113933D03*
X0306600Y0108933D03*
X0301600Y0103933D03*
X0319100Y0103933D03*
X0319100Y0093933D03*
X0319100Y0083933D03*
X0316600Y0073933D03*
X0311600Y0068933D03*
X0316600Y0063933D03*
X0316600Y0056433D03*
X0316600Y0048933D03*
X0319100Y0113933D03*
X0319100Y0121433D03*
X0306600Y0148933D03*
X0301600Y0153933D03*
X0306600Y0158933D03*
X0286600Y0158933D03*
X0281600Y0153933D03*
X0286600Y0148933D03*
X0316600Y0176433D03*
X0316600Y0186433D03*
X0316600Y0196433D03*
X0316600Y0206433D03*
X0316600Y0216433D03*
X0316600Y0226433D03*
X0306600Y0243933D03*
X0306600Y0251433D03*
X0296600Y0251433D03*
X0286600Y0251433D03*
X0276600Y0251433D03*
X0266600Y0251433D03*
X0256600Y0251433D03*
X0246600Y0251433D03*
X0236600Y0251433D03*
X0236600Y0243933D03*
X0236600Y0238933D03*
X0229100Y0238933D03*
X0221600Y0238933D03*
X0224100Y0231433D03*
X0216600Y0231433D03*
X0211600Y0223933D03*
X0216600Y0218933D03*
X0224100Y0218933D03*
X0231600Y0218933D03*
X0236600Y0223933D03*
X0231600Y0231433D03*
X0211600Y0238933D03*
X0201600Y0238933D03*
X0196600Y0231433D03*
X0206600Y0231433D03*
X0201600Y0223933D03*
X0191600Y0223933D03*
X0181600Y0223933D03*
X0176600Y0231433D03*
X0186600Y0231433D03*
X0181600Y0238933D03*
X0191600Y0238933D03*
X0171600Y0238933D03*
X0161600Y0238933D03*
X0156600Y0231433D03*
X0166600Y0231433D03*
X0161600Y0223933D03*
X0171600Y0223933D03*
X0151600Y0223933D03*
X0141600Y0223933D03*
X0136600Y0231433D03*
X0146600Y0231433D03*
X0141600Y0238933D03*
X0151600Y0238933D03*
X0131600Y0238933D03*
X0124100Y0238933D03*
X0126600Y0231433D03*
X0131600Y0223933D03*
X0121600Y0248933D03*
X0111600Y0248933D03*
X0101600Y0248933D03*
X0091600Y0248933D03*
X0081600Y0248933D03*
X0071600Y0248933D03*
X0061600Y0248933D03*
X0049100Y0248933D03*
X0049100Y0241433D03*
X0044100Y0228933D03*
X0044100Y0216433D03*
X0064100Y0206433D03*
X0044100Y0196433D03*
X0044100Y0186433D03*
X0044100Y0178933D03*
X0124100Y0178933D03*
X0139100Y0178933D03*
X0139100Y0171433D03*
X0146600Y0171433D03*
X0154100Y0171433D03*
X0161600Y0171433D03*
X0169100Y0171433D03*
X0176600Y0171433D03*
X0184100Y0171433D03*
X0191600Y0171433D03*
X0191600Y0178933D03*
X0184100Y0178933D03*
X0176600Y0178933D03*
X0169100Y0178933D03*
X0161600Y0178933D03*
X0154100Y0178933D03*
X0146600Y0178933D03*
X0154100Y0188933D03*
X0161600Y0188933D03*
X0184100Y0163933D03*
X0191600Y0163933D03*
X0191600Y0156433D03*
X0184100Y0156433D03*
X0216600Y0156433D03*
X0224100Y0156433D03*
X0224100Y0163933D03*
X0216600Y0163933D03*
X0216600Y0171433D03*
X0224100Y0171433D03*
X0224100Y0178933D03*
X0216600Y0178933D03*
X0231600Y0176433D03*
X0231600Y0168933D03*
X0224100Y0193933D03*
X0216600Y0193933D03*
X0216600Y0201433D03*
X0224100Y0201433D03*
X0229100Y0196433D03*
X0231600Y0201433D03*
X0076600Y0113933D03*
X0071600Y0108933D03*
X0076600Y0103933D03*
X0056600Y0103933D03*
X0051600Y0108933D03*
X0056600Y0113933D03*
X0039100Y0091433D03*
X0039100Y0083933D03*
X0034100Y0078933D03*
X0041600Y0073933D03*
X0046600Y0068933D03*
X0041600Y0063933D03*
X0041600Y0056433D03*
X0041600Y0048933D03*
X0009100Y0051433D03*
X0009100Y0078933D03*
D30*
X0041600Y0096433D03*
X0041600Y0103933D03*
X0041600Y0111433D03*
X0041600Y0118933D03*
X0041600Y0126433D03*
X0041600Y0133933D03*
X0041600Y0141433D03*
X0041600Y0148933D03*
X0041600Y0156433D03*
X0041600Y0163933D03*
X0041600Y0171433D03*
X0316600Y0168933D03*
X0316600Y0161433D03*
X0316600Y0153933D03*
X0316600Y0146433D03*
X0316600Y0138933D03*
X0316600Y0131433D03*
D31*
X0244612Y0158933D02*
X0244612Y0167909D01*
X0244100Y0168421D01*
D32*
X0284100Y0168933D02*
X0284100Y0138933D01*
X0284100Y0123933D01*
X0284100Y0093933D01*
X0284100Y0088933D01*
X0271600Y0076433D01*
X0259100Y0076433D01*
X0249100Y0066433D01*
X0109100Y0066433D01*
X0099100Y0076433D01*
X0086600Y0076433D01*
X0074100Y0088933D01*
X0074100Y0093933D01*
X0074100Y0168933D01*
X0074100Y0138933D01*
X0074100Y0123933D01*
X0074100Y0093933D01*
X0054100Y0093933D02*
X0054100Y0081433D01*
X0066600Y0068933D01*
X0054100Y0093933D02*
X0054100Y0123933D01*
X0054100Y0138933D01*
X0054100Y0168933D01*
X0291600Y0068933D02*
X0304100Y0081433D01*
X0304100Y0093933D01*
X0304100Y0123933D01*
X0304100Y0138933D01*
X0304100Y0168933D01*
D33*
X0291600Y0068933D02*
X0291600Y0054033D01*
X0066600Y0054033D02*
X0066600Y0068933D01*
M02*
