%
M48
M72
T01C0.02362
T02C0.03200
T03C0.04000
T04C0.06600
T05C0.11024
%
T01
X71006Y61433
X78506Y61433
X86006Y61433
X93506Y61433
X96006Y68933
X93506Y76433
X91006Y83933
X91006Y93933
X83506Y93933
X63506Y88933
X58506Y96433
X53506Y101433
X46006Y101433
X46006Y93933
X46006Y86433
X46006Y108933
X51006Y108933
X51006Y116433
X46006Y116433
X46006Y123933
X51006Y123933
X51006Y131433
X46006Y131433
X46006Y138933
X51006Y138933
X51006Y146433
X46006Y146433
X46006Y153933
X53506Y153933
X58506Y161433
X46006Y161433
X46006Y168933
X46006Y176433
X58506Y176433
X58506Y168933
X58506Y183933
X53506Y191433
X46006Y191433
X46006Y183933
X48506Y198933
X41006Y198933
X56006Y198933
X83506Y193933
X88506Y198933
X93506Y193933
X93506Y213933
X88506Y218933
X83506Y213933
X61006Y233933
X56006Y233933
X48506Y233933
X41006Y233933
X46006Y241433
X53506Y241433
X61006Y241433
X66006Y236433
X76006Y236433
X83506Y236433
X91006Y236433
X98506Y236433
X106006Y236433
X113506Y236433
X121006Y236433
X128506Y236433
X136006Y236433
X138506Y218933
X133506Y213933
X128506Y218933
X128506Y198933
X133506Y193933
X138506Y198933
X163506Y211433
X171006Y211433
X178506Y211433
X178506Y218933
X171006Y218933
X163506Y218933
X188506Y226433
X198506Y218933
X206006Y218933
X213506Y218933
X221006Y218933
X228506Y218933
X236006Y218933
X243506Y218933
X251006Y218933
X258506Y218933
X266006Y218933
X266006Y211433
X258506Y211433
X251006Y211433
X243506Y211433
X236006Y211433
X228506Y211433
X221006Y211433
X213506Y211433
X206006Y211433
X198506Y211433
X198506Y181433
X206006Y181433
X213506Y181433
X221006Y181433
X228506Y181433
X236006Y181433
X243506Y181433
X251006Y181433
X258506Y181433
X266006Y181433
X266006Y173933
X268506Y168933
X268506Y161433
X268506Y153933
X261006Y153933
X261006Y146433
X268506Y146433
X276006Y146433
X276006Y138933
X268506Y138933
X261006Y138933
X261006Y131433
X268506Y131433
X276006Y131433
X283506Y131433
X291006Y131433
X298506Y131433
X306006Y131433
X313506Y131433
X321006Y131433
X328506Y131433
X336006Y131433
X343506Y131433
X351006Y131433
X358506Y131433
X366006Y131433
X371006Y126433
X371006Y118933
X371006Y111433
X366006Y108933
X358506Y108933
X351006Y108933
X343506Y108933
X336006Y108933
X328506Y108933
X321006Y108933
X316006Y103933
X316006Y96433
X316006Y88933
X316006Y81433
X316006Y73933
X311006Y68933
X303506Y68933
X296006Y68933
X288506Y68933
X281006Y68933
X273506Y68933
X266006Y68933
X258506Y68933
X248506Y68933
X238506Y68933
X231006Y71433
X223506Y71433
X208506Y81433
X201006Y81433
X193506Y81433
X186006Y81433
X186006Y88933
X193506Y88933
X201006Y88933
X208506Y88933
X208506Y96433
X201006Y96433
X193506Y96433
X186006Y96433
X178506Y93933
X171006Y93933
X166006Y86433
X151006Y71433
X131006Y71433
X121006Y71433
X116006Y76433
X116006Y86433
X116006Y93933
X171006Y103933
X178506Y103933
X186006Y103933
X193506Y103933
X201006Y103933
X208506Y103933
X238506Y103933
X238506Y111433
X246006Y111433
X253506Y111433
X261006Y111433
X268506Y111433
X276006Y111433
X276006Y106433
X268506Y103933
X261006Y103933
X261006Y96433
X268506Y88933
X273506Y86433
X326006Y68933
X333506Y68933
X341006Y68933
X348506Y68933
X341006Y81433
X341006Y101433
X351006Y101433
X358506Y101433
X366006Y101433
X371006Y93933
X368506Y86433
X386006Y88933
X386006Y96433
X386006Y103933
X386006Y111433
X386006Y118933
X386006Y126433
X386006Y133933
X386006Y141433
X386006Y148933
X386006Y156433
X386006Y163933
X386006Y171433
X386006Y178933
X386006Y186433
X383506Y193933
X376006Y193933
X371006Y193933
X371006Y198933
X376006Y198933
X383506Y198933
X391006Y198933
X371006Y186433
X371006Y178933
X371006Y171433
X371006Y163933
X371006Y156433
X366006Y151433
X358506Y151433
X351006Y151433
X343506Y151433
X336006Y151433
X328506Y151433
X321006Y151433
X313506Y151433
X306006Y151433
X298506Y153933
X298506Y161433
X291006Y161433
X283506Y161433
X276006Y161433
X276006Y153933
X243506Y173933
X236006Y173933
X228506Y173933
X221006Y173933
X213506Y173933
X206006Y173933
X198506Y173933
X188506Y166433
X178506Y173933
X171006Y173933
X163506Y173933
X163506Y181433
X171006Y181433
X178506Y181433
X176006Y148933
X168506Y148933
X161006Y148933
X153506Y148933
X146006Y148933
X138506Y148933
X131006Y148933
X123506Y141433
X116006Y141433
X116006Y133933
X108506Y133933
X98506Y133933
X91006Y133933
X83506Y133933
X76006Y133933
X68506Y133933
X83506Y141433
X91006Y141433
X138506Y141433
X146006Y141433
X153506Y141433
X168506Y141433
X186006Y141433
X193506Y141433
X201006Y141433
X201006Y148933
X193506Y148933
X186006Y148933
X208506Y148933
X216006Y148933
X216006Y141433
X293506Y193933
X298506Y198933
X303506Y193933
X303506Y213933
X298506Y218933
X293506Y213933
X301006Y233933
X308506Y233933
X316006Y233933
X323506Y233933
X331006Y233933
X338506Y233933
X346006Y233933
X353506Y233933
X361006Y233933
X368506Y233933
X376006Y233933
X383506Y233933
X391006Y233933
X376006Y241433
X376006Y246433
X383506Y246433
X386006Y253933
X368506Y246433
X368506Y241433
X366006Y251433
X348506Y251433
X338506Y251433
X338506Y241433
X348506Y241433
X348506Y261433
X338506Y261433
X333506Y268933
X328506Y273933
X321006Y273933
X313506Y273933
X306006Y273933
X298506Y273933
X291006Y273933
X283506Y273933
X278506Y268933
X273506Y263933
X271006Y256433
X266006Y256433
X258506Y256433
X251006Y256433
X243506Y256433
X236006Y256433
X228506Y256433
X221006Y256433
X213506Y256433
X213506Y263933
X203506Y263933
X198506Y263933
X198506Y256433
X203506Y256433
X188506Y263933
X178506Y263933
X173506Y263933
X173506Y256433
X178506Y256433
X181006Y271433
X173506Y271433
X166006Y273933
X158506Y273933
X151006Y273933
X143506Y273933
X136006Y273933
X128506Y273933
X121006Y273933
X113506Y273933
X106006Y273933
X98506Y273933
X91006Y273933
X83506Y273933
X76006Y273933
X76006Y281433
X68506Y281433
X83506Y281433
X91006Y281433
X98506Y281433
X106006Y281433
X113506Y281433
X121006Y281433
X128506Y281433
X136006Y281433
X143506Y281433
X151006Y281433
X158506Y281433
X166006Y281433
X173506Y281433
X181006Y281433
X188506Y281433
X196006Y281433
X203506Y281433
X213506Y281433
X221006Y281433
X228506Y281433
X236006Y281433
X243506Y281433
X251006Y281433
X258506Y281433
X266006Y281433
X273506Y281433
X283506Y281433
X291006Y281433
X298506Y281433
X306006Y281433
X313506Y281433
X321006Y281433
X328506Y281433
X336006Y281433
X343506Y281433
X351006Y281433
X358506Y281433
X358506Y273933
X358506Y266433
X303506Y256433
X296006Y256433
X301006Y248933
X301006Y241433
X338506Y218933
X343506Y213933
X348506Y218933
X348506Y198933
X343506Y193933
X338506Y198933
X213506Y271433
X203506Y271433
X196006Y271433
X188506Y271433
X136006Y256433
X131006Y256433
X93506Y256433
X86006Y256433
X86006Y246433
X93506Y246433
X61006Y251433
X53506Y251433
X46006Y251433
T02
X73506Y256433
X103506Y256433
X118506Y256433
X148506Y256433
X283506Y256433
X313506Y256433
X328506Y256433
X358506Y256433
X161006Y103933
X161006Y73933
X106006Y81433
X76006Y81433
X326006Y81433
X356006Y81433
T03
X358506Y91433
X328506Y91433
X328506Y121433
X328506Y141433
X328506Y161433
X328506Y176433
X313506Y176433
X313506Y196433
X328506Y196433
X328506Y216433
X313506Y216433
X283506Y216433
X283506Y196433
X283506Y176433
X358506Y176433
X358506Y161433
X358506Y141433
X358506Y121433
X358506Y196433
X358506Y216433
X358506Y246433
X328506Y246433
X313506Y246433
X283506Y246433
X148506Y246433
X118506Y246433
X103506Y246433
X73506Y246433
X73506Y216433
X103506Y216433
X118506Y216433
X118506Y196433
X103506Y196433
X73506Y196433
X73506Y176433
X73506Y161433
X103506Y161433
X103506Y176433
X118506Y176433
X148506Y176433
X148506Y196433
X148506Y216433
X103506Y141433
X73506Y141433
X73506Y121433
X103506Y121433
X103506Y91433
X73506Y91433
T04
X125706Y83933
X141306Y83933
T05
X56006Y71433
X56006Y268933
X376006Y268933
X376006Y71433
M30
