G75*
%MOIN*%
%OFA0B0*%
%FSLAX25Y25*%
%IPPOS*%
%LPD*%
%AMOC8*
5,1,8,0,0,1.08239X$1,22.5*
%
%ADD10R,0.06299X0.07087*%
%ADD11R,0.07087X0.06299*%
%ADD12R,0.08661X0.10236*%
%ADD13C,0.05600*%
%ADD14C,0.21000*%
%ADD15R,0.24409X0.21260*%
%ADD16R,0.06299X0.03937*%
%ADD17C,0.09900*%
%ADD18C,0.06400*%
%ADD19R,0.06299X0.07874*%
%ADD20R,0.07874X0.06299*%
%ADD21R,0.03150X0.05512*%
%ADD22R,0.03150X0.07480*%
%ADD23C,0.06000*%
%ADD24R,0.20000X0.09000*%
%ADD25C,0.06600*%
%ADD26C,0.03200*%
%ADD27C,0.01000*%
%ADD28OC8,0.05000*%
%ADD29C,0.04000*%
%ADD30C,0.15000*%
%ADD31C,0.08600*%
D10*
X0117994Y0121433D03*
X0129018Y0121433D03*
X0162994Y0121433D03*
X0174018Y0121433D03*
X0207994Y0121433D03*
X0219018Y0121433D03*
X0270494Y0096433D03*
X0281518Y0096433D03*
X0302994Y0121433D03*
X0314018Y0121433D03*
D11*
X0261006Y0089445D03*
X0261006Y0078421D03*
X0208506Y0130921D03*
X0208506Y0141945D03*
X0176006Y0141945D03*
X0176006Y0130921D03*
X0161006Y0130921D03*
X0161006Y0141945D03*
X0131006Y0141945D03*
X0131006Y0130921D03*
X0176006Y0084445D03*
X0176006Y0073421D03*
X0256006Y0163421D03*
X0256006Y0174445D03*
X0188506Y0245921D03*
X0188506Y0256945D03*
D12*
X0248506Y0098776D03*
X0248506Y0079091D03*
D13*
X0323206Y0081433D02*
X0328806Y0081433D01*
X0353206Y0081433D02*
X0358806Y0081433D01*
X0161006Y0076733D02*
X0161006Y0071133D01*
X0161006Y0101133D02*
X0161006Y0106733D01*
X0108806Y0081433D02*
X0103206Y0081433D01*
X0078806Y0081433D02*
X0073206Y0081433D01*
X0070706Y0256433D02*
X0076306Y0256433D01*
X0100706Y0256433D02*
X0106306Y0256433D01*
X0115706Y0256433D02*
X0121306Y0256433D01*
X0145706Y0256433D02*
X0151306Y0256433D01*
X0280706Y0256433D02*
X0286306Y0256433D01*
X0310706Y0256433D02*
X0316306Y0256433D01*
X0325706Y0256433D02*
X0331306Y0256433D01*
X0355706Y0256433D02*
X0361306Y0256433D01*
D14*
X0376006Y0268933D03*
X0376006Y0071433D03*
X0056006Y0071433D03*
X0056006Y0268933D03*
D15*
X0196164Y0088933D03*
D16*
X0224904Y0079957D03*
X0224904Y0097909D03*
D17*
X0141306Y0088883D02*
X0141306Y0078983D01*
X0125706Y0078983D02*
X0125706Y0088883D01*
D18*
X0106706Y0091433D02*
X0100306Y0091433D01*
X0076706Y0091433D02*
X0070306Y0091433D01*
X0070306Y0121433D02*
X0076706Y0121433D01*
X0100306Y0121433D02*
X0106706Y0121433D01*
X0106706Y0141433D02*
X0100306Y0141433D01*
X0076706Y0141433D02*
X0070306Y0141433D01*
X0070306Y0161433D02*
X0076706Y0161433D01*
X0076706Y0176433D02*
X0070306Y0176433D01*
X0100306Y0176433D02*
X0106706Y0176433D01*
X0115306Y0176433D02*
X0121706Y0176433D01*
X0106706Y0161433D02*
X0100306Y0161433D01*
X0145306Y0176433D02*
X0151706Y0176433D01*
X0151706Y0196433D02*
X0145306Y0196433D01*
X0121706Y0196433D02*
X0115306Y0196433D01*
X0106706Y0196433D02*
X0100306Y0196433D01*
X0076706Y0196433D02*
X0070306Y0196433D01*
X0070306Y0216433D02*
X0076706Y0216433D01*
X0100306Y0216433D02*
X0106706Y0216433D01*
X0115306Y0216433D02*
X0121706Y0216433D01*
X0145306Y0216433D02*
X0151706Y0216433D01*
X0151706Y0246433D02*
X0145306Y0246433D01*
X0121706Y0246433D02*
X0115306Y0246433D01*
X0106706Y0246433D02*
X0100306Y0246433D01*
X0076706Y0246433D02*
X0070306Y0246433D01*
X0280306Y0246433D02*
X0286706Y0246433D01*
X0310306Y0246433D02*
X0316706Y0246433D01*
X0325306Y0246433D02*
X0331706Y0246433D01*
X0355306Y0246433D02*
X0361706Y0246433D01*
X0361706Y0216433D02*
X0355306Y0216433D01*
X0331706Y0216433D02*
X0325306Y0216433D01*
X0316706Y0216433D02*
X0310306Y0216433D01*
X0286706Y0216433D02*
X0280306Y0216433D01*
X0280306Y0196433D02*
X0286706Y0196433D01*
X0310306Y0196433D02*
X0316706Y0196433D01*
X0325306Y0196433D02*
X0331706Y0196433D01*
X0355306Y0196433D02*
X0361706Y0196433D01*
X0361706Y0176433D02*
X0355306Y0176433D01*
X0355306Y0161433D02*
X0361706Y0161433D01*
X0361706Y0141433D02*
X0355306Y0141433D01*
X0331706Y0141433D02*
X0325306Y0141433D01*
X0325306Y0121433D02*
X0331706Y0121433D01*
X0355306Y0121433D02*
X0361706Y0121433D01*
X0361706Y0091433D02*
X0355306Y0091433D01*
X0331706Y0091433D02*
X0325306Y0091433D01*
X0325306Y0161433D02*
X0331706Y0161433D01*
X0331706Y0176433D02*
X0325306Y0176433D01*
X0316706Y0176433D02*
X0310306Y0176433D01*
X0286706Y0176433D02*
X0280306Y0176433D01*
D19*
X0196518Y0121433D03*
X0185494Y0121433D03*
X0151518Y0121433D03*
X0140494Y0121433D03*
D20*
X0246006Y0130921D03*
X0246006Y0141945D03*
X0246006Y0150921D03*
X0246006Y0161945D03*
X0293506Y0109445D03*
X0293506Y0098421D03*
X0293506Y0089445D03*
X0293506Y0078421D03*
D21*
X0274408Y0121134D03*
X0262605Y0121134D03*
D22*
X0268506Y0122134D03*
D23*
X0269506Y0128449D02*
X0267506Y0128449D01*
X0267506Y0136819D01*
X0269506Y0136819D01*
X0269506Y0128449D01*
X0269506Y0134448D02*
X0267506Y0134448D01*
D24*
X0383406Y0199033D03*
X0383406Y0216433D03*
X0383406Y0233833D03*
X0048606Y0233833D03*
X0048606Y0216433D03*
X0048606Y0199033D03*
D25*
X0131006Y0130921D02*
X0131006Y0121433D01*
X0140494Y0121433D01*
X0131006Y0121433D02*
X0129018Y0121433D01*
X0117994Y0121433D02*
X0103506Y0121433D01*
X0073506Y0121433D01*
X0151518Y0121433D02*
X0161006Y0121433D01*
X0161006Y0130921D01*
X0176006Y0130921D02*
X0176006Y0121433D01*
X0185494Y0121433D01*
X0176006Y0121433D02*
X0174018Y0121433D01*
X0162994Y0121433D02*
X0161006Y0121433D01*
X0196518Y0121433D02*
X0207994Y0121433D01*
X0207994Y0130921D01*
X0208506Y0130921D01*
X0219018Y0121433D02*
X0246006Y0121433D01*
X0253506Y0121433D01*
X0283506Y0121433D02*
X0293506Y0121433D01*
X0302994Y0121433D01*
X0314018Y0121433D02*
X0328506Y0121433D01*
X0358506Y0121433D01*
D26*
X0293506Y0121433D02*
X0293506Y0109445D01*
X0293506Y0098421D02*
X0293506Y0096433D01*
X0281518Y0096433D01*
X0270494Y0096433D02*
X0268506Y0096433D01*
X0268506Y0122134D01*
X0268506Y0132634D01*
X0268506Y0173933D01*
X0256006Y0174445D01*
X0256006Y0163421D02*
X0254530Y0161945D01*
X0246006Y0161945D01*
X0246006Y0150921D02*
X0246006Y0141945D01*
X0246006Y0130921D02*
X0246006Y0121433D01*
X0253506Y0121433D02*
X0262605Y0121433D01*
X0262605Y0121134D01*
X0274408Y0121134D02*
X0274408Y0121433D01*
X0283506Y0121433D01*
X0293506Y0096433D02*
X0293506Y0089445D01*
D27*
X0042206Y0057633D02*
X0042206Y0188933D01*
X0061006Y0188933D01*
X0061006Y0156567D01*
X0060277Y0156265D01*
X0055277Y0151265D01*
X0053674Y0149662D01*
X0052806Y0147567D01*
X0052806Y0107799D01*
X0053674Y0105704D01*
X0058674Y0100704D01*
X0060277Y0099101D01*
X0062372Y0098233D01*
X0097806Y0098233D01*
X0097806Y0097866D01*
X0096398Y0097283D01*
X0094457Y0095342D01*
X0093406Y0092806D01*
X0093406Y0090061D01*
X0094457Y0087525D01*
X0096398Y0085584D01*
X0097671Y0085056D01*
X0096706Y0082726D01*
X0096706Y0080140D01*
X0097696Y0077751D01*
X0099524Y0075923D01*
X0100306Y0075599D01*
X0100306Y0065299D01*
X0101174Y0063204D01*
X0102777Y0061601D01*
X0106174Y0058204D01*
X0106745Y0057633D01*
X0042206Y0057633D01*
X0042206Y0057927D02*
X0106451Y0057927D01*
X0106174Y0058204D02*
X0106174Y0058204D01*
X0105453Y0058926D02*
X0042206Y0058926D01*
X0042206Y0059924D02*
X0052564Y0059924D01*
X0052679Y0059884D02*
X0053993Y0059584D01*
X0055332Y0059433D01*
X0055506Y0059433D01*
X0055506Y0070933D01*
X0044006Y0070933D01*
X0044006Y0070759D01*
X0044157Y0069420D01*
X0044457Y0068106D01*
X0044902Y0066834D01*
X0045487Y0065619D01*
X0046204Y0064478D01*
X0047044Y0063424D01*
X0047998Y0062471D01*
X0049051Y0061631D01*
X0050193Y0060914D01*
X0051407Y0060329D01*
X0052679Y0059884D01*
X0050178Y0060923D02*
X0042206Y0060923D01*
X0042206Y0061921D02*
X0048687Y0061921D01*
X0047549Y0062920D02*
X0042206Y0062920D01*
X0042206Y0063918D02*
X0046651Y0063918D01*
X0045929Y0064917D02*
X0042206Y0064917D01*
X0042206Y0065915D02*
X0045345Y0065915D01*
X0044874Y0066914D02*
X0042206Y0066914D01*
X0042206Y0067912D02*
X0044525Y0067912D01*
X0044273Y0068911D02*
X0042206Y0068911D01*
X0042206Y0069909D02*
X0044102Y0069909D01*
X0044006Y0070908D02*
X0042206Y0070908D01*
X0042206Y0071906D02*
X0055506Y0071906D01*
X0055506Y0071933D02*
X0055506Y0070933D01*
X0056506Y0070933D01*
X0056506Y0059433D01*
X0056680Y0059433D01*
X0058020Y0059584D01*
X0059334Y0059884D01*
X0060606Y0060329D01*
X0061820Y0060914D01*
X0062961Y0061631D01*
X0064015Y0062471D01*
X0064968Y0063424D01*
X0065808Y0064478D01*
X0066526Y0065619D01*
X0067110Y0066834D01*
X0067555Y0068106D01*
X0067855Y0069420D01*
X0068006Y0070759D01*
X0068006Y0070933D01*
X0056506Y0070933D01*
X0056506Y0071933D01*
X0055506Y0071933D01*
X0044006Y0071933D01*
X0044006Y0072107D01*
X0044157Y0073446D01*
X0044457Y0074760D01*
X0044902Y0076033D01*
X0045487Y0077247D01*
X0046204Y0078388D01*
X0047044Y0079442D01*
X0047998Y0080395D01*
X0049051Y0081235D01*
X0050193Y0081952D01*
X0051407Y0082537D01*
X0052679Y0082982D01*
X0053993Y0083282D01*
X0055332Y0083433D01*
X0055506Y0083433D01*
X0055506Y0071933D01*
X0055506Y0072905D02*
X0056506Y0072905D01*
X0056506Y0071933D02*
X0056506Y0083433D01*
X0056680Y0083433D01*
X0058020Y0083282D01*
X0059334Y0082982D01*
X0060606Y0082537D01*
X0061820Y0081952D01*
X0062961Y0081235D01*
X0064015Y0080395D01*
X0064968Y0079442D01*
X0065808Y0078388D01*
X0066526Y0077247D01*
X0067110Y0076033D01*
X0067555Y0074760D01*
X0067855Y0073446D01*
X0068006Y0072107D01*
X0068006Y0071933D01*
X0056506Y0071933D01*
X0056506Y0071906D02*
X0100306Y0071906D01*
X0100306Y0070908D02*
X0068006Y0070908D01*
X0067911Y0069909D02*
X0100306Y0069909D01*
X0100306Y0068911D02*
X0067739Y0068911D01*
X0067488Y0067912D02*
X0100306Y0067912D01*
X0100306Y0066914D02*
X0067138Y0066914D01*
X0066668Y0065915D02*
X0100306Y0065915D01*
X0100465Y0064917D02*
X0066084Y0064917D01*
X0065362Y0063918D02*
X0100878Y0063918D01*
X0101459Y0062920D02*
X0064463Y0062920D01*
X0063325Y0061921D02*
X0102457Y0061921D01*
X0103456Y0060923D02*
X0061834Y0060923D01*
X0059449Y0059924D02*
X0104454Y0059924D01*
X0112588Y0067912D02*
X0154424Y0067912D01*
X0155047Y0068535D02*
X0153645Y0067133D01*
X0113367Y0067133D01*
X0111706Y0068794D01*
X0111706Y0075599D01*
X0112488Y0075923D01*
X0114317Y0077751D01*
X0115306Y0080140D01*
X0115306Y0082726D01*
X0114317Y0085115D01*
X0112488Y0086943D01*
X0112125Y0087094D01*
X0112556Y0087525D01*
X0113606Y0090061D01*
X0113606Y0092806D01*
X0112556Y0095342D01*
X0110615Y0097283D01*
X0109206Y0097866D01*
X0109206Y0098933D01*
X0154882Y0098933D01*
X0155306Y0097909D01*
X0155306Y0096294D01*
X0149857Y0090844D01*
X0148639Y0093783D01*
X0146206Y0096216D01*
X0143027Y0097533D01*
X0139586Y0097533D01*
X0136406Y0096216D01*
X0133973Y0093783D01*
X0132656Y0090604D01*
X0132656Y0077262D01*
X0133973Y0074083D01*
X0136406Y0071650D01*
X0139586Y0070333D01*
X0143027Y0070333D01*
X0146206Y0071650D01*
X0148639Y0074083D01*
X0149956Y0077262D01*
X0149956Y0078233D01*
X0152140Y0078233D01*
X0154235Y0079101D01*
X0155458Y0080324D01*
X0154506Y0078026D01*
X0154506Y0069840D01*
X0155047Y0068535D01*
X0154891Y0068911D02*
X0111706Y0068911D01*
X0111706Y0069909D02*
X0154506Y0069909D01*
X0154506Y0070908D02*
X0144414Y0070908D01*
X0146462Y0071906D02*
X0154506Y0071906D01*
X0154506Y0072905D02*
X0147461Y0072905D01*
X0148459Y0073903D02*
X0154506Y0073903D01*
X0154506Y0074902D02*
X0148978Y0074902D01*
X0149392Y0075900D02*
X0154506Y0075900D01*
X0154506Y0076899D02*
X0149806Y0076899D01*
X0149956Y0077897D02*
X0154506Y0077897D01*
X0154867Y0078896D02*
X0153740Y0078896D01*
X0155029Y0079894D02*
X0155280Y0079894D01*
X0157415Y0082281D02*
X0165839Y0090704D01*
X0166706Y0092799D01*
X0166706Y0097909D01*
X0167131Y0098933D01*
X0178506Y0098933D01*
X0178506Y0089094D01*
X0176506Y0089094D01*
X0176506Y0084945D01*
X0175506Y0084945D01*
X0175506Y0083945D01*
X0170963Y0083945D01*
X0170963Y0081098D01*
X0171065Y0080716D01*
X0171263Y0080374D01*
X0171472Y0080165D01*
X0170367Y0079708D01*
X0169781Y0079121D01*
X0167053Y0079121D01*
X0166517Y0080415D01*
X0164688Y0082243D01*
X0162299Y0083233D01*
X0159713Y0083233D01*
X0157415Y0082281D01*
X0158024Y0082890D02*
X0158885Y0082890D01*
X0159023Y0083888D02*
X0170963Y0083888D01*
X0168506Y0083888D01*
X0168506Y0082890D02*
X0170963Y0082890D01*
X0163128Y0082890D01*
X0165040Y0081891D02*
X0170963Y0081891D01*
X0168506Y0081891D01*
X0168506Y0081433D02*
X0168506Y0106433D01*
X0183506Y0106433D01*
X0183506Y0100995D01*
X0183380Y0100961D01*
X0183038Y0100763D01*
X0182759Y0100484D01*
X0182561Y0100142D01*
X0182459Y0099760D01*
X0182459Y0089433D01*
X0183506Y0089433D01*
X0183506Y0088433D01*
X0182459Y0088433D01*
X0182459Y0081433D01*
X0181050Y0081433D01*
X0181050Y0083945D01*
X0176506Y0083945D01*
X0176506Y0084945D01*
X0175506Y0084945D01*
X0170963Y0084945D01*
X0170963Y0087792D01*
X0171065Y0088173D01*
X0171263Y0088516D01*
X0171542Y0088795D01*
X0171884Y0088992D01*
X0172266Y0089094D01*
X0175506Y0089094D01*
X0175506Y0084945D01*
X0175506Y0083945D01*
X0170963Y0083945D01*
X0170963Y0081433D01*
X0168506Y0081433D01*
X0166732Y0079894D02*
X0170818Y0079894D01*
X0171018Y0080893D02*
X0166039Y0080893D01*
X0168506Y0084887D02*
X0175506Y0084887D01*
X0160021Y0084887D01*
X0161020Y0085885D02*
X0170963Y0085885D01*
X0168506Y0085885D01*
X0168506Y0086884D02*
X0170963Y0086884D01*
X0162018Y0086884D01*
X0163017Y0087882D02*
X0170987Y0087882D01*
X0168506Y0087882D01*
X0168506Y0088881D02*
X0171691Y0088881D01*
X0164015Y0088881D01*
X0165014Y0089879D02*
X0178506Y0089879D01*
X0178506Y0090878D02*
X0165910Y0090878D01*
X0166324Y0091877D02*
X0178506Y0091877D01*
X0178506Y0092875D02*
X0166706Y0092875D01*
X0166706Y0093874D02*
X0178506Y0093874D01*
X0178506Y0094872D02*
X0166706Y0094872D01*
X0166706Y0095871D02*
X0178506Y0095871D01*
X0178506Y0096869D02*
X0166706Y0096869D01*
X0166706Y0097868D02*
X0178506Y0097868D01*
X0178506Y0098866D02*
X0167103Y0098866D01*
X0168506Y0098866D02*
X0182459Y0098866D01*
X0182459Y0097868D02*
X0168506Y0097868D01*
X0168506Y0096869D02*
X0182459Y0096869D01*
X0182459Y0095871D02*
X0168506Y0095871D01*
X0168506Y0094872D02*
X0182459Y0094872D01*
X0182459Y0093874D02*
X0168506Y0093874D01*
X0168506Y0092875D02*
X0182459Y0092875D01*
X0182459Y0091877D02*
X0168506Y0091877D01*
X0168506Y0090878D02*
X0182459Y0090878D01*
X0182459Y0089879D02*
X0168506Y0089879D01*
X0171065Y0088173D02*
X0170963Y0087792D01*
X0170963Y0084945D01*
X0175506Y0084945D01*
X0175506Y0089094D01*
X0172266Y0089094D01*
X0171884Y0088992D01*
X0171542Y0088795D01*
X0171263Y0088516D01*
X0171065Y0088173D01*
X0175506Y0087882D02*
X0176506Y0087882D01*
X0175506Y0087882D01*
X0175506Y0086884D02*
X0176506Y0086884D01*
X0175506Y0086884D01*
X0175506Y0085885D02*
X0176506Y0085885D01*
X0175506Y0085885D01*
X0176506Y0084945D02*
X0176506Y0089094D01*
X0179747Y0089094D01*
X0180129Y0088992D01*
X0180471Y0088795D01*
X0180750Y0088516D01*
X0180947Y0088173D01*
X0181050Y0087792D01*
X0181050Y0084945D01*
X0176506Y0084945D01*
X0176506Y0084887D02*
X0182459Y0084887D01*
X0182459Y0085885D02*
X0181050Y0085885D01*
X0181006Y0085885D02*
X0211006Y0085885D01*
X0211006Y0084887D02*
X0181006Y0084887D01*
X0181006Y0083888D02*
X0211006Y0083888D01*
X0211006Y0082890D02*
X0181006Y0082890D01*
X0181050Y0082890D02*
X0182459Y0082890D01*
X0182459Y0083888D02*
X0181050Y0083888D01*
X0181050Y0081891D02*
X0182459Y0081891D01*
X0181006Y0081891D02*
X0211006Y0081891D01*
X0211006Y0080893D02*
X0181006Y0080893D01*
X0181006Y0079894D02*
X0211006Y0079894D01*
X0211006Y0078933D02*
X0181006Y0078933D01*
X0181006Y0106433D01*
X0211006Y0106433D01*
X0211006Y0078933D01*
X0211006Y0086884D02*
X0181006Y0086884D01*
X0181050Y0086884D02*
X0182459Y0086884D01*
X0182459Y0087882D02*
X0181025Y0087882D01*
X0181006Y0087882D02*
X0211006Y0087882D01*
X0211006Y0088881D02*
X0181006Y0088881D01*
X0180321Y0088881D02*
X0183506Y0088881D01*
X0181006Y0089879D02*
X0211006Y0089879D01*
X0211006Y0090878D02*
X0181006Y0090878D01*
X0181006Y0091877D02*
X0211006Y0091877D01*
X0211006Y0092875D02*
X0181006Y0092875D01*
X0181006Y0093874D02*
X0211006Y0093874D01*
X0211006Y0094872D02*
X0181006Y0094872D01*
X0181006Y0095871D02*
X0211006Y0095871D01*
X0211006Y0096869D02*
X0181006Y0096869D01*
X0181006Y0097868D02*
X0211006Y0097868D01*
X0211006Y0098866D02*
X0181006Y0098866D01*
X0181006Y0099865D02*
X0211006Y0099865D01*
X0211006Y0100863D02*
X0181006Y0100863D01*
X0181006Y0101862D02*
X0211006Y0101862D01*
X0211006Y0102860D02*
X0181006Y0102860D01*
X0181006Y0103859D02*
X0211006Y0103859D01*
X0211006Y0104857D02*
X0181006Y0104857D01*
X0181006Y0105856D02*
X0211006Y0105856D01*
X0236006Y0105856D02*
X0281006Y0105856D01*
X0281006Y0106854D02*
X0236006Y0106854D01*
X0236006Y0107853D02*
X0281006Y0107853D01*
X0281006Y0108851D02*
X0236006Y0108851D01*
X0236006Y0109850D02*
X0281006Y0109850D01*
X0281006Y0110848D02*
X0236006Y0110848D01*
X0236006Y0111847D02*
X0281006Y0111847D01*
X0281006Y0112845D02*
X0236006Y0112845D01*
X0236006Y0113844D02*
X0281006Y0113844D01*
X0281006Y0113933D02*
X0281006Y0103933D01*
X0276006Y0103933D01*
X0276006Y0083933D01*
X0256006Y0083933D01*
X0256006Y0085936D01*
X0256065Y0085716D01*
X0256263Y0085374D01*
X0256542Y0085095D01*
X0256884Y0084898D01*
X0257266Y0084795D01*
X0260506Y0084795D01*
X0260506Y0088945D01*
X0261506Y0088945D01*
X0261506Y0084795D01*
X0264747Y0084795D01*
X0265129Y0084898D01*
X0265471Y0085095D01*
X0265750Y0085374D01*
X0265947Y0085716D01*
X0266050Y0086098D01*
X0266050Y0088945D01*
X0261506Y0088945D01*
X0261506Y0089945D01*
X0260506Y0089945D01*
X0260506Y0094094D01*
X0257266Y0094094D01*
X0256884Y0093992D01*
X0256542Y0093795D01*
X0256263Y0093516D01*
X0256065Y0093173D01*
X0255963Y0092792D01*
X0255963Y0091433D01*
X0238506Y0091433D01*
X0238506Y0098933D01*
X0236006Y0101433D01*
X0236006Y0113933D01*
X0281006Y0113933D01*
X0281006Y0104857D02*
X0253995Y0104857D01*
X0254037Y0104815D02*
X0253758Y0105094D01*
X0253416Y0105291D01*
X0253034Y0105394D01*
X0249006Y0105394D01*
X0249006Y0099276D01*
X0248006Y0099276D01*
X0248006Y0105394D01*
X0243978Y0105394D01*
X0243597Y0105291D01*
X0243255Y0105094D01*
X0242975Y0104815D01*
X0242778Y0104473D01*
X0242676Y0104091D01*
X0242676Y0099276D01*
X0248006Y0099276D01*
X0248006Y0098276D01*
X0242676Y0098276D01*
X0242676Y0093460D01*
X0242778Y0093078D01*
X0242975Y0092736D01*
X0243255Y0092457D01*
X0243597Y0092260D01*
X0243978Y0092157D01*
X0248006Y0092157D01*
X0248006Y0098276D01*
X0249006Y0098276D01*
X0249006Y0099276D01*
X0254337Y0099276D01*
X0254337Y0104091D01*
X0254235Y0104473D01*
X0254037Y0104815D01*
X0254337Y0103859D02*
X0276006Y0103859D01*
X0276006Y0102860D02*
X0254337Y0102860D01*
X0254337Y0101862D02*
X0276006Y0101862D01*
X0276006Y0100863D02*
X0274864Y0100863D01*
X0274844Y0100897D02*
X0274565Y0101177D01*
X0274223Y0101374D01*
X0273842Y0101476D01*
X0270994Y0101476D01*
X0270994Y0096933D01*
X0269995Y0096933D01*
X0269995Y0101476D01*
X0267147Y0101476D01*
X0266766Y0101374D01*
X0266424Y0101177D01*
X0266145Y0100897D01*
X0265947Y0100555D01*
X0265845Y0100174D01*
X0265845Y0096933D01*
X0269994Y0096933D01*
X0269994Y0095933D01*
X0265845Y0095933D01*
X0265845Y0093351D01*
X0265750Y0093516D01*
X0265471Y0093795D01*
X0265129Y0093992D01*
X0264747Y0094094D01*
X0261506Y0094094D01*
X0261506Y0089945D01*
X0266050Y0089945D01*
X0266050Y0092133D01*
X0266145Y0091969D01*
X0266424Y0091689D01*
X0266766Y0091492D01*
X0267147Y0091390D01*
X0269995Y0091390D01*
X0269995Y0095933D01*
X0270994Y0095933D01*
X0270994Y0091390D01*
X0273842Y0091390D01*
X0274223Y0091492D01*
X0274565Y0091689D01*
X0274844Y0091969D01*
X0275042Y0092311D01*
X0275144Y0092692D01*
X0275144Y0095933D01*
X0270995Y0095933D01*
X0270995Y0096933D01*
X0275144Y0096933D01*
X0275144Y0100174D01*
X0275042Y0100555D01*
X0274844Y0100897D01*
X0275144Y0099865D02*
X0276006Y0099865D01*
X0276006Y0098866D02*
X0275144Y0098866D01*
X0275144Y0097868D02*
X0276006Y0097868D01*
X0276006Y0096869D02*
X0270995Y0096869D01*
X0270994Y0095871D02*
X0269995Y0095871D01*
X0269994Y0096869D02*
X0254337Y0096869D01*
X0254337Y0095871D02*
X0265845Y0095871D01*
X0265845Y0094872D02*
X0254337Y0094872D01*
X0254337Y0093874D02*
X0256678Y0093874D01*
X0255985Y0092875D02*
X0254117Y0092875D01*
X0254037Y0092736D02*
X0254235Y0093078D01*
X0254337Y0093460D01*
X0254337Y0098276D01*
X0249006Y0098276D01*
X0249006Y0092157D01*
X0253034Y0092157D01*
X0253416Y0092260D01*
X0253758Y0092457D01*
X0254037Y0092736D01*
X0255963Y0091877D02*
X0238506Y0091877D01*
X0238506Y0092875D02*
X0242895Y0092875D01*
X0242676Y0093874D02*
X0238506Y0093874D01*
X0238506Y0094872D02*
X0242676Y0094872D01*
X0242676Y0095871D02*
X0238506Y0095871D01*
X0238506Y0096869D02*
X0242676Y0096869D01*
X0242676Y0097868D02*
X0238506Y0097868D01*
X0238506Y0098866D02*
X0248006Y0098866D01*
X0248006Y0097868D02*
X0249006Y0097868D01*
X0249006Y0098866D02*
X0265845Y0098866D01*
X0265845Y0097868D02*
X0254337Y0097868D01*
X0254337Y0099865D02*
X0265845Y0099865D01*
X0266125Y0100863D02*
X0254337Y0100863D01*
X0249006Y0100863D02*
X0248006Y0100863D01*
X0248006Y0099865D02*
X0249006Y0099865D01*
X0249006Y0101862D02*
X0248006Y0101862D01*
X0248006Y0102860D02*
X0249006Y0102860D01*
X0249006Y0103859D02*
X0248006Y0103859D01*
X0248006Y0104857D02*
X0249006Y0104857D01*
X0243018Y0104857D02*
X0236006Y0104857D01*
X0236006Y0103859D02*
X0242676Y0103859D01*
X0242676Y0102860D02*
X0236006Y0102860D01*
X0236006Y0101862D02*
X0242676Y0101862D01*
X0242676Y0100863D02*
X0236576Y0100863D01*
X0237575Y0099865D02*
X0242676Y0099865D01*
X0248006Y0096869D02*
X0249006Y0096869D01*
X0249006Y0095871D02*
X0248006Y0095871D01*
X0248006Y0094872D02*
X0249006Y0094872D01*
X0249006Y0093874D02*
X0248006Y0093874D01*
X0248006Y0092875D02*
X0249006Y0092875D01*
X0260506Y0092875D02*
X0261506Y0092875D01*
X0261506Y0091877D02*
X0260506Y0091877D01*
X0260506Y0090878D02*
X0261506Y0090878D01*
X0261506Y0089879D02*
X0276006Y0089879D01*
X0276006Y0088881D02*
X0266050Y0088881D01*
X0266050Y0087882D02*
X0276006Y0087882D01*
X0276006Y0086884D02*
X0266050Y0086884D01*
X0265993Y0085885D02*
X0276006Y0085885D01*
X0276006Y0084887D02*
X0265089Y0084887D01*
X0261506Y0084887D02*
X0260506Y0084887D01*
X0260506Y0085885D02*
X0261506Y0085885D01*
X0261506Y0086884D02*
X0260506Y0086884D01*
X0260506Y0087882D02*
X0261506Y0087882D01*
X0261506Y0088881D02*
X0260506Y0088881D01*
X0256923Y0084887D02*
X0256006Y0084887D01*
X0256006Y0085885D02*
X0256020Y0085885D01*
X0260506Y0093874D02*
X0261506Y0093874D01*
X0265334Y0093874D02*
X0265845Y0093874D01*
X0266050Y0091877D02*
X0266237Y0091877D01*
X0266050Y0090878D02*
X0276006Y0090878D01*
X0276006Y0091877D02*
X0274752Y0091877D01*
X0275144Y0092875D02*
X0276006Y0092875D01*
X0276006Y0093874D02*
X0275144Y0093874D01*
X0275144Y0094872D02*
X0276006Y0094872D01*
X0276006Y0095871D02*
X0275144Y0095871D01*
X0270994Y0094872D02*
X0269995Y0094872D01*
X0269995Y0093874D02*
X0270994Y0093874D01*
X0270994Y0092875D02*
X0269995Y0092875D01*
X0269995Y0091877D02*
X0270994Y0091877D01*
X0270994Y0097868D02*
X0269995Y0097868D01*
X0269995Y0098866D02*
X0270994Y0098866D01*
X0270994Y0099865D02*
X0269995Y0099865D01*
X0269995Y0100863D02*
X0270994Y0100863D01*
X0313506Y0100863D02*
X0389728Y0100863D01*
X0389728Y0099865D02*
X0313506Y0099865D01*
X0313506Y0098866D02*
X0389728Y0098866D01*
X0389728Y0097868D02*
X0364203Y0097868D01*
X0363079Y0098333D02*
X0353934Y0098333D01*
X0351398Y0097283D01*
X0349457Y0095342D01*
X0348406Y0092806D01*
X0348406Y0090061D01*
X0349457Y0087525D01*
X0349887Y0087094D01*
X0349524Y0086943D01*
X0347696Y0085115D01*
X0346706Y0082726D01*
X0346706Y0080140D01*
X0347696Y0077751D01*
X0349524Y0075923D01*
X0350306Y0075599D01*
X0350306Y0067133D01*
X0223367Y0067133D01*
X0221706Y0068794D01*
X0221706Y0073933D01*
X0233506Y0073933D01*
X0236006Y0071433D01*
X0241482Y0071433D01*
X0242080Y0070836D01*
X0243440Y0070272D01*
X0253573Y0070272D01*
X0254933Y0070836D01*
X0255530Y0071433D01*
X0308506Y0071433D01*
X0313506Y0076433D01*
X0313506Y0106433D01*
X0318506Y0111433D01*
X0368506Y0111433D01*
X0368506Y0119819D01*
X0368606Y0120061D01*
X0368606Y0122806D01*
X0368506Y0123047D01*
X0368506Y0159819D01*
X0368606Y0160061D01*
X0368606Y0162806D01*
X0368506Y0163047D01*
X0368506Y0174819D01*
X0368606Y0175061D01*
X0368606Y0177806D01*
X0368506Y0178047D01*
X0368506Y0188933D01*
X0389728Y0188933D01*
X0389728Y0057633D01*
X0357767Y0057633D01*
X0358339Y0058204D01*
X0360839Y0060704D01*
X0361706Y0062799D01*
X0361706Y0075599D01*
X0362488Y0075923D01*
X0364317Y0077751D01*
X0365306Y0080140D01*
X0365306Y0082726D01*
X0364341Y0085056D01*
X0365615Y0085584D01*
X0367556Y0087525D01*
X0368606Y0090061D01*
X0368606Y0092806D01*
X0367556Y0095342D01*
X0365615Y0097283D01*
X0363079Y0098333D01*
X0366028Y0096869D02*
X0389728Y0096869D01*
X0389728Y0095871D02*
X0367027Y0095871D01*
X0367750Y0094872D02*
X0389728Y0094872D01*
X0389728Y0093874D02*
X0368164Y0093874D01*
X0368578Y0092875D02*
X0389728Y0092875D01*
X0389728Y0091877D02*
X0368606Y0091877D01*
X0368606Y0090878D02*
X0389728Y0090878D01*
X0389728Y0089879D02*
X0368531Y0089879D01*
X0368118Y0088881D02*
X0389728Y0088881D01*
X0389728Y0087882D02*
X0367704Y0087882D01*
X0366915Y0086884D02*
X0389728Y0086884D01*
X0389728Y0085885D02*
X0365917Y0085885D01*
X0364411Y0084887D02*
X0389728Y0084887D01*
X0389728Y0083888D02*
X0364825Y0083888D01*
X0365238Y0082890D02*
X0372415Y0082890D01*
X0372679Y0082982D02*
X0371407Y0082537D01*
X0370193Y0081952D01*
X0369051Y0081235D01*
X0367998Y0080395D01*
X0367044Y0079442D01*
X0366204Y0078388D01*
X0365487Y0077247D01*
X0364902Y0076033D01*
X0364457Y0074760D01*
X0364157Y0073446D01*
X0364006Y0072107D01*
X0364006Y0071933D01*
X0375506Y0071933D01*
X0375506Y0070933D01*
X0364006Y0070933D01*
X0364006Y0070759D01*
X0364157Y0069420D01*
X0364457Y0068106D01*
X0364902Y0066834D01*
X0365487Y0065619D01*
X0366204Y0064478D01*
X0367044Y0063424D01*
X0367998Y0062471D01*
X0369051Y0061631D01*
X0370193Y0060914D01*
X0371407Y0060329D01*
X0372679Y0059884D01*
X0373993Y0059584D01*
X0375332Y0059433D01*
X0375506Y0059433D01*
X0375506Y0070933D01*
X0376506Y0070933D01*
X0376506Y0059433D01*
X0376680Y0059433D01*
X0378020Y0059584D01*
X0379334Y0059884D01*
X0380606Y0060329D01*
X0381820Y0060914D01*
X0382961Y0061631D01*
X0384015Y0062471D01*
X0384968Y0063424D01*
X0385808Y0064478D01*
X0386526Y0065619D01*
X0387110Y0066834D01*
X0387555Y0068106D01*
X0387855Y0069420D01*
X0388006Y0070759D01*
X0388006Y0070933D01*
X0376506Y0070933D01*
X0376506Y0071933D01*
X0375506Y0071933D01*
X0375506Y0083433D01*
X0375332Y0083433D01*
X0373993Y0083282D01*
X0372679Y0082982D01*
X0370096Y0081891D02*
X0365306Y0081891D01*
X0365306Y0080893D02*
X0368622Y0080893D01*
X0367497Y0079894D02*
X0365204Y0079894D01*
X0364791Y0078896D02*
X0366609Y0078896D01*
X0365896Y0077897D02*
X0364377Y0077897D01*
X0363464Y0076899D02*
X0365319Y0076899D01*
X0364856Y0075900D02*
X0362434Y0075900D01*
X0361706Y0074902D02*
X0364507Y0074902D01*
X0364262Y0073903D02*
X0361706Y0073903D01*
X0361706Y0072905D02*
X0364096Y0072905D01*
X0364006Y0070908D02*
X0361706Y0070908D01*
X0361706Y0071906D02*
X0375506Y0071906D01*
X0375506Y0070908D02*
X0376506Y0070908D01*
X0376506Y0071906D02*
X0389728Y0071906D01*
X0389728Y0070908D02*
X0388006Y0070908D01*
X0387911Y0069909D02*
X0389728Y0069909D01*
X0389728Y0068911D02*
X0387739Y0068911D01*
X0387488Y0067912D02*
X0389728Y0067912D01*
X0389728Y0066914D02*
X0387138Y0066914D01*
X0386668Y0065915D02*
X0389728Y0065915D01*
X0389728Y0064917D02*
X0386084Y0064917D01*
X0385362Y0063918D02*
X0389728Y0063918D01*
X0389728Y0062920D02*
X0384463Y0062920D01*
X0383325Y0061921D02*
X0389728Y0061921D01*
X0389728Y0060923D02*
X0381834Y0060923D01*
X0379449Y0059924D02*
X0389728Y0059924D01*
X0389728Y0058926D02*
X0359060Y0058926D01*
X0360058Y0059924D02*
X0372564Y0059924D01*
X0370178Y0060923D02*
X0360929Y0060923D01*
X0361343Y0061921D02*
X0368687Y0061921D01*
X0367549Y0062920D02*
X0361706Y0062920D01*
X0361706Y0063918D02*
X0366651Y0063918D01*
X0365929Y0064917D02*
X0361706Y0064917D01*
X0361706Y0065915D02*
X0365345Y0065915D01*
X0364874Y0066914D02*
X0361706Y0066914D01*
X0361706Y0067912D02*
X0364525Y0067912D01*
X0364273Y0068911D02*
X0361706Y0068911D01*
X0361706Y0069909D02*
X0364102Y0069909D01*
X0375506Y0069909D02*
X0376506Y0069909D01*
X0376506Y0068911D02*
X0375506Y0068911D01*
X0375506Y0067912D02*
X0376506Y0067912D01*
X0376506Y0066914D02*
X0375506Y0066914D01*
X0375506Y0065915D02*
X0376506Y0065915D01*
X0376506Y0064917D02*
X0375506Y0064917D01*
X0375506Y0063918D02*
X0376506Y0063918D01*
X0376506Y0062920D02*
X0375506Y0062920D01*
X0375506Y0061921D02*
X0376506Y0061921D01*
X0376506Y0060923D02*
X0375506Y0060923D01*
X0375506Y0059924D02*
X0376506Y0059924D01*
X0389728Y0057927D02*
X0358061Y0057927D01*
X0350306Y0067912D02*
X0222588Y0067912D01*
X0221706Y0068911D02*
X0350306Y0068911D01*
X0350306Y0069909D02*
X0221706Y0069909D01*
X0221706Y0070908D02*
X0242008Y0070908D01*
X0235533Y0071906D02*
X0221706Y0071906D01*
X0221706Y0072905D02*
X0234535Y0072905D01*
X0233536Y0073903D02*
X0221706Y0073903D01*
X0255005Y0070908D02*
X0350306Y0070908D01*
X0350306Y0071906D02*
X0308980Y0071906D01*
X0309978Y0072905D02*
X0350306Y0072905D01*
X0350306Y0073903D02*
X0310977Y0073903D01*
X0311975Y0074902D02*
X0350306Y0074902D01*
X0349578Y0075900D02*
X0312974Y0075900D01*
X0313506Y0076899D02*
X0348548Y0076899D01*
X0347635Y0077897D02*
X0331255Y0077897D01*
X0331060Y0077755D02*
X0331608Y0078153D01*
X0332086Y0078632D01*
X0332484Y0079179D01*
X0332791Y0079782D01*
X0333000Y0080426D01*
X0333106Y0081095D01*
X0333106Y0081133D01*
X0326306Y0081133D01*
X0326306Y0077133D01*
X0329145Y0077133D01*
X0329813Y0077239D01*
X0330457Y0077448D01*
X0331060Y0077755D01*
X0332278Y0078896D02*
X0347222Y0078896D01*
X0346808Y0079894D02*
X0332828Y0079894D01*
X0333074Y0080893D02*
X0346706Y0080893D01*
X0346706Y0081891D02*
X0333087Y0081891D01*
X0333106Y0081771D02*
X0333000Y0082440D01*
X0332791Y0083084D01*
X0332484Y0083687D01*
X0332086Y0084234D01*
X0331608Y0084713D01*
X0331060Y0085111D01*
X0330457Y0085418D01*
X0329813Y0085627D01*
X0329145Y0085733D01*
X0326306Y0085733D01*
X0326306Y0081733D01*
X0325706Y0081733D01*
X0325706Y0081133D01*
X0318906Y0081133D01*
X0318906Y0081095D01*
X0319012Y0080426D01*
X0319221Y0079782D01*
X0319529Y0079179D01*
X0319926Y0078632D01*
X0320405Y0078153D01*
X0320953Y0077755D01*
X0321556Y0077448D01*
X0322199Y0077239D01*
X0322868Y0077133D01*
X0325706Y0077133D01*
X0325706Y0081133D01*
X0326306Y0081133D01*
X0326306Y0081733D01*
X0333106Y0081733D01*
X0333106Y0081771D01*
X0332854Y0082890D02*
X0346774Y0082890D01*
X0347188Y0083888D02*
X0332337Y0083888D01*
X0331368Y0084887D02*
X0347601Y0084887D01*
X0348466Y0085885D02*
X0313506Y0085885D01*
X0313506Y0084887D02*
X0320645Y0084887D01*
X0320405Y0084713D02*
X0319926Y0084234D01*
X0319529Y0083687D01*
X0319221Y0083084D01*
X0319012Y0082440D01*
X0318906Y0081771D01*
X0318906Y0081733D01*
X0325706Y0081733D01*
X0325706Y0085733D01*
X0322868Y0085733D01*
X0322199Y0085627D01*
X0321556Y0085418D01*
X0320953Y0085111D01*
X0320405Y0084713D01*
X0319675Y0083888D02*
X0313506Y0083888D01*
X0313506Y0082890D02*
X0319158Y0082890D01*
X0318925Y0081891D02*
X0313506Y0081891D01*
X0313506Y0080893D02*
X0318938Y0080893D01*
X0319185Y0079894D02*
X0313506Y0079894D01*
X0313506Y0078896D02*
X0319735Y0078896D01*
X0320757Y0077897D02*
X0313506Y0077897D01*
X0313506Y0086884D02*
X0324098Y0086884D01*
X0324206Y0086849D02*
X0324936Y0086733D01*
X0328006Y0086733D01*
X0328006Y0090933D01*
X0320627Y0090933D01*
X0320722Y0090332D01*
X0320951Y0089629D01*
X0321286Y0088970D01*
X0321721Y0088371D01*
X0322244Y0087848D01*
X0322843Y0087413D01*
X0323502Y0087077D01*
X0324206Y0086849D01*
X0322210Y0087882D02*
X0313506Y0087882D01*
X0313506Y0088881D02*
X0321351Y0088881D01*
X0320869Y0089879D02*
X0313506Y0089879D01*
X0313506Y0090878D02*
X0320636Y0090878D01*
X0320627Y0091933D02*
X0328006Y0091933D01*
X0328006Y0090933D01*
X0329006Y0090933D01*
X0329006Y0086733D01*
X0332076Y0086733D01*
X0332807Y0086849D01*
X0333510Y0087077D01*
X0334170Y0087413D01*
X0334768Y0087848D01*
X0335291Y0088371D01*
X0335726Y0088970D01*
X0336062Y0089629D01*
X0336291Y0090332D01*
X0336386Y0090933D01*
X0329006Y0090933D01*
X0329006Y0091933D01*
X0328006Y0091933D01*
X0328006Y0096133D01*
X0324936Y0096133D01*
X0324206Y0096017D01*
X0323502Y0095789D01*
X0322843Y0095453D01*
X0322244Y0095018D01*
X0321721Y0094495D01*
X0321286Y0093896D01*
X0320951Y0093237D01*
X0320722Y0092534D01*
X0320627Y0091933D01*
X0320833Y0092875D02*
X0313506Y0092875D01*
X0313506Y0091877D02*
X0328006Y0091877D01*
X0328006Y0092875D02*
X0329006Y0092875D01*
X0329006Y0091933D02*
X0329006Y0096133D01*
X0332076Y0096133D01*
X0332807Y0096017D01*
X0333510Y0095789D01*
X0334170Y0095453D01*
X0334768Y0095018D01*
X0335291Y0094495D01*
X0335726Y0093896D01*
X0336062Y0093237D01*
X0336291Y0092534D01*
X0336386Y0091933D01*
X0329006Y0091933D01*
X0329006Y0091877D02*
X0348406Y0091877D01*
X0348435Y0092875D02*
X0336180Y0092875D01*
X0335738Y0093874D02*
X0348849Y0093874D01*
X0349262Y0094872D02*
X0334914Y0094872D01*
X0333259Y0095871D02*
X0349986Y0095871D01*
X0350984Y0096869D02*
X0313506Y0096869D01*
X0313506Y0095871D02*
X0323754Y0095871D01*
X0322098Y0094872D02*
X0313506Y0094872D01*
X0313506Y0093874D02*
X0321275Y0093874D01*
X0328006Y0093874D02*
X0329006Y0093874D01*
X0329006Y0094872D02*
X0328006Y0094872D01*
X0328006Y0095871D02*
X0329006Y0095871D01*
X0329006Y0090878D02*
X0328006Y0090878D01*
X0328006Y0089879D02*
X0329006Y0089879D01*
X0329006Y0088881D02*
X0328006Y0088881D01*
X0328006Y0087882D02*
X0329006Y0087882D01*
X0329006Y0086884D02*
X0328006Y0086884D01*
X0326306Y0084887D02*
X0325706Y0084887D01*
X0325706Y0083888D02*
X0326306Y0083888D01*
X0326306Y0082890D02*
X0325706Y0082890D01*
X0325706Y0081891D02*
X0326306Y0081891D01*
X0326306Y0080893D02*
X0325706Y0080893D01*
X0325706Y0079894D02*
X0326306Y0079894D01*
X0326306Y0078896D02*
X0325706Y0078896D01*
X0325706Y0077897D02*
X0326306Y0077897D01*
X0332915Y0086884D02*
X0349465Y0086884D01*
X0349308Y0087882D02*
X0334802Y0087882D01*
X0335662Y0088881D02*
X0348895Y0088881D01*
X0348481Y0089879D02*
X0336143Y0089879D01*
X0336377Y0090878D02*
X0348406Y0090878D01*
X0352810Y0097868D02*
X0313506Y0097868D01*
X0313506Y0101862D02*
X0389728Y0101862D01*
X0389728Y0102860D02*
X0313506Y0102860D01*
X0313506Y0103859D02*
X0389728Y0103859D01*
X0389728Y0104857D02*
X0313506Y0104857D01*
X0313506Y0105856D02*
X0389728Y0105856D01*
X0389728Y0106854D02*
X0313927Y0106854D01*
X0314926Y0107853D02*
X0389728Y0107853D01*
X0389728Y0108851D02*
X0315924Y0108851D01*
X0316923Y0109850D02*
X0389728Y0109850D01*
X0389728Y0110848D02*
X0317921Y0110848D01*
X0293506Y0128933D02*
X0293506Y0156433D01*
X0256006Y0156433D01*
X0256006Y0128933D01*
X0293506Y0128933D01*
X0293506Y0153933D01*
X0371006Y0153933D01*
X0371006Y0128933D01*
X0293506Y0128933D01*
X0293506Y0129820D02*
X0256006Y0129820D01*
X0256006Y0130818D02*
X0293506Y0130818D01*
X0371006Y0130818D01*
X0371006Y0129820D02*
X0293506Y0129820D01*
X0293506Y0131817D02*
X0256006Y0131817D01*
X0256006Y0132815D02*
X0293506Y0132815D01*
X0371006Y0132815D01*
X0371006Y0131817D02*
X0293506Y0131817D01*
X0293506Y0133814D02*
X0256006Y0133814D01*
X0256006Y0134812D02*
X0293506Y0134812D01*
X0371006Y0134812D01*
X0371006Y0133814D02*
X0293506Y0133814D01*
X0293506Y0135811D02*
X0256006Y0135811D01*
X0256006Y0136810D02*
X0293506Y0136810D01*
X0324454Y0136810D01*
X0324206Y0136849D02*
X0324936Y0136733D01*
X0328006Y0136733D01*
X0328006Y0140933D01*
X0320627Y0140933D01*
X0320722Y0140332D01*
X0320951Y0139629D01*
X0321286Y0138970D01*
X0321721Y0138371D01*
X0322244Y0137848D01*
X0322843Y0137413D01*
X0323502Y0137077D01*
X0324206Y0136849D01*
X0322300Y0137808D02*
X0293506Y0137808D01*
X0256006Y0137808D01*
X0256006Y0138807D02*
X0293506Y0138807D01*
X0321405Y0138807D01*
X0320893Y0139805D02*
X0293506Y0139805D01*
X0256006Y0139805D01*
X0256006Y0140804D02*
X0293506Y0140804D01*
X0320647Y0140804D01*
X0320627Y0141933D02*
X0328006Y0141933D01*
X0328006Y0140933D01*
X0329006Y0140933D01*
X0329006Y0136733D01*
X0332076Y0136733D01*
X0332807Y0136849D01*
X0333510Y0137077D01*
X0334170Y0137413D01*
X0334768Y0137848D01*
X0335291Y0138371D01*
X0335726Y0138970D01*
X0336062Y0139629D01*
X0336291Y0140332D01*
X0336386Y0140933D01*
X0329006Y0140933D01*
X0329006Y0141933D01*
X0328006Y0141933D01*
X0328006Y0146133D01*
X0324936Y0146133D01*
X0324206Y0146017D01*
X0323502Y0145789D01*
X0322843Y0145453D01*
X0322244Y0145018D01*
X0321721Y0144495D01*
X0321286Y0143896D01*
X0320951Y0143237D01*
X0320722Y0142534D01*
X0320627Y0141933D01*
X0320809Y0142801D02*
X0293506Y0142801D01*
X0256006Y0142801D01*
X0256006Y0143799D02*
X0293506Y0143799D01*
X0321237Y0143799D01*
X0322024Y0144798D02*
X0293506Y0144798D01*
X0256006Y0144798D01*
X0256006Y0145796D02*
X0293506Y0145796D01*
X0323525Y0145796D01*
X0328006Y0145796D02*
X0329006Y0145796D01*
X0329006Y0146133D02*
X0329006Y0141933D01*
X0336386Y0141933D01*
X0336291Y0142534D01*
X0336062Y0143237D01*
X0335726Y0143896D01*
X0335291Y0144495D01*
X0334768Y0145018D01*
X0334170Y0145453D01*
X0333510Y0145789D01*
X0332807Y0146017D01*
X0332076Y0146133D01*
X0329006Y0146133D01*
X0329006Y0144798D02*
X0328006Y0144798D01*
X0328006Y0143799D02*
X0329006Y0143799D01*
X0329006Y0142801D02*
X0328006Y0142801D01*
X0328006Y0141802D02*
X0293506Y0141802D01*
X0256006Y0141802D01*
X0256006Y0146795D02*
X0293506Y0146795D01*
X0371006Y0146795D01*
X0371006Y0147793D02*
X0293506Y0147793D01*
X0256006Y0147793D01*
X0256006Y0148792D02*
X0293506Y0148792D01*
X0371006Y0148792D01*
X0371006Y0149790D02*
X0293506Y0149790D01*
X0256006Y0149790D01*
X0256006Y0150789D02*
X0293506Y0150789D01*
X0371006Y0150789D01*
X0371006Y0151787D02*
X0293506Y0151787D01*
X0256006Y0151787D01*
X0256006Y0152786D02*
X0293506Y0152786D01*
X0371006Y0152786D01*
X0371006Y0153784D02*
X0293506Y0153784D01*
X0256006Y0153784D01*
X0256006Y0154783D02*
X0293506Y0154783D01*
X0293506Y0155781D02*
X0256006Y0155781D01*
X0263506Y0155781D02*
X0303506Y0155781D01*
X0303506Y0154783D02*
X0263506Y0154783D01*
X0263506Y0153784D02*
X0303506Y0153784D01*
X0303506Y0152786D02*
X0263506Y0152786D01*
X0263506Y0151787D02*
X0303506Y0151787D01*
X0303506Y0150789D02*
X0263506Y0150789D01*
X0263506Y0149790D02*
X0303506Y0149790D01*
X0303506Y0148792D02*
X0263506Y0148792D01*
X0263506Y0147793D02*
X0303506Y0147793D01*
X0303506Y0146795D02*
X0263506Y0146795D01*
X0263506Y0145796D02*
X0303506Y0145796D01*
X0303506Y0144798D02*
X0263506Y0144798D01*
X0263506Y0143933D02*
X0263506Y0168933D01*
X0303506Y0168933D01*
X0303506Y0143933D01*
X0263506Y0143933D01*
X0263506Y0156780D02*
X0303506Y0156780D01*
X0303506Y0157778D02*
X0263506Y0157778D01*
X0263506Y0158777D02*
X0303506Y0158777D01*
X0303506Y0159775D02*
X0263506Y0159775D01*
X0263506Y0160774D02*
X0303506Y0160774D01*
X0303506Y0161772D02*
X0263506Y0161772D01*
X0263506Y0162771D02*
X0303506Y0162771D01*
X0303506Y0163769D02*
X0263506Y0163769D01*
X0263506Y0164768D02*
X0303506Y0164768D01*
X0303506Y0165766D02*
X0263506Y0165766D01*
X0263506Y0166765D02*
X0303506Y0166765D01*
X0303506Y0167763D02*
X0263506Y0167763D01*
X0263506Y0168762D02*
X0303506Y0168762D01*
X0271006Y0168933D02*
X0262420Y0168933D01*
X0261645Y0169708D01*
X0260541Y0170165D01*
X0260750Y0170374D01*
X0260947Y0170716D01*
X0261050Y0171098D01*
X0261050Y0173945D01*
X0256506Y0173945D01*
X0256506Y0174945D01*
X0255506Y0174945D01*
X0255506Y0173945D01*
X0250963Y0173945D01*
X0250963Y0171098D01*
X0251065Y0170716D01*
X0251263Y0170374D01*
X0251472Y0170165D01*
X0250367Y0169708D01*
X0249593Y0168933D01*
X0194706Y0168933D01*
X0194706Y0169001D01*
X0191074Y0172633D01*
X0185938Y0172633D01*
X0182306Y0169001D01*
X0182306Y0168933D01*
X0161006Y0168933D01*
X0161006Y0183933D01*
X0271006Y0183933D01*
X0271006Y0168933D01*
X0271006Y0169760D02*
X0261518Y0169760D01*
X0260959Y0170759D02*
X0271006Y0170759D01*
X0271006Y0171757D02*
X0261050Y0171757D01*
X0261050Y0172756D02*
X0271006Y0172756D01*
X0271006Y0173754D02*
X0261050Y0173754D01*
X0261050Y0174945D02*
X0256506Y0174945D01*
X0256506Y0179094D01*
X0259747Y0179094D01*
X0260129Y0178992D01*
X0260471Y0178795D01*
X0260750Y0178516D01*
X0260947Y0178173D01*
X0261050Y0177792D01*
X0261050Y0174945D01*
X0261050Y0175751D02*
X0271006Y0175751D01*
X0271006Y0174753D02*
X0256506Y0174753D01*
X0256506Y0175751D02*
X0255506Y0175751D01*
X0255506Y0174945D02*
X0255506Y0179094D01*
X0252266Y0179094D01*
X0251884Y0178992D01*
X0251542Y0178795D01*
X0251263Y0178516D01*
X0251065Y0178173D01*
X0250963Y0177792D01*
X0250963Y0174945D01*
X0255506Y0174945D01*
X0255506Y0174753D02*
X0161006Y0174753D01*
X0161006Y0175751D02*
X0250963Y0175751D01*
X0250963Y0176750D02*
X0161006Y0176750D01*
X0161006Y0177748D02*
X0250963Y0177748D01*
X0251494Y0178747D02*
X0161006Y0178747D01*
X0161006Y0179745D02*
X0271006Y0179745D01*
X0271006Y0178747D02*
X0260518Y0178747D01*
X0261050Y0177748D02*
X0271006Y0177748D01*
X0271006Y0176750D02*
X0261050Y0176750D01*
X0256506Y0176750D02*
X0255506Y0176750D01*
X0255506Y0177748D02*
X0256506Y0177748D01*
X0256506Y0178747D02*
X0255506Y0178747D01*
X0250963Y0173754D02*
X0161006Y0173754D01*
X0161006Y0172756D02*
X0250963Y0172756D01*
X0250963Y0171757D02*
X0191950Y0171757D01*
X0192949Y0170759D02*
X0251054Y0170759D01*
X0250495Y0169760D02*
X0193947Y0169760D01*
X0185063Y0171757D02*
X0161006Y0171757D01*
X0161006Y0170759D02*
X0184064Y0170759D01*
X0183066Y0169760D02*
X0161006Y0169760D01*
X0161006Y0180744D02*
X0271006Y0180744D01*
X0271006Y0181743D02*
X0161006Y0181743D01*
X0161006Y0182741D02*
X0271006Y0182741D01*
X0271006Y0183740D02*
X0161006Y0183740D01*
X0161006Y0208933D02*
X0161006Y0223933D01*
X0182306Y0223933D01*
X0182306Y0223865D01*
X0185938Y0220233D01*
X0191074Y0220233D01*
X0194706Y0223865D01*
X0194706Y0223933D01*
X0271006Y0223933D01*
X0271006Y0208933D01*
X0161006Y0208933D01*
X0161006Y0209701D02*
X0271006Y0209701D01*
X0271006Y0210699D02*
X0161006Y0210699D01*
X0161006Y0211698D02*
X0271006Y0211698D01*
X0271006Y0212696D02*
X0161006Y0212696D01*
X0161006Y0213695D02*
X0271006Y0213695D01*
X0271006Y0214693D02*
X0161006Y0214693D01*
X0161006Y0215692D02*
X0271006Y0215692D01*
X0271006Y0216690D02*
X0161006Y0216690D01*
X0161006Y0217689D02*
X0271006Y0217689D01*
X0271006Y0218687D02*
X0161006Y0218687D01*
X0161006Y0219686D02*
X0271006Y0219686D01*
X0271006Y0220684D02*
X0191526Y0220684D01*
X0192524Y0221683D02*
X0271006Y0221683D01*
X0271006Y0222681D02*
X0193523Y0222681D01*
X0194521Y0223680D02*
X0271006Y0223680D01*
X0296006Y0231433D02*
X0296006Y0253933D01*
X0292306Y0253933D01*
X0292806Y0255140D01*
X0292806Y0257726D01*
X0291817Y0260115D01*
X0291199Y0260733D01*
X0320814Y0260733D01*
X0320196Y0260115D01*
X0319742Y0259020D01*
X0319586Y0259234D01*
X0319108Y0259713D01*
X0318560Y0260111D01*
X0317957Y0260418D01*
X0317313Y0260627D01*
X0316645Y0260733D01*
X0313806Y0260733D01*
X0313806Y0256733D01*
X0313206Y0256733D01*
X0313206Y0256133D01*
X0306406Y0256133D01*
X0306406Y0256095D01*
X0306512Y0255426D01*
X0306721Y0254782D01*
X0307029Y0254179D01*
X0307426Y0253632D01*
X0307905Y0253153D01*
X0308453Y0252755D01*
X0309056Y0252448D01*
X0309699Y0252239D01*
X0310368Y0252133D01*
X0313206Y0252133D01*
X0313206Y0256133D01*
X0313806Y0256133D01*
X0313806Y0252133D01*
X0316645Y0252133D01*
X0317313Y0252239D01*
X0317957Y0252448D01*
X0318560Y0252755D01*
X0319108Y0253153D01*
X0319586Y0253632D01*
X0319742Y0253847D01*
X0320196Y0252751D01*
X0321031Y0251916D01*
X0319457Y0250342D01*
X0319426Y0250267D01*
X0319170Y0250453D01*
X0318510Y0250789D01*
X0317807Y0251017D01*
X0317076Y0251133D01*
X0314006Y0251133D01*
X0314006Y0246933D01*
X0313006Y0246933D01*
X0313006Y0245933D01*
X0305627Y0245933D01*
X0305722Y0245332D01*
X0305951Y0244629D01*
X0306286Y0243970D01*
X0306721Y0243371D01*
X0307244Y0242848D01*
X0307843Y0242413D01*
X0308502Y0242077D01*
X0309206Y0241849D01*
X0309936Y0241733D01*
X0313006Y0241733D01*
X0313006Y0245933D01*
X0314006Y0245933D01*
X0314006Y0241733D01*
X0317076Y0241733D01*
X0317807Y0241849D01*
X0318510Y0242077D01*
X0319170Y0242413D01*
X0319426Y0242599D01*
X0319457Y0242525D01*
X0321398Y0240584D01*
X0323934Y0239533D01*
X0333079Y0239533D01*
X0335615Y0240584D01*
X0337556Y0242525D01*
X0338606Y0245061D01*
X0338606Y0247806D01*
X0337556Y0250342D01*
X0335982Y0251916D01*
X0336817Y0252751D01*
X0337806Y0255140D01*
X0337806Y0257726D01*
X0336817Y0260115D01*
X0334988Y0261943D01*
X0334206Y0262267D01*
X0334206Y0262567D01*
X0333339Y0264662D01*
X0328339Y0269662D01*
X0326735Y0271265D01*
X0324640Y0272133D01*
X0287372Y0272133D01*
X0285277Y0271265D01*
X0283674Y0269662D01*
X0283674Y0269662D01*
X0280278Y0266265D01*
X0280277Y0266265D01*
X0278674Y0264662D01*
X0277806Y0262567D01*
X0277806Y0262267D01*
X0277024Y0261943D01*
X0275196Y0260115D01*
X0274206Y0257726D01*
X0274206Y0255140D01*
X0274706Y0253933D01*
X0193550Y0253933D01*
X0193550Y0256445D01*
X0189006Y0256445D01*
X0189006Y0257445D01*
X0188006Y0257445D01*
X0188006Y0256445D01*
X0183463Y0256445D01*
X0183463Y0253933D01*
X0171006Y0253933D01*
X0171006Y0271433D01*
X0161330Y0271433D01*
X0159640Y0272133D01*
X0077372Y0272133D01*
X0075277Y0271265D01*
X0073674Y0269662D01*
X0068674Y0264662D01*
X0067806Y0262567D01*
X0067806Y0262267D01*
X0067024Y0261943D01*
X0065196Y0260115D01*
X0064206Y0257726D01*
X0064206Y0255140D01*
X0065196Y0252751D01*
X0066031Y0251916D01*
X0064457Y0250342D01*
X0063406Y0247806D01*
X0063406Y0245061D01*
X0064457Y0242525D01*
X0066398Y0240584D01*
X0068934Y0239533D01*
X0078079Y0239533D01*
X0080615Y0240584D01*
X0082556Y0242525D01*
X0083606Y0245061D01*
X0083606Y0247806D01*
X0082556Y0250342D01*
X0080982Y0251916D01*
X0081817Y0252751D01*
X0082806Y0255140D01*
X0082806Y0257726D01*
X0081817Y0260115D01*
X0081199Y0260733D01*
X0110814Y0260733D01*
X0110196Y0260115D01*
X0109742Y0259020D01*
X0109586Y0259234D01*
X0109108Y0259713D01*
X0108560Y0260111D01*
X0107957Y0260418D01*
X0107313Y0260627D01*
X0106645Y0260733D01*
X0103806Y0260733D01*
X0103806Y0256733D01*
X0103206Y0256733D01*
X0103206Y0256133D01*
X0096406Y0256133D01*
X0096406Y0256095D01*
X0096512Y0255426D01*
X0096721Y0254782D01*
X0097029Y0254179D01*
X0097426Y0253632D01*
X0097905Y0253153D01*
X0098453Y0252755D01*
X0099056Y0252448D01*
X0099699Y0252239D01*
X0100368Y0252133D01*
X0103206Y0252133D01*
X0103206Y0256133D01*
X0103806Y0256133D01*
X0103806Y0252133D01*
X0106645Y0252133D01*
X0107313Y0252239D01*
X0107957Y0252448D01*
X0108560Y0252755D01*
X0109108Y0253153D01*
X0109586Y0253632D01*
X0109742Y0253847D01*
X0110196Y0252751D01*
X0111031Y0251916D01*
X0109457Y0250342D01*
X0109426Y0250267D01*
X0109170Y0250453D01*
X0108510Y0250789D01*
X0107807Y0251017D01*
X0107076Y0251133D01*
X0104006Y0251133D01*
X0104006Y0246933D01*
X0103006Y0246933D01*
X0103006Y0245933D01*
X0095627Y0245933D01*
X0095722Y0245332D01*
X0095951Y0244629D01*
X0096286Y0243970D01*
X0096721Y0243371D01*
X0097244Y0242848D01*
X0097843Y0242413D01*
X0098502Y0242077D01*
X0099206Y0241849D01*
X0099936Y0241733D01*
X0103006Y0241733D01*
X0103006Y0245933D01*
X0104006Y0245933D01*
X0104006Y0241733D01*
X0107076Y0241733D01*
X0107807Y0241849D01*
X0108510Y0242077D01*
X0109170Y0242413D01*
X0109426Y0242599D01*
X0109457Y0242525D01*
X0111398Y0240584D01*
X0113934Y0239533D01*
X0123079Y0239533D01*
X0125615Y0240584D01*
X0127556Y0242525D01*
X0128606Y0245061D01*
X0128606Y0247806D01*
X0127556Y0250342D01*
X0125982Y0251916D01*
X0126817Y0252751D01*
X0127806Y0255140D01*
X0127806Y0257726D01*
X0126817Y0260115D01*
X0126199Y0260733D01*
X0138506Y0260733D01*
X0138506Y0231433D01*
X0061006Y0231433D01*
X0061006Y0243933D01*
X0042206Y0243933D01*
X0042206Y0283934D01*
X0389728Y0283934D01*
X0389728Y0243933D01*
X0366006Y0243933D01*
X0366006Y0231433D01*
X0296006Y0231433D01*
X0296006Y0231668D02*
X0366006Y0231668D01*
X0391928Y0231668D01*
X0391928Y0230670D02*
X0366006Y0230670D01*
X0366006Y0229671D02*
X0391928Y0229671D01*
X0391928Y0228933D02*
X0366006Y0228933D01*
X0366006Y0256433D01*
X0391928Y0256433D01*
X0391928Y0228933D01*
X0391928Y0232667D02*
X0366006Y0232667D01*
X0296006Y0232667D01*
X0296006Y0233665D02*
X0366006Y0233665D01*
X0391928Y0233665D01*
X0391928Y0234664D02*
X0366006Y0234664D01*
X0296006Y0234664D01*
X0296006Y0235662D02*
X0366006Y0235662D01*
X0391928Y0235662D01*
X0391928Y0236661D02*
X0366006Y0236661D01*
X0296006Y0236661D01*
X0296006Y0237659D02*
X0366006Y0237659D01*
X0391928Y0237659D01*
X0391928Y0238658D02*
X0366006Y0238658D01*
X0296006Y0238658D01*
X0296006Y0239656D02*
X0323637Y0239656D01*
X0321327Y0240655D02*
X0296006Y0240655D01*
X0296006Y0241653D02*
X0320328Y0241653D01*
X0314006Y0242652D02*
X0313006Y0242652D01*
X0313006Y0243650D02*
X0314006Y0243650D01*
X0314006Y0244649D02*
X0313006Y0244649D01*
X0313006Y0245647D02*
X0314006Y0245647D01*
X0313006Y0246646D02*
X0296006Y0246646D01*
X0296006Y0247644D02*
X0305758Y0247644D01*
X0305722Y0247534D02*
X0305951Y0248237D01*
X0306286Y0248896D01*
X0306721Y0249495D01*
X0307244Y0250018D01*
X0307843Y0250453D01*
X0308502Y0250789D01*
X0309206Y0251017D01*
X0309936Y0251133D01*
X0313006Y0251133D01*
X0313006Y0246933D01*
X0305627Y0246933D01*
X0305722Y0247534D01*
X0306157Y0248643D02*
X0296006Y0248643D01*
X0296006Y0249641D02*
X0306868Y0249641D01*
X0308210Y0250640D02*
X0296006Y0250640D01*
X0296006Y0251638D02*
X0320753Y0251638D01*
X0320310Y0252637D02*
X0318327Y0252637D01*
X0319589Y0253635D02*
X0319830Y0253635D01*
X0319755Y0250640D02*
X0318803Y0250640D01*
X0314006Y0250640D02*
X0313006Y0250640D01*
X0313006Y0249641D02*
X0314006Y0249641D01*
X0314006Y0248643D02*
X0313006Y0248643D01*
X0313006Y0247644D02*
X0314006Y0247644D01*
X0313806Y0252637D02*
X0313206Y0252637D01*
X0313206Y0253635D02*
X0313806Y0253635D01*
X0313806Y0254634D02*
X0313206Y0254634D01*
X0313206Y0255632D02*
X0313806Y0255632D01*
X0313206Y0256631D02*
X0292806Y0256631D01*
X0292806Y0257629D02*
X0306574Y0257629D01*
X0306512Y0257440D02*
X0306406Y0256771D01*
X0306406Y0256733D01*
X0313206Y0256733D01*
X0313206Y0260733D01*
X0310368Y0260733D01*
X0309699Y0260627D01*
X0309056Y0260418D01*
X0308453Y0260111D01*
X0307905Y0259713D01*
X0307426Y0259234D01*
X0307029Y0258687D01*
X0306721Y0258084D01*
X0306512Y0257440D01*
X0306999Y0258628D02*
X0292433Y0258628D01*
X0292019Y0259626D02*
X0307819Y0259626D01*
X0309692Y0260625D02*
X0291307Y0260625D01*
X0292806Y0255632D02*
X0306480Y0255632D01*
X0306797Y0254634D02*
X0292597Y0254634D01*
X0296006Y0253635D02*
X0307424Y0253635D01*
X0308685Y0252637D02*
X0296006Y0252637D01*
X0296006Y0245647D02*
X0305672Y0245647D01*
X0305944Y0244649D02*
X0296006Y0244649D01*
X0296006Y0243650D02*
X0306519Y0243650D01*
X0307515Y0242652D02*
X0296006Y0242652D01*
X0313206Y0257629D02*
X0313806Y0257629D01*
X0313806Y0258628D02*
X0313206Y0258628D01*
X0313206Y0259626D02*
X0313806Y0259626D01*
X0313806Y0260625D02*
X0313206Y0260625D01*
X0317320Y0260625D02*
X0320706Y0260625D01*
X0319993Y0259626D02*
X0319194Y0259626D01*
X0328389Y0269612D02*
X0364007Y0269612D01*
X0364006Y0269607D02*
X0364006Y0269433D01*
X0375506Y0269433D01*
X0375506Y0268433D01*
X0364006Y0268433D01*
X0364006Y0268259D01*
X0364157Y0266920D01*
X0364457Y0265606D01*
X0364902Y0264334D01*
X0365487Y0263119D01*
X0366204Y0261978D01*
X0367044Y0260924D01*
X0367998Y0259971D01*
X0369051Y0259131D01*
X0370193Y0258414D01*
X0371407Y0257829D01*
X0372679Y0257384D01*
X0373993Y0257084D01*
X0375332Y0256933D01*
X0375506Y0256933D01*
X0375506Y0268433D01*
X0376506Y0268433D01*
X0376506Y0256933D01*
X0376680Y0256933D01*
X0378020Y0257084D01*
X0379334Y0257384D01*
X0380606Y0257829D01*
X0381820Y0258414D01*
X0382961Y0259131D01*
X0384015Y0259971D01*
X0384968Y0260924D01*
X0385808Y0261978D01*
X0386526Y0263119D01*
X0387110Y0264334D01*
X0387555Y0265606D01*
X0387855Y0266920D01*
X0388006Y0268259D01*
X0388006Y0268433D01*
X0376506Y0268433D01*
X0376506Y0269433D01*
X0375506Y0269433D01*
X0375506Y0280933D01*
X0375332Y0280933D01*
X0373993Y0280782D01*
X0372679Y0280482D01*
X0371407Y0280037D01*
X0370193Y0279452D01*
X0369051Y0278735D01*
X0367998Y0277895D01*
X0367044Y0276942D01*
X0366204Y0275888D01*
X0365487Y0274747D01*
X0364902Y0273533D01*
X0364457Y0272260D01*
X0364157Y0270946D01*
X0364006Y0269607D01*
X0364119Y0270610D02*
X0327390Y0270610D01*
X0325906Y0271609D02*
X0364308Y0271609D01*
X0364578Y0272607D02*
X0067434Y0272607D01*
X0067555Y0272260D02*
X0067110Y0273533D01*
X0066526Y0274747D01*
X0065808Y0275888D01*
X0064968Y0276942D01*
X0064015Y0277895D01*
X0062961Y0278735D01*
X0061820Y0279452D01*
X0060606Y0280037D01*
X0059334Y0280482D01*
X0058020Y0280782D01*
X0056680Y0280933D01*
X0056506Y0280933D01*
X0056506Y0269433D01*
X0055506Y0269433D01*
X0055506Y0268433D01*
X0044006Y0268433D01*
X0044006Y0268259D01*
X0044157Y0266920D01*
X0044457Y0265606D01*
X0044902Y0264334D01*
X0045487Y0263119D01*
X0046204Y0261978D01*
X0047044Y0260924D01*
X0047998Y0259971D01*
X0049051Y0259131D01*
X0050193Y0258414D01*
X0051407Y0257829D01*
X0052679Y0257384D01*
X0053993Y0257084D01*
X0055332Y0256933D01*
X0055506Y0256933D01*
X0055506Y0268433D01*
X0056506Y0268433D01*
X0056506Y0256933D01*
X0056680Y0256933D01*
X0058020Y0257084D01*
X0059334Y0257384D01*
X0060606Y0257829D01*
X0061820Y0258414D01*
X0062961Y0259131D01*
X0064015Y0259971D01*
X0064968Y0260924D01*
X0065808Y0261978D01*
X0066526Y0263119D01*
X0067110Y0264334D01*
X0067555Y0265606D01*
X0067855Y0266920D01*
X0068006Y0268259D01*
X0068006Y0268433D01*
X0056506Y0268433D01*
X0056506Y0269433D01*
X0068006Y0269433D01*
X0068006Y0269607D01*
X0067855Y0270946D01*
X0067555Y0272260D01*
X0067704Y0271609D02*
X0076106Y0271609D01*
X0074622Y0270610D02*
X0067893Y0270610D01*
X0068006Y0269612D02*
X0073624Y0269612D01*
X0072625Y0268613D02*
X0056506Y0268613D01*
X0056506Y0269612D02*
X0055506Y0269612D01*
X0055506Y0269433D02*
X0055506Y0280933D01*
X0055332Y0280933D01*
X0053993Y0280782D01*
X0052679Y0280482D01*
X0051407Y0280037D01*
X0050193Y0279452D01*
X0049051Y0278735D01*
X0047998Y0277895D01*
X0047044Y0276942D01*
X0046204Y0275888D01*
X0045487Y0274747D01*
X0044902Y0273533D01*
X0044457Y0272260D01*
X0044157Y0270946D01*
X0044006Y0269607D01*
X0044006Y0269433D01*
X0055506Y0269433D01*
X0055506Y0268613D02*
X0042206Y0268613D01*
X0042206Y0269612D02*
X0044007Y0269612D01*
X0044119Y0270610D02*
X0042206Y0270610D01*
X0042206Y0271609D02*
X0044308Y0271609D01*
X0044578Y0272607D02*
X0042206Y0272607D01*
X0042206Y0273606D02*
X0044937Y0273606D01*
X0045418Y0274604D02*
X0042206Y0274604D01*
X0042206Y0275603D02*
X0046025Y0275603D01*
X0046773Y0276601D02*
X0042206Y0276601D01*
X0042206Y0277600D02*
X0047702Y0277600D01*
X0048879Y0278598D02*
X0042206Y0278598D01*
X0042206Y0279597D02*
X0050492Y0279597D01*
X0053174Y0280595D02*
X0042206Y0280595D01*
X0042206Y0281594D02*
X0389728Y0281594D01*
X0389728Y0282592D02*
X0042206Y0282592D01*
X0042206Y0283591D02*
X0389728Y0283591D01*
X0389728Y0280595D02*
X0378839Y0280595D01*
X0379334Y0280482D02*
X0378020Y0280782D01*
X0376680Y0280933D01*
X0376506Y0280933D01*
X0376506Y0269433D01*
X0388006Y0269433D01*
X0388006Y0269607D01*
X0387855Y0270946D01*
X0387555Y0272260D01*
X0387110Y0273533D01*
X0386526Y0274747D01*
X0385808Y0275888D01*
X0384968Y0276942D01*
X0384015Y0277895D01*
X0382961Y0278735D01*
X0381820Y0279452D01*
X0380606Y0280037D01*
X0379334Y0280482D01*
X0381520Y0279597D02*
X0389728Y0279597D01*
X0389728Y0278598D02*
X0383133Y0278598D01*
X0384310Y0277600D02*
X0389728Y0277600D01*
X0389728Y0276601D02*
X0385240Y0276601D01*
X0385988Y0275603D02*
X0389728Y0275603D01*
X0389728Y0274604D02*
X0386594Y0274604D01*
X0387075Y0273606D02*
X0389728Y0273606D01*
X0389728Y0272607D02*
X0387434Y0272607D01*
X0387704Y0271609D02*
X0389728Y0271609D01*
X0389728Y0270610D02*
X0387893Y0270610D01*
X0388006Y0269612D02*
X0389728Y0269612D01*
X0389728Y0268613D02*
X0376506Y0268613D01*
X0376506Y0269612D02*
X0375506Y0269612D01*
X0375506Y0270610D02*
X0376506Y0270610D01*
X0376506Y0271609D02*
X0375506Y0271609D01*
X0375506Y0272607D02*
X0376506Y0272607D01*
X0376506Y0273606D02*
X0375506Y0273606D01*
X0375506Y0274604D02*
X0376506Y0274604D01*
X0376506Y0275603D02*
X0375506Y0275603D01*
X0375506Y0276601D02*
X0376506Y0276601D01*
X0376506Y0277600D02*
X0375506Y0277600D01*
X0375506Y0278598D02*
X0376506Y0278598D01*
X0376506Y0279597D02*
X0375506Y0279597D01*
X0375506Y0280595D02*
X0376506Y0280595D01*
X0373174Y0280595D02*
X0058839Y0280595D01*
X0056506Y0280595D02*
X0055506Y0280595D01*
X0055506Y0279597D02*
X0056506Y0279597D01*
X0056506Y0278598D02*
X0055506Y0278598D01*
X0055506Y0277600D02*
X0056506Y0277600D01*
X0056506Y0276601D02*
X0055506Y0276601D01*
X0055506Y0275603D02*
X0056506Y0275603D01*
X0056506Y0274604D02*
X0055506Y0274604D01*
X0055506Y0273606D02*
X0056506Y0273606D01*
X0056506Y0272607D02*
X0055506Y0272607D01*
X0055506Y0271609D02*
X0056506Y0271609D01*
X0056506Y0270610D02*
X0055506Y0270610D01*
X0055506Y0267614D02*
X0056506Y0267614D01*
X0056506Y0266616D02*
X0055506Y0266616D01*
X0055506Y0265617D02*
X0056506Y0265617D01*
X0056506Y0264619D02*
X0055506Y0264619D01*
X0055506Y0263620D02*
X0056506Y0263620D01*
X0056506Y0262622D02*
X0055506Y0262622D01*
X0055506Y0261623D02*
X0056506Y0261623D01*
X0056506Y0260625D02*
X0055506Y0260625D01*
X0055506Y0259626D02*
X0056506Y0259626D01*
X0056506Y0258628D02*
X0055506Y0258628D01*
X0055506Y0257629D02*
X0056506Y0257629D01*
X0060035Y0257629D02*
X0064206Y0257629D01*
X0064206Y0256631D02*
X0042206Y0256631D01*
X0042206Y0257629D02*
X0051977Y0257629D01*
X0049852Y0258628D02*
X0042206Y0258628D01*
X0042206Y0259626D02*
X0048430Y0259626D01*
X0047344Y0260625D02*
X0042206Y0260625D01*
X0042206Y0261623D02*
X0046487Y0261623D01*
X0045800Y0262622D02*
X0042206Y0262622D01*
X0042206Y0263620D02*
X0045246Y0263620D01*
X0044802Y0264619D02*
X0042206Y0264619D01*
X0042206Y0265617D02*
X0044454Y0265617D01*
X0044227Y0266616D02*
X0042206Y0266616D01*
X0042206Y0267614D02*
X0044079Y0267614D01*
X0040006Y0256433D02*
X0061006Y0256433D01*
X0061006Y0228933D01*
X0040006Y0228933D01*
X0040006Y0256433D01*
X0040006Y0255632D02*
X0061006Y0255632D01*
X0061006Y0254634D02*
X0040006Y0254634D01*
X0040006Y0253635D02*
X0061006Y0253635D01*
X0061006Y0252637D02*
X0040006Y0252637D01*
X0040006Y0251638D02*
X0061006Y0251638D01*
X0061006Y0250640D02*
X0040006Y0250640D01*
X0040006Y0249641D02*
X0061006Y0249641D01*
X0061006Y0248643D02*
X0040006Y0248643D01*
X0040006Y0247644D02*
X0061006Y0247644D01*
X0061006Y0246646D02*
X0040006Y0246646D01*
X0040006Y0245647D02*
X0061006Y0245647D01*
X0061006Y0244649D02*
X0040006Y0244649D01*
X0040006Y0243650D02*
X0061006Y0243650D01*
X0063990Y0243650D01*
X0064404Y0242652D02*
X0061006Y0242652D01*
X0040006Y0242652D01*
X0040006Y0241653D02*
X0061006Y0241653D01*
X0065328Y0241653D01*
X0066327Y0240655D02*
X0061006Y0240655D01*
X0040006Y0240655D01*
X0040006Y0239656D02*
X0061006Y0239656D01*
X0068637Y0239656D01*
X0063577Y0244649D02*
X0042206Y0244649D01*
X0042206Y0245647D02*
X0063406Y0245647D01*
X0063406Y0246646D02*
X0042206Y0246646D01*
X0042206Y0247644D02*
X0063406Y0247644D01*
X0063753Y0248643D02*
X0042206Y0248643D01*
X0042206Y0249641D02*
X0064167Y0249641D01*
X0064755Y0250640D02*
X0042206Y0250640D01*
X0042206Y0251638D02*
X0065753Y0251638D01*
X0065310Y0252637D02*
X0042206Y0252637D01*
X0042206Y0253635D02*
X0064830Y0253635D01*
X0064416Y0254634D02*
X0042206Y0254634D01*
X0042206Y0255632D02*
X0064206Y0255632D01*
X0064580Y0258628D02*
X0062161Y0258628D01*
X0063583Y0259626D02*
X0064993Y0259626D01*
X0064669Y0260625D02*
X0065706Y0260625D01*
X0065526Y0261623D02*
X0066704Y0261623D01*
X0066213Y0262622D02*
X0067829Y0262622D01*
X0068243Y0263620D02*
X0066767Y0263620D01*
X0067210Y0264619D02*
X0068656Y0264619D01*
X0069630Y0265617D02*
X0067558Y0265617D01*
X0067786Y0266616D02*
X0070628Y0266616D01*
X0071627Y0267614D02*
X0067934Y0267614D01*
X0067075Y0273606D02*
X0364937Y0273606D01*
X0365418Y0274604D02*
X0066594Y0274604D01*
X0065988Y0275603D02*
X0366025Y0275603D01*
X0366773Y0276601D02*
X0065240Y0276601D01*
X0064310Y0277600D02*
X0367702Y0277600D01*
X0368879Y0278598D02*
X0063133Y0278598D01*
X0061520Y0279597D02*
X0370492Y0279597D01*
X0375506Y0268613D02*
X0329387Y0268613D01*
X0330386Y0267614D02*
X0364079Y0267614D01*
X0364227Y0266616D02*
X0331384Y0266616D01*
X0332383Y0265617D02*
X0364454Y0265617D01*
X0364802Y0264619D02*
X0333356Y0264619D01*
X0333770Y0263620D02*
X0365246Y0263620D01*
X0365800Y0262622D02*
X0334183Y0262622D01*
X0335308Y0261623D02*
X0366487Y0261623D01*
X0367344Y0260625D02*
X0362320Y0260625D01*
X0362313Y0260627D02*
X0361645Y0260733D01*
X0358806Y0260733D01*
X0358806Y0256733D01*
X0358206Y0256733D01*
X0358206Y0256133D01*
X0351406Y0256133D01*
X0351406Y0256095D01*
X0351512Y0255426D01*
X0351721Y0254782D01*
X0352029Y0254179D01*
X0352426Y0253632D01*
X0352905Y0253153D01*
X0353453Y0252755D01*
X0354056Y0252448D01*
X0354699Y0252239D01*
X0355368Y0252133D01*
X0358206Y0252133D01*
X0358206Y0256133D01*
X0358806Y0256133D01*
X0358806Y0252133D01*
X0361645Y0252133D01*
X0362313Y0252239D01*
X0362957Y0252448D01*
X0363560Y0252755D01*
X0364108Y0253153D01*
X0364586Y0253632D01*
X0364984Y0254179D01*
X0365291Y0254782D01*
X0365500Y0255426D01*
X0365606Y0256095D01*
X0365606Y0256133D01*
X0358806Y0256133D01*
X0358806Y0256733D01*
X0365606Y0256733D01*
X0365606Y0256771D01*
X0365500Y0257440D01*
X0365291Y0258084D01*
X0364984Y0258687D01*
X0364586Y0259234D01*
X0364108Y0259713D01*
X0363560Y0260111D01*
X0362957Y0260418D01*
X0362313Y0260627D01*
X0364194Y0259626D02*
X0368430Y0259626D01*
X0369852Y0258628D02*
X0365014Y0258628D01*
X0365439Y0257629D02*
X0371977Y0257629D01*
X0375506Y0257629D02*
X0376506Y0257629D01*
X0376506Y0258628D02*
X0375506Y0258628D01*
X0375506Y0259626D02*
X0376506Y0259626D01*
X0376506Y0260625D02*
X0375506Y0260625D01*
X0375506Y0261623D02*
X0376506Y0261623D01*
X0376506Y0262622D02*
X0375506Y0262622D01*
X0375506Y0263620D02*
X0376506Y0263620D01*
X0376506Y0264619D02*
X0375506Y0264619D01*
X0375506Y0265617D02*
X0376506Y0265617D01*
X0376506Y0266616D02*
X0375506Y0266616D01*
X0375506Y0267614D02*
X0376506Y0267614D01*
X0385526Y0261623D02*
X0389728Y0261623D01*
X0389728Y0260625D02*
X0384669Y0260625D01*
X0383583Y0259626D02*
X0389728Y0259626D01*
X0389728Y0258628D02*
X0382161Y0258628D01*
X0380035Y0257629D02*
X0389728Y0257629D01*
X0389728Y0256631D02*
X0358806Y0256631D01*
X0358206Y0256631D02*
X0337806Y0256631D01*
X0337806Y0257629D02*
X0351574Y0257629D01*
X0351512Y0257440D02*
X0351406Y0256771D01*
X0351406Y0256733D01*
X0358206Y0256733D01*
X0358206Y0260733D01*
X0355368Y0260733D01*
X0354699Y0260627D01*
X0354056Y0260418D01*
X0353453Y0260111D01*
X0352905Y0259713D01*
X0352426Y0259234D01*
X0352029Y0258687D01*
X0351721Y0258084D01*
X0351512Y0257440D01*
X0351999Y0258628D02*
X0337433Y0258628D01*
X0337019Y0259626D02*
X0352819Y0259626D01*
X0354692Y0260625D02*
X0336307Y0260625D01*
X0337806Y0255632D02*
X0351480Y0255632D01*
X0351797Y0254634D02*
X0337597Y0254634D01*
X0337183Y0253635D02*
X0352424Y0253635D01*
X0353685Y0252637D02*
X0336702Y0252637D01*
X0336259Y0251638D02*
X0389728Y0251638D01*
X0389728Y0250640D02*
X0363803Y0250640D01*
X0363510Y0250789D02*
X0362807Y0251017D01*
X0362076Y0251133D01*
X0359006Y0251133D01*
X0359006Y0246933D01*
X0358006Y0246933D01*
X0358006Y0245933D01*
X0350627Y0245933D01*
X0350722Y0245332D01*
X0350951Y0244629D01*
X0351286Y0243970D01*
X0351721Y0243371D01*
X0352244Y0242848D01*
X0352843Y0242413D01*
X0353502Y0242077D01*
X0354206Y0241849D01*
X0354936Y0241733D01*
X0358006Y0241733D01*
X0358006Y0245933D01*
X0359006Y0245933D01*
X0359006Y0241733D01*
X0362076Y0241733D01*
X0362807Y0241849D01*
X0363510Y0242077D01*
X0364170Y0242413D01*
X0364768Y0242848D01*
X0365291Y0243371D01*
X0365726Y0243970D01*
X0366062Y0244629D01*
X0366291Y0245332D01*
X0366386Y0245933D01*
X0359006Y0245933D01*
X0359006Y0246933D01*
X0366386Y0246933D01*
X0366291Y0247534D01*
X0366062Y0248237D01*
X0365726Y0248896D01*
X0365291Y0249495D01*
X0364768Y0250018D01*
X0364170Y0250453D01*
X0363510Y0250789D01*
X0363327Y0252637D02*
X0389728Y0252637D01*
X0389728Y0253635D02*
X0364589Y0253635D01*
X0365216Y0254634D02*
X0389728Y0254634D01*
X0389728Y0255632D02*
X0365533Y0255632D01*
X0366006Y0255632D02*
X0391928Y0255632D01*
X0391928Y0254634D02*
X0366006Y0254634D01*
X0366006Y0253635D02*
X0391928Y0253635D01*
X0391928Y0252637D02*
X0366006Y0252637D01*
X0366006Y0251638D02*
X0391928Y0251638D01*
X0391928Y0250640D02*
X0366006Y0250640D01*
X0366006Y0249641D02*
X0391928Y0249641D01*
X0391928Y0248643D02*
X0366006Y0248643D01*
X0365855Y0248643D02*
X0389728Y0248643D01*
X0389728Y0249641D02*
X0365145Y0249641D01*
X0366006Y0247644D02*
X0391928Y0247644D01*
X0391928Y0246646D02*
X0366006Y0246646D01*
X0366006Y0245647D02*
X0391928Y0245647D01*
X0391928Y0244649D02*
X0366006Y0244649D01*
X0366068Y0244649D02*
X0389728Y0244649D01*
X0389728Y0245647D02*
X0366340Y0245647D01*
X0366255Y0247644D02*
X0389728Y0247644D01*
X0389728Y0246646D02*
X0359006Y0246646D01*
X0359006Y0247644D02*
X0358006Y0247644D01*
X0358006Y0246933D02*
X0358006Y0251133D01*
X0354936Y0251133D01*
X0354206Y0251017D01*
X0353502Y0250789D01*
X0352843Y0250453D01*
X0352244Y0250018D01*
X0351721Y0249495D01*
X0351286Y0248896D01*
X0350951Y0248237D01*
X0350722Y0247534D01*
X0350627Y0246933D01*
X0358006Y0246933D01*
X0358006Y0246646D02*
X0338606Y0246646D01*
X0338606Y0247644D02*
X0350758Y0247644D01*
X0351157Y0248643D02*
X0338260Y0248643D01*
X0337846Y0249641D02*
X0351868Y0249641D01*
X0353210Y0250640D02*
X0337258Y0250640D01*
X0338606Y0245647D02*
X0350672Y0245647D01*
X0350944Y0244649D02*
X0338436Y0244649D01*
X0338022Y0243650D02*
X0351519Y0243650D01*
X0352515Y0242652D02*
X0337609Y0242652D01*
X0336684Y0241653D02*
X0366006Y0241653D01*
X0391928Y0241653D01*
X0391928Y0240655D02*
X0366006Y0240655D01*
X0335686Y0240655D01*
X0333376Y0239656D02*
X0366006Y0239656D01*
X0391928Y0239656D01*
X0391928Y0242652D02*
X0366006Y0242652D01*
X0364498Y0242652D01*
X0365494Y0243650D02*
X0366006Y0243650D01*
X0391928Y0243650D01*
X0389728Y0262622D02*
X0386213Y0262622D01*
X0386767Y0263620D02*
X0389728Y0263620D01*
X0389728Y0264619D02*
X0387210Y0264619D01*
X0387558Y0265617D02*
X0389728Y0265617D01*
X0389728Y0266616D02*
X0387786Y0266616D01*
X0387934Y0267614D02*
X0389728Y0267614D01*
X0358806Y0260625D02*
X0358206Y0260625D01*
X0358206Y0259626D02*
X0358806Y0259626D01*
X0358806Y0258628D02*
X0358206Y0258628D01*
X0358206Y0257629D02*
X0358806Y0257629D01*
X0358806Y0255632D02*
X0358206Y0255632D01*
X0358206Y0254634D02*
X0358806Y0254634D01*
X0358806Y0253635D02*
X0358206Y0253635D01*
X0358206Y0252637D02*
X0358806Y0252637D01*
X0359006Y0250640D02*
X0358006Y0250640D01*
X0358006Y0249641D02*
X0359006Y0249641D01*
X0359006Y0248643D02*
X0358006Y0248643D01*
X0358006Y0245647D02*
X0359006Y0245647D01*
X0359006Y0244649D02*
X0358006Y0244649D01*
X0358006Y0243650D02*
X0359006Y0243650D01*
X0359006Y0242652D02*
X0358006Y0242652D01*
X0368506Y0203933D02*
X0391928Y0203933D01*
X0391928Y0176433D01*
X0368506Y0176433D01*
X0368506Y0203933D01*
X0368506Y0203710D02*
X0391928Y0203710D01*
X0391928Y0202711D02*
X0368506Y0202711D01*
X0368506Y0201713D02*
X0391928Y0201713D01*
X0391928Y0200714D02*
X0368506Y0200714D01*
X0368506Y0199716D02*
X0391928Y0199716D01*
X0391928Y0198717D02*
X0368506Y0198717D01*
X0368506Y0197719D02*
X0391928Y0197719D01*
X0391928Y0196720D02*
X0368506Y0196720D01*
X0368506Y0195722D02*
X0391928Y0195722D01*
X0391928Y0194723D02*
X0368506Y0194723D01*
X0368506Y0193725D02*
X0391928Y0193725D01*
X0391928Y0192726D02*
X0368506Y0192726D01*
X0368506Y0191728D02*
X0391928Y0191728D01*
X0391928Y0190729D02*
X0368506Y0190729D01*
X0368506Y0189731D02*
X0391928Y0189731D01*
X0391928Y0188732D02*
X0368506Y0188732D01*
X0389728Y0188732D01*
X0389728Y0187734D02*
X0368506Y0187734D01*
X0391928Y0187734D01*
X0391928Y0186735D02*
X0368506Y0186735D01*
X0389728Y0186735D01*
X0389728Y0185737D02*
X0368506Y0185737D01*
X0391928Y0185737D01*
X0391928Y0184738D02*
X0368506Y0184738D01*
X0389728Y0184738D01*
X0389728Y0183740D02*
X0368506Y0183740D01*
X0391928Y0183740D01*
X0391928Y0182741D02*
X0368506Y0182741D01*
X0389728Y0182741D01*
X0389728Y0181743D02*
X0368506Y0181743D01*
X0391928Y0181743D01*
X0391928Y0180744D02*
X0368506Y0180744D01*
X0389728Y0180744D01*
X0389728Y0179745D02*
X0368506Y0179745D01*
X0391928Y0179745D01*
X0391928Y0178747D02*
X0368506Y0178747D01*
X0389728Y0178747D01*
X0389728Y0177748D02*
X0368606Y0177748D01*
X0368506Y0177748D02*
X0391928Y0177748D01*
X0391928Y0176750D02*
X0368506Y0176750D01*
X0368606Y0176750D02*
X0389728Y0176750D01*
X0389728Y0175751D02*
X0368606Y0175751D01*
X0368506Y0174753D02*
X0389728Y0174753D01*
X0389728Y0173754D02*
X0368506Y0173754D01*
X0368506Y0172756D02*
X0389728Y0172756D01*
X0389728Y0171757D02*
X0368506Y0171757D01*
X0368506Y0170759D02*
X0389728Y0170759D01*
X0389728Y0169760D02*
X0368506Y0169760D01*
X0368506Y0168762D02*
X0389728Y0168762D01*
X0389728Y0167763D02*
X0368506Y0167763D01*
X0368506Y0166765D02*
X0389728Y0166765D01*
X0389728Y0165766D02*
X0368506Y0165766D01*
X0368506Y0164768D02*
X0389728Y0164768D01*
X0389728Y0163769D02*
X0368506Y0163769D01*
X0368606Y0162771D02*
X0389728Y0162771D01*
X0389728Y0161772D02*
X0368606Y0161772D01*
X0368606Y0160774D02*
X0389728Y0160774D01*
X0389728Y0159775D02*
X0368506Y0159775D01*
X0368506Y0158777D02*
X0389728Y0158777D01*
X0389728Y0157778D02*
X0368506Y0157778D01*
X0368506Y0156780D02*
X0389728Y0156780D01*
X0389728Y0155781D02*
X0368506Y0155781D01*
X0368506Y0154783D02*
X0389728Y0154783D01*
X0389728Y0153784D02*
X0368506Y0153784D01*
X0368506Y0152786D02*
X0389728Y0152786D01*
X0389728Y0151787D02*
X0368506Y0151787D01*
X0368506Y0150789D02*
X0389728Y0150789D01*
X0389728Y0149790D02*
X0368506Y0149790D01*
X0368506Y0148792D02*
X0389728Y0148792D01*
X0389728Y0147793D02*
X0368506Y0147793D01*
X0368506Y0146795D02*
X0389728Y0146795D01*
X0389728Y0145796D02*
X0368506Y0145796D01*
X0368506Y0144798D02*
X0389728Y0144798D01*
X0389728Y0143799D02*
X0368506Y0143799D01*
X0368506Y0142801D02*
X0389728Y0142801D01*
X0389728Y0141802D02*
X0368506Y0141802D01*
X0368506Y0140804D02*
X0389728Y0140804D01*
X0389728Y0139805D02*
X0368506Y0139805D01*
X0368506Y0138807D02*
X0389728Y0138807D01*
X0389728Y0137808D02*
X0368506Y0137808D01*
X0368506Y0136810D02*
X0389728Y0136810D01*
X0389728Y0135811D02*
X0368506Y0135811D01*
X0368506Y0134812D02*
X0389728Y0134812D01*
X0389728Y0133814D02*
X0368506Y0133814D01*
X0368506Y0132815D02*
X0389728Y0132815D01*
X0389728Y0131817D02*
X0368506Y0131817D01*
X0368506Y0130818D02*
X0389728Y0130818D01*
X0389728Y0129820D02*
X0368506Y0129820D01*
X0368506Y0128821D02*
X0389728Y0128821D01*
X0389728Y0127823D02*
X0368506Y0127823D01*
X0368506Y0126824D02*
X0389728Y0126824D01*
X0389728Y0125826D02*
X0368506Y0125826D01*
X0368506Y0124827D02*
X0389728Y0124827D01*
X0389728Y0123829D02*
X0368506Y0123829D01*
X0368596Y0122830D02*
X0389728Y0122830D01*
X0389728Y0121832D02*
X0368606Y0121832D01*
X0368606Y0120833D02*
X0389728Y0120833D01*
X0389728Y0119835D02*
X0368513Y0119835D01*
X0368506Y0118836D02*
X0389728Y0118836D01*
X0389728Y0117838D02*
X0368506Y0117838D01*
X0368506Y0116839D02*
X0389728Y0116839D01*
X0389728Y0115841D02*
X0368506Y0115841D01*
X0368506Y0114842D02*
X0389728Y0114842D01*
X0389728Y0113844D02*
X0368506Y0113844D01*
X0368506Y0112845D02*
X0389728Y0112845D01*
X0389728Y0111847D02*
X0368506Y0111847D01*
X0371006Y0135811D02*
X0293506Y0135811D01*
X0328006Y0136810D02*
X0329006Y0136810D01*
X0329006Y0137808D02*
X0328006Y0137808D01*
X0328006Y0138807D02*
X0329006Y0138807D01*
X0329006Y0139805D02*
X0328006Y0139805D01*
X0328006Y0140804D02*
X0329006Y0140804D01*
X0329006Y0141802D02*
X0358006Y0141802D01*
X0358006Y0141933D02*
X0358006Y0140933D01*
X0350627Y0140933D01*
X0350722Y0140332D01*
X0350951Y0139629D01*
X0351286Y0138970D01*
X0351721Y0138371D01*
X0352244Y0137848D01*
X0352843Y0137413D01*
X0353502Y0137077D01*
X0354206Y0136849D01*
X0354936Y0136733D01*
X0358006Y0136733D01*
X0358006Y0140933D01*
X0359006Y0140933D01*
X0359006Y0136733D01*
X0362076Y0136733D01*
X0362807Y0136849D01*
X0363510Y0137077D01*
X0364170Y0137413D01*
X0364768Y0137848D01*
X0365291Y0138371D01*
X0365726Y0138970D01*
X0366062Y0139629D01*
X0366291Y0140332D01*
X0366386Y0140933D01*
X0359006Y0140933D01*
X0359006Y0141933D01*
X0358006Y0141933D01*
X0350627Y0141933D01*
X0350722Y0142534D01*
X0350951Y0143237D01*
X0351286Y0143896D01*
X0351721Y0144495D01*
X0352244Y0145018D01*
X0352843Y0145453D01*
X0353502Y0145789D01*
X0354206Y0146017D01*
X0354936Y0146133D01*
X0358006Y0146133D01*
X0358006Y0141933D01*
X0358006Y0142801D02*
X0359006Y0142801D01*
X0359006Y0141933D02*
X0359006Y0146133D01*
X0362076Y0146133D01*
X0362807Y0146017D01*
X0363510Y0145789D01*
X0364170Y0145453D01*
X0364768Y0145018D01*
X0365291Y0144495D01*
X0365726Y0143896D01*
X0366062Y0143237D01*
X0366291Y0142534D01*
X0366386Y0141933D01*
X0359006Y0141933D01*
X0359006Y0141802D02*
X0371006Y0141802D01*
X0371006Y0140804D02*
X0366365Y0140804D01*
X0366119Y0139805D02*
X0371006Y0139805D01*
X0371006Y0138807D02*
X0365608Y0138807D01*
X0364713Y0137808D02*
X0371006Y0137808D01*
X0371006Y0136810D02*
X0362559Y0136810D01*
X0359006Y0136810D02*
X0358006Y0136810D01*
X0358006Y0137808D02*
X0359006Y0137808D01*
X0359006Y0138807D02*
X0358006Y0138807D01*
X0358006Y0139805D02*
X0359006Y0139805D01*
X0359006Y0140804D02*
X0358006Y0140804D01*
X0358006Y0143799D02*
X0359006Y0143799D01*
X0359006Y0144798D02*
X0358006Y0144798D01*
X0358006Y0145796D02*
X0359006Y0145796D01*
X0363488Y0145796D02*
X0371006Y0145796D01*
X0371006Y0144798D02*
X0364989Y0144798D01*
X0365776Y0143799D02*
X0371006Y0143799D01*
X0371006Y0142801D02*
X0366204Y0142801D01*
X0353525Y0145796D02*
X0333488Y0145796D01*
X0334989Y0144798D02*
X0352024Y0144798D01*
X0351237Y0143799D02*
X0335776Y0143799D01*
X0336204Y0142801D02*
X0350809Y0142801D01*
X0350647Y0140804D02*
X0336365Y0140804D01*
X0336119Y0139805D02*
X0350893Y0139805D01*
X0351405Y0138807D02*
X0335608Y0138807D01*
X0334713Y0137808D02*
X0352300Y0137808D01*
X0354454Y0136810D02*
X0332559Y0136810D01*
X0375506Y0082890D02*
X0376506Y0082890D01*
X0376506Y0083433D02*
X0376680Y0083433D01*
X0378020Y0083282D01*
X0379334Y0082982D01*
X0380606Y0082537D01*
X0381820Y0081952D01*
X0382961Y0081235D01*
X0384015Y0080395D01*
X0384968Y0079442D01*
X0385808Y0078388D01*
X0386526Y0077247D01*
X0387110Y0076033D01*
X0387555Y0074760D01*
X0387855Y0073446D01*
X0388006Y0072107D01*
X0388006Y0071933D01*
X0376506Y0071933D01*
X0376506Y0083433D01*
X0376506Y0081891D02*
X0375506Y0081891D01*
X0375506Y0080893D02*
X0376506Y0080893D01*
X0376506Y0079894D02*
X0375506Y0079894D01*
X0375506Y0078896D02*
X0376506Y0078896D01*
X0376506Y0077897D02*
X0375506Y0077897D01*
X0375506Y0076899D02*
X0376506Y0076899D01*
X0376506Y0075900D02*
X0375506Y0075900D01*
X0375506Y0074902D02*
X0376506Y0074902D01*
X0376506Y0073903D02*
X0375506Y0073903D01*
X0375506Y0072905D02*
X0376506Y0072905D01*
X0383391Y0080893D02*
X0389728Y0080893D01*
X0389728Y0081891D02*
X0381917Y0081891D01*
X0379597Y0082890D02*
X0389728Y0082890D01*
X0389728Y0079894D02*
X0384516Y0079894D01*
X0385403Y0078896D02*
X0389728Y0078896D01*
X0389728Y0077897D02*
X0386117Y0077897D01*
X0386693Y0076899D02*
X0389728Y0076899D01*
X0389728Y0075900D02*
X0387157Y0075900D01*
X0387506Y0074902D02*
X0389728Y0074902D01*
X0389728Y0073903D02*
X0387751Y0073903D01*
X0387916Y0072905D02*
X0389728Y0072905D01*
X0218506Y0138933D02*
X0213550Y0138933D01*
X0213550Y0141445D01*
X0209006Y0141445D01*
X0209006Y0142445D01*
X0208006Y0142445D01*
X0208006Y0141445D01*
X0203463Y0141445D01*
X0203463Y0138933D01*
X0181050Y0138933D01*
X0181050Y0141445D01*
X0176506Y0141445D01*
X0176506Y0142445D01*
X0175506Y0142445D01*
X0175506Y0141445D01*
X0170963Y0141445D01*
X0170963Y0138933D01*
X0166050Y0138933D01*
X0166050Y0141445D01*
X0161506Y0141445D01*
X0161506Y0142445D01*
X0160506Y0142445D01*
X0160506Y0141445D01*
X0155963Y0141445D01*
X0155963Y0138933D01*
X0136050Y0138933D01*
X0136050Y0141445D01*
X0131506Y0141445D01*
X0131506Y0142445D01*
X0130506Y0142445D01*
X0130506Y0141445D01*
X0125963Y0141445D01*
X0125963Y0138933D01*
X0123506Y0138933D01*
X0123506Y0131433D01*
X0066006Y0131433D01*
X0066006Y0139520D01*
X0066286Y0138970D01*
X0066721Y0138371D01*
X0067244Y0137848D01*
X0067843Y0137413D01*
X0068502Y0137077D01*
X0069206Y0136849D01*
X0069936Y0136733D01*
X0073006Y0136733D01*
X0073006Y0140933D01*
X0074006Y0140933D01*
X0074006Y0136733D01*
X0077076Y0136733D01*
X0077807Y0136849D01*
X0078510Y0137077D01*
X0079170Y0137413D01*
X0079768Y0137848D01*
X0080291Y0138371D01*
X0080726Y0138970D01*
X0081062Y0139629D01*
X0081291Y0140332D01*
X0081386Y0140933D01*
X0074006Y0140933D01*
X0074006Y0141933D01*
X0073006Y0141933D01*
X0073006Y0146133D01*
X0069936Y0146133D01*
X0069206Y0146017D01*
X0068502Y0145789D01*
X0067843Y0145453D01*
X0067244Y0145018D01*
X0066721Y0144495D01*
X0066286Y0143896D01*
X0066006Y0143346D01*
X0066006Y0146433D01*
X0121006Y0146433D01*
X0128506Y0153933D01*
X0218506Y0153933D01*
X0218506Y0138933D01*
X0218506Y0139805D02*
X0213550Y0139805D01*
X0213550Y0140804D02*
X0218506Y0140804D01*
X0218506Y0141802D02*
X0209006Y0141802D01*
X0209006Y0142445D02*
X0213550Y0142445D01*
X0213550Y0145292D01*
X0213447Y0145673D01*
X0213250Y0146016D01*
X0212971Y0146295D01*
X0212629Y0146492D01*
X0212247Y0146594D01*
X0209006Y0146594D01*
X0209006Y0142445D01*
X0209006Y0142801D02*
X0208006Y0142801D01*
X0208006Y0142445D02*
X0208006Y0146594D01*
X0204766Y0146594D01*
X0204384Y0146492D01*
X0204042Y0146295D01*
X0203763Y0146016D01*
X0203565Y0145673D01*
X0203463Y0145292D01*
X0203463Y0142445D01*
X0208006Y0142445D01*
X0208006Y0141802D02*
X0176506Y0141802D01*
X0176506Y0142445D02*
X0181050Y0142445D01*
X0181050Y0145292D01*
X0180947Y0145673D01*
X0180750Y0146016D01*
X0180471Y0146295D01*
X0180129Y0146492D01*
X0179747Y0146594D01*
X0176506Y0146594D01*
X0176506Y0142445D01*
X0176506Y0142801D02*
X0175506Y0142801D01*
X0175506Y0142445D02*
X0175506Y0146594D01*
X0172266Y0146594D01*
X0171884Y0146492D01*
X0171542Y0146295D01*
X0171263Y0146016D01*
X0171065Y0145673D01*
X0170963Y0145292D01*
X0170963Y0142445D01*
X0175506Y0142445D01*
X0175506Y0141802D02*
X0161506Y0141802D01*
X0161506Y0142445D02*
X0166050Y0142445D01*
X0166050Y0145292D01*
X0165947Y0145673D01*
X0165750Y0146016D01*
X0165471Y0146295D01*
X0165129Y0146492D01*
X0164747Y0146594D01*
X0161506Y0146594D01*
X0161506Y0142445D01*
X0161506Y0142801D02*
X0160506Y0142801D01*
X0160506Y0142445D02*
X0160506Y0146594D01*
X0157266Y0146594D01*
X0156884Y0146492D01*
X0156542Y0146295D01*
X0156263Y0146016D01*
X0156065Y0145673D01*
X0155963Y0145292D01*
X0155963Y0142445D01*
X0160506Y0142445D01*
X0160506Y0141802D02*
X0131506Y0141802D01*
X0131506Y0142445D02*
X0136050Y0142445D01*
X0136050Y0145292D01*
X0135947Y0145673D01*
X0135750Y0146016D01*
X0135471Y0146295D01*
X0135129Y0146492D01*
X0134747Y0146594D01*
X0131506Y0146594D01*
X0131506Y0142445D01*
X0131506Y0142801D02*
X0130506Y0142801D01*
X0130506Y0142445D02*
X0130506Y0146594D01*
X0127266Y0146594D01*
X0126884Y0146492D01*
X0126542Y0146295D01*
X0126263Y0146016D01*
X0126065Y0145673D01*
X0125963Y0145292D01*
X0125963Y0142445D01*
X0130506Y0142445D01*
X0130506Y0141802D02*
X0104006Y0141802D01*
X0104006Y0141933D02*
X0111386Y0141933D01*
X0111291Y0142534D01*
X0111062Y0143237D01*
X0110726Y0143896D01*
X0110291Y0144495D01*
X0109768Y0145018D01*
X0109170Y0145453D01*
X0108510Y0145789D01*
X0107807Y0146017D01*
X0107076Y0146133D01*
X0104006Y0146133D01*
X0104006Y0141933D01*
X0103006Y0141933D01*
X0103006Y0140933D01*
X0095627Y0140933D01*
X0095722Y0140332D01*
X0095951Y0139629D01*
X0096286Y0138970D01*
X0096721Y0138371D01*
X0097244Y0137848D01*
X0097843Y0137413D01*
X0098502Y0137077D01*
X0099206Y0136849D01*
X0099936Y0136733D01*
X0103006Y0136733D01*
X0103006Y0140933D01*
X0104006Y0140933D01*
X0104006Y0136733D01*
X0107076Y0136733D01*
X0107807Y0136849D01*
X0108510Y0137077D01*
X0109170Y0137413D01*
X0109768Y0137848D01*
X0110291Y0138371D01*
X0110726Y0138970D01*
X0111062Y0139629D01*
X0111291Y0140332D01*
X0111386Y0140933D01*
X0104006Y0140933D01*
X0104006Y0141933D01*
X0104006Y0142801D02*
X0103006Y0142801D01*
X0103006Y0141933D02*
X0103006Y0146133D01*
X0099936Y0146133D01*
X0099206Y0146017D01*
X0098502Y0145789D01*
X0097843Y0145453D01*
X0097244Y0145018D01*
X0096721Y0144495D01*
X0096286Y0143896D01*
X0095951Y0143237D01*
X0095722Y0142534D01*
X0095627Y0141933D01*
X0103006Y0141933D01*
X0103006Y0141802D02*
X0074006Y0141802D01*
X0074006Y0141933D02*
X0081386Y0141933D01*
X0081291Y0142534D01*
X0081062Y0143237D01*
X0080726Y0143896D01*
X0080291Y0144495D01*
X0079768Y0145018D01*
X0079170Y0145453D01*
X0078510Y0145789D01*
X0077807Y0146017D01*
X0077076Y0146133D01*
X0074006Y0146133D01*
X0074006Y0141933D01*
X0074006Y0142801D02*
X0073006Y0142801D01*
X0073006Y0143799D02*
X0074006Y0143799D01*
X0074006Y0144798D02*
X0073006Y0144798D01*
X0073006Y0145796D02*
X0074006Y0145796D01*
X0078488Y0145796D02*
X0098525Y0145796D01*
X0097024Y0144798D02*
X0079989Y0144798D01*
X0080776Y0143799D02*
X0096237Y0143799D01*
X0095809Y0142801D02*
X0081204Y0142801D01*
X0081365Y0140804D02*
X0095647Y0140804D01*
X0095893Y0139805D02*
X0081119Y0139805D01*
X0080608Y0138807D02*
X0096405Y0138807D01*
X0097300Y0137808D02*
X0079713Y0137808D01*
X0077559Y0136810D02*
X0099454Y0136810D01*
X0103006Y0136810D02*
X0104006Y0136810D01*
X0104006Y0137808D02*
X0103006Y0137808D01*
X0103006Y0138807D02*
X0104006Y0138807D01*
X0104006Y0139805D02*
X0103006Y0139805D01*
X0103006Y0140804D02*
X0104006Y0140804D01*
X0104006Y0143799D02*
X0103006Y0143799D01*
X0103006Y0144798D02*
X0104006Y0144798D01*
X0104006Y0145796D02*
X0103006Y0145796D01*
X0108488Y0145796D02*
X0126136Y0145796D01*
X0125963Y0144798D02*
X0109989Y0144798D01*
X0110776Y0143799D02*
X0125963Y0143799D01*
X0125963Y0142801D02*
X0111204Y0142801D01*
X0111365Y0140804D02*
X0125963Y0140804D01*
X0125963Y0139805D02*
X0111119Y0139805D01*
X0110608Y0138807D02*
X0123506Y0138807D01*
X0123506Y0137808D02*
X0109713Y0137808D01*
X0107559Y0136810D02*
X0123506Y0136810D01*
X0123506Y0135811D02*
X0066006Y0135811D01*
X0066006Y0134812D02*
X0123506Y0134812D01*
X0123506Y0133814D02*
X0066006Y0133814D01*
X0066006Y0132815D02*
X0123506Y0132815D01*
X0123506Y0131817D02*
X0066006Y0131817D01*
X0066006Y0136810D02*
X0069454Y0136810D01*
X0067300Y0137808D02*
X0066006Y0137808D01*
X0066006Y0138807D02*
X0066405Y0138807D01*
X0073006Y0138807D02*
X0074006Y0138807D01*
X0074006Y0139805D02*
X0073006Y0139805D01*
X0073006Y0140804D02*
X0074006Y0140804D01*
X0074006Y0137808D02*
X0073006Y0137808D01*
X0073006Y0136810D02*
X0074006Y0136810D01*
X0066237Y0143799D02*
X0066006Y0143799D01*
X0066006Y0144798D02*
X0067024Y0144798D01*
X0066006Y0145796D02*
X0068525Y0145796D01*
X0057796Y0153784D02*
X0042206Y0153784D01*
X0042206Y0152786D02*
X0056798Y0152786D01*
X0055799Y0151787D02*
X0042206Y0151787D01*
X0042206Y0150789D02*
X0054801Y0150789D01*
X0053802Y0149790D02*
X0042206Y0149790D01*
X0042206Y0148792D02*
X0053314Y0148792D01*
X0052900Y0147793D02*
X0042206Y0147793D01*
X0042206Y0146795D02*
X0052806Y0146795D01*
X0052806Y0145796D02*
X0042206Y0145796D01*
X0042206Y0144798D02*
X0052806Y0144798D01*
X0052806Y0143799D02*
X0042206Y0143799D01*
X0042206Y0142801D02*
X0052806Y0142801D01*
X0052806Y0141802D02*
X0042206Y0141802D01*
X0042206Y0140804D02*
X0052806Y0140804D01*
X0052806Y0139805D02*
X0042206Y0139805D01*
X0042206Y0138807D02*
X0052806Y0138807D01*
X0052806Y0137808D02*
X0042206Y0137808D01*
X0042206Y0136810D02*
X0052806Y0136810D01*
X0052806Y0135811D02*
X0042206Y0135811D01*
X0042206Y0134812D02*
X0052806Y0134812D01*
X0052806Y0133814D02*
X0042206Y0133814D01*
X0042206Y0132815D02*
X0052806Y0132815D01*
X0052806Y0131817D02*
X0042206Y0131817D01*
X0042206Y0130818D02*
X0052806Y0130818D01*
X0052806Y0129820D02*
X0042206Y0129820D01*
X0042206Y0128821D02*
X0052806Y0128821D01*
X0052806Y0127823D02*
X0042206Y0127823D01*
X0042206Y0126824D02*
X0052806Y0126824D01*
X0052806Y0125826D02*
X0042206Y0125826D01*
X0042206Y0124827D02*
X0052806Y0124827D01*
X0052806Y0123829D02*
X0042206Y0123829D01*
X0042206Y0122830D02*
X0052806Y0122830D01*
X0052806Y0121832D02*
X0042206Y0121832D01*
X0042206Y0120833D02*
X0052806Y0120833D01*
X0052806Y0119835D02*
X0042206Y0119835D01*
X0042206Y0118836D02*
X0052806Y0118836D01*
X0052806Y0117838D02*
X0042206Y0117838D01*
X0042206Y0116839D02*
X0052806Y0116839D01*
X0052806Y0115841D02*
X0042206Y0115841D01*
X0042206Y0114842D02*
X0052806Y0114842D01*
X0052806Y0113844D02*
X0042206Y0113844D01*
X0042206Y0112845D02*
X0052806Y0112845D01*
X0052806Y0111847D02*
X0042206Y0111847D01*
X0042206Y0110848D02*
X0052806Y0110848D01*
X0052806Y0109850D02*
X0042206Y0109850D01*
X0042206Y0108851D02*
X0052806Y0108851D01*
X0052806Y0107853D02*
X0042206Y0107853D01*
X0042206Y0106854D02*
X0053198Y0106854D01*
X0053611Y0105856D02*
X0042206Y0105856D01*
X0042206Y0104857D02*
X0054521Y0104857D01*
X0055520Y0103859D02*
X0042206Y0103859D01*
X0042206Y0102860D02*
X0056518Y0102860D01*
X0057517Y0101862D02*
X0042206Y0101862D01*
X0042206Y0100863D02*
X0058515Y0100863D01*
X0059514Y0099865D02*
X0042206Y0099865D01*
X0042206Y0098866D02*
X0060844Y0098866D01*
X0067843Y0095453D02*
X0068502Y0095789D01*
X0069206Y0096017D01*
X0069936Y0096133D01*
X0073006Y0096133D01*
X0073006Y0091933D01*
X0073006Y0090933D01*
X0065627Y0090933D01*
X0065722Y0090332D01*
X0065951Y0089629D01*
X0066286Y0088970D01*
X0066721Y0088371D01*
X0067244Y0087848D01*
X0067843Y0087413D01*
X0068502Y0087077D01*
X0069206Y0086849D01*
X0069936Y0086733D01*
X0073006Y0086733D01*
X0073006Y0090933D01*
X0074006Y0090933D01*
X0074006Y0086733D01*
X0077076Y0086733D01*
X0077807Y0086849D01*
X0078510Y0087077D01*
X0079170Y0087413D01*
X0079768Y0087848D01*
X0080291Y0088371D01*
X0080726Y0088970D01*
X0081062Y0089629D01*
X0081291Y0090332D01*
X0081386Y0090933D01*
X0074006Y0090933D01*
X0074006Y0091933D01*
X0073006Y0091933D01*
X0065627Y0091933D01*
X0065722Y0092534D01*
X0065951Y0093237D01*
X0066286Y0093896D01*
X0066721Y0094495D01*
X0067244Y0095018D01*
X0067843Y0095453D01*
X0067098Y0094872D02*
X0042206Y0094872D01*
X0042206Y0093874D02*
X0066275Y0093874D01*
X0065833Y0092875D02*
X0042206Y0092875D01*
X0042206Y0091877D02*
X0073006Y0091877D01*
X0073006Y0092875D02*
X0074006Y0092875D01*
X0074006Y0091933D02*
X0074006Y0096133D01*
X0077076Y0096133D01*
X0077807Y0096017D01*
X0078510Y0095789D01*
X0079170Y0095453D01*
X0079768Y0095018D01*
X0080291Y0094495D01*
X0080726Y0093896D01*
X0081062Y0093237D01*
X0081291Y0092534D01*
X0081386Y0091933D01*
X0074006Y0091933D01*
X0074006Y0091877D02*
X0093406Y0091877D01*
X0093435Y0092875D02*
X0081180Y0092875D01*
X0080738Y0093874D02*
X0093849Y0093874D01*
X0094262Y0094872D02*
X0079914Y0094872D01*
X0078259Y0095871D02*
X0094986Y0095871D01*
X0095984Y0096869D02*
X0042206Y0096869D01*
X0042206Y0095871D02*
X0068754Y0095871D01*
X0073006Y0095871D02*
X0074006Y0095871D01*
X0074006Y0094872D02*
X0073006Y0094872D01*
X0073006Y0093874D02*
X0074006Y0093874D01*
X0074006Y0090878D02*
X0073006Y0090878D01*
X0073006Y0089879D02*
X0074006Y0089879D01*
X0074006Y0088881D02*
X0073006Y0088881D01*
X0073006Y0087882D02*
X0074006Y0087882D01*
X0074006Y0086884D02*
X0073006Y0086884D01*
X0072868Y0085733D02*
X0072199Y0085627D01*
X0071556Y0085418D01*
X0070953Y0085111D01*
X0070405Y0084713D01*
X0069926Y0084234D01*
X0069529Y0083687D01*
X0069221Y0083084D01*
X0069012Y0082440D01*
X0068906Y0081771D01*
X0068906Y0081733D01*
X0075706Y0081733D01*
X0075706Y0081133D01*
X0068906Y0081133D01*
X0068906Y0081095D01*
X0069012Y0080426D01*
X0069221Y0079782D01*
X0069529Y0079179D01*
X0069926Y0078632D01*
X0070405Y0078153D01*
X0070953Y0077755D01*
X0071556Y0077448D01*
X0072199Y0077239D01*
X0072868Y0077133D01*
X0075706Y0077133D01*
X0075706Y0081133D01*
X0076306Y0081133D01*
X0076306Y0077133D01*
X0079145Y0077133D01*
X0079813Y0077239D01*
X0080457Y0077448D01*
X0081060Y0077755D01*
X0081608Y0078153D01*
X0082086Y0078632D01*
X0082484Y0079179D01*
X0082791Y0079782D01*
X0083000Y0080426D01*
X0083106Y0081095D01*
X0083106Y0081133D01*
X0076306Y0081133D01*
X0076306Y0081733D01*
X0075706Y0081733D01*
X0075706Y0085733D01*
X0072868Y0085733D01*
X0070645Y0084887D02*
X0042206Y0084887D01*
X0042206Y0085885D02*
X0096096Y0085885D01*
X0095097Y0086884D02*
X0077915Y0086884D01*
X0079145Y0085733D02*
X0076306Y0085733D01*
X0076306Y0081733D01*
X0083106Y0081733D01*
X0083106Y0081771D01*
X0083000Y0082440D01*
X0082791Y0083084D01*
X0082484Y0083687D01*
X0082086Y0084234D01*
X0081608Y0084713D01*
X0081060Y0085111D01*
X0080457Y0085418D01*
X0079813Y0085627D01*
X0079145Y0085733D01*
X0079802Y0087882D02*
X0094308Y0087882D01*
X0093895Y0088881D02*
X0080662Y0088881D01*
X0081143Y0089879D02*
X0093481Y0089879D01*
X0093406Y0090878D02*
X0081377Y0090878D01*
X0081368Y0084887D02*
X0097601Y0084887D01*
X0097188Y0083888D02*
X0082337Y0083888D01*
X0082854Y0082890D02*
X0096774Y0082890D01*
X0096706Y0081891D02*
X0083087Y0081891D01*
X0083074Y0080893D02*
X0096706Y0080893D01*
X0096808Y0079894D02*
X0082828Y0079894D01*
X0082278Y0078896D02*
X0097222Y0078896D01*
X0097635Y0077897D02*
X0081255Y0077897D01*
X0076306Y0077897D02*
X0075706Y0077897D01*
X0075706Y0078896D02*
X0076306Y0078896D01*
X0076306Y0079894D02*
X0075706Y0079894D01*
X0075706Y0080893D02*
X0076306Y0080893D01*
X0076306Y0081891D02*
X0075706Y0081891D01*
X0075706Y0082890D02*
X0076306Y0082890D01*
X0076306Y0083888D02*
X0075706Y0083888D01*
X0075706Y0084887D02*
X0076306Y0084887D01*
X0069675Y0083888D02*
X0042206Y0083888D01*
X0042206Y0082890D02*
X0052415Y0082890D01*
X0050096Y0081891D02*
X0042206Y0081891D01*
X0042206Y0080893D02*
X0048622Y0080893D01*
X0047497Y0079894D02*
X0042206Y0079894D01*
X0042206Y0078896D02*
X0046609Y0078896D01*
X0045896Y0077897D02*
X0042206Y0077897D01*
X0042206Y0076899D02*
X0045319Y0076899D01*
X0044856Y0075900D02*
X0042206Y0075900D01*
X0042206Y0074902D02*
X0044507Y0074902D01*
X0044262Y0073903D02*
X0042206Y0073903D01*
X0042206Y0072905D02*
X0044096Y0072905D01*
X0055506Y0073903D02*
X0056506Y0073903D01*
X0056506Y0074902D02*
X0055506Y0074902D01*
X0055506Y0075900D02*
X0056506Y0075900D01*
X0056506Y0076899D02*
X0055506Y0076899D01*
X0055506Y0077897D02*
X0056506Y0077897D01*
X0056506Y0078896D02*
X0055506Y0078896D01*
X0055506Y0079894D02*
X0056506Y0079894D01*
X0056506Y0080893D02*
X0055506Y0080893D01*
X0055506Y0081891D02*
X0056506Y0081891D01*
X0056506Y0082890D02*
X0055506Y0082890D01*
X0059597Y0082890D02*
X0069158Y0082890D01*
X0068925Y0081891D02*
X0061917Y0081891D01*
X0063391Y0080893D02*
X0068938Y0080893D01*
X0069185Y0079894D02*
X0064516Y0079894D01*
X0065403Y0078896D02*
X0069735Y0078896D01*
X0070757Y0077897D02*
X0066117Y0077897D01*
X0066693Y0076899D02*
X0098548Y0076899D01*
X0099578Y0075900D02*
X0067157Y0075900D01*
X0067506Y0074902D02*
X0100306Y0074902D01*
X0100306Y0073903D02*
X0067751Y0073903D01*
X0067916Y0072905D02*
X0100306Y0072905D01*
X0111706Y0072905D02*
X0123526Y0072905D01*
X0123629Y0072862D02*
X0124445Y0072643D01*
X0125206Y0072543D01*
X0125206Y0083433D01*
X0119256Y0083433D01*
X0119256Y0078560D01*
X0119367Y0077722D01*
X0119585Y0076905D01*
X0119909Y0076124D01*
X0120332Y0075392D01*
X0120847Y0074721D01*
X0121444Y0074123D01*
X0122115Y0073609D01*
X0122847Y0073186D01*
X0123629Y0072862D01*
X0125206Y0072905D02*
X0126206Y0072905D01*
X0126206Y0072543D02*
X0126967Y0072643D01*
X0127784Y0072862D01*
X0128565Y0073186D01*
X0129297Y0073609D01*
X0129968Y0074123D01*
X0130566Y0074721D01*
X0131081Y0075392D01*
X0131504Y0076124D01*
X0131827Y0076905D01*
X0132046Y0077722D01*
X0132156Y0078560D01*
X0132156Y0083433D01*
X0126206Y0083433D01*
X0126206Y0072543D01*
X0126206Y0073903D02*
X0125206Y0073903D01*
X0125206Y0074902D02*
X0126206Y0074902D01*
X0126206Y0075900D02*
X0125206Y0075900D01*
X0125206Y0076899D02*
X0126206Y0076899D01*
X0126206Y0077897D02*
X0125206Y0077897D01*
X0125206Y0078896D02*
X0126206Y0078896D01*
X0126206Y0079894D02*
X0125206Y0079894D01*
X0125206Y0080893D02*
X0126206Y0080893D01*
X0126206Y0081891D02*
X0125206Y0081891D01*
X0125206Y0082890D02*
X0126206Y0082890D01*
X0126206Y0083433D02*
X0125206Y0083433D01*
X0125206Y0084433D01*
X0119256Y0084433D01*
X0119256Y0089306D01*
X0119367Y0090144D01*
X0119585Y0090961D01*
X0119909Y0091742D01*
X0120332Y0092474D01*
X0120847Y0093145D01*
X0121444Y0093743D01*
X0122115Y0094258D01*
X0122847Y0094680D01*
X0123629Y0095004D01*
X0124445Y0095223D01*
X0125206Y0095323D01*
X0125206Y0084433D01*
X0126206Y0084433D01*
X0126206Y0095323D01*
X0126967Y0095223D01*
X0127784Y0095004D01*
X0128565Y0094680D01*
X0129297Y0094258D01*
X0129968Y0093743D01*
X0130566Y0093145D01*
X0131081Y0092474D01*
X0131504Y0091742D01*
X0131827Y0090961D01*
X0132046Y0090144D01*
X0132156Y0089306D01*
X0132156Y0084433D01*
X0126206Y0084433D01*
X0126206Y0083433D01*
X0126206Y0083888D02*
X0132656Y0083888D01*
X0132656Y0082890D02*
X0132156Y0082890D01*
X0132156Y0081891D02*
X0132656Y0081891D01*
X0132656Y0080893D02*
X0132156Y0080893D01*
X0132156Y0079894D02*
X0132656Y0079894D01*
X0132656Y0078896D02*
X0132156Y0078896D01*
X0132069Y0077897D02*
X0132656Y0077897D01*
X0132807Y0076899D02*
X0131824Y0076899D01*
X0131374Y0075900D02*
X0133221Y0075900D01*
X0133634Y0074902D02*
X0130705Y0074902D01*
X0129681Y0073903D02*
X0134153Y0073903D01*
X0135152Y0072905D02*
X0127887Y0072905D01*
X0121731Y0073903D02*
X0111706Y0073903D01*
X0111706Y0074902D02*
X0120708Y0074902D01*
X0120038Y0075900D02*
X0112434Y0075900D01*
X0113464Y0076899D02*
X0119588Y0076899D01*
X0119344Y0077897D02*
X0114377Y0077897D01*
X0114791Y0078896D02*
X0119256Y0078896D01*
X0119256Y0079894D02*
X0115204Y0079894D01*
X0115306Y0080893D02*
X0119256Y0080893D01*
X0119256Y0081891D02*
X0115306Y0081891D01*
X0115238Y0082890D02*
X0119256Y0082890D01*
X0119256Y0084887D02*
X0114411Y0084887D01*
X0114825Y0083888D02*
X0125206Y0083888D01*
X0125206Y0084887D02*
X0126206Y0084887D01*
X0126206Y0085885D02*
X0125206Y0085885D01*
X0125206Y0086884D02*
X0126206Y0086884D01*
X0126206Y0087882D02*
X0125206Y0087882D01*
X0125206Y0088881D02*
X0126206Y0088881D01*
X0126206Y0089879D02*
X0125206Y0089879D01*
X0125206Y0090878D02*
X0126206Y0090878D01*
X0126206Y0091877D02*
X0125206Y0091877D01*
X0125206Y0092875D02*
X0126206Y0092875D01*
X0126206Y0093874D02*
X0125206Y0093874D01*
X0125206Y0094872D02*
X0126206Y0094872D01*
X0128102Y0094872D02*
X0135062Y0094872D01*
X0134064Y0093874D02*
X0129798Y0093874D01*
X0130773Y0092875D02*
X0133597Y0092875D01*
X0133184Y0091877D02*
X0131426Y0091877D01*
X0131849Y0090878D02*
X0132770Y0090878D01*
X0132656Y0089879D02*
X0132081Y0089879D01*
X0132156Y0088881D02*
X0132656Y0088881D01*
X0132656Y0087882D02*
X0132156Y0087882D01*
X0132156Y0086884D02*
X0132656Y0086884D01*
X0132656Y0085885D02*
X0132156Y0085885D01*
X0132156Y0084887D02*
X0132656Y0084887D01*
X0119256Y0085885D02*
X0113546Y0085885D01*
X0112548Y0086884D02*
X0119256Y0086884D01*
X0119256Y0087882D02*
X0112704Y0087882D01*
X0113118Y0088881D02*
X0119256Y0088881D01*
X0119332Y0089879D02*
X0113531Y0089879D01*
X0113606Y0090878D02*
X0119563Y0090878D01*
X0119987Y0091877D02*
X0113606Y0091877D01*
X0113578Y0092875D02*
X0120639Y0092875D01*
X0121615Y0093874D02*
X0113164Y0093874D01*
X0112750Y0094872D02*
X0123310Y0094872D01*
X0112027Y0095871D02*
X0136061Y0095871D01*
X0137983Y0096869D02*
X0111028Y0096869D01*
X0109206Y0097868D02*
X0155306Y0097868D01*
X0155306Y0096869D02*
X0144630Y0096869D01*
X0146552Y0095871D02*
X0154883Y0095871D01*
X0153884Y0094872D02*
X0147550Y0094872D01*
X0148549Y0093874D02*
X0152886Y0093874D01*
X0151887Y0092875D02*
X0149015Y0092875D01*
X0149429Y0091877D02*
X0150889Y0091877D01*
X0149890Y0090878D02*
X0149843Y0090878D01*
X0154910Y0098866D02*
X0109206Y0098866D01*
X0097806Y0097868D02*
X0042206Y0097868D01*
X0042206Y0090878D02*
X0065636Y0090878D01*
X0065869Y0089879D02*
X0042206Y0089879D01*
X0042206Y0088881D02*
X0066351Y0088881D01*
X0067210Y0087882D02*
X0042206Y0087882D01*
X0042206Y0086884D02*
X0069098Y0086884D01*
X0056506Y0070908D02*
X0055506Y0070908D01*
X0055506Y0069909D02*
X0056506Y0069909D01*
X0056506Y0068911D02*
X0055506Y0068911D01*
X0055506Y0067912D02*
X0056506Y0067912D01*
X0056506Y0066914D02*
X0055506Y0066914D01*
X0055506Y0065915D02*
X0056506Y0065915D01*
X0056506Y0064917D02*
X0055506Y0064917D01*
X0055506Y0063918D02*
X0056506Y0063918D01*
X0056506Y0062920D02*
X0055506Y0062920D01*
X0055506Y0061921D02*
X0056506Y0061921D01*
X0056506Y0060923D02*
X0055506Y0060923D01*
X0055506Y0059924D02*
X0056506Y0059924D01*
X0111706Y0070908D02*
X0138198Y0070908D01*
X0136150Y0071906D02*
X0111706Y0071906D01*
X0168506Y0099865D02*
X0182487Y0099865D01*
X0183211Y0100863D02*
X0168506Y0100863D01*
X0168506Y0101862D02*
X0183506Y0101862D01*
X0183506Y0102860D02*
X0168506Y0102860D01*
X0168506Y0103859D02*
X0183506Y0103859D01*
X0183506Y0104857D02*
X0168506Y0104857D01*
X0168506Y0105856D02*
X0183506Y0105856D01*
X0176506Y0088881D02*
X0175506Y0088881D01*
X0176506Y0088881D01*
X0181050Y0139805D02*
X0203463Y0139805D01*
X0203463Y0140804D02*
X0181050Y0140804D01*
X0181050Y0142801D02*
X0203463Y0142801D01*
X0203463Y0143799D02*
X0181050Y0143799D01*
X0181050Y0144798D02*
X0203463Y0144798D01*
X0203636Y0145796D02*
X0180877Y0145796D01*
X0176506Y0145796D02*
X0175506Y0145796D01*
X0175506Y0144798D02*
X0176506Y0144798D01*
X0176506Y0143799D02*
X0175506Y0143799D01*
X0170963Y0143799D02*
X0166050Y0143799D01*
X0166050Y0142801D02*
X0170963Y0142801D01*
X0170963Y0144798D02*
X0166050Y0144798D01*
X0165877Y0145796D02*
X0171136Y0145796D01*
X0170963Y0140804D02*
X0166050Y0140804D01*
X0166050Y0139805D02*
X0170963Y0139805D01*
X0161506Y0143799D02*
X0160506Y0143799D01*
X0160506Y0144798D02*
X0161506Y0144798D01*
X0161506Y0145796D02*
X0160506Y0145796D01*
X0156136Y0145796D02*
X0135877Y0145796D01*
X0136050Y0144798D02*
X0155963Y0144798D01*
X0155963Y0143799D02*
X0136050Y0143799D01*
X0136050Y0142801D02*
X0155963Y0142801D01*
X0155963Y0140804D02*
X0136050Y0140804D01*
X0136050Y0139805D02*
X0155963Y0139805D01*
X0131506Y0143799D02*
X0130506Y0143799D01*
X0130506Y0144798D02*
X0131506Y0144798D01*
X0131506Y0145796D02*
X0130506Y0145796D01*
X0125362Y0150789D02*
X0218506Y0150789D01*
X0218506Y0151787D02*
X0126360Y0151787D01*
X0127359Y0152786D02*
X0218506Y0152786D01*
X0218506Y0153784D02*
X0128357Y0153784D01*
X0124363Y0149790D02*
X0218506Y0149790D01*
X0218506Y0148792D02*
X0123365Y0148792D01*
X0122366Y0147793D02*
X0218506Y0147793D01*
X0218506Y0146795D02*
X0121368Y0146795D01*
X0061006Y0156780D02*
X0042206Y0156780D01*
X0042206Y0157778D02*
X0061006Y0157778D01*
X0061006Y0158777D02*
X0042206Y0158777D01*
X0042206Y0159775D02*
X0061006Y0159775D01*
X0061006Y0160774D02*
X0042206Y0160774D01*
X0042206Y0161772D02*
X0061006Y0161772D01*
X0061006Y0162771D02*
X0042206Y0162771D01*
X0042206Y0163769D02*
X0061006Y0163769D01*
X0061006Y0164768D02*
X0042206Y0164768D01*
X0042206Y0165766D02*
X0061006Y0165766D01*
X0061006Y0166765D02*
X0042206Y0166765D01*
X0042206Y0167763D02*
X0061006Y0167763D01*
X0061006Y0168762D02*
X0042206Y0168762D01*
X0042206Y0169760D02*
X0061006Y0169760D01*
X0061006Y0170759D02*
X0042206Y0170759D01*
X0042206Y0171757D02*
X0061006Y0171757D01*
X0061006Y0172756D02*
X0042206Y0172756D01*
X0042206Y0173754D02*
X0061006Y0173754D01*
X0061006Y0174753D02*
X0042206Y0174753D01*
X0042206Y0175751D02*
X0061006Y0175751D01*
X0061006Y0176433D02*
X0040006Y0176433D01*
X0040006Y0203933D01*
X0061006Y0203933D01*
X0061006Y0176433D01*
X0061006Y0176750D02*
X0040006Y0176750D01*
X0040006Y0177748D02*
X0061006Y0177748D01*
X0042206Y0177748D01*
X0042206Y0176750D02*
X0061006Y0176750D01*
X0061006Y0178747D02*
X0040006Y0178747D01*
X0040006Y0179745D02*
X0061006Y0179745D01*
X0042206Y0179745D01*
X0042206Y0178747D02*
X0061006Y0178747D01*
X0061006Y0180744D02*
X0040006Y0180744D01*
X0040006Y0181743D02*
X0061006Y0181743D01*
X0042206Y0181743D01*
X0042206Y0182741D02*
X0061006Y0182741D01*
X0040006Y0182741D01*
X0040006Y0183740D02*
X0061006Y0183740D01*
X0042206Y0183740D01*
X0042206Y0184738D02*
X0061006Y0184738D01*
X0040006Y0184738D01*
X0040006Y0185737D02*
X0061006Y0185737D01*
X0042206Y0185737D01*
X0042206Y0186735D02*
X0061006Y0186735D01*
X0040006Y0186735D01*
X0040006Y0187734D02*
X0061006Y0187734D01*
X0042206Y0187734D01*
X0042206Y0188732D02*
X0061006Y0188732D01*
X0040006Y0188732D01*
X0040006Y0189731D02*
X0061006Y0189731D01*
X0061006Y0190729D02*
X0040006Y0190729D01*
X0040006Y0191728D02*
X0061006Y0191728D01*
X0061006Y0192726D02*
X0040006Y0192726D01*
X0040006Y0193725D02*
X0061006Y0193725D01*
X0061006Y0194723D02*
X0040006Y0194723D01*
X0040006Y0195722D02*
X0061006Y0195722D01*
X0061006Y0196720D02*
X0040006Y0196720D01*
X0040006Y0197719D02*
X0061006Y0197719D01*
X0061006Y0198717D02*
X0040006Y0198717D01*
X0040006Y0199716D02*
X0061006Y0199716D01*
X0061006Y0200714D02*
X0040006Y0200714D01*
X0040006Y0201713D02*
X0061006Y0201713D01*
X0061006Y0202711D02*
X0040006Y0202711D01*
X0040006Y0203710D02*
X0061006Y0203710D01*
X0061006Y0180744D02*
X0042206Y0180744D01*
X0042206Y0155781D02*
X0059793Y0155781D01*
X0058795Y0154783D02*
X0042206Y0154783D01*
X0040006Y0229671D02*
X0061006Y0229671D01*
X0061006Y0230670D02*
X0040006Y0230670D01*
X0040006Y0231668D02*
X0061006Y0231668D01*
X0138506Y0231668D01*
X0138506Y0232667D02*
X0061006Y0232667D01*
X0040006Y0232667D01*
X0040006Y0233665D02*
X0061006Y0233665D01*
X0138506Y0233665D01*
X0138506Y0234664D02*
X0061006Y0234664D01*
X0040006Y0234664D01*
X0040006Y0235662D02*
X0061006Y0235662D01*
X0138506Y0235662D01*
X0138506Y0236661D02*
X0061006Y0236661D01*
X0040006Y0236661D01*
X0040006Y0237659D02*
X0061006Y0237659D01*
X0138506Y0237659D01*
X0138506Y0238658D02*
X0061006Y0238658D01*
X0040006Y0238658D01*
X0078376Y0239656D02*
X0113637Y0239656D01*
X0111327Y0240655D02*
X0080686Y0240655D01*
X0081684Y0241653D02*
X0110328Y0241653D01*
X0104006Y0242652D02*
X0103006Y0242652D01*
X0103006Y0243650D02*
X0104006Y0243650D01*
X0104006Y0244649D02*
X0103006Y0244649D01*
X0103006Y0245647D02*
X0104006Y0245647D01*
X0103006Y0246646D02*
X0083606Y0246646D01*
X0083606Y0247644D02*
X0095758Y0247644D01*
X0095722Y0247534D02*
X0095627Y0246933D01*
X0103006Y0246933D01*
X0103006Y0251133D01*
X0099936Y0251133D01*
X0099206Y0251017D01*
X0098502Y0250789D01*
X0097843Y0250453D01*
X0097244Y0250018D01*
X0096721Y0249495D01*
X0096286Y0248896D01*
X0095951Y0248237D01*
X0095722Y0247534D01*
X0096157Y0248643D02*
X0083260Y0248643D01*
X0082846Y0249641D02*
X0096868Y0249641D01*
X0098210Y0250640D02*
X0082258Y0250640D01*
X0081259Y0251638D02*
X0110753Y0251638D01*
X0110310Y0252637D02*
X0108327Y0252637D01*
X0109589Y0253635D02*
X0109830Y0253635D01*
X0109755Y0250640D02*
X0108803Y0250640D01*
X0104006Y0250640D02*
X0103006Y0250640D01*
X0103006Y0249641D02*
X0104006Y0249641D01*
X0104006Y0248643D02*
X0103006Y0248643D01*
X0103006Y0247644D02*
X0104006Y0247644D01*
X0103806Y0252637D02*
X0103206Y0252637D01*
X0103206Y0253635D02*
X0103806Y0253635D01*
X0103806Y0254634D02*
X0103206Y0254634D01*
X0103206Y0255632D02*
X0103806Y0255632D01*
X0103206Y0256631D02*
X0082806Y0256631D01*
X0082806Y0257629D02*
X0096574Y0257629D01*
X0096512Y0257440D02*
X0096406Y0256771D01*
X0096406Y0256733D01*
X0103206Y0256733D01*
X0103206Y0260733D01*
X0100368Y0260733D01*
X0099699Y0260627D01*
X0099056Y0260418D01*
X0098453Y0260111D01*
X0097905Y0259713D01*
X0097426Y0259234D01*
X0097029Y0258687D01*
X0096721Y0258084D01*
X0096512Y0257440D01*
X0096999Y0258628D02*
X0082433Y0258628D01*
X0082019Y0259626D02*
X0097819Y0259626D01*
X0099692Y0260625D02*
X0081307Y0260625D01*
X0082806Y0255632D02*
X0096480Y0255632D01*
X0096797Y0254634D02*
X0082597Y0254634D01*
X0082183Y0253635D02*
X0097424Y0253635D01*
X0098685Y0252637D02*
X0081702Y0252637D01*
X0083606Y0245647D02*
X0095672Y0245647D01*
X0095944Y0244649D02*
X0083436Y0244649D01*
X0083022Y0243650D02*
X0096519Y0243650D01*
X0097515Y0242652D02*
X0082609Y0242652D01*
X0103206Y0257629D02*
X0103806Y0257629D01*
X0103806Y0258628D02*
X0103206Y0258628D01*
X0103206Y0259626D02*
X0103806Y0259626D01*
X0103806Y0260625D02*
X0103206Y0260625D01*
X0107320Y0260625D02*
X0110706Y0260625D01*
X0109993Y0259626D02*
X0109194Y0259626D01*
X0126307Y0260625D02*
X0138506Y0260625D01*
X0138506Y0259626D02*
X0127019Y0259626D01*
X0127433Y0258628D02*
X0138506Y0258628D01*
X0138506Y0257629D02*
X0127806Y0257629D01*
X0127806Y0256631D02*
X0138506Y0256631D01*
X0138506Y0255632D02*
X0127806Y0255632D01*
X0127597Y0254634D02*
X0138506Y0254634D01*
X0138506Y0253635D02*
X0127183Y0253635D01*
X0126702Y0252637D02*
X0138506Y0252637D01*
X0138506Y0251638D02*
X0126259Y0251638D01*
X0127258Y0250640D02*
X0138506Y0250640D01*
X0138506Y0249641D02*
X0127846Y0249641D01*
X0128260Y0248643D02*
X0138506Y0248643D01*
X0138506Y0247644D02*
X0128606Y0247644D01*
X0128606Y0246646D02*
X0138506Y0246646D01*
X0138506Y0245647D02*
X0128606Y0245647D01*
X0128436Y0244649D02*
X0138506Y0244649D01*
X0138506Y0243650D02*
X0128022Y0243650D01*
X0127609Y0242652D02*
X0138506Y0242652D01*
X0138506Y0241653D02*
X0126684Y0241653D01*
X0125686Y0240655D02*
X0138506Y0240655D01*
X0138506Y0239656D02*
X0123376Y0239656D01*
X0161006Y0223680D02*
X0182491Y0223680D01*
X0183490Y0222681D02*
X0161006Y0222681D01*
X0161006Y0221683D02*
X0184488Y0221683D01*
X0185487Y0220684D02*
X0161006Y0220684D01*
X0171006Y0254634D02*
X0183463Y0254634D01*
X0183463Y0255632D02*
X0171006Y0255632D01*
X0171006Y0256631D02*
X0188006Y0256631D01*
X0188006Y0257445D02*
X0183463Y0257445D01*
X0183463Y0260292D01*
X0183565Y0260673D01*
X0183763Y0261016D01*
X0184042Y0261295D01*
X0184384Y0261492D01*
X0184766Y0261594D01*
X0188006Y0261594D01*
X0188006Y0257445D01*
X0188006Y0257629D02*
X0189006Y0257629D01*
X0189006Y0257445D02*
X0189006Y0261594D01*
X0192247Y0261594D01*
X0192629Y0261492D01*
X0192971Y0261295D01*
X0193250Y0261016D01*
X0193447Y0260673D01*
X0193550Y0260292D01*
X0193550Y0257445D01*
X0189006Y0257445D01*
X0189006Y0256631D02*
X0274206Y0256631D01*
X0274206Y0257629D02*
X0193550Y0257629D01*
X0193550Y0258628D02*
X0274580Y0258628D01*
X0274993Y0259626D02*
X0193550Y0259626D01*
X0193460Y0260625D02*
X0275706Y0260625D01*
X0276704Y0261623D02*
X0171006Y0261623D01*
X0171006Y0260625D02*
X0183552Y0260625D01*
X0183463Y0259626D02*
X0171006Y0259626D01*
X0171006Y0258628D02*
X0183463Y0258628D01*
X0183463Y0257629D02*
X0171006Y0257629D01*
X0171006Y0262622D02*
X0277829Y0262622D01*
X0278243Y0263620D02*
X0171006Y0263620D01*
X0171006Y0264619D02*
X0278656Y0264619D01*
X0279630Y0265617D02*
X0171006Y0265617D01*
X0171006Y0266616D02*
X0280628Y0266616D01*
X0281627Y0267614D02*
X0171006Y0267614D01*
X0171006Y0268613D02*
X0282625Y0268613D01*
X0283624Y0269612D02*
X0171006Y0269612D01*
X0171006Y0270610D02*
X0284622Y0270610D01*
X0286106Y0271609D02*
X0160906Y0271609D01*
X0188006Y0260625D02*
X0189006Y0260625D01*
X0189006Y0259626D02*
X0188006Y0259626D01*
X0188006Y0258628D02*
X0189006Y0258628D01*
X0193550Y0255632D02*
X0274206Y0255632D01*
X0274416Y0254634D02*
X0193550Y0254634D01*
X0208006Y0145796D02*
X0209006Y0145796D01*
X0209006Y0144798D02*
X0208006Y0144798D01*
X0208006Y0143799D02*
X0209006Y0143799D01*
X0213550Y0143799D02*
X0218506Y0143799D01*
X0218506Y0142801D02*
X0213550Y0142801D01*
X0213550Y0144798D02*
X0218506Y0144798D01*
X0218506Y0145796D02*
X0213377Y0145796D01*
D28*
X0216006Y0148933D03*
X0208506Y0148933D03*
X0201006Y0148933D03*
X0193506Y0148933D03*
X0186006Y0148933D03*
X0176006Y0148933D03*
X0168506Y0148933D03*
X0161006Y0148933D03*
X0153506Y0148933D03*
X0146006Y0148933D03*
X0138506Y0148933D03*
X0131006Y0148933D03*
X0123506Y0141433D03*
X0116006Y0141433D03*
X0116006Y0133933D03*
X0108506Y0133933D03*
X0098506Y0133933D03*
X0091006Y0133933D03*
X0083506Y0133933D03*
X0076006Y0133933D03*
X0068506Y0133933D03*
X0051006Y0131433D03*
X0046006Y0131433D03*
X0046006Y0138933D03*
X0051006Y0138933D03*
X0051006Y0146433D03*
X0046006Y0146433D03*
X0046006Y0153933D03*
X0053506Y0153933D03*
X0058506Y0161433D03*
X0046006Y0161433D03*
X0046006Y0168933D03*
X0046006Y0176433D03*
X0058506Y0176433D03*
X0058506Y0168933D03*
X0058506Y0183933D03*
X0053506Y0191433D03*
X0046006Y0191433D03*
X0046006Y0183933D03*
X0048506Y0198933D03*
X0041006Y0198933D03*
X0056006Y0198933D03*
X0083506Y0193933D03*
X0088506Y0198933D03*
X0093506Y0193933D03*
X0093506Y0213933D03*
X0088506Y0218933D03*
X0083506Y0213933D03*
X0061006Y0233933D03*
X0056006Y0233933D03*
X0048506Y0233933D03*
X0041006Y0233933D03*
X0046006Y0241433D03*
X0053506Y0241433D03*
X0061006Y0241433D03*
X0066006Y0236433D03*
X0076006Y0236433D03*
X0083506Y0236433D03*
X0091006Y0236433D03*
X0098506Y0236433D03*
X0106006Y0236433D03*
X0113506Y0236433D03*
X0121006Y0236433D03*
X0128506Y0236433D03*
X0136006Y0236433D03*
X0138506Y0218933D03*
X0133506Y0213933D03*
X0128506Y0218933D03*
X0128506Y0198933D03*
X0133506Y0193933D03*
X0138506Y0198933D03*
X0163506Y0211433D03*
X0171006Y0211433D03*
X0178506Y0211433D03*
X0178506Y0218933D03*
X0171006Y0218933D03*
X0163506Y0218933D03*
X0188506Y0226433D03*
X0198506Y0218933D03*
X0206006Y0218933D03*
X0213506Y0218933D03*
X0221006Y0218933D03*
X0228506Y0218933D03*
X0236006Y0218933D03*
X0243506Y0218933D03*
X0251006Y0218933D03*
X0258506Y0218933D03*
X0266006Y0218933D03*
X0266006Y0211433D03*
X0258506Y0211433D03*
X0251006Y0211433D03*
X0243506Y0211433D03*
X0236006Y0211433D03*
X0228506Y0211433D03*
X0221006Y0211433D03*
X0213506Y0211433D03*
X0206006Y0211433D03*
X0198506Y0211433D03*
X0198506Y0181433D03*
X0206006Y0181433D03*
X0213506Y0181433D03*
X0221006Y0181433D03*
X0228506Y0181433D03*
X0236006Y0181433D03*
X0243506Y0181433D03*
X0251006Y0181433D03*
X0258506Y0181433D03*
X0266006Y0181433D03*
X0266006Y0173933D03*
X0268506Y0168933D03*
X0268506Y0161433D03*
X0268506Y0153933D03*
X0261006Y0153933D03*
X0261006Y0146433D03*
X0268506Y0146433D03*
X0276006Y0146433D03*
X0276006Y0138933D03*
X0268506Y0138933D03*
X0261006Y0138933D03*
X0261006Y0131433D03*
X0268506Y0131433D03*
X0276006Y0131433D03*
X0283506Y0131433D03*
X0291006Y0131433D03*
X0298506Y0131433D03*
X0306006Y0131433D03*
X0313506Y0131433D03*
X0321006Y0131433D03*
X0328506Y0131433D03*
X0336006Y0131433D03*
X0343506Y0131433D03*
X0351006Y0131433D03*
X0358506Y0131433D03*
X0366006Y0131433D03*
X0371006Y0126433D03*
X0371006Y0118933D03*
X0371006Y0111433D03*
X0366006Y0108933D03*
X0358506Y0108933D03*
X0351006Y0108933D03*
X0343506Y0108933D03*
X0336006Y0108933D03*
X0328506Y0108933D03*
X0321006Y0108933D03*
X0316006Y0103933D03*
X0316006Y0096433D03*
X0316006Y0088933D03*
X0316006Y0081433D03*
X0316006Y0073933D03*
X0311006Y0068933D03*
X0303506Y0068933D03*
X0296006Y0068933D03*
X0288506Y0068933D03*
X0281006Y0068933D03*
X0273506Y0068933D03*
X0266006Y0068933D03*
X0258506Y0068933D03*
X0248506Y0068933D03*
X0238506Y0068933D03*
X0231006Y0071433D03*
X0223506Y0071433D03*
X0208506Y0081433D03*
X0201006Y0081433D03*
X0193506Y0081433D03*
X0186006Y0081433D03*
X0186006Y0088933D03*
X0193506Y0088933D03*
X0201006Y0088933D03*
X0208506Y0088933D03*
X0208506Y0096433D03*
X0201006Y0096433D03*
X0193506Y0096433D03*
X0186006Y0096433D03*
X0178506Y0093933D03*
X0171006Y0093933D03*
X0166006Y0086433D03*
X0151006Y0071433D03*
X0131006Y0071433D03*
X0121006Y0071433D03*
X0116006Y0076433D03*
X0116006Y0086433D03*
X0116006Y0093933D03*
X0091006Y0093933D03*
X0083506Y0093933D03*
X0091006Y0083933D03*
X0093506Y0076433D03*
X0096006Y0068933D03*
X0093506Y0061433D03*
X0086006Y0061433D03*
X0078506Y0061433D03*
X0071006Y0061433D03*
X0046006Y0086433D03*
X0046006Y0093933D03*
X0046006Y0101433D03*
X0053506Y0101433D03*
X0058506Y0096433D03*
X0063506Y0088933D03*
X0051006Y0108933D03*
X0046006Y0108933D03*
X0046006Y0116433D03*
X0051006Y0116433D03*
X0051006Y0123933D03*
X0046006Y0123933D03*
X0083506Y0141433D03*
X0091006Y0141433D03*
X0138506Y0141433D03*
X0146006Y0141433D03*
X0153506Y0141433D03*
X0168506Y0141433D03*
X0186006Y0141433D03*
X0193506Y0141433D03*
X0201006Y0141433D03*
X0216006Y0141433D03*
X0188506Y0166433D03*
X0178506Y0173933D03*
X0171006Y0173933D03*
X0163506Y0173933D03*
X0163506Y0181433D03*
X0171006Y0181433D03*
X0178506Y0181433D03*
X0198506Y0173933D03*
X0206006Y0173933D03*
X0213506Y0173933D03*
X0221006Y0173933D03*
X0228506Y0173933D03*
X0236006Y0173933D03*
X0243506Y0173933D03*
X0276006Y0161433D03*
X0283506Y0161433D03*
X0291006Y0161433D03*
X0298506Y0161433D03*
X0298506Y0153933D03*
X0306006Y0151433D03*
X0313506Y0151433D03*
X0321006Y0151433D03*
X0328506Y0151433D03*
X0336006Y0151433D03*
X0343506Y0151433D03*
X0351006Y0151433D03*
X0358506Y0151433D03*
X0366006Y0151433D03*
X0371006Y0156433D03*
X0371006Y0163933D03*
X0371006Y0171433D03*
X0371006Y0178933D03*
X0371006Y0186433D03*
X0371006Y0193933D03*
X0376006Y0193933D03*
X0383506Y0193933D03*
X0383506Y0198933D03*
X0376006Y0198933D03*
X0371006Y0198933D03*
X0386006Y0186433D03*
X0386006Y0178933D03*
X0386006Y0171433D03*
X0386006Y0163933D03*
X0386006Y0156433D03*
X0386006Y0148933D03*
X0386006Y0141433D03*
X0386006Y0133933D03*
X0386006Y0126433D03*
X0386006Y0118933D03*
X0386006Y0111433D03*
X0386006Y0103933D03*
X0386006Y0096433D03*
X0386006Y0088933D03*
X0371006Y0093933D03*
X0366006Y0101433D03*
X0358506Y0101433D03*
X0351006Y0101433D03*
X0341006Y0101433D03*
X0341006Y0081433D03*
X0341006Y0068933D03*
X0333506Y0068933D03*
X0326006Y0068933D03*
X0348506Y0068933D03*
X0368506Y0086433D03*
X0276006Y0106433D03*
X0276006Y0111433D03*
X0268506Y0111433D03*
X0261006Y0111433D03*
X0253506Y0111433D03*
X0246006Y0111433D03*
X0238506Y0111433D03*
X0238506Y0103933D03*
X0261006Y0103933D03*
X0268506Y0103933D03*
X0261006Y0096433D03*
X0268506Y0088933D03*
X0273506Y0086433D03*
X0208506Y0103933D03*
X0201006Y0103933D03*
X0193506Y0103933D03*
X0186006Y0103933D03*
X0178506Y0103933D03*
X0171006Y0103933D03*
X0276006Y0153933D03*
X0293506Y0193933D03*
X0298506Y0198933D03*
X0303506Y0193933D03*
X0303506Y0213933D03*
X0298506Y0218933D03*
X0293506Y0213933D03*
X0301006Y0233933D03*
X0308506Y0233933D03*
X0316006Y0233933D03*
X0323506Y0233933D03*
X0331006Y0233933D03*
X0338506Y0233933D03*
X0346006Y0233933D03*
X0353506Y0233933D03*
X0361006Y0233933D03*
X0368506Y0233933D03*
X0376006Y0233933D03*
X0383506Y0233933D03*
X0391006Y0233933D03*
X0376006Y0241433D03*
X0376006Y0246433D03*
X0383506Y0246433D03*
X0386006Y0253933D03*
X0368506Y0246433D03*
X0368506Y0241433D03*
X0366006Y0251433D03*
X0348506Y0251433D03*
X0338506Y0251433D03*
X0338506Y0241433D03*
X0348506Y0241433D03*
X0348506Y0261433D03*
X0338506Y0261433D03*
X0333506Y0268933D03*
X0328506Y0273933D03*
X0321006Y0273933D03*
X0313506Y0273933D03*
X0306006Y0273933D03*
X0298506Y0273933D03*
X0291006Y0273933D03*
X0283506Y0273933D03*
X0278506Y0268933D03*
X0273506Y0263933D03*
X0271006Y0256433D03*
X0266006Y0256433D03*
X0258506Y0256433D03*
X0251006Y0256433D03*
X0243506Y0256433D03*
X0236006Y0256433D03*
X0228506Y0256433D03*
X0221006Y0256433D03*
X0213506Y0256433D03*
X0213506Y0263933D03*
X0203506Y0263933D03*
X0198506Y0263933D03*
X0198506Y0256433D03*
X0203506Y0256433D03*
X0188506Y0263933D03*
X0178506Y0263933D03*
X0173506Y0263933D03*
X0173506Y0256433D03*
X0178506Y0256433D03*
X0181006Y0271433D03*
X0173506Y0271433D03*
X0166006Y0273933D03*
X0158506Y0273933D03*
X0151006Y0273933D03*
X0143506Y0273933D03*
X0136006Y0273933D03*
X0128506Y0273933D03*
X0121006Y0273933D03*
X0113506Y0273933D03*
X0106006Y0273933D03*
X0098506Y0273933D03*
X0091006Y0273933D03*
X0083506Y0273933D03*
X0076006Y0273933D03*
X0076006Y0281433D03*
X0068506Y0281433D03*
X0083506Y0281433D03*
X0091006Y0281433D03*
X0098506Y0281433D03*
X0106006Y0281433D03*
X0113506Y0281433D03*
X0121006Y0281433D03*
X0128506Y0281433D03*
X0136006Y0281433D03*
X0143506Y0281433D03*
X0151006Y0281433D03*
X0158506Y0281433D03*
X0166006Y0281433D03*
X0173506Y0281433D03*
X0181006Y0281433D03*
X0188506Y0281433D03*
X0196006Y0281433D03*
X0203506Y0281433D03*
X0213506Y0281433D03*
X0221006Y0281433D03*
X0228506Y0281433D03*
X0236006Y0281433D03*
X0243506Y0281433D03*
X0251006Y0281433D03*
X0258506Y0281433D03*
X0266006Y0281433D03*
X0273506Y0281433D03*
X0283506Y0281433D03*
X0291006Y0281433D03*
X0298506Y0281433D03*
X0306006Y0281433D03*
X0313506Y0281433D03*
X0321006Y0281433D03*
X0328506Y0281433D03*
X0336006Y0281433D03*
X0343506Y0281433D03*
X0351006Y0281433D03*
X0358506Y0281433D03*
X0358506Y0273933D03*
X0358506Y0266433D03*
X0303506Y0256433D03*
X0296006Y0256433D03*
X0301006Y0248933D03*
X0301006Y0241433D03*
X0338506Y0218933D03*
X0343506Y0213933D03*
X0348506Y0218933D03*
X0348506Y0198933D03*
X0343506Y0193933D03*
X0338506Y0198933D03*
X0391006Y0198933D03*
X0213506Y0271433D03*
X0203506Y0271433D03*
X0196006Y0271433D03*
X0188506Y0271433D03*
X0136006Y0256433D03*
X0131006Y0256433D03*
X0093506Y0256433D03*
X0086006Y0256433D03*
X0086006Y0246433D03*
X0093506Y0246433D03*
X0061006Y0251433D03*
X0053506Y0251433D03*
X0046006Y0251433D03*
D29*
X0073506Y0256433D02*
X0073506Y0246433D01*
X0073506Y0256433D02*
X0073506Y0261433D01*
X0078506Y0266433D01*
X0118506Y0266433D01*
X0118506Y0256433D01*
X0118506Y0246433D01*
X0118506Y0266433D02*
X0158506Y0266433D01*
X0163506Y0261433D01*
X0163506Y0251433D01*
X0168506Y0246433D01*
X0187994Y0246433D01*
X0188506Y0245921D01*
X0188506Y0246433D01*
X0283506Y0246433D01*
X0283506Y0256433D01*
X0283506Y0261433D01*
X0288506Y0266433D01*
X0323506Y0266433D01*
X0328506Y0261433D01*
X0328506Y0256433D01*
X0328506Y0246433D01*
X0328506Y0176433D02*
X0313506Y0176433D01*
X0283506Y0176433D01*
X0328506Y0176433D02*
X0328506Y0161433D01*
X0328506Y0176433D02*
X0358506Y0176433D01*
X0358506Y0161433D01*
X0358506Y0091433D02*
X0356006Y0091433D01*
X0356006Y0081433D01*
X0356006Y0063933D01*
X0353506Y0061433D01*
X0221006Y0061433D01*
X0216006Y0066433D01*
X0216006Y0071433D01*
X0186006Y0071433D01*
X0184018Y0073421D01*
X0176006Y0073421D01*
X0161518Y0073421D01*
X0161006Y0073933D01*
X0161006Y0066433D01*
X0156006Y0061433D01*
X0111006Y0061433D01*
X0106006Y0066433D01*
X0106006Y0081433D01*
X0106006Y0091433D01*
X0103506Y0091433D01*
X0103506Y0101433D01*
X0101006Y0103933D01*
X0063506Y0103933D01*
X0058506Y0108933D01*
X0058506Y0146433D01*
X0063506Y0151433D01*
X0118506Y0151433D01*
X0128506Y0161433D01*
X0183506Y0161433D01*
X0188506Y0166433D01*
X0148506Y0176433D02*
X0118506Y0176433D01*
X0103506Y0176433D01*
X0103506Y0161433D01*
X0103506Y0176433D02*
X0073506Y0176433D01*
X0073506Y0161433D01*
X0161006Y0103933D02*
X0161006Y0093933D01*
X0151006Y0083933D01*
X0141306Y0083933D01*
X0216006Y0076433D02*
X0216006Y0071433D01*
X0216006Y0076433D02*
X0219530Y0079957D01*
X0224904Y0079957D01*
X0233506Y0083933D02*
X0238506Y0078933D01*
X0243349Y0078933D01*
X0248506Y0079091D01*
X0244176Y0078421D01*
X0261006Y0078421D01*
X0293506Y0078421D01*
X0233506Y0083933D02*
X0233506Y0093933D01*
X0229530Y0097909D01*
X0224904Y0097909D01*
X0188506Y0226433D02*
X0188506Y0245921D01*
X0188506Y0246433D02*
X0187994Y0246433D01*
D30*
X0148506Y0216433D02*
X0118506Y0216433D01*
X0103506Y0216433D01*
X0073506Y0216433D01*
X0073506Y0196433D02*
X0103506Y0196433D01*
X0118506Y0196433D01*
X0148506Y0196433D01*
X0283506Y0196433D01*
X0313506Y0196433D01*
X0328506Y0196433D01*
X0358506Y0196433D01*
X0358506Y0216433D02*
X0328506Y0216433D01*
X0313506Y0216433D01*
X0283506Y0216433D01*
D31*
X0358506Y0216433D02*
X0383406Y0216433D01*
X0073506Y0216433D02*
X0048606Y0216433D01*
M02*
