G75*
%MOIN*%
%OFA0B0*%
%FSLAX25Y25*%
%IPPOS*%
%LPD*%
%AMOC8*
5,1,8,0,0,1.08239X$1,22.5*
%
%ADD10C,0.15000*%
%ADD11C,0.08600*%
%ADD12R,0.25000X0.20000*%
%ADD13R,0.30000X0.27500*%
%ADD14R,0.07099X0.07887*%
%ADD15R,0.07887X0.07099*%
%ADD16R,0.09461X0.11036*%
%ADD17C,0.06400*%
%ADD18C,0.21800*%
%ADD19R,0.25209X0.22060*%
%ADD20R,0.07099X0.04737*%
%ADD21C,0.10700*%
%ADD22C,0.07200*%
%ADD23R,0.07099X0.08674*%
%ADD24R,0.08674X0.07099*%
%ADD25R,0.03950X0.06312*%
%ADD26C,0.06600*%
%ADD27R,0.03937X0.06299*%
%ADD28R,0.20800X0.09800*%
D10*
X0073506Y0196433D02*
X0358506Y0196433D01*
X0358506Y0216433D02*
X0283506Y0216433D01*
X0148506Y0216433D02*
X0073506Y0216433D01*
D11*
X0051006Y0216433D01*
X0358506Y0216433D02*
X0383506Y0216433D01*
D12*
X0268506Y0138933D03*
D13*
X0196006Y0092683D03*
D14*
X0207994Y0121433D03*
X0219018Y0121433D03*
X0174018Y0121433D03*
X0162994Y0121433D03*
X0129018Y0121433D03*
X0117994Y0121433D03*
X0270494Y0096433D03*
X0281518Y0096433D03*
X0302994Y0121433D03*
X0314018Y0121433D03*
D15*
X0261006Y0089445D03*
X0261006Y0078421D03*
X0208506Y0130921D03*
X0208506Y0141945D03*
X0176006Y0141945D03*
X0176006Y0130921D03*
X0161006Y0130921D03*
X0161006Y0141945D03*
X0131006Y0141945D03*
X0131006Y0130921D03*
X0176006Y0084445D03*
X0176006Y0073421D03*
X0256006Y0163421D03*
X0256006Y0174445D03*
X0188506Y0245921D03*
X0188506Y0256945D03*
D16*
X0248506Y0098776D03*
X0248506Y0079091D03*
D17*
X0323206Y0081433D02*
X0328806Y0081433D01*
X0353206Y0081433D02*
X0358806Y0081433D01*
X0161006Y0076733D02*
X0161006Y0071133D01*
X0161006Y0101133D02*
X0161006Y0106733D01*
X0108806Y0081433D02*
X0103206Y0081433D01*
X0078806Y0081433D02*
X0073206Y0081433D01*
X0070706Y0256433D02*
X0076306Y0256433D01*
X0100706Y0256433D02*
X0106306Y0256433D01*
X0115706Y0256433D02*
X0121306Y0256433D01*
X0145706Y0256433D02*
X0151306Y0256433D01*
X0280706Y0256433D02*
X0286306Y0256433D01*
X0310706Y0256433D02*
X0316306Y0256433D01*
X0325706Y0256433D02*
X0331306Y0256433D01*
X0355706Y0256433D02*
X0361306Y0256433D01*
D18*
X0056006Y0071433D03*
X0056006Y0268933D03*
X0376006Y0268933D03*
X0376006Y0071433D03*
D19*
X0196164Y0088933D03*
D20*
X0224904Y0079957D03*
X0224904Y0097909D03*
D21*
X0141306Y0088883D02*
X0141306Y0078983D01*
X0125706Y0078983D02*
X0125706Y0088883D01*
D22*
X0106706Y0091433D02*
X0100306Y0091433D01*
X0076706Y0091433D02*
X0070306Y0091433D01*
X0070306Y0121433D02*
X0076706Y0121433D01*
X0100306Y0121433D02*
X0106706Y0121433D01*
X0106706Y0141433D02*
X0100306Y0141433D01*
X0076706Y0141433D02*
X0070306Y0141433D01*
X0070306Y0161433D02*
X0076706Y0161433D01*
X0076706Y0176433D02*
X0070306Y0176433D01*
X0100306Y0176433D02*
X0106706Y0176433D01*
X0115306Y0176433D02*
X0121706Y0176433D01*
X0106706Y0161433D02*
X0100306Y0161433D01*
X0145306Y0176433D02*
X0151706Y0176433D01*
X0151706Y0196433D02*
X0145306Y0196433D01*
X0121706Y0196433D02*
X0115306Y0196433D01*
X0106706Y0196433D02*
X0100306Y0196433D01*
X0076706Y0196433D02*
X0070306Y0196433D01*
X0070306Y0216433D02*
X0076706Y0216433D01*
X0100306Y0216433D02*
X0106706Y0216433D01*
X0115306Y0216433D02*
X0121706Y0216433D01*
X0145306Y0216433D02*
X0151706Y0216433D01*
X0151706Y0246433D02*
X0145306Y0246433D01*
X0121706Y0246433D02*
X0115306Y0246433D01*
X0106706Y0246433D02*
X0100306Y0246433D01*
X0076706Y0246433D02*
X0070306Y0246433D01*
X0280306Y0246433D02*
X0286706Y0246433D01*
X0310306Y0246433D02*
X0316706Y0246433D01*
X0325306Y0246433D02*
X0331706Y0246433D01*
X0355306Y0246433D02*
X0361706Y0246433D01*
X0361706Y0216433D02*
X0355306Y0216433D01*
X0331706Y0216433D02*
X0325306Y0216433D01*
X0316706Y0216433D02*
X0310306Y0216433D01*
X0286706Y0216433D02*
X0280306Y0216433D01*
X0280306Y0196433D02*
X0286706Y0196433D01*
X0310306Y0196433D02*
X0316706Y0196433D01*
X0325306Y0196433D02*
X0331706Y0196433D01*
X0355306Y0196433D02*
X0361706Y0196433D01*
X0361706Y0176433D02*
X0355306Y0176433D01*
X0355306Y0161433D02*
X0361706Y0161433D01*
X0361706Y0141433D02*
X0355306Y0141433D01*
X0331706Y0141433D02*
X0325306Y0141433D01*
X0325306Y0121433D02*
X0331706Y0121433D01*
X0355306Y0121433D02*
X0361706Y0121433D01*
X0361706Y0091433D02*
X0355306Y0091433D01*
X0331706Y0091433D02*
X0325306Y0091433D01*
X0325306Y0161433D02*
X0331706Y0161433D01*
X0331706Y0176433D02*
X0325306Y0176433D01*
X0316706Y0176433D02*
X0310306Y0176433D01*
X0286706Y0176433D02*
X0280306Y0176433D01*
D23*
X0196518Y0121433D03*
X0185494Y0121433D03*
X0151518Y0121433D03*
X0140494Y0121433D03*
D24*
X0246006Y0130921D03*
X0246006Y0141945D03*
X0246006Y0150921D03*
X0246006Y0161945D03*
X0293506Y0109445D03*
X0293506Y0098421D03*
X0293506Y0089445D03*
X0293506Y0078421D03*
D25*
X0274408Y0121134D03*
X0262605Y0121134D03*
D26*
X0267406Y0128349D02*
X0269606Y0128349D01*
X0267406Y0128349D02*
X0267406Y0136919D01*
X0269606Y0136919D01*
X0269606Y0128349D01*
X0269606Y0134948D02*
X0267406Y0134948D01*
D27*
X0268506Y0121138D03*
D28*
X0383406Y0199033D03*
X0383406Y0216433D03*
X0383406Y0233833D03*
X0048606Y0233833D03*
X0048606Y0216433D03*
X0048606Y0199033D03*
M02*
