G75*
%MOIN*%
%OFA0B0*%
%FSLAX25Y25*%
%IPPOS*%
%LPD*%
%AMOC8*
5,1,8,0,0,1.08239X$1,22.5*
%
%ADD10C,0.10000*%
%ADD11R,0.20000X0.18750*%
%ADD12R,0.28750X0.27500*%
%ADD13R,0.13750X0.20000*%
%ADD14R,0.07887X0.07099*%
%ADD15R,0.07099X0.07887*%
%ADD16R,0.10643X0.08477*%
%ADD17C,0.06400*%
%ADD18C,0.21800*%
%ADD19R,0.25209X0.22060*%
%ADD20R,0.07099X0.04737*%
%ADD21C,0.10700*%
%ADD22C,0.08600*%
%ADD23OC8,0.05562*%
%ADD24R,0.07099X0.08674*%
%ADD25R,0.08674X0.07099*%
%ADD26R,0.03950X0.06312*%
%ADD27C,0.06600*%
%ADD28R,0.03937X0.06299*%
%ADD29R,0.09800X0.20800*%
D10*
X0063233Y0055006D02*
X0063233Y0066256D01*
X0056983Y0072506D01*
X0048233Y0072506D01*
X0039483Y0081256D01*
X0039483Y0122506D01*
X0059483Y0136256D02*
X0059483Y0087506D01*
X0079483Y0087506D01*
X0103233Y0063756D01*
X0293233Y0063756D01*
X0318233Y0088756D01*
X0336983Y0088756D01*
X0336983Y0085006D02*
X0336983Y0136256D01*
X0356983Y0122506D02*
X0356983Y0082506D01*
X0346983Y0072506D01*
X0340733Y0072506D01*
X0333233Y0065006D01*
X0333233Y0053756D01*
X0059483Y0085006D02*
X0059483Y0087506D01*
D11*
X0228233Y0205631D03*
D12*
X0223858Y0110006D03*
D13*
X0043858Y0055006D03*
X0082608Y0055006D03*
X0313858Y0055006D03*
X0352608Y0055006D03*
D14*
X0185733Y0129494D03*
X0175733Y0129494D03*
X0175733Y0140518D03*
X0185733Y0140518D03*
X0180733Y0158244D03*
X0170733Y0158244D03*
X0170733Y0169268D03*
X0180733Y0169268D03*
X0210733Y0169268D03*
X0210733Y0178244D03*
X0210733Y0189268D03*
X0210733Y0158244D03*
X0140733Y0158244D03*
X0140733Y0169268D03*
X0140733Y0178244D03*
X0140733Y0189268D03*
D15*
X0170222Y0178756D03*
X0181245Y0178756D03*
X0245222Y0188756D03*
X0256245Y0188756D03*
X0257722Y0148756D03*
X0268745Y0148756D03*
X0268745Y0138756D03*
X0257722Y0138756D03*
X0211245Y0138756D03*
X0200222Y0138756D03*
D16*
X0244483Y0102260D03*
X0244483Y0090252D03*
D17*
X0265733Y0091556D02*
X0265733Y0085956D01*
X0265733Y0115956D02*
X0265733Y0121556D01*
X0185733Y0121556D02*
X0185733Y0115956D01*
X0185733Y0091556D02*
X0185733Y0085956D01*
X0130733Y0085956D02*
X0130733Y0091556D01*
X0130733Y0115956D02*
X0130733Y0121556D01*
X0130733Y0170956D02*
X0130733Y0176556D01*
X0130733Y0200956D02*
X0130733Y0206556D01*
X0265733Y0206556D02*
X0265733Y0200956D01*
X0265733Y0176556D02*
X0265733Y0170956D01*
D18*
X0373233Y0233756D03*
X0373233Y0061256D03*
X0023233Y0061256D03*
X0023233Y0233756D03*
D19*
X0224326Y0110006D03*
D20*
X0195586Y0118982D03*
X0195586Y0101030D03*
D21*
X0169783Y0103706D02*
X0169783Y0093806D01*
X0154183Y0093806D02*
X0154183Y0103706D01*
D22*
X0118233Y0114356D02*
X0118233Y0122156D01*
X0118233Y0092656D02*
X0118233Y0084856D01*
X0059133Y0084856D02*
X0059133Y0092656D01*
X0039533Y0092656D02*
X0039533Y0084856D01*
X0019833Y0084856D02*
X0019833Y0092656D01*
X0019833Y0114356D02*
X0019833Y0122156D01*
X0039533Y0122156D02*
X0039533Y0114356D01*
X0059133Y0114356D02*
X0059133Y0122156D01*
X0059133Y0169856D02*
X0059133Y0177656D01*
X0039533Y0177656D02*
X0039533Y0169856D01*
X0019833Y0169856D02*
X0019833Y0177656D01*
X0019833Y0199356D02*
X0019833Y0207156D01*
X0039533Y0207156D02*
X0039533Y0199356D01*
X0059133Y0199356D02*
X0059133Y0207156D01*
X0118233Y0207156D02*
X0118233Y0199356D01*
X0118233Y0177656D02*
X0118233Y0169856D01*
X0278233Y0170356D02*
X0278233Y0178156D01*
X0278233Y0199856D02*
X0278233Y0207656D01*
X0337333Y0207656D02*
X0337333Y0199856D01*
X0356933Y0199856D02*
X0356933Y0207656D01*
X0376633Y0207656D02*
X0376633Y0199856D01*
X0376633Y0178156D02*
X0376633Y0170356D01*
X0356933Y0170356D02*
X0356933Y0178156D01*
X0337333Y0178156D02*
X0337333Y0170356D01*
X0337333Y0122656D02*
X0337333Y0114856D01*
X0356933Y0114856D02*
X0356933Y0122656D01*
X0376633Y0122656D02*
X0376633Y0114856D01*
X0376633Y0093156D02*
X0376633Y0085356D01*
X0356933Y0085356D02*
X0356933Y0093156D01*
X0337333Y0093156D02*
X0337333Y0085356D01*
X0278233Y0085356D02*
X0278233Y0093156D01*
X0278233Y0114856D02*
X0278233Y0122656D01*
D23*
X0337485Y0136472D03*
X0368981Y0151039D03*
X0351481Y0221472D03*
X0319985Y0236039D03*
X0076481Y0236039D03*
X0044985Y0221472D03*
X0027485Y0151039D03*
X0058981Y0136472D03*
D24*
X0150222Y0178756D03*
X0161245Y0178756D03*
X0190222Y0178756D03*
X0201245Y0178756D03*
D25*
X0223233Y0169268D03*
X0223233Y0158244D03*
X0223233Y0149268D03*
X0223233Y0138244D03*
X0245733Y0138244D03*
X0245733Y0149268D03*
X0245733Y0158244D03*
X0245733Y0169268D03*
D26*
X0234135Y0188457D03*
X0222332Y0188457D03*
D27*
X0227133Y0195672D02*
X0229333Y0195672D01*
X0227133Y0195672D02*
X0227133Y0204242D01*
X0229333Y0204242D01*
X0229333Y0195672D01*
X0229333Y0202271D02*
X0227133Y0202271D01*
D28*
X0228233Y0188461D03*
D29*
X0315833Y0053856D03*
X0333233Y0053856D03*
X0350633Y0053856D03*
X0080633Y0053856D03*
X0063233Y0053856D03*
X0045833Y0053856D03*
M02*
