%
M48
M72
T01C0.02362
T02C0.03200
T03C0.05200
T04C0.06600
T05C0.11024
%
T01
X43233Y46256
X48233Y46256
X48233Y51256
X43233Y51256
X38233Y50006
X38233Y56256
X43233Y56256
X48233Y56256
X48233Y61256
X43233Y61256
X78233Y61256
X83233Y61256
X86983Y61256
X86983Y56256
X83233Y56256
X78233Y56256
X78233Y51256
X83233Y51256
X83233Y46256
X78233Y46256
X88233Y47506
X89483Y52506
X95733Y52506
X103233Y52506
X110733Y52506
X118233Y52506
X125733Y52506
X133233Y52506
X140733Y52506
X148233Y52506
X155733Y52506
X163233Y52506
X170733Y52506
X178233Y52506
X185733Y52506
X193233Y52506
X200733Y52506
X208233Y52506
X215733Y52506
X223233Y52506
X230733Y52506
X238233Y52506
X245733Y52506
X253233Y52506
X260733Y52506
X268233Y52506
X275733Y52506
X283233Y52506
X290733Y52506
X298233Y52506
X304483Y52506
X308233Y48756
X313233Y51256
X318233Y51256
X318233Y56256
X313233Y56256
X308233Y56256
X308233Y61256
X313233Y61256
X318233Y61256
X318233Y46256
X313233Y46256
X348233Y46256
X353233Y46256
X359483Y50006
X353233Y51256
X348233Y51256
X348233Y56256
X353233Y56256
X358233Y55006
X353233Y61256
X348233Y61256
X300733Y87506
X295733Y82506
X289483Y77506
X283233Y75006
X275733Y75006
X268233Y75006
X260733Y75006
X253233Y75006
X245733Y75006
X238233Y75006
X230733Y75006
X223233Y75006
X215733Y75006
X208233Y75006
X200733Y75006
X193233Y75006
X185733Y75006
X178233Y75006
X170733Y75006
X163233Y75006
X155733Y75006
X148233Y75006
X140733Y75006
X133233Y75006
X125733Y75006
X118233Y75006
X110733Y75006
X105733Y77506
X100733Y82506
X95733Y87506
X90733Y92506
X85733Y97506
X79483Y98756
X70733Y98756
X70733Y106256
X70733Y113756
X70733Y121256
X70733Y128756
X70733Y136256
X58981Y136472
X48233Y138756
X46983Y133756
X40733Y133756
X38233Y140006
X38233Y147506
X27485Y151039
X38233Y156256
X50733Y165006
X50733Y177506
X69483Y178756
X75733Y178756
X81983Y178756
X88233Y178756
X88233Y172506
X88233Y166256
X88233Y158756
X88233Y151256
X88233Y143756
X88233Y136256
X88233Y128756
X88233Y121256
X88233Y113756
X88233Y106256
X136983Y138756
X136983Y145006
X143233Y138756
X149483Y138756
X155733Y138756
X161983Y138756
X168233Y138756
X173233Y147506
X175733Y152506
X179483Y147506
X185733Y147506
X186983Y152506
X188233Y157506
X193233Y157506
X198233Y157506
X203233Y157506
X204483Y152506
X198233Y147506
X193233Y141256
X193233Y136256
X210733Y147506
X213233Y151256
X234483Y148756
X234483Y156256
X234483Y163756
X234483Y171256
X231983Y177506
X228233Y182506
X228233Y193756
X228233Y198756
X234483Y198756
X240733Y198756
X245733Y198756
X245733Y205006
X245733Y211256
X245733Y217506
X245733Y225006
X254483Y225006
X261983Y225006
X269483Y225006
X278233Y225006
X285733Y225006
X293233Y225006
X301983Y225006
X301983Y217506
X301983Y211256
X301983Y205006
X301983Y198756
X308233Y198756
X314483Y198756
X320733Y198756
X326983Y198756
X345733Y198756
X345733Y211256
X341983Y218756
X351481Y221472
X341983Y228756
X350733Y232506
X358233Y231256
X373233Y217506
X383233Y217506
X366983Y196256
X366983Y190006
X366983Y183756
X345733Y178756
X326983Y178756
X320733Y178756
X314483Y178756
X308233Y178756
X301983Y178756
X301983Y172506
X301983Y166256
X301983Y160006
X301983Y152506
X301983Y145006
X301983Y137506
X301983Y130006
X301983Y122506
X301983Y115006
X301983Y107506
X301983Y101256
X310733Y97506
X305733Y92506
X318233Y100006
X324483Y101256
X324483Y107506
X324483Y115006
X324483Y122506
X324483Y130006
X324483Y137506
X326983Y143756
X333233Y147506
X341983Y147506
X348233Y142506
X359483Y140006
X355733Y135006
X349483Y133756
X337485Y136472
X359483Y147506
X368981Y151039
X359483Y155006
X361983Y161256
X366983Y166256
X350733Y161256
X345733Y166256
X379483Y148756
X383233Y145006
X379483Y142506
X383233Y138756
X383233Y153756
X280733Y153756
X275733Y151256
X280733Y147506
X275733Y145006
X280733Y141256
X275733Y138756
X280733Y135006
X275733Y132506
X268233Y132506
X245733Y121256
X245733Y116256
X245733Y110006
X233233Y110006
X226983Y110006
X220733Y110006
X214483Y110006
X214483Y116256
X220733Y116256
X220733Y121256
X214483Y121256
X226983Y121256
X233233Y121256
X239483Y121256
X234483Y126256
X234483Y133756
X234483Y141256
X268233Y155006
X233233Y116256
X226983Y116256
X226983Y103756
X233233Y103756
X233233Y98756
X226983Y98756
X220733Y98756
X214483Y98756
X214483Y103756
X220733Y103756
X168233Y151256
X161983Y151256
X161983Y157506
X155733Y157506
X149483Y157506
X149483Y151256
X143233Y151256
X136983Y151256
X105733Y173756
X88233Y200006
X81983Y200006
X75733Y200006
X69483Y200006
X50733Y200006
X50733Y212506
X56983Y216256
X44985Y221472
X56983Y223756
X51983Y232506
X40733Y232506
X43233Y245006
X35733Y245006
X50733Y245006
X58233Y245006
X65733Y245006
X73233Y245006
X80733Y245006
X88233Y245006
X95733Y245006
X103233Y245006
X110733Y245006
X118233Y245006
X125733Y245006
X133233Y245006
X140733Y245006
X148233Y245006
X155733Y245006
X163233Y245006
X170733Y245006
X178233Y245006
X185733Y245006
X193233Y245006
X200733Y245006
X210733Y245006
X221983Y245006
X234483Y245006
X245733Y245006
X254483Y245006
X261983Y245006
X269483Y245006
X278233Y245006
X285733Y245006
X293233Y245006
X301983Y245006
X310733Y245006
X319483Y245006
X328233Y245006
X336983Y245006
X345733Y245006
X353233Y245006
X360733Y245006
X319985Y236039
X234483Y211256
X228233Y211256
X221983Y211256
X221983Y205006
X228233Y205006
X234483Y205006
X221983Y198756
X215733Y198756
X210733Y198756
X210733Y205006
X210733Y211256
X210733Y217506
X210733Y225006
X200733Y225006
X193233Y225006
X185733Y225006
X178233Y225006
X170733Y225006
X163233Y225006
X155733Y225006
X148233Y225006
X140733Y225006
X133233Y225006
X125733Y225006
X118233Y225006
X110733Y225006
X103233Y225006
X95733Y225006
X88233Y225006
X88233Y218756
X88233Y212506
X88233Y206256
X76481Y236039
X21983Y217506
X11983Y217506
X29483Y201256
X29483Y195006
X29483Y188756
X29483Y182506
X29483Y166256
X11983Y153756
X16983Y150006
X11983Y146256
X16983Y142506
X11983Y138756
X50733Y145006
X58233Y147506
X64483Y147506
X69483Y143756
T02
X130733Y118756
X130733Y88756
X185733Y88756
X185733Y118756
X265733Y118756
X265733Y88756
X265733Y173756
X265733Y203756
X130733Y203756
X130733Y173756
T03
X118233Y173756
X118233Y203256
X59133Y203256
X39533Y203256
X19833Y203256
X19833Y173756
X39533Y173756
X59133Y173756
X59133Y118256
X39533Y118256
X19833Y118256
X19833Y88756
X39533Y88756
X59133Y88756
X118233Y88756
X118233Y118256
X278233Y118756
X278233Y89256
X337333Y89256
X356933Y89256
X376633Y89256
X376633Y118756
X356933Y118756
X337333Y118756
X337333Y174256
X356933Y174256
X376633Y174256
X376633Y203756
X356933Y203756
X337333Y203756
X278233Y203756
X278233Y174256
T04
X169783Y98756
X154183Y98756
T05
X23233Y61256
X23233Y233756
X373233Y233756
X373233Y61256
M30
