G75*
%MOIN*%
%OFA0B0*%
%FSLAX25Y25*%
%IPPOS*%
%LPD*%
%AMOC8*
5,1,8,0,0,1.08239X$1,22.5*
%
%ADD10C,0.05600*%
%ADD11C,0.21000*%
%ADD12C,0.09900*%
%ADD13C,0.07800*%
%ADD14OC8,0.04762*%
%ADD15R,0.09000X0.20000*%
%ADD16C,0.01000*%
%ADD17OC8,0.04362*%
%ADD18C,0.05000*%
%ADD19C,0.10000*%
%ADD20C,0.06600*%
%ADD21C,0.03200*%
%ADD22C,0.04000*%
%ADD23OC8,0.05000*%
D10*
X0130733Y0085956D02*
X0130733Y0091556D01*
X0130733Y0115956D02*
X0130733Y0121556D01*
X0185733Y0121556D02*
X0185733Y0115956D01*
X0185733Y0091556D02*
X0185733Y0085956D01*
X0265733Y0085956D02*
X0265733Y0091556D01*
X0265733Y0115956D02*
X0265733Y0121556D01*
X0265733Y0170956D02*
X0265733Y0176556D01*
X0265733Y0200956D02*
X0265733Y0206556D01*
X0130733Y0206556D02*
X0130733Y0200956D01*
X0130733Y0176556D02*
X0130733Y0170956D01*
D11*
X0023233Y0233756D03*
X0023233Y0061256D03*
X0373233Y0061256D03*
X0373233Y0233756D03*
D12*
X0169783Y0103706D02*
X0169783Y0093806D01*
X0154183Y0093806D02*
X0154183Y0103706D01*
D13*
X0118233Y0114356D02*
X0118233Y0122156D01*
X0118233Y0092656D02*
X0118233Y0084856D01*
X0059133Y0084856D02*
X0059133Y0092656D01*
X0039533Y0092656D02*
X0039533Y0084856D01*
X0019833Y0084856D02*
X0019833Y0092656D01*
X0019833Y0114356D02*
X0019833Y0122156D01*
X0039533Y0122156D02*
X0039533Y0114356D01*
X0059133Y0114356D02*
X0059133Y0122156D01*
X0059133Y0169856D02*
X0059133Y0177656D01*
X0039533Y0177656D02*
X0039533Y0169856D01*
X0019833Y0169856D02*
X0019833Y0177656D01*
X0019833Y0199356D02*
X0019833Y0207156D01*
X0039533Y0207156D02*
X0039533Y0199356D01*
X0059133Y0199356D02*
X0059133Y0207156D01*
X0118233Y0207156D02*
X0118233Y0199356D01*
X0118233Y0177656D02*
X0118233Y0169856D01*
X0278233Y0170356D02*
X0278233Y0178156D01*
X0278233Y0199856D02*
X0278233Y0207656D01*
X0337333Y0207656D02*
X0337333Y0199856D01*
X0356933Y0199856D02*
X0356933Y0207656D01*
X0376633Y0207656D02*
X0376633Y0199856D01*
X0376633Y0178156D02*
X0376633Y0170356D01*
X0356933Y0170356D02*
X0356933Y0178156D01*
X0337333Y0178156D02*
X0337333Y0170356D01*
X0337333Y0122656D02*
X0337333Y0114856D01*
X0356933Y0114856D02*
X0356933Y0122656D01*
X0376633Y0122656D02*
X0376633Y0114856D01*
X0376633Y0093156D02*
X0376633Y0085356D01*
X0356933Y0085356D02*
X0356933Y0093156D01*
X0337333Y0093156D02*
X0337333Y0085356D01*
X0278233Y0085356D02*
X0278233Y0093156D01*
X0278233Y0114856D02*
X0278233Y0122656D01*
D14*
X0337485Y0136472D03*
X0368981Y0151039D03*
X0351481Y0221472D03*
X0319985Y0236039D03*
X0076481Y0236039D03*
X0044985Y0221472D03*
X0027485Y0151039D03*
X0058981Y0136472D03*
D15*
X0045833Y0053856D03*
X0080633Y0053856D03*
X0315833Y0053856D03*
X0350633Y0053856D03*
D16*
X0010233Y0048256D02*
X0010233Y0247957D01*
X0386155Y0247957D01*
X0386155Y0048256D01*
X0356633Y0048256D01*
X0356633Y0053356D01*
X0351133Y0053356D01*
X0351133Y0048256D01*
X0350133Y0048256D01*
X0350133Y0053356D01*
X0344633Y0053356D01*
X0344633Y0048256D01*
X0321833Y0048256D01*
X0321833Y0053356D01*
X0316333Y0053356D01*
X0316333Y0048256D01*
X0315333Y0048256D01*
X0315333Y0053356D01*
X0309833Y0053356D01*
X0309833Y0048256D01*
X0086633Y0048256D01*
X0086633Y0053356D01*
X0081133Y0053356D01*
X0081133Y0048256D01*
X0080133Y0048256D01*
X0080133Y0053356D01*
X0074633Y0053356D01*
X0074633Y0048256D01*
X0051833Y0048256D01*
X0051833Y0053356D01*
X0046333Y0053356D01*
X0046333Y0048256D01*
X0045333Y0048256D01*
X0045333Y0053356D01*
X0039833Y0053356D01*
X0039833Y0048256D01*
X0010233Y0048256D01*
X0010233Y0048748D02*
X0039833Y0048748D01*
X0039833Y0049747D02*
X0026676Y0049747D01*
X0026561Y0049707D02*
X0027833Y0050152D01*
X0029047Y0050737D01*
X0030188Y0051454D01*
X0031242Y0052294D01*
X0032195Y0053247D01*
X0033035Y0054301D01*
X0033753Y0055442D01*
X0034337Y0056656D01*
X0034782Y0057929D01*
X0035082Y0059243D01*
X0035233Y0060582D01*
X0035233Y0060756D01*
X0023733Y0060756D01*
X0023733Y0049256D01*
X0023907Y0049256D01*
X0025247Y0049407D01*
X0026561Y0049707D01*
X0029061Y0050745D02*
X0039833Y0050745D01*
X0039833Y0051744D02*
X0030552Y0051744D01*
X0031690Y0052743D02*
X0039833Y0052743D01*
X0039833Y0054356D02*
X0045333Y0054356D01*
X0045333Y0053356D01*
X0046333Y0053356D01*
X0046333Y0054356D01*
X0045333Y0054356D01*
X0045333Y0065356D01*
X0041136Y0065356D01*
X0040754Y0065254D01*
X0040412Y0065056D01*
X0040133Y0064777D01*
X0039936Y0064435D01*
X0039833Y0064053D01*
X0039833Y0054356D01*
X0039833Y0054740D02*
X0033311Y0054740D01*
X0033895Y0055738D02*
X0039833Y0055738D01*
X0039833Y0056737D02*
X0034365Y0056737D01*
X0034715Y0057735D02*
X0039833Y0057735D01*
X0039833Y0058734D02*
X0034966Y0058734D01*
X0035138Y0059732D02*
X0039833Y0059732D01*
X0039833Y0060731D02*
X0035233Y0060731D01*
X0035233Y0061756D02*
X0035233Y0061930D01*
X0035082Y0063269D01*
X0034782Y0064583D01*
X0034337Y0065855D01*
X0033753Y0067070D01*
X0033035Y0068211D01*
X0032195Y0069265D01*
X0031242Y0070218D01*
X0030188Y0071058D01*
X0029047Y0071775D01*
X0027833Y0072360D01*
X0026561Y0072805D01*
X0025247Y0073105D01*
X0023907Y0073256D01*
X0023733Y0073256D01*
X0023733Y0061756D01*
X0022733Y0061756D01*
X0022733Y0060756D01*
X0011233Y0060756D01*
X0011233Y0060582D01*
X0011384Y0059243D01*
X0011684Y0057929D01*
X0012129Y0056656D01*
X0012714Y0055442D01*
X0013431Y0054301D01*
X0014272Y0053247D01*
X0015225Y0052294D01*
X0016278Y0051454D01*
X0017420Y0050737D01*
X0018634Y0050152D01*
X0019906Y0049707D01*
X0021220Y0049407D01*
X0022559Y0049256D01*
X0022733Y0049256D01*
X0022733Y0060756D01*
X0023733Y0060756D01*
X0023733Y0061756D01*
X0035233Y0061756D01*
X0035143Y0062728D02*
X0039833Y0062728D01*
X0039833Y0063726D02*
X0034978Y0063726D01*
X0034733Y0064725D02*
X0040103Y0064725D01*
X0039833Y0061729D02*
X0023733Y0061729D01*
X0023733Y0060731D02*
X0022733Y0060731D01*
X0022733Y0061729D02*
X0010233Y0061729D01*
X0010233Y0060731D02*
X0011233Y0060731D01*
X0011329Y0059732D02*
X0010233Y0059732D01*
X0010233Y0058734D02*
X0011500Y0058734D01*
X0011752Y0057735D02*
X0010233Y0057735D01*
X0010233Y0056737D02*
X0012101Y0056737D01*
X0012572Y0055738D02*
X0010233Y0055738D01*
X0010233Y0054740D02*
X0013156Y0054740D01*
X0013878Y0053741D02*
X0010233Y0053741D01*
X0010233Y0052743D02*
X0014776Y0052743D01*
X0015914Y0051744D02*
X0010233Y0051744D01*
X0010233Y0050745D02*
X0017406Y0050745D01*
X0019791Y0049747D02*
X0010233Y0049747D01*
X0022733Y0049747D02*
X0023733Y0049747D01*
X0023733Y0050745D02*
X0022733Y0050745D01*
X0022733Y0051744D02*
X0023733Y0051744D01*
X0023733Y0052743D02*
X0022733Y0052743D01*
X0022733Y0053741D02*
X0023733Y0053741D01*
X0023733Y0054740D02*
X0022733Y0054740D01*
X0022733Y0055738D02*
X0023733Y0055738D01*
X0023733Y0056737D02*
X0022733Y0056737D01*
X0022733Y0057735D02*
X0023733Y0057735D01*
X0023733Y0058734D02*
X0022733Y0058734D01*
X0022733Y0059732D02*
X0023733Y0059732D01*
X0022733Y0061756D02*
X0011233Y0061756D01*
X0011233Y0061930D01*
X0011384Y0063269D01*
X0011684Y0064583D01*
X0012129Y0065855D01*
X0012714Y0067070D01*
X0013431Y0068211D01*
X0014272Y0069265D01*
X0015225Y0070218D01*
X0016278Y0071058D01*
X0017420Y0071775D01*
X0018634Y0072360D01*
X0019906Y0072805D01*
X0021220Y0073105D01*
X0022559Y0073256D01*
X0022733Y0073256D01*
X0022733Y0061756D01*
X0022733Y0062728D02*
X0023733Y0062728D01*
X0023733Y0063726D02*
X0022733Y0063726D01*
X0022733Y0064725D02*
X0023733Y0064725D01*
X0023733Y0065723D02*
X0022733Y0065723D01*
X0022733Y0066722D02*
X0023733Y0066722D01*
X0023733Y0067720D02*
X0022733Y0067720D01*
X0022733Y0068719D02*
X0023733Y0068719D01*
X0023733Y0069717D02*
X0022733Y0069717D01*
X0022733Y0070716D02*
X0023733Y0070716D01*
X0023733Y0071714D02*
X0022733Y0071714D01*
X0022733Y0072713D02*
X0023733Y0072713D01*
X0026824Y0072713D02*
X0369642Y0072713D01*
X0369906Y0072805D02*
X0368634Y0072360D01*
X0367420Y0071775D01*
X0366278Y0071058D01*
X0365225Y0070218D01*
X0364272Y0069265D01*
X0363431Y0068211D01*
X0362714Y0067070D01*
X0362129Y0065855D01*
X0361684Y0064583D01*
X0361384Y0063269D01*
X0361233Y0061930D01*
X0361233Y0061756D01*
X0372733Y0061756D01*
X0372733Y0060756D01*
X0361233Y0060756D01*
X0361233Y0060582D01*
X0361384Y0059243D01*
X0361684Y0057929D01*
X0362129Y0056656D01*
X0362714Y0055442D01*
X0363431Y0054301D01*
X0364272Y0053247D01*
X0365225Y0052294D01*
X0366278Y0051454D01*
X0367420Y0050737D01*
X0368634Y0050152D01*
X0369906Y0049707D01*
X0371220Y0049407D01*
X0372559Y0049256D01*
X0372733Y0049256D01*
X0372733Y0060756D01*
X0373733Y0060756D01*
X0373733Y0049256D01*
X0373907Y0049256D01*
X0375247Y0049407D01*
X0376561Y0049707D01*
X0377833Y0050152D01*
X0379047Y0050737D01*
X0380188Y0051454D01*
X0381242Y0052294D01*
X0382195Y0053247D01*
X0383035Y0054301D01*
X0383753Y0055442D01*
X0384337Y0056656D01*
X0384782Y0057929D01*
X0385082Y0059243D01*
X0385233Y0060582D01*
X0385233Y0060756D01*
X0373733Y0060756D01*
X0373733Y0061756D01*
X0372733Y0061756D01*
X0372733Y0073256D01*
X0372559Y0073256D01*
X0371220Y0073105D01*
X0369906Y0072805D01*
X0367323Y0071714D02*
X0029144Y0071714D01*
X0030618Y0070716D02*
X0365849Y0070716D01*
X0364724Y0069717D02*
X0031743Y0069717D01*
X0032631Y0068719D02*
X0363836Y0068719D01*
X0363123Y0067720D02*
X0033344Y0067720D01*
X0033920Y0066722D02*
X0362547Y0066722D01*
X0362083Y0065723D02*
X0034384Y0065723D01*
X0045333Y0064725D02*
X0046333Y0064725D01*
X0046333Y0065356D02*
X0046333Y0054356D01*
X0051833Y0054356D01*
X0051833Y0064053D01*
X0051731Y0064435D01*
X0051534Y0064777D01*
X0051254Y0065056D01*
X0050912Y0065254D01*
X0050531Y0065356D01*
X0046333Y0065356D01*
X0046333Y0063726D02*
X0045333Y0063726D01*
X0045333Y0062728D02*
X0046333Y0062728D01*
X0046333Y0061729D02*
X0045333Y0061729D01*
X0045333Y0060731D02*
X0046333Y0060731D01*
X0046333Y0059732D02*
X0045333Y0059732D01*
X0045333Y0058734D02*
X0046333Y0058734D01*
X0046333Y0057735D02*
X0045333Y0057735D01*
X0045333Y0056737D02*
X0046333Y0056737D01*
X0046333Y0055738D02*
X0045333Y0055738D01*
X0045333Y0054740D02*
X0046333Y0054740D01*
X0046333Y0053741D02*
X0080133Y0053741D01*
X0080133Y0053356D02*
X0080133Y0054356D01*
X0074633Y0054356D01*
X0074633Y0064053D01*
X0074736Y0064435D01*
X0074933Y0064777D01*
X0075212Y0065056D01*
X0075554Y0065254D01*
X0075936Y0065356D01*
X0080133Y0065356D01*
X0080133Y0054356D01*
X0081133Y0054356D01*
X0081133Y0065356D01*
X0085331Y0065356D01*
X0085712Y0065254D01*
X0086054Y0065056D01*
X0086334Y0064777D01*
X0086531Y0064435D01*
X0086633Y0064053D01*
X0086633Y0054356D01*
X0081133Y0054356D01*
X0081133Y0053356D01*
X0080133Y0053356D01*
X0080133Y0052743D02*
X0081133Y0052743D01*
X0081133Y0053741D02*
X0315333Y0053741D01*
X0315333Y0053356D02*
X0315333Y0054356D01*
X0309833Y0054356D01*
X0309833Y0064053D01*
X0309936Y0064435D01*
X0310133Y0064777D01*
X0310412Y0065056D01*
X0310754Y0065254D01*
X0311136Y0065356D01*
X0315333Y0065356D01*
X0315333Y0054356D01*
X0316333Y0054356D01*
X0316333Y0065356D01*
X0320531Y0065356D01*
X0320912Y0065254D01*
X0321254Y0065056D01*
X0321534Y0064777D01*
X0321731Y0064435D01*
X0321833Y0064053D01*
X0321833Y0054356D01*
X0316333Y0054356D01*
X0316333Y0053356D01*
X0315333Y0053356D01*
X0315333Y0052743D02*
X0316333Y0052743D01*
X0316333Y0053741D02*
X0350133Y0053741D01*
X0350133Y0053356D02*
X0350133Y0054356D01*
X0344633Y0054356D01*
X0344633Y0064053D01*
X0344736Y0064435D01*
X0344933Y0064777D01*
X0345212Y0065056D01*
X0345554Y0065254D01*
X0345936Y0065356D01*
X0350133Y0065356D01*
X0350133Y0054356D01*
X0351133Y0054356D01*
X0351133Y0065356D01*
X0355331Y0065356D01*
X0355712Y0065254D01*
X0356054Y0065056D01*
X0356334Y0064777D01*
X0356531Y0064435D01*
X0356633Y0064053D01*
X0356633Y0054356D01*
X0351133Y0054356D01*
X0351133Y0053356D01*
X0350133Y0053356D01*
X0350133Y0052743D02*
X0351133Y0052743D01*
X0351133Y0053741D02*
X0363878Y0053741D01*
X0363156Y0054740D02*
X0356633Y0054740D01*
X0356633Y0055738D02*
X0362572Y0055738D01*
X0362101Y0056737D02*
X0356633Y0056737D01*
X0356633Y0057735D02*
X0361752Y0057735D01*
X0361500Y0058734D02*
X0356633Y0058734D01*
X0356633Y0059732D02*
X0361329Y0059732D01*
X0361233Y0060731D02*
X0356633Y0060731D01*
X0356633Y0061729D02*
X0372733Y0061729D01*
X0372733Y0060731D02*
X0373733Y0060731D01*
X0373733Y0061729D02*
X0386155Y0061729D01*
X0385233Y0061756D02*
X0385233Y0061930D01*
X0385082Y0063269D01*
X0384782Y0064583D01*
X0384337Y0065855D01*
X0383753Y0067070D01*
X0383035Y0068211D01*
X0382195Y0069265D01*
X0381242Y0070218D01*
X0380188Y0071058D01*
X0379047Y0071775D01*
X0377833Y0072360D01*
X0376561Y0072805D01*
X0375247Y0073105D01*
X0373907Y0073256D01*
X0373733Y0073256D01*
X0373733Y0061756D01*
X0385233Y0061756D01*
X0385143Y0062728D02*
X0386155Y0062728D01*
X0386155Y0063726D02*
X0384978Y0063726D01*
X0384733Y0064725D02*
X0386155Y0064725D01*
X0386155Y0065723D02*
X0384384Y0065723D01*
X0383920Y0066722D02*
X0386155Y0066722D01*
X0386155Y0067720D02*
X0383344Y0067720D01*
X0382631Y0068719D02*
X0386155Y0068719D01*
X0386155Y0069717D02*
X0381743Y0069717D01*
X0380618Y0070716D02*
X0386155Y0070716D01*
X0386155Y0071714D02*
X0379144Y0071714D01*
X0376824Y0072713D02*
X0386155Y0072713D01*
X0386155Y0073711D02*
X0010233Y0073711D01*
X0010233Y0072713D02*
X0019642Y0072713D01*
X0017323Y0071714D02*
X0010233Y0071714D01*
X0010233Y0070716D02*
X0015849Y0070716D01*
X0014724Y0069717D02*
X0010233Y0069717D01*
X0010233Y0068719D02*
X0013836Y0068719D01*
X0013123Y0067720D02*
X0010233Y0067720D01*
X0010233Y0066722D02*
X0012547Y0066722D01*
X0012083Y0065723D02*
X0010233Y0065723D01*
X0010233Y0064725D02*
X0011734Y0064725D01*
X0011489Y0063726D02*
X0010233Y0063726D01*
X0010233Y0062728D02*
X0011323Y0062728D01*
X0010233Y0074710D02*
X0386155Y0074710D01*
X0386155Y0075708D02*
X0359362Y0075708D01*
X0358873Y0075506D02*
X0362365Y0076952D01*
X0365037Y0079625D01*
X0366483Y0083116D01*
X0366483Y0124396D01*
X0365037Y0127887D01*
X0362365Y0130560D01*
X0358873Y0132006D01*
X0355094Y0132006D01*
X0351602Y0130560D01*
X0348930Y0127887D01*
X0347483Y0124396D01*
X0347483Y0083116D01*
X0348930Y0079625D01*
X0351602Y0076952D01*
X0355094Y0075506D01*
X0358873Y0075506D01*
X0361772Y0076707D02*
X0386155Y0076707D01*
X0386155Y0077705D02*
X0380113Y0077705D01*
X0381392Y0078235D02*
X0383754Y0080598D01*
X0385033Y0083685D01*
X0385033Y0094827D01*
X0384433Y0096275D01*
X0384433Y0111737D01*
X0385033Y0113185D01*
X0385033Y0124327D01*
X0384433Y0125775D01*
X0384433Y0131907D01*
X0383246Y0134774D01*
X0377283Y0140737D01*
X0377283Y0150525D01*
X0383246Y0156488D01*
X0384433Y0159354D01*
X0384433Y0167237D01*
X0385033Y0168685D01*
X0385033Y0179827D01*
X0384433Y0181275D01*
X0384433Y0196737D01*
X0385033Y0198185D01*
X0385033Y0209327D01*
X0383754Y0212414D01*
X0381392Y0214777D01*
X0378304Y0216056D01*
X0374962Y0216056D01*
X0373547Y0215469D01*
X0362372Y0226644D01*
X0360130Y0227572D01*
X0355113Y0227572D01*
X0354332Y0228354D01*
X0348631Y0228354D01*
X0344600Y0224323D01*
X0344600Y0218622D01*
X0348631Y0214591D01*
X0351989Y0214591D01*
X0349812Y0212414D01*
X0348533Y0209327D01*
X0348533Y0198185D01*
X0349183Y0196616D01*
X0349183Y0181396D01*
X0348533Y0179827D01*
X0348533Y0168685D01*
X0349812Y0165598D01*
X0352175Y0163235D01*
X0355262Y0161956D01*
X0358604Y0161956D01*
X0361692Y0163235D01*
X0364054Y0165598D01*
X0365333Y0168685D01*
X0365333Y0179827D01*
X0364783Y0181155D01*
X0364783Y0196857D01*
X0365333Y0198185D01*
X0365333Y0206429D01*
X0368233Y0203529D01*
X0368233Y0198185D01*
X0368833Y0196737D01*
X0368833Y0181275D01*
X0368233Y0179827D01*
X0368233Y0168685D01*
X0368833Y0167237D01*
X0368833Y0164137D01*
X0365065Y0160368D01*
X0362871Y0158174D01*
X0361683Y0155307D01*
X0361683Y0153803D01*
X0361181Y0152591D01*
X0361181Y0149488D01*
X0361683Y0148276D01*
X0361683Y0135954D01*
X0362871Y0133088D01*
X0365065Y0130893D01*
X0368833Y0127125D01*
X0368833Y0125775D01*
X0368233Y0124327D01*
X0368233Y0113185D01*
X0368833Y0111737D01*
X0368833Y0096275D01*
X0368233Y0094827D01*
X0368233Y0083685D01*
X0369512Y0080598D01*
X0371875Y0078235D01*
X0374962Y0076956D01*
X0378304Y0076956D01*
X0381392Y0078235D01*
X0381861Y0078704D02*
X0386155Y0078704D01*
X0386155Y0079702D02*
X0382859Y0079702D01*
X0383797Y0080701D02*
X0386155Y0080701D01*
X0386155Y0081699D02*
X0384211Y0081699D01*
X0384624Y0082698D02*
X0386155Y0082698D01*
X0386155Y0083696D02*
X0385033Y0083696D01*
X0385033Y0084695D02*
X0386155Y0084695D01*
X0386155Y0085693D02*
X0385033Y0085693D01*
X0385033Y0086692D02*
X0386155Y0086692D01*
X0386155Y0087690D02*
X0385033Y0087690D01*
X0385033Y0088689D02*
X0386155Y0088689D01*
X0386155Y0089687D02*
X0385033Y0089687D01*
X0385033Y0090686D02*
X0386155Y0090686D01*
X0386155Y0091684D02*
X0385033Y0091684D01*
X0385033Y0092683D02*
X0386155Y0092683D01*
X0386155Y0093681D02*
X0385033Y0093681D01*
X0385033Y0094680D02*
X0386155Y0094680D01*
X0386155Y0095678D02*
X0384681Y0095678D01*
X0384433Y0096677D02*
X0386155Y0096677D01*
X0386155Y0097676D02*
X0384433Y0097676D01*
X0384433Y0098674D02*
X0386155Y0098674D01*
X0386155Y0099673D02*
X0384433Y0099673D01*
X0384433Y0100671D02*
X0386155Y0100671D01*
X0386155Y0101670D02*
X0384433Y0101670D01*
X0384433Y0102668D02*
X0386155Y0102668D01*
X0386155Y0103667D02*
X0384433Y0103667D01*
X0384433Y0104665D02*
X0386155Y0104665D01*
X0386155Y0105664D02*
X0384433Y0105664D01*
X0384433Y0106662D02*
X0386155Y0106662D01*
X0386155Y0107661D02*
X0384433Y0107661D01*
X0384433Y0108659D02*
X0386155Y0108659D01*
X0386155Y0109658D02*
X0384433Y0109658D01*
X0384433Y0110656D02*
X0386155Y0110656D01*
X0386155Y0111655D02*
X0384433Y0111655D01*
X0384813Y0112653D02*
X0386155Y0112653D01*
X0386155Y0113652D02*
X0385033Y0113652D01*
X0385033Y0114650D02*
X0386155Y0114650D01*
X0386155Y0115649D02*
X0385033Y0115649D01*
X0385033Y0116647D02*
X0386155Y0116647D01*
X0386155Y0117646D02*
X0385033Y0117646D01*
X0385033Y0118644D02*
X0386155Y0118644D01*
X0386155Y0119643D02*
X0385033Y0119643D01*
X0385033Y0120641D02*
X0386155Y0120641D01*
X0386155Y0121640D02*
X0385033Y0121640D01*
X0385033Y0122638D02*
X0386155Y0122638D01*
X0386155Y0123637D02*
X0385033Y0123637D01*
X0384906Y0124635D02*
X0386155Y0124635D01*
X0386155Y0125634D02*
X0384492Y0125634D01*
X0384433Y0126632D02*
X0386155Y0126632D01*
X0386155Y0127631D02*
X0384433Y0127631D01*
X0384433Y0128629D02*
X0386155Y0128629D01*
X0386155Y0129628D02*
X0384433Y0129628D01*
X0384433Y0130626D02*
X0386155Y0130626D01*
X0386155Y0131625D02*
X0384433Y0131625D01*
X0384137Y0132623D02*
X0386155Y0132623D01*
X0386155Y0133622D02*
X0383723Y0133622D01*
X0383310Y0134620D02*
X0386155Y0134620D01*
X0386155Y0135619D02*
X0382401Y0135619D01*
X0381403Y0136617D02*
X0386155Y0136617D01*
X0386155Y0137616D02*
X0380404Y0137616D01*
X0379406Y0138614D02*
X0386155Y0138614D01*
X0386155Y0139613D02*
X0378407Y0139613D01*
X0377409Y0140612D02*
X0386155Y0140612D01*
X0386155Y0141610D02*
X0377283Y0141610D01*
X0377283Y0142609D02*
X0386155Y0142609D01*
X0386155Y0143607D02*
X0377283Y0143607D01*
X0377283Y0144606D02*
X0386155Y0144606D01*
X0386155Y0145604D02*
X0377283Y0145604D01*
X0377283Y0146603D02*
X0386155Y0146603D01*
X0386155Y0147601D02*
X0377283Y0147601D01*
X0377283Y0148600D02*
X0386155Y0148600D01*
X0386155Y0149598D02*
X0377283Y0149598D01*
X0377355Y0150597D02*
X0386155Y0150597D01*
X0386155Y0151595D02*
X0378353Y0151595D01*
X0379352Y0152594D02*
X0386155Y0152594D01*
X0386155Y0153592D02*
X0380350Y0153592D01*
X0381349Y0154591D02*
X0386155Y0154591D01*
X0386155Y0155589D02*
X0382347Y0155589D01*
X0383287Y0156588D02*
X0386155Y0156588D01*
X0386155Y0157586D02*
X0383701Y0157586D01*
X0384115Y0158585D02*
X0386155Y0158585D01*
X0386155Y0159583D02*
X0384433Y0159583D01*
X0384433Y0160582D02*
X0386155Y0160582D01*
X0386155Y0161580D02*
X0384433Y0161580D01*
X0384433Y0162579D02*
X0386155Y0162579D01*
X0386155Y0163577D02*
X0384433Y0163577D01*
X0384433Y0164576D02*
X0386155Y0164576D01*
X0386155Y0165574D02*
X0384433Y0165574D01*
X0384433Y0166573D02*
X0386155Y0166573D01*
X0386155Y0167571D02*
X0384572Y0167571D01*
X0384986Y0168570D02*
X0386155Y0168570D01*
X0386155Y0169568D02*
X0385033Y0169568D01*
X0385033Y0170567D02*
X0386155Y0170567D01*
X0386155Y0171565D02*
X0385033Y0171565D01*
X0385033Y0172564D02*
X0386155Y0172564D01*
X0386155Y0173562D02*
X0385033Y0173562D01*
X0385033Y0174561D02*
X0386155Y0174561D01*
X0386155Y0175559D02*
X0385033Y0175559D01*
X0385033Y0176558D02*
X0386155Y0176558D01*
X0386155Y0177556D02*
X0385033Y0177556D01*
X0385033Y0178555D02*
X0386155Y0178555D01*
X0386155Y0179553D02*
X0385033Y0179553D01*
X0384733Y0180552D02*
X0386155Y0180552D01*
X0386155Y0181550D02*
X0384433Y0181550D01*
X0384433Y0182549D02*
X0386155Y0182549D01*
X0386155Y0183547D02*
X0384433Y0183547D01*
X0384433Y0184546D02*
X0386155Y0184546D01*
X0386155Y0185545D02*
X0384433Y0185545D01*
X0384433Y0186543D02*
X0386155Y0186543D01*
X0386155Y0187542D02*
X0384433Y0187542D01*
X0384433Y0188540D02*
X0386155Y0188540D01*
X0386155Y0189539D02*
X0384433Y0189539D01*
X0384433Y0190537D02*
X0386155Y0190537D01*
X0386155Y0191536D02*
X0384433Y0191536D01*
X0384433Y0192534D02*
X0386155Y0192534D01*
X0386155Y0193533D02*
X0384433Y0193533D01*
X0384433Y0194531D02*
X0386155Y0194531D01*
X0386155Y0195530D02*
X0384433Y0195530D01*
X0384433Y0196528D02*
X0386155Y0196528D01*
X0386155Y0197527D02*
X0384761Y0197527D01*
X0385033Y0198525D02*
X0386155Y0198525D01*
X0386155Y0199524D02*
X0385033Y0199524D01*
X0385033Y0200522D02*
X0386155Y0200522D01*
X0386155Y0201521D02*
X0385033Y0201521D01*
X0385033Y0202519D02*
X0386155Y0202519D01*
X0386155Y0203518D02*
X0385033Y0203518D01*
X0385033Y0204516D02*
X0386155Y0204516D01*
X0386155Y0205515D02*
X0385033Y0205515D01*
X0385033Y0206513D02*
X0386155Y0206513D01*
X0386155Y0207512D02*
X0385033Y0207512D01*
X0385033Y0208510D02*
X0386155Y0208510D01*
X0386155Y0209509D02*
X0384958Y0209509D01*
X0384544Y0210507D02*
X0386155Y0210507D01*
X0386155Y0211506D02*
X0384131Y0211506D01*
X0383664Y0212504D02*
X0386155Y0212504D01*
X0386155Y0213503D02*
X0382666Y0213503D01*
X0381667Y0214501D02*
X0386155Y0214501D01*
X0386155Y0215500D02*
X0379647Y0215500D01*
X0373620Y0215500D02*
X0373516Y0215500D01*
X0372518Y0216498D02*
X0386155Y0216498D01*
X0386155Y0217497D02*
X0371519Y0217497D01*
X0370521Y0218495D02*
X0386155Y0218495D01*
X0386155Y0219494D02*
X0369522Y0219494D01*
X0368524Y0220492D02*
X0386155Y0220492D01*
X0386155Y0221491D02*
X0367525Y0221491D01*
X0366526Y0222489D02*
X0369098Y0222489D01*
X0368634Y0222652D02*
X0369906Y0222207D01*
X0371220Y0221907D01*
X0372559Y0221756D01*
X0372733Y0221756D01*
X0372733Y0233256D01*
X0361233Y0233256D01*
X0361233Y0233082D01*
X0361384Y0231743D01*
X0361684Y0230429D01*
X0362129Y0229156D01*
X0362714Y0227942D01*
X0363431Y0226801D01*
X0364272Y0225747D01*
X0365225Y0224794D01*
X0366278Y0223954D01*
X0367420Y0223237D01*
X0368634Y0222652D01*
X0367020Y0223488D02*
X0365528Y0223488D01*
X0365610Y0224486D02*
X0364529Y0224486D01*
X0364534Y0225485D02*
X0363531Y0225485D01*
X0363684Y0226483D02*
X0362532Y0226483D01*
X0363003Y0227482D02*
X0360348Y0227482D01*
X0362455Y0228480D02*
X0034012Y0228480D01*
X0033753Y0227942D02*
X0034337Y0229156D01*
X0034782Y0230429D01*
X0035082Y0231743D01*
X0035233Y0233082D01*
X0035233Y0233256D01*
X0023733Y0233256D01*
X0023733Y0221756D01*
X0023907Y0221756D01*
X0025247Y0221907D01*
X0026561Y0222207D01*
X0027833Y0222652D01*
X0029047Y0223237D01*
X0030188Y0223954D01*
X0031242Y0224794D01*
X0032195Y0225747D01*
X0033035Y0226801D01*
X0033753Y0227942D01*
X0033463Y0227482D02*
X0036618Y0227482D01*
X0036836Y0227572D02*
X0034594Y0226644D01*
X0022920Y0214969D01*
X0021504Y0215556D01*
X0018162Y0215556D01*
X0015075Y0214277D01*
X0012712Y0211914D01*
X0011433Y0208827D01*
X0011433Y0197685D01*
X0012033Y0196237D01*
X0012033Y0180775D01*
X0011433Y0179327D01*
X0011433Y0168185D01*
X0012033Y0166737D01*
X0012033Y0160604D01*
X0013221Y0157738D01*
X0015415Y0155543D01*
X0019685Y0151273D01*
X0019685Y0149488D01*
X0020433Y0147682D01*
X0020433Y0141987D01*
X0013221Y0134774D01*
X0012033Y0131907D01*
X0012033Y0125275D01*
X0011433Y0123827D01*
X0011433Y0112685D01*
X0012033Y0111237D01*
X0012033Y0095775D01*
X0011433Y0094327D01*
X0011433Y0083185D01*
X0012712Y0080098D01*
X0015075Y0077735D01*
X0018162Y0076456D01*
X0021504Y0076456D01*
X0024592Y0077735D01*
X0026954Y0080098D01*
X0028233Y0083185D01*
X0028233Y0094327D01*
X0027633Y0095775D01*
X0027633Y0111237D01*
X0028233Y0112685D01*
X0028233Y0123827D01*
X0027633Y0125275D01*
X0027633Y0127125D01*
X0032652Y0132143D01*
X0034846Y0134338D01*
X0036033Y0137204D01*
X0036033Y0151843D01*
X0035285Y0153649D01*
X0035285Y0156055D01*
X0034098Y0158922D01*
X0027633Y0165387D01*
X0027633Y0166737D01*
X0028233Y0168185D01*
X0028233Y0179327D01*
X0027633Y0180775D01*
X0027633Y0196237D01*
X0028233Y0197685D01*
X0028233Y0203029D01*
X0031133Y0205929D01*
X0031133Y0197685D01*
X0031683Y0196357D01*
X0031683Y0180655D01*
X0031133Y0179327D01*
X0031133Y0168185D01*
X0032412Y0165098D01*
X0034775Y0162735D01*
X0037862Y0161456D01*
X0041204Y0161456D01*
X0044292Y0162735D01*
X0046654Y0165098D01*
X0047933Y0168185D01*
X0047933Y0179327D01*
X0047283Y0180896D01*
X0047283Y0196116D01*
X0047933Y0197685D01*
X0047933Y0208827D01*
X0046654Y0211914D01*
X0044292Y0214277D01*
X0043533Y0214591D01*
X0047836Y0214591D01*
X0051866Y0218622D01*
X0051866Y0224323D01*
X0047836Y0228354D01*
X0042135Y0228354D01*
X0041354Y0227572D01*
X0036836Y0227572D01*
X0034434Y0226483D02*
X0032782Y0226483D01*
X0033436Y0225485D02*
X0031933Y0225485D01*
X0032437Y0224486D02*
X0030856Y0224486D01*
X0031439Y0223488D02*
X0029447Y0223488D01*
X0030440Y0222489D02*
X0027368Y0222489D01*
X0028443Y0220492D02*
X0010233Y0220492D01*
X0010233Y0219494D02*
X0027445Y0219494D01*
X0026446Y0218495D02*
X0010233Y0218495D01*
X0010233Y0217497D02*
X0025448Y0217497D01*
X0024449Y0216498D02*
X0010233Y0216498D01*
X0010233Y0215500D02*
X0018027Y0215500D01*
X0015617Y0214501D02*
X0010233Y0214501D01*
X0010233Y0213503D02*
X0014301Y0213503D01*
X0013302Y0212504D02*
X0010233Y0212504D01*
X0010233Y0211506D02*
X0012543Y0211506D01*
X0012129Y0210507D02*
X0010233Y0210507D01*
X0010233Y0209509D02*
X0011716Y0209509D01*
X0011433Y0208510D02*
X0010233Y0208510D01*
X0010233Y0207512D02*
X0011433Y0207512D01*
X0011433Y0206513D02*
X0010233Y0206513D01*
X0010233Y0205515D02*
X0011433Y0205515D01*
X0011433Y0204516D02*
X0010233Y0204516D01*
X0010233Y0203518D02*
X0011433Y0203518D01*
X0011433Y0202519D02*
X0010233Y0202519D01*
X0010233Y0201521D02*
X0011433Y0201521D01*
X0011433Y0200522D02*
X0010233Y0200522D01*
X0010233Y0199524D02*
X0011433Y0199524D01*
X0011433Y0198525D02*
X0010233Y0198525D01*
X0010233Y0197527D02*
X0011499Y0197527D01*
X0011913Y0196528D02*
X0010233Y0196528D01*
X0010233Y0195530D02*
X0012033Y0195530D01*
X0012033Y0194531D02*
X0010233Y0194531D01*
X0010233Y0193533D02*
X0012033Y0193533D01*
X0012033Y0192534D02*
X0010233Y0192534D01*
X0010233Y0191536D02*
X0012033Y0191536D01*
X0012033Y0190537D02*
X0010233Y0190537D01*
X0010233Y0189539D02*
X0012033Y0189539D01*
X0012033Y0188540D02*
X0010233Y0188540D01*
X0010233Y0187542D02*
X0012033Y0187542D01*
X0012033Y0186543D02*
X0010233Y0186543D01*
X0010233Y0185545D02*
X0012033Y0185545D01*
X0012033Y0184546D02*
X0010233Y0184546D01*
X0010233Y0183547D02*
X0012033Y0183547D01*
X0012033Y0182549D02*
X0010233Y0182549D01*
X0010233Y0181550D02*
X0012033Y0181550D01*
X0011941Y0180552D02*
X0010233Y0180552D01*
X0010233Y0179553D02*
X0011527Y0179553D01*
X0011433Y0178555D02*
X0010233Y0178555D01*
X0010233Y0177556D02*
X0011433Y0177556D01*
X0011433Y0176558D02*
X0010233Y0176558D01*
X0010233Y0175559D02*
X0011433Y0175559D01*
X0011433Y0174561D02*
X0010233Y0174561D01*
X0010233Y0173562D02*
X0011433Y0173562D01*
X0011433Y0172564D02*
X0010233Y0172564D01*
X0010233Y0171565D02*
X0011433Y0171565D01*
X0011433Y0170567D02*
X0010233Y0170567D01*
X0010233Y0169568D02*
X0011433Y0169568D01*
X0011433Y0168570D02*
X0010233Y0168570D01*
X0010233Y0167571D02*
X0011688Y0167571D01*
X0012033Y0166573D02*
X0010233Y0166573D01*
X0010233Y0165574D02*
X0012033Y0165574D01*
X0012033Y0164576D02*
X0010233Y0164576D01*
X0010233Y0163577D02*
X0012033Y0163577D01*
X0012033Y0162579D02*
X0010233Y0162579D01*
X0010233Y0161580D02*
X0012033Y0161580D01*
X0012043Y0160582D02*
X0010233Y0160582D01*
X0010233Y0159583D02*
X0012456Y0159583D01*
X0012870Y0158585D02*
X0010233Y0158585D01*
X0010233Y0157586D02*
X0013372Y0157586D01*
X0014371Y0156588D02*
X0010233Y0156588D01*
X0010233Y0155589D02*
X0015369Y0155589D01*
X0016368Y0154591D02*
X0010233Y0154591D01*
X0010233Y0153592D02*
X0017366Y0153592D01*
X0018365Y0152594D02*
X0010233Y0152594D01*
X0010233Y0151595D02*
X0019363Y0151595D01*
X0019685Y0150597D02*
X0010233Y0150597D01*
X0010233Y0149598D02*
X0019685Y0149598D01*
X0020053Y0148600D02*
X0010233Y0148600D01*
X0010233Y0147601D02*
X0020433Y0147601D01*
X0020433Y0146603D02*
X0010233Y0146603D01*
X0010233Y0145604D02*
X0020433Y0145604D01*
X0020433Y0144606D02*
X0010233Y0144606D01*
X0010233Y0143607D02*
X0020433Y0143607D01*
X0020433Y0142609D02*
X0010233Y0142609D01*
X0010233Y0141610D02*
X0020057Y0141610D01*
X0019058Y0140612D02*
X0010233Y0140612D01*
X0010233Y0139613D02*
X0018060Y0139613D01*
X0017061Y0138614D02*
X0010233Y0138614D01*
X0010233Y0137616D02*
X0016063Y0137616D01*
X0015064Y0136617D02*
X0010233Y0136617D01*
X0010233Y0135619D02*
X0014066Y0135619D01*
X0013157Y0134620D02*
X0010233Y0134620D01*
X0010233Y0133622D02*
X0012744Y0133622D01*
X0012330Y0132623D02*
X0010233Y0132623D01*
X0010233Y0131625D02*
X0012033Y0131625D01*
X0012033Y0130626D02*
X0010233Y0130626D01*
X0010233Y0129628D02*
X0012033Y0129628D01*
X0012033Y0128629D02*
X0010233Y0128629D01*
X0010233Y0127631D02*
X0012033Y0127631D01*
X0012033Y0126632D02*
X0010233Y0126632D01*
X0010233Y0125634D02*
X0012033Y0125634D01*
X0011768Y0124635D02*
X0010233Y0124635D01*
X0010233Y0123637D02*
X0011433Y0123637D01*
X0011433Y0122638D02*
X0010233Y0122638D01*
X0010233Y0121640D02*
X0011433Y0121640D01*
X0011433Y0120641D02*
X0010233Y0120641D01*
X0010233Y0119643D02*
X0011433Y0119643D01*
X0011433Y0118644D02*
X0010233Y0118644D01*
X0010233Y0117646D02*
X0011433Y0117646D01*
X0011433Y0116647D02*
X0010233Y0116647D01*
X0010233Y0115649D02*
X0011433Y0115649D01*
X0011433Y0114650D02*
X0010233Y0114650D01*
X0010233Y0113652D02*
X0011433Y0113652D01*
X0011447Y0112653D02*
X0010233Y0112653D01*
X0010233Y0111655D02*
X0011860Y0111655D01*
X0012033Y0110656D02*
X0010233Y0110656D01*
X0010233Y0109658D02*
X0012033Y0109658D01*
X0012033Y0108659D02*
X0010233Y0108659D01*
X0010233Y0107661D02*
X0012033Y0107661D01*
X0012033Y0106662D02*
X0010233Y0106662D01*
X0010233Y0105664D02*
X0012033Y0105664D01*
X0012033Y0104665D02*
X0010233Y0104665D01*
X0010233Y0103667D02*
X0012033Y0103667D01*
X0012033Y0102668D02*
X0010233Y0102668D01*
X0010233Y0101670D02*
X0012033Y0101670D01*
X0012033Y0100671D02*
X0010233Y0100671D01*
X0010233Y0099673D02*
X0012033Y0099673D01*
X0012033Y0098674D02*
X0010233Y0098674D01*
X0010233Y0097676D02*
X0012033Y0097676D01*
X0012033Y0096677D02*
X0010233Y0096677D01*
X0010233Y0095678D02*
X0011993Y0095678D01*
X0011580Y0094680D02*
X0010233Y0094680D01*
X0010233Y0093681D02*
X0011433Y0093681D01*
X0011433Y0092683D02*
X0010233Y0092683D01*
X0010233Y0091684D02*
X0011433Y0091684D01*
X0011433Y0090686D02*
X0010233Y0090686D01*
X0010233Y0089687D02*
X0011433Y0089687D01*
X0011433Y0088689D02*
X0010233Y0088689D01*
X0010233Y0087690D02*
X0011433Y0087690D01*
X0011433Y0086692D02*
X0010233Y0086692D01*
X0010233Y0085693D02*
X0011433Y0085693D01*
X0011433Y0084695D02*
X0010233Y0084695D01*
X0010233Y0083696D02*
X0011433Y0083696D01*
X0011635Y0082698D02*
X0010233Y0082698D01*
X0010233Y0081699D02*
X0012049Y0081699D01*
X0012462Y0080701D02*
X0010233Y0080701D01*
X0010233Y0079702D02*
X0013108Y0079702D01*
X0014106Y0078704D02*
X0010233Y0078704D01*
X0010233Y0077705D02*
X0015146Y0077705D01*
X0017557Y0076707D02*
X0010233Y0076707D01*
X0010233Y0075708D02*
X0037105Y0075708D01*
X0037594Y0075506D02*
X0041373Y0075506D01*
X0044865Y0076952D01*
X0047537Y0079625D01*
X0048983Y0083116D01*
X0048983Y0116246D01*
X0049033Y0116366D01*
X0049033Y0120146D01*
X0048983Y0120266D01*
X0048983Y0124396D01*
X0047537Y0127887D01*
X0044865Y0130560D01*
X0041373Y0132006D01*
X0037594Y0132006D01*
X0034102Y0130560D01*
X0031430Y0127887D01*
X0029983Y0124396D01*
X0029983Y0116416D01*
X0029983Y0083116D01*
X0031430Y0079625D01*
X0034102Y0076952D01*
X0037594Y0075506D01*
X0034694Y0076707D02*
X0022110Y0076707D01*
X0024520Y0077705D02*
X0033349Y0077705D01*
X0032350Y0078704D02*
X0025561Y0078704D01*
X0026559Y0079702D02*
X0031397Y0079702D01*
X0030984Y0080701D02*
X0027204Y0080701D01*
X0027618Y0081699D02*
X0030570Y0081699D01*
X0030157Y0082698D02*
X0028032Y0082698D01*
X0028233Y0083696D02*
X0029983Y0083696D01*
X0029983Y0084695D02*
X0028233Y0084695D01*
X0028233Y0085693D02*
X0029983Y0085693D01*
X0029983Y0086692D02*
X0028233Y0086692D01*
X0028233Y0087690D02*
X0029983Y0087690D01*
X0029983Y0088689D02*
X0028233Y0088689D01*
X0028233Y0089687D02*
X0029983Y0089687D01*
X0029983Y0090686D02*
X0028233Y0090686D01*
X0028233Y0091684D02*
X0029983Y0091684D01*
X0029983Y0092683D02*
X0028233Y0092683D01*
X0028233Y0093681D02*
X0029983Y0093681D01*
X0029983Y0094680D02*
X0028087Y0094680D01*
X0027673Y0095678D02*
X0029983Y0095678D01*
X0029983Y0096677D02*
X0027633Y0096677D01*
X0027633Y0097676D02*
X0029983Y0097676D01*
X0029983Y0098674D02*
X0027633Y0098674D01*
X0027633Y0099673D02*
X0029983Y0099673D01*
X0029983Y0100671D02*
X0027633Y0100671D01*
X0027633Y0101670D02*
X0029983Y0101670D01*
X0029983Y0102668D02*
X0027633Y0102668D01*
X0027633Y0103667D02*
X0029983Y0103667D01*
X0029983Y0104665D02*
X0027633Y0104665D01*
X0027633Y0105664D02*
X0029983Y0105664D01*
X0029983Y0106662D02*
X0027633Y0106662D01*
X0027633Y0107661D02*
X0029983Y0107661D01*
X0029983Y0108659D02*
X0027633Y0108659D01*
X0027633Y0109658D02*
X0029983Y0109658D01*
X0029983Y0110656D02*
X0027633Y0110656D01*
X0027807Y0111655D02*
X0029983Y0111655D01*
X0029983Y0112653D02*
X0028220Y0112653D01*
X0028233Y0113652D02*
X0029983Y0113652D01*
X0029983Y0114650D02*
X0028233Y0114650D01*
X0028233Y0115649D02*
X0029983Y0115649D01*
X0029983Y0116647D02*
X0028233Y0116647D01*
X0028233Y0117646D02*
X0029983Y0117646D01*
X0029983Y0118644D02*
X0028233Y0118644D01*
X0028233Y0119643D02*
X0029983Y0119643D01*
X0029983Y0120641D02*
X0028233Y0120641D01*
X0028233Y0121640D02*
X0029983Y0121640D01*
X0029983Y0122638D02*
X0028233Y0122638D01*
X0028233Y0123637D02*
X0029983Y0123637D01*
X0030083Y0124635D02*
X0027898Y0124635D01*
X0027633Y0125634D02*
X0030496Y0125634D01*
X0030910Y0126632D02*
X0027633Y0126632D01*
X0028139Y0127631D02*
X0031323Y0127631D01*
X0032172Y0128629D02*
X0029138Y0128629D01*
X0030136Y0129628D02*
X0033170Y0129628D01*
X0034263Y0130626D02*
X0031135Y0130626D01*
X0032133Y0131625D02*
X0036674Y0131625D01*
X0034130Y0133622D02*
X0049983Y0133622D01*
X0049983Y0134620D02*
X0034963Y0134620D01*
X0035377Y0135619D02*
X0049983Y0135619D01*
X0049983Y0136617D02*
X0035790Y0136617D01*
X0036033Y0137616D02*
X0049983Y0137616D01*
X0049983Y0138146D02*
X0049983Y0083116D01*
X0051430Y0079625D01*
X0054102Y0076952D01*
X0057594Y0075506D01*
X0061373Y0075506D01*
X0064865Y0076952D01*
X0067537Y0079625D01*
X0068983Y0083116D01*
X0068983Y0138146D01*
X0067537Y0141637D01*
X0064865Y0144310D01*
X0061373Y0145756D01*
X0057594Y0145756D01*
X0054102Y0144310D01*
X0051430Y0141637D01*
X0049983Y0138146D01*
X0050178Y0138614D02*
X0036033Y0138614D01*
X0036033Y0139613D02*
X0050591Y0139613D01*
X0051005Y0140612D02*
X0036033Y0140612D01*
X0036033Y0141610D02*
X0051418Y0141610D01*
X0052401Y0142609D02*
X0036033Y0142609D01*
X0036033Y0143607D02*
X0053399Y0143607D01*
X0054816Y0144606D02*
X0036033Y0144606D01*
X0036033Y0145604D02*
X0057227Y0145604D01*
X0061740Y0145604D02*
X0334727Y0145604D01*
X0335094Y0145756D02*
X0331602Y0144310D01*
X0328930Y0141637D01*
X0327483Y0138146D01*
X0327483Y0083116D01*
X0328930Y0079625D01*
X0331602Y0076952D01*
X0335094Y0075506D01*
X0338873Y0075506D01*
X0342365Y0076952D01*
X0345037Y0079625D01*
X0346483Y0083116D01*
X0346483Y0131348D01*
X0347733Y0134366D01*
X0347733Y0138146D01*
X0346287Y0141637D01*
X0343615Y0144310D01*
X0340123Y0145756D01*
X0335094Y0145756D01*
X0332316Y0144606D02*
X0064150Y0144606D01*
X0065567Y0143607D02*
X0330899Y0143607D01*
X0329901Y0142609D02*
X0066566Y0142609D01*
X0067548Y0141610D02*
X0328918Y0141610D01*
X0328505Y0140612D02*
X0067962Y0140612D01*
X0068376Y0139613D02*
X0328091Y0139613D01*
X0327678Y0138614D02*
X0068789Y0138614D01*
X0068983Y0137616D02*
X0327483Y0137616D01*
X0327483Y0136617D02*
X0068983Y0136617D01*
X0068983Y0135619D02*
X0327483Y0135619D01*
X0327483Y0134620D02*
X0068983Y0134620D01*
X0068983Y0133622D02*
X0327483Y0133622D01*
X0327483Y0132623D02*
X0068983Y0132623D01*
X0068983Y0131625D02*
X0327483Y0131625D01*
X0327483Y0130626D02*
X0068983Y0130626D01*
X0068983Y0129628D02*
X0114322Y0129628D01*
X0113475Y0129277D02*
X0111112Y0126914D01*
X0109833Y0123827D01*
X0109833Y0112685D01*
X0111112Y0109598D01*
X0113475Y0107235D01*
X0116562Y0105956D01*
X0119904Y0105956D01*
X0122992Y0107235D01*
X0125354Y0109598D01*
X0125768Y0110597D01*
X0126598Y0109767D01*
X0129281Y0108656D01*
X0132185Y0108656D01*
X0134868Y0109767D01*
X0136922Y0111821D01*
X0138033Y0114504D01*
X0138033Y0123008D01*
X0136922Y0125691D01*
X0134868Y0127745D01*
X0132185Y0128856D01*
X0129281Y0128856D01*
X0126598Y0127745D01*
X0125476Y0126622D01*
X0125354Y0126914D01*
X0122992Y0129277D01*
X0119904Y0130556D01*
X0116562Y0130556D01*
X0113475Y0129277D01*
X0112827Y0128629D02*
X0068983Y0128629D01*
X0068983Y0127631D02*
X0111829Y0127631D01*
X0110995Y0126632D02*
X0068983Y0126632D01*
X0068983Y0125634D02*
X0110582Y0125634D01*
X0110168Y0124635D02*
X0068983Y0124635D01*
X0068983Y0123637D02*
X0109833Y0123637D01*
X0109833Y0122638D02*
X0068983Y0122638D01*
X0068983Y0121640D02*
X0109833Y0121640D01*
X0109833Y0120641D02*
X0068983Y0120641D01*
X0068983Y0119643D02*
X0109833Y0119643D01*
X0109833Y0118644D02*
X0068983Y0118644D01*
X0068983Y0117646D02*
X0109833Y0117646D01*
X0109833Y0116647D02*
X0068983Y0116647D01*
X0068983Y0115649D02*
X0109833Y0115649D01*
X0109833Y0114650D02*
X0068983Y0114650D01*
X0068983Y0113652D02*
X0109833Y0113652D01*
X0109847Y0112653D02*
X0068983Y0112653D01*
X0068983Y0111655D02*
X0110260Y0111655D01*
X0110674Y0110656D02*
X0068983Y0110656D01*
X0068983Y0109658D02*
X0111087Y0109658D01*
X0112051Y0108659D02*
X0068983Y0108659D01*
X0068983Y0107661D02*
X0113049Y0107661D01*
X0114858Y0106662D02*
X0068983Y0106662D01*
X0068983Y0105664D02*
X0148030Y0105664D01*
X0148063Y0105784D02*
X0147844Y0104967D01*
X0147733Y0104129D01*
X0147733Y0099256D01*
X0153683Y0099256D01*
X0153683Y0098256D01*
X0147733Y0098256D01*
X0147733Y0093383D01*
X0147844Y0092545D01*
X0148063Y0091728D01*
X0148386Y0090947D01*
X0148809Y0090215D01*
X0149324Y0089544D01*
X0149921Y0088946D01*
X0150592Y0088431D01*
X0151324Y0088009D01*
X0152106Y0087685D01*
X0152922Y0087466D01*
X0153683Y0087366D01*
X0153683Y0098256D01*
X0154683Y0098256D01*
X0154683Y0087366D01*
X0155444Y0087466D01*
X0156261Y0087685D01*
X0157042Y0088009D01*
X0157774Y0088431D01*
X0158445Y0088946D01*
X0159043Y0089544D01*
X0159558Y0090215D01*
X0159981Y0090947D01*
X0160304Y0091728D01*
X0160348Y0091891D01*
X0161772Y0088453D01*
X0164430Y0085795D01*
X0167904Y0084356D01*
X0170234Y0084356D01*
X0171768Y0082822D01*
X0174341Y0081756D01*
X0179610Y0081756D01*
X0181598Y0079767D01*
X0184281Y0078656D01*
X0187185Y0078656D01*
X0189868Y0079767D01*
X0191922Y0081821D01*
X0193033Y0084504D01*
X0193033Y0093008D01*
X0191922Y0095691D01*
X0189868Y0097745D01*
X0187185Y0098856D01*
X0184281Y0098856D01*
X0181598Y0097745D01*
X0179610Y0095756D01*
X0179233Y0095756D01*
X0179233Y0105586D01*
X0177795Y0109059D01*
X0175136Y0111717D01*
X0171663Y0113156D01*
X0167904Y0113156D01*
X0164430Y0111717D01*
X0161772Y0109059D01*
X0160348Y0105621D01*
X0160304Y0105784D01*
X0159981Y0106565D01*
X0159558Y0107297D01*
X0159043Y0107968D01*
X0158445Y0108566D01*
X0157774Y0109080D01*
X0157042Y0109503D01*
X0156261Y0109827D01*
X0155444Y0110046D01*
X0154683Y0110146D01*
X0154683Y0099256D01*
X0153683Y0099256D01*
X0153683Y0110146D01*
X0152922Y0110046D01*
X0152106Y0109827D01*
X0151324Y0109503D01*
X0150592Y0109080D01*
X0149921Y0108566D01*
X0149324Y0107968D01*
X0148809Y0107297D01*
X0148386Y0106565D01*
X0148063Y0105784D01*
X0148442Y0106662D02*
X0121609Y0106662D01*
X0123417Y0107661D02*
X0149088Y0107661D01*
X0150043Y0108659D02*
X0132193Y0108659D01*
X0134604Y0109658D02*
X0151697Y0109658D01*
X0153683Y0109658D02*
X0154683Y0109658D01*
X0154683Y0108659D02*
X0153683Y0108659D01*
X0153683Y0107661D02*
X0154683Y0107661D01*
X0154683Y0106662D02*
X0153683Y0106662D01*
X0153683Y0105664D02*
X0154683Y0105664D01*
X0154683Y0104665D02*
X0153683Y0104665D01*
X0153683Y0103667D02*
X0154683Y0103667D01*
X0154683Y0102668D02*
X0153683Y0102668D01*
X0153683Y0101670D02*
X0154683Y0101670D01*
X0154683Y0100671D02*
X0153683Y0100671D01*
X0153683Y0099673D02*
X0154683Y0099673D01*
X0153683Y0098674D02*
X0068983Y0098674D01*
X0068983Y0097676D02*
X0116207Y0097676D01*
X0116160Y0097660D02*
X0115403Y0097274D01*
X0114715Y0096775D01*
X0114114Y0096174D01*
X0113615Y0095486D01*
X0113229Y0094729D01*
X0112966Y0093920D01*
X0112833Y0093081D01*
X0112833Y0089256D01*
X0117733Y0089256D01*
X0117733Y0088256D01*
X0112833Y0088256D01*
X0112833Y0084431D01*
X0112966Y0083591D01*
X0113229Y0082783D01*
X0113615Y0082026D01*
X0114114Y0081338D01*
X0114715Y0080737D01*
X0115403Y0080237D01*
X0116160Y0079852D01*
X0116969Y0079589D01*
X0117733Y0079468D01*
X0117733Y0088256D01*
X0118733Y0088256D01*
X0118733Y0079468D01*
X0119498Y0079589D01*
X0120306Y0079852D01*
X0121064Y0080237D01*
X0121751Y0080737D01*
X0122352Y0081338D01*
X0122852Y0082026D01*
X0123238Y0082783D01*
X0123500Y0083591D01*
X0123633Y0084431D01*
X0123633Y0088256D01*
X0118733Y0088256D01*
X0118733Y0089256D01*
X0117733Y0089256D01*
X0117733Y0098044D01*
X0116969Y0097923D01*
X0116160Y0097660D01*
X0117733Y0097676D02*
X0118733Y0097676D01*
X0118733Y0098044D02*
X0118733Y0089256D01*
X0123633Y0089256D01*
X0123633Y0093081D01*
X0123500Y0093920D01*
X0123238Y0094729D01*
X0122852Y0095486D01*
X0122352Y0096174D01*
X0121751Y0096775D01*
X0121064Y0097274D01*
X0120306Y0097660D01*
X0119498Y0097923D01*
X0118733Y0098044D01*
X0118733Y0096677D02*
X0117733Y0096677D01*
X0117733Y0095678D02*
X0118733Y0095678D01*
X0118733Y0094680D02*
X0117733Y0094680D01*
X0117733Y0093681D02*
X0118733Y0093681D01*
X0118733Y0092683D02*
X0117733Y0092683D01*
X0117733Y0091684D02*
X0118733Y0091684D01*
X0118733Y0090686D02*
X0117733Y0090686D01*
X0117733Y0089687D02*
X0118733Y0089687D01*
X0118733Y0088689D02*
X0130433Y0088689D01*
X0130433Y0088456D02*
X0126433Y0088456D01*
X0126433Y0085617D01*
X0126539Y0084949D01*
X0126748Y0084305D01*
X0127056Y0083702D01*
X0127453Y0083155D01*
X0127932Y0082676D01*
X0128480Y0082278D01*
X0129083Y0081971D01*
X0129726Y0081762D01*
X0130395Y0081656D01*
X0130433Y0081656D01*
X0130433Y0088456D01*
X0130433Y0089056D01*
X0126433Y0089056D01*
X0126433Y0091894D01*
X0126539Y0092563D01*
X0126748Y0093207D01*
X0127056Y0093810D01*
X0127453Y0094357D01*
X0127932Y0094836D01*
X0128480Y0095234D01*
X0129083Y0095541D01*
X0129726Y0095750D01*
X0130395Y0095856D01*
X0130433Y0095856D01*
X0130433Y0089056D01*
X0131033Y0089056D01*
X0131033Y0095856D01*
X0131072Y0095856D01*
X0131740Y0095750D01*
X0132384Y0095541D01*
X0132987Y0095234D01*
X0133535Y0094836D01*
X0134013Y0094357D01*
X0134411Y0093810D01*
X0134718Y0093207D01*
X0134927Y0092563D01*
X0135033Y0091894D01*
X0135033Y0089056D01*
X0131033Y0089056D01*
X0131033Y0088456D01*
X0131033Y0081656D01*
X0131072Y0081656D01*
X0131740Y0081762D01*
X0132384Y0081971D01*
X0132987Y0082278D01*
X0133535Y0082676D01*
X0134013Y0083155D01*
X0134411Y0083702D01*
X0134718Y0084305D01*
X0134927Y0084949D01*
X0135033Y0085617D01*
X0135033Y0088456D01*
X0131033Y0088456D01*
X0130433Y0088456D01*
X0131033Y0088689D02*
X0150257Y0088689D01*
X0149213Y0089687D02*
X0135033Y0089687D01*
X0135033Y0090686D02*
X0148537Y0090686D01*
X0148081Y0091684D02*
X0135033Y0091684D01*
X0134888Y0092683D02*
X0147826Y0092683D01*
X0147733Y0093681D02*
X0134476Y0093681D01*
X0133690Y0094680D02*
X0147733Y0094680D01*
X0147733Y0095678D02*
X0131960Y0095678D01*
X0131033Y0095678D02*
X0130433Y0095678D01*
X0129506Y0095678D02*
X0122712Y0095678D01*
X0123254Y0094680D02*
X0127776Y0094680D01*
X0126990Y0093681D02*
X0123538Y0093681D01*
X0123633Y0092683D02*
X0126578Y0092683D01*
X0126433Y0091684D02*
X0123633Y0091684D01*
X0123633Y0090686D02*
X0126433Y0090686D01*
X0126433Y0089687D02*
X0123633Y0089687D01*
X0123633Y0087690D02*
X0126433Y0087690D01*
X0126433Y0086692D02*
X0123633Y0086692D01*
X0123633Y0085693D02*
X0126433Y0085693D01*
X0126622Y0084695D02*
X0123633Y0084695D01*
X0123517Y0083696D02*
X0127060Y0083696D01*
X0127910Y0082698D02*
X0123194Y0082698D01*
X0122615Y0081699D02*
X0130121Y0081699D01*
X0130433Y0081699D02*
X0131033Y0081699D01*
X0131346Y0081699D02*
X0179666Y0081699D01*
X0180665Y0080701D02*
X0121701Y0080701D01*
X0119847Y0079702D02*
X0181755Y0079702D01*
X0184166Y0078704D02*
X0066616Y0078704D01*
X0067569Y0079702D02*
X0116620Y0079702D01*
X0117733Y0079702D02*
X0118733Y0079702D01*
X0118733Y0080701D02*
X0117733Y0080701D01*
X0117733Y0081699D02*
X0118733Y0081699D01*
X0118733Y0082698D02*
X0117733Y0082698D01*
X0117733Y0083696D02*
X0118733Y0083696D01*
X0118733Y0084695D02*
X0117733Y0084695D01*
X0117733Y0085693D02*
X0118733Y0085693D01*
X0118733Y0086692D02*
X0117733Y0086692D01*
X0117733Y0087690D02*
X0118733Y0087690D01*
X0117733Y0088689D02*
X0068983Y0088689D01*
X0068983Y0089687D02*
X0112833Y0089687D01*
X0112833Y0090686D02*
X0068983Y0090686D01*
X0068983Y0091684D02*
X0112833Y0091684D01*
X0112833Y0092683D02*
X0068983Y0092683D01*
X0068983Y0093681D02*
X0112928Y0093681D01*
X0113213Y0094680D02*
X0068983Y0094680D01*
X0068983Y0095678D02*
X0113755Y0095678D01*
X0114618Y0096677D02*
X0068983Y0096677D01*
X0068983Y0099673D02*
X0147733Y0099673D01*
X0147733Y0100671D02*
X0068983Y0100671D01*
X0068983Y0101670D02*
X0147733Y0101670D01*
X0147733Y0102668D02*
X0068983Y0102668D01*
X0068983Y0103667D02*
X0147733Y0103667D01*
X0147804Y0104665D02*
X0068983Y0104665D01*
X0049983Y0104665D02*
X0048983Y0104665D01*
X0048983Y0103667D02*
X0049983Y0103667D01*
X0049983Y0102668D02*
X0048983Y0102668D01*
X0048983Y0101670D02*
X0049983Y0101670D01*
X0049983Y0100671D02*
X0048983Y0100671D01*
X0048983Y0099673D02*
X0049983Y0099673D01*
X0049983Y0098674D02*
X0048983Y0098674D01*
X0048983Y0097676D02*
X0049983Y0097676D01*
X0049983Y0096677D02*
X0048983Y0096677D01*
X0048983Y0095678D02*
X0049983Y0095678D01*
X0049983Y0094680D02*
X0048983Y0094680D01*
X0048983Y0093681D02*
X0049983Y0093681D01*
X0049983Y0092683D02*
X0048983Y0092683D01*
X0048983Y0091684D02*
X0049983Y0091684D01*
X0049983Y0090686D02*
X0048983Y0090686D01*
X0048983Y0089687D02*
X0049983Y0089687D01*
X0049983Y0088689D02*
X0048983Y0088689D01*
X0048983Y0087690D02*
X0049983Y0087690D01*
X0049983Y0086692D02*
X0048983Y0086692D01*
X0048983Y0085693D02*
X0049983Y0085693D01*
X0049983Y0084695D02*
X0048983Y0084695D01*
X0048983Y0083696D02*
X0049983Y0083696D01*
X0050157Y0082698D02*
X0048810Y0082698D01*
X0048396Y0081699D02*
X0050570Y0081699D01*
X0050984Y0080701D02*
X0047983Y0080701D01*
X0047569Y0079702D02*
X0051397Y0079702D01*
X0052350Y0078704D02*
X0046616Y0078704D01*
X0045618Y0077705D02*
X0053349Y0077705D01*
X0054694Y0076707D02*
X0044272Y0076707D01*
X0041862Y0075708D02*
X0057105Y0075708D01*
X0061862Y0075708D02*
X0334605Y0075708D01*
X0332194Y0076707D02*
X0064272Y0076707D01*
X0065618Y0077705D02*
X0274753Y0077705D01*
X0273475Y0078235D02*
X0276562Y0076956D01*
X0279904Y0076956D01*
X0282992Y0078235D01*
X0285354Y0080598D01*
X0286633Y0083685D01*
X0286633Y0094827D01*
X0285354Y0097914D01*
X0282992Y0100277D01*
X0279904Y0101556D01*
X0276562Y0101556D01*
X0273475Y0100277D01*
X0271112Y0097914D01*
X0270698Y0096915D01*
X0269868Y0097745D01*
X0267185Y0098856D01*
X0264281Y0098856D01*
X0261598Y0097745D01*
X0259545Y0095691D01*
X0258433Y0093008D01*
X0258433Y0084504D01*
X0259545Y0081821D01*
X0261598Y0079767D01*
X0264281Y0078656D01*
X0267185Y0078656D01*
X0269868Y0079767D01*
X0270991Y0080890D01*
X0271112Y0080598D01*
X0273475Y0078235D01*
X0273006Y0078704D02*
X0267301Y0078704D01*
X0269712Y0079702D02*
X0272008Y0079702D01*
X0271069Y0080701D02*
X0270802Y0080701D01*
X0264166Y0078704D02*
X0187301Y0078704D01*
X0189712Y0079702D02*
X0261755Y0079702D01*
X0260665Y0080701D02*
X0190802Y0080701D01*
X0191801Y0081699D02*
X0259666Y0081699D01*
X0259181Y0082698D02*
X0192285Y0082698D01*
X0192699Y0083696D02*
X0258768Y0083696D01*
X0258433Y0084695D02*
X0193033Y0084695D01*
X0193033Y0085693D02*
X0258433Y0085693D01*
X0258433Y0086692D02*
X0193033Y0086692D01*
X0193033Y0087690D02*
X0258433Y0087690D01*
X0258433Y0088689D02*
X0193033Y0088689D01*
X0193033Y0089687D02*
X0258433Y0089687D01*
X0258433Y0090686D02*
X0193033Y0090686D01*
X0193033Y0091684D02*
X0258433Y0091684D01*
X0258433Y0092683D02*
X0193033Y0092683D01*
X0192754Y0093681D02*
X0258712Y0093681D01*
X0259126Y0094680D02*
X0192341Y0094680D01*
X0191927Y0095678D02*
X0259540Y0095678D01*
X0260531Y0096677D02*
X0190936Y0096677D01*
X0189937Y0097676D02*
X0261529Y0097676D01*
X0263842Y0098674D02*
X0187624Y0098674D01*
X0183842Y0098674D02*
X0179233Y0098674D01*
X0179233Y0097676D02*
X0181529Y0097676D01*
X0180531Y0096677D02*
X0179233Y0096677D01*
X0179233Y0099673D02*
X0272871Y0099673D01*
X0271872Y0098674D02*
X0267624Y0098674D01*
X0269937Y0097676D02*
X0271013Y0097676D01*
X0274426Y0100671D02*
X0179233Y0100671D01*
X0179233Y0101670D02*
X0327483Y0101670D01*
X0327483Y0102668D02*
X0179233Y0102668D01*
X0179233Y0103667D02*
X0327483Y0103667D01*
X0327483Y0104665D02*
X0179233Y0104665D01*
X0179201Y0105664D02*
X0327483Y0105664D01*
X0327483Y0106662D02*
X0178787Y0106662D01*
X0178374Y0107661D02*
X0327483Y0107661D01*
X0327483Y0108659D02*
X0187193Y0108659D01*
X0187185Y0108656D02*
X0189868Y0109767D01*
X0191922Y0111821D01*
X0193033Y0114504D01*
X0193033Y0123008D01*
X0191922Y0125691D01*
X0189868Y0127745D01*
X0187185Y0128856D01*
X0184281Y0128856D01*
X0181598Y0127745D01*
X0179545Y0125691D01*
X0178433Y0123008D01*
X0178433Y0114504D01*
X0179545Y0111821D01*
X0181598Y0109767D01*
X0184281Y0108656D01*
X0187185Y0108656D01*
X0189604Y0109658D02*
X0276757Y0109658D01*
X0276969Y0109589D02*
X0276160Y0109852D01*
X0275403Y0110237D01*
X0274715Y0110737D01*
X0274114Y0111338D01*
X0273615Y0112026D01*
X0273229Y0112783D01*
X0272966Y0113591D01*
X0272833Y0114431D01*
X0272833Y0118256D01*
X0277733Y0118256D01*
X0277733Y0119256D01*
X0272833Y0119256D01*
X0272833Y0123081D01*
X0272966Y0123920D01*
X0273229Y0124729D01*
X0273615Y0125486D01*
X0274114Y0126174D01*
X0274715Y0126775D01*
X0275403Y0127274D01*
X0276160Y0127660D01*
X0276969Y0127923D01*
X0277733Y0128044D01*
X0277733Y0119256D01*
X0278733Y0119256D01*
X0278733Y0128044D01*
X0279498Y0127923D01*
X0280306Y0127660D01*
X0281064Y0127274D01*
X0281751Y0126775D01*
X0282352Y0126174D01*
X0282852Y0125486D01*
X0283238Y0124729D01*
X0283500Y0123920D01*
X0283633Y0123081D01*
X0283633Y0119256D01*
X0278733Y0119256D01*
X0278733Y0118256D01*
X0278733Y0109468D01*
X0279498Y0109589D01*
X0280306Y0109852D01*
X0281064Y0110237D01*
X0281751Y0110737D01*
X0282352Y0111338D01*
X0282852Y0112026D01*
X0283238Y0112783D01*
X0283500Y0113591D01*
X0283633Y0114431D01*
X0283633Y0118256D01*
X0278733Y0118256D01*
X0277733Y0118256D01*
X0277733Y0109468D01*
X0276969Y0109589D01*
X0277733Y0109658D02*
X0278733Y0109658D01*
X0279710Y0109658D02*
X0327483Y0109658D01*
X0327483Y0110656D02*
X0281640Y0110656D01*
X0282582Y0111655D02*
X0327483Y0111655D01*
X0327483Y0112653D02*
X0283172Y0112653D01*
X0283510Y0113652D02*
X0327483Y0113652D01*
X0327483Y0114650D02*
X0283633Y0114650D01*
X0283633Y0115649D02*
X0327483Y0115649D01*
X0327483Y0116647D02*
X0283633Y0116647D01*
X0283633Y0117646D02*
X0327483Y0117646D01*
X0327483Y0118644D02*
X0278733Y0118644D01*
X0278733Y0117646D02*
X0277733Y0117646D01*
X0277733Y0118644D02*
X0266033Y0118644D01*
X0266033Y0118456D02*
X0266033Y0119056D01*
X0265433Y0119056D01*
X0265433Y0118456D01*
X0261433Y0118456D01*
X0261433Y0115617D01*
X0261539Y0114949D01*
X0261748Y0114305D01*
X0262056Y0113702D01*
X0262453Y0113155D01*
X0262932Y0112676D01*
X0263480Y0112278D01*
X0264083Y0111971D01*
X0264726Y0111762D01*
X0265395Y0111656D01*
X0265433Y0111656D01*
X0265433Y0118456D01*
X0266033Y0118456D01*
X0266033Y0111656D01*
X0266072Y0111656D01*
X0266740Y0111762D01*
X0267384Y0111971D01*
X0267987Y0112278D01*
X0268535Y0112676D01*
X0269013Y0113155D01*
X0269411Y0113702D01*
X0269718Y0114305D01*
X0269927Y0114949D01*
X0270033Y0115617D01*
X0270033Y0118456D01*
X0266033Y0118456D01*
X0266033Y0119056D02*
X0270033Y0119056D01*
X0270033Y0121894D01*
X0269927Y0122563D01*
X0269718Y0123207D01*
X0269411Y0123810D01*
X0269013Y0124357D01*
X0268535Y0124836D01*
X0267987Y0125234D01*
X0267384Y0125541D01*
X0266740Y0125750D01*
X0266072Y0125856D01*
X0266033Y0125856D01*
X0266033Y0119056D01*
X0266033Y0119643D02*
X0265433Y0119643D01*
X0265433Y0119056D02*
X0265433Y0125856D01*
X0265395Y0125856D01*
X0264726Y0125750D01*
X0264083Y0125541D01*
X0263480Y0125234D01*
X0262932Y0124836D01*
X0262453Y0124357D01*
X0262056Y0123810D01*
X0261748Y0123207D01*
X0261539Y0122563D01*
X0261433Y0121894D01*
X0261433Y0119056D01*
X0265433Y0119056D01*
X0265433Y0118644D02*
X0193033Y0118644D01*
X0193033Y0117646D02*
X0261433Y0117646D01*
X0261433Y0116647D02*
X0193033Y0116647D01*
X0193033Y0115649D02*
X0261433Y0115649D01*
X0261636Y0114650D02*
X0193033Y0114650D01*
X0192680Y0113652D02*
X0262092Y0113652D01*
X0262964Y0112653D02*
X0192267Y0112653D01*
X0191756Y0111655D02*
X0273884Y0111655D01*
X0273295Y0112653D02*
X0268503Y0112653D01*
X0269374Y0113652D02*
X0272957Y0113652D01*
X0272833Y0114650D02*
X0269830Y0114650D01*
X0270033Y0115649D02*
X0272833Y0115649D01*
X0272833Y0116647D02*
X0270033Y0116647D01*
X0270033Y0117646D02*
X0272833Y0117646D01*
X0272833Y0119643D02*
X0270033Y0119643D01*
X0270033Y0120641D02*
X0272833Y0120641D01*
X0272833Y0121640D02*
X0270033Y0121640D01*
X0269903Y0122638D02*
X0272833Y0122638D01*
X0272921Y0123637D02*
X0269499Y0123637D01*
X0268735Y0124635D02*
X0273199Y0124635D01*
X0273722Y0125634D02*
X0267098Y0125634D01*
X0266033Y0125634D02*
X0265433Y0125634D01*
X0265433Y0124635D02*
X0266033Y0124635D01*
X0266033Y0123637D02*
X0265433Y0123637D01*
X0265433Y0122638D02*
X0266033Y0122638D01*
X0266033Y0121640D02*
X0265433Y0121640D01*
X0265433Y0120641D02*
X0266033Y0120641D01*
X0266033Y0117646D02*
X0265433Y0117646D01*
X0265433Y0116647D02*
X0266033Y0116647D01*
X0266033Y0115649D02*
X0265433Y0115649D01*
X0265433Y0114650D02*
X0266033Y0114650D01*
X0266033Y0113652D02*
X0265433Y0113652D01*
X0265433Y0112653D02*
X0266033Y0112653D01*
X0261433Y0119643D02*
X0193033Y0119643D01*
X0193033Y0120641D02*
X0261433Y0120641D01*
X0261433Y0121640D02*
X0193033Y0121640D01*
X0193033Y0122638D02*
X0261564Y0122638D01*
X0261968Y0123637D02*
X0192773Y0123637D01*
X0192359Y0124635D02*
X0262732Y0124635D01*
X0264369Y0125634D02*
X0191946Y0125634D01*
X0190981Y0126632D02*
X0274573Y0126632D01*
X0276103Y0127631D02*
X0189982Y0127631D01*
X0187732Y0128629D02*
X0327483Y0128629D01*
X0327483Y0127631D02*
X0280364Y0127631D01*
X0278733Y0127631D02*
X0277733Y0127631D01*
X0277733Y0126632D02*
X0278733Y0126632D01*
X0278733Y0125634D02*
X0277733Y0125634D01*
X0277733Y0124635D02*
X0278733Y0124635D01*
X0278733Y0123637D02*
X0277733Y0123637D01*
X0277733Y0122638D02*
X0278733Y0122638D01*
X0278733Y0121640D02*
X0277733Y0121640D01*
X0277733Y0120641D02*
X0278733Y0120641D01*
X0278733Y0119643D02*
X0277733Y0119643D01*
X0277733Y0116647D02*
X0278733Y0116647D01*
X0278733Y0115649D02*
X0277733Y0115649D01*
X0277733Y0114650D02*
X0278733Y0114650D01*
X0278733Y0113652D02*
X0277733Y0113652D01*
X0277733Y0112653D02*
X0278733Y0112653D01*
X0278733Y0111655D02*
X0277733Y0111655D01*
X0277733Y0110656D02*
X0278733Y0110656D01*
X0274827Y0110656D02*
X0190757Y0110656D01*
X0184273Y0108659D02*
X0177960Y0108659D01*
X0177196Y0109658D02*
X0181863Y0109658D01*
X0180709Y0110656D02*
X0176197Y0110656D01*
X0175199Y0111655D02*
X0179711Y0111655D01*
X0179200Y0112653D02*
X0172877Y0112653D01*
X0166690Y0112653D02*
X0137267Y0112653D01*
X0137680Y0113652D02*
X0178786Y0113652D01*
X0178433Y0114650D02*
X0138033Y0114650D01*
X0138033Y0115649D02*
X0178433Y0115649D01*
X0178433Y0116647D02*
X0138033Y0116647D01*
X0138033Y0117646D02*
X0178433Y0117646D01*
X0178433Y0118644D02*
X0138033Y0118644D01*
X0138033Y0119643D02*
X0178433Y0119643D01*
X0178433Y0120641D02*
X0138033Y0120641D01*
X0138033Y0121640D02*
X0178433Y0121640D01*
X0178433Y0122638D02*
X0138033Y0122638D01*
X0137773Y0123637D02*
X0178694Y0123637D01*
X0179107Y0124635D02*
X0137359Y0124635D01*
X0136946Y0125634D02*
X0179521Y0125634D01*
X0180486Y0126632D02*
X0135981Y0126632D01*
X0134982Y0127631D02*
X0181485Y0127631D01*
X0183734Y0128629D02*
X0132732Y0128629D01*
X0128734Y0128629D02*
X0123639Y0128629D01*
X0124638Y0127631D02*
X0126485Y0127631D01*
X0125486Y0126632D02*
X0125471Y0126632D01*
X0122145Y0129628D02*
X0327483Y0129628D01*
X0327483Y0126632D02*
X0281894Y0126632D01*
X0282745Y0125634D02*
X0327483Y0125634D01*
X0327483Y0124635D02*
X0283268Y0124635D01*
X0283545Y0123637D02*
X0327483Y0123637D01*
X0327483Y0122638D02*
X0283633Y0122638D01*
X0283633Y0121640D02*
X0327483Y0121640D01*
X0327483Y0120641D02*
X0283633Y0120641D01*
X0283633Y0119643D02*
X0327483Y0119643D01*
X0346483Y0119643D02*
X0347483Y0119643D01*
X0347483Y0120641D02*
X0346483Y0120641D01*
X0346483Y0121640D02*
X0347483Y0121640D01*
X0347483Y0122638D02*
X0346483Y0122638D01*
X0346483Y0123637D02*
X0347483Y0123637D01*
X0347583Y0124635D02*
X0346483Y0124635D01*
X0346483Y0125634D02*
X0347996Y0125634D01*
X0348410Y0126632D02*
X0346483Y0126632D01*
X0346483Y0127631D02*
X0348823Y0127631D01*
X0349672Y0128629D02*
X0346483Y0128629D01*
X0346483Y0129628D02*
X0350670Y0129628D01*
X0351763Y0130626D02*
X0346483Y0130626D01*
X0346598Y0131625D02*
X0354174Y0131625D01*
X0359793Y0131625D02*
X0364333Y0131625D01*
X0363335Y0132623D02*
X0347011Y0132623D01*
X0347425Y0133622D02*
X0362649Y0133622D01*
X0362236Y0134620D02*
X0347733Y0134620D01*
X0347733Y0135619D02*
X0361822Y0135619D01*
X0361683Y0136617D02*
X0347733Y0136617D01*
X0347733Y0137616D02*
X0361683Y0137616D01*
X0361683Y0138614D02*
X0347539Y0138614D01*
X0347126Y0139613D02*
X0361683Y0139613D01*
X0361683Y0140612D02*
X0346712Y0140612D01*
X0346298Y0141610D02*
X0361683Y0141610D01*
X0361683Y0142609D02*
X0345316Y0142609D01*
X0344317Y0143607D02*
X0361683Y0143607D01*
X0361683Y0144606D02*
X0342900Y0144606D01*
X0340490Y0145604D02*
X0361683Y0145604D01*
X0361683Y0146603D02*
X0036033Y0146603D01*
X0036033Y0147601D02*
X0361683Y0147601D01*
X0361549Y0148600D02*
X0036033Y0148600D01*
X0036033Y0149598D02*
X0361181Y0149598D01*
X0361181Y0150597D02*
X0036033Y0150597D01*
X0036033Y0151595D02*
X0361181Y0151595D01*
X0361183Y0152594D02*
X0035722Y0152594D01*
X0035309Y0153592D02*
X0361596Y0153592D01*
X0361683Y0154591D02*
X0035285Y0154591D01*
X0035285Y0155589D02*
X0361800Y0155589D01*
X0362214Y0156588D02*
X0035065Y0156588D01*
X0034651Y0157586D02*
X0362627Y0157586D01*
X0363281Y0158585D02*
X0034238Y0158585D01*
X0033437Y0159583D02*
X0364280Y0159583D01*
X0365278Y0160582D02*
X0032438Y0160582D01*
X0031440Y0161580D02*
X0037562Y0161580D01*
X0035152Y0162579D02*
X0030441Y0162579D01*
X0029443Y0163577D02*
X0033933Y0163577D01*
X0032934Y0164576D02*
X0028444Y0164576D01*
X0027633Y0165574D02*
X0032215Y0165574D01*
X0031801Y0166573D02*
X0027633Y0166573D01*
X0027979Y0167571D02*
X0031388Y0167571D01*
X0031133Y0168570D02*
X0028233Y0168570D01*
X0028233Y0169568D02*
X0031133Y0169568D01*
X0031133Y0170567D02*
X0028233Y0170567D01*
X0028233Y0171565D02*
X0031133Y0171565D01*
X0031133Y0172564D02*
X0028233Y0172564D01*
X0028233Y0173562D02*
X0031133Y0173562D01*
X0031133Y0174561D02*
X0028233Y0174561D01*
X0028233Y0175559D02*
X0031133Y0175559D01*
X0031133Y0176558D02*
X0028233Y0176558D01*
X0028233Y0177556D02*
X0031133Y0177556D01*
X0031133Y0178555D02*
X0028233Y0178555D01*
X0028139Y0179553D02*
X0031227Y0179553D01*
X0031641Y0180552D02*
X0027726Y0180552D01*
X0027633Y0181550D02*
X0031683Y0181550D01*
X0031683Y0182549D02*
X0027633Y0182549D01*
X0027633Y0183547D02*
X0031683Y0183547D01*
X0031683Y0184546D02*
X0027633Y0184546D01*
X0027633Y0185545D02*
X0031683Y0185545D01*
X0031683Y0186543D02*
X0027633Y0186543D01*
X0027633Y0187542D02*
X0031683Y0187542D01*
X0031683Y0188540D02*
X0027633Y0188540D01*
X0027633Y0189539D02*
X0031683Y0189539D01*
X0031683Y0190537D02*
X0027633Y0190537D01*
X0027633Y0191536D02*
X0031683Y0191536D01*
X0031683Y0192534D02*
X0027633Y0192534D01*
X0027633Y0193533D02*
X0031683Y0193533D01*
X0031683Y0194531D02*
X0027633Y0194531D01*
X0027633Y0195530D02*
X0031683Y0195530D01*
X0031613Y0196528D02*
X0027754Y0196528D01*
X0028168Y0197527D02*
X0031199Y0197527D01*
X0031133Y0198525D02*
X0028233Y0198525D01*
X0028233Y0199524D02*
X0031133Y0199524D01*
X0031133Y0200522D02*
X0028233Y0200522D01*
X0028233Y0201521D02*
X0031133Y0201521D01*
X0031133Y0202519D02*
X0028233Y0202519D01*
X0028722Y0203518D02*
X0031133Y0203518D01*
X0031133Y0204516D02*
X0029720Y0204516D01*
X0030719Y0205515D02*
X0031133Y0205515D01*
X0045066Y0213503D02*
X0112701Y0213503D01*
X0113475Y0214277D02*
X0111112Y0211914D01*
X0110260Y0209856D01*
X0108270Y0209856D01*
X0106028Y0208927D01*
X0102278Y0205177D01*
X0100562Y0203461D01*
X0099633Y0201219D01*
X0099633Y0177555D01*
X0098733Y0176655D01*
X0098733Y0170856D01*
X0102834Y0166756D01*
X0108633Y0166756D01*
X0112733Y0170856D01*
X0112733Y0176655D01*
X0111833Y0177555D01*
X0111833Y0193877D01*
X0113475Y0192235D01*
X0116562Y0190956D01*
X0119904Y0190956D01*
X0122992Y0192235D01*
X0125354Y0194598D01*
X0125768Y0195597D01*
X0126598Y0194767D01*
X0129281Y0193656D01*
X0132185Y0193656D01*
X0134868Y0194767D01*
X0136922Y0196821D01*
X0138033Y0199504D01*
X0138033Y0208008D01*
X0136922Y0210691D01*
X0134868Y0212745D01*
X0132185Y0213856D01*
X0129281Y0213856D01*
X0126598Y0212745D01*
X0125476Y0211622D01*
X0125354Y0211914D01*
X0122992Y0214277D01*
X0119904Y0215556D01*
X0116562Y0215556D01*
X0113475Y0214277D01*
X0114017Y0214501D02*
X0043750Y0214501D01*
X0046064Y0212504D02*
X0058383Y0212504D01*
X0058633Y0212504D02*
X0059633Y0212504D01*
X0059633Y0212544D02*
X0059633Y0203756D01*
X0058633Y0203756D01*
X0058633Y0202756D01*
X0053733Y0202756D01*
X0053733Y0198931D01*
X0053866Y0198091D01*
X0054129Y0197283D01*
X0054515Y0196526D01*
X0055014Y0195838D01*
X0055615Y0195237D01*
X0056303Y0194737D01*
X0057060Y0194352D01*
X0057869Y0194089D01*
X0058633Y0193968D01*
X0058633Y0202756D01*
X0059633Y0202756D01*
X0059633Y0193968D01*
X0060398Y0194089D01*
X0061206Y0194352D01*
X0061964Y0194737D01*
X0062651Y0195237D01*
X0063252Y0195838D01*
X0063752Y0196526D01*
X0064138Y0197283D01*
X0064400Y0198091D01*
X0064533Y0198931D01*
X0064533Y0202756D01*
X0059633Y0202756D01*
X0059633Y0203756D01*
X0064533Y0203756D01*
X0064533Y0207581D01*
X0064400Y0208420D01*
X0064138Y0209229D01*
X0063752Y0209986D01*
X0063252Y0210674D01*
X0062651Y0211275D01*
X0061964Y0211774D01*
X0061206Y0212160D01*
X0060398Y0212423D01*
X0059633Y0212544D01*
X0059884Y0212504D02*
X0111702Y0212504D01*
X0110943Y0211506D02*
X0062333Y0211506D01*
X0063373Y0210507D02*
X0110529Y0210507D01*
X0107432Y0209509D02*
X0063995Y0209509D01*
X0064371Y0208510D02*
X0105611Y0208510D01*
X0104612Y0207512D02*
X0064533Y0207512D01*
X0064533Y0206513D02*
X0103614Y0206513D01*
X0102615Y0205515D02*
X0064533Y0205515D01*
X0064533Y0204516D02*
X0101617Y0204516D01*
X0100618Y0203518D02*
X0059633Y0203518D01*
X0059633Y0204516D02*
X0058633Y0204516D01*
X0058633Y0203756D02*
X0058633Y0212544D01*
X0057869Y0212423D01*
X0057060Y0212160D01*
X0056303Y0211774D01*
X0055615Y0211275D01*
X0055014Y0210674D01*
X0054515Y0209986D01*
X0054129Y0209229D01*
X0053866Y0208420D01*
X0053733Y0207581D01*
X0053733Y0203756D01*
X0058633Y0203756D01*
X0058633Y0203518D02*
X0047933Y0203518D01*
X0047933Y0204516D02*
X0053733Y0204516D01*
X0053733Y0205515D02*
X0047933Y0205515D01*
X0047933Y0206513D02*
X0053733Y0206513D01*
X0053733Y0207512D02*
X0047933Y0207512D01*
X0047933Y0208510D02*
X0053895Y0208510D01*
X0054272Y0209509D02*
X0047651Y0209509D01*
X0047237Y0210507D02*
X0054893Y0210507D01*
X0055933Y0211506D02*
X0046824Y0211506D01*
X0048744Y0215500D02*
X0116427Y0215500D01*
X0120039Y0215500D02*
X0347723Y0215500D01*
X0346724Y0216498D02*
X0049743Y0216498D01*
X0050741Y0217497D02*
X0345726Y0217497D01*
X0344727Y0218495D02*
X0051740Y0218495D01*
X0051866Y0219494D02*
X0344600Y0219494D01*
X0344600Y0220492D02*
X0051866Y0220492D01*
X0051866Y0221491D02*
X0344600Y0221491D01*
X0344600Y0222489D02*
X0051866Y0222489D01*
X0051866Y0223488D02*
X0344600Y0223488D01*
X0344764Y0224486D02*
X0051703Y0224486D01*
X0050704Y0225485D02*
X0345763Y0225485D01*
X0346761Y0226483D02*
X0049706Y0226483D01*
X0048707Y0227482D02*
X0347760Y0227482D01*
X0361673Y0230478D02*
X0034794Y0230478D01*
X0035022Y0231476D02*
X0361445Y0231476D01*
X0361302Y0232475D02*
X0321909Y0232475D01*
X0321593Y0232158D02*
X0323866Y0234432D01*
X0323866Y0235949D01*
X0320076Y0235949D01*
X0320076Y0236130D01*
X0323866Y0236130D01*
X0323866Y0237647D01*
X0321593Y0239920D01*
X0320076Y0239920D01*
X0320076Y0236130D01*
X0319895Y0236130D01*
X0319895Y0239920D01*
X0318378Y0239920D01*
X0316104Y0237647D01*
X0316104Y0236130D01*
X0319895Y0236130D01*
X0319895Y0235949D01*
X0320076Y0235949D01*
X0320076Y0232158D01*
X0321593Y0232158D01*
X0320076Y0232475D02*
X0319895Y0232475D01*
X0319895Y0232158D02*
X0319895Y0235949D01*
X0316104Y0235949D01*
X0316104Y0234432D01*
X0318378Y0232158D01*
X0319895Y0232158D01*
X0319895Y0233473D02*
X0320076Y0233473D01*
X0320076Y0234472D02*
X0319895Y0234472D01*
X0319895Y0235470D02*
X0320076Y0235470D01*
X0320076Y0236469D02*
X0319895Y0236469D01*
X0319895Y0237467D02*
X0320076Y0237467D01*
X0320076Y0238466D02*
X0319895Y0238466D01*
X0319895Y0239464D02*
X0320076Y0239464D01*
X0322049Y0239464D02*
X0362663Y0239464D01*
X0362714Y0239570D02*
X0362129Y0238355D01*
X0361684Y0237083D01*
X0361384Y0235769D01*
X0361233Y0234430D01*
X0361233Y0234256D01*
X0372733Y0234256D01*
X0372733Y0233256D01*
X0373733Y0233256D01*
X0373733Y0221756D01*
X0373907Y0221756D01*
X0375247Y0221907D01*
X0376561Y0222207D01*
X0377833Y0222652D01*
X0379047Y0223237D01*
X0380188Y0223954D01*
X0381242Y0224794D01*
X0382195Y0225747D01*
X0383035Y0226801D01*
X0383753Y0227942D01*
X0384337Y0229156D01*
X0384782Y0230429D01*
X0385082Y0231743D01*
X0385233Y0233082D01*
X0385233Y0233256D01*
X0373733Y0233256D01*
X0373733Y0234256D01*
X0372733Y0234256D01*
X0372733Y0245756D01*
X0372559Y0245756D01*
X0371220Y0245605D01*
X0369906Y0245305D01*
X0368634Y0244860D01*
X0367420Y0244275D01*
X0366278Y0243558D01*
X0365225Y0242718D01*
X0364272Y0241765D01*
X0363431Y0240711D01*
X0362714Y0239570D01*
X0363275Y0240463D02*
X0033191Y0240463D01*
X0033035Y0240711D02*
X0032195Y0241765D01*
X0031242Y0242718D01*
X0030188Y0243558D01*
X0029047Y0244275D01*
X0027833Y0244860D01*
X0026561Y0245305D01*
X0025247Y0245605D01*
X0023907Y0245756D01*
X0023733Y0245756D01*
X0023733Y0234256D01*
X0022733Y0234256D01*
X0022733Y0233256D01*
X0011233Y0233256D01*
X0011233Y0233082D01*
X0011384Y0231743D01*
X0011684Y0230429D01*
X0012129Y0229156D01*
X0012714Y0227942D01*
X0013431Y0226801D01*
X0014272Y0225747D01*
X0015225Y0224794D01*
X0016278Y0223954D01*
X0017420Y0223237D01*
X0018634Y0222652D01*
X0019906Y0222207D01*
X0021220Y0221907D01*
X0022559Y0221756D01*
X0022733Y0221756D01*
X0022733Y0233256D01*
X0023733Y0233256D01*
X0023733Y0234256D01*
X0035233Y0234256D01*
X0035233Y0234430D01*
X0035082Y0235769D01*
X0034782Y0237083D01*
X0034337Y0238355D01*
X0033753Y0239570D01*
X0033035Y0240711D01*
X0032437Y0241461D02*
X0364029Y0241461D01*
X0364967Y0242460D02*
X0031500Y0242460D01*
X0030314Y0243458D02*
X0366153Y0243458D01*
X0367797Y0244457D02*
X0028670Y0244457D01*
X0025903Y0245455D02*
X0370564Y0245455D01*
X0372733Y0245455D02*
X0373733Y0245455D01*
X0373733Y0245756D02*
X0373907Y0245756D01*
X0375247Y0245605D01*
X0376561Y0245305D01*
X0377833Y0244860D01*
X0379047Y0244275D01*
X0380188Y0243558D01*
X0381242Y0242718D01*
X0382195Y0241765D01*
X0383035Y0240711D01*
X0383753Y0239570D01*
X0384337Y0238355D01*
X0384782Y0237083D01*
X0385082Y0235769D01*
X0385233Y0234430D01*
X0385233Y0234256D01*
X0373733Y0234256D01*
X0373733Y0245756D01*
X0373733Y0244457D02*
X0372733Y0244457D01*
X0372733Y0243458D02*
X0373733Y0243458D01*
X0373733Y0242460D02*
X0372733Y0242460D01*
X0372733Y0241461D02*
X0373733Y0241461D01*
X0373733Y0240463D02*
X0372733Y0240463D01*
X0372733Y0239464D02*
X0373733Y0239464D01*
X0373733Y0238466D02*
X0372733Y0238466D01*
X0372733Y0237467D02*
X0373733Y0237467D01*
X0373733Y0236469D02*
X0372733Y0236469D01*
X0372733Y0235470D02*
X0373733Y0235470D01*
X0373733Y0234472D02*
X0372733Y0234472D01*
X0372733Y0233473D02*
X0322908Y0233473D01*
X0323866Y0234472D02*
X0361238Y0234472D01*
X0361351Y0235470D02*
X0323866Y0235470D01*
X0323866Y0236469D02*
X0361544Y0236469D01*
X0361819Y0237467D02*
X0323866Y0237467D01*
X0323048Y0238466D02*
X0362182Y0238466D01*
X0372733Y0232475D02*
X0373733Y0232475D01*
X0373733Y0233473D02*
X0386155Y0233473D01*
X0386155Y0232475D02*
X0385165Y0232475D01*
X0385022Y0231476D02*
X0386155Y0231476D01*
X0386155Y0230478D02*
X0384794Y0230478D01*
X0384450Y0229479D02*
X0386155Y0229479D01*
X0386155Y0228480D02*
X0384012Y0228480D01*
X0383463Y0227482D02*
X0386155Y0227482D01*
X0386155Y0226483D02*
X0382782Y0226483D01*
X0381933Y0225485D02*
X0386155Y0225485D01*
X0386155Y0224486D02*
X0380856Y0224486D01*
X0379447Y0223488D02*
X0386155Y0223488D01*
X0386155Y0222489D02*
X0377368Y0222489D01*
X0373733Y0222489D02*
X0372733Y0222489D01*
X0372733Y0223488D02*
X0373733Y0223488D01*
X0373733Y0224486D02*
X0372733Y0224486D01*
X0372733Y0225485D02*
X0373733Y0225485D01*
X0373733Y0226483D02*
X0372733Y0226483D01*
X0372733Y0227482D02*
X0373733Y0227482D01*
X0373733Y0228480D02*
X0372733Y0228480D01*
X0372733Y0229479D02*
X0373733Y0229479D01*
X0373733Y0230478D02*
X0372733Y0230478D01*
X0372733Y0231476D02*
X0373733Y0231476D01*
X0385229Y0234472D02*
X0386155Y0234472D01*
X0386155Y0235470D02*
X0385116Y0235470D01*
X0384923Y0236469D02*
X0386155Y0236469D01*
X0386155Y0237467D02*
X0384648Y0237467D01*
X0384284Y0238466D02*
X0386155Y0238466D01*
X0386155Y0239464D02*
X0383803Y0239464D01*
X0383191Y0240463D02*
X0386155Y0240463D01*
X0386155Y0241461D02*
X0382437Y0241461D01*
X0381500Y0242460D02*
X0386155Y0242460D01*
X0386155Y0243458D02*
X0380314Y0243458D01*
X0378670Y0244457D02*
X0386155Y0244457D01*
X0386155Y0245455D02*
X0375903Y0245455D01*
X0386155Y0246454D02*
X0010233Y0246454D01*
X0010233Y0247452D02*
X0386155Y0247452D01*
X0362016Y0229479D02*
X0034450Y0229479D01*
X0035165Y0232475D02*
X0074557Y0232475D01*
X0074874Y0232158D02*
X0076391Y0232158D01*
X0076391Y0235949D01*
X0076572Y0235949D01*
X0076572Y0236130D01*
X0080362Y0236130D01*
X0080362Y0237647D01*
X0078089Y0239920D01*
X0076572Y0239920D01*
X0076572Y0236130D01*
X0076391Y0236130D01*
X0076391Y0239920D01*
X0074874Y0239920D01*
X0072600Y0237647D01*
X0072600Y0236130D01*
X0076391Y0236130D01*
X0076391Y0235949D01*
X0072600Y0235949D01*
X0072600Y0234432D01*
X0074874Y0232158D01*
X0076391Y0232475D02*
X0076572Y0232475D01*
X0076572Y0232158D02*
X0078089Y0232158D01*
X0080362Y0234432D01*
X0080362Y0235949D01*
X0076572Y0235949D01*
X0076572Y0232158D01*
X0076572Y0233473D02*
X0076391Y0233473D01*
X0076391Y0234472D02*
X0076572Y0234472D01*
X0076572Y0235470D02*
X0076391Y0235470D01*
X0076391Y0236469D02*
X0076572Y0236469D01*
X0076572Y0237467D02*
X0076391Y0237467D01*
X0076391Y0238466D02*
X0076572Y0238466D01*
X0076572Y0239464D02*
X0076391Y0239464D01*
X0074417Y0239464D02*
X0033803Y0239464D01*
X0034284Y0238466D02*
X0073419Y0238466D01*
X0072600Y0237467D02*
X0034648Y0237467D01*
X0034923Y0236469D02*
X0072600Y0236469D01*
X0072600Y0235470D02*
X0035116Y0235470D01*
X0035229Y0234472D02*
X0072600Y0234472D01*
X0073559Y0233473D02*
X0023733Y0233473D01*
X0023733Y0232475D02*
X0022733Y0232475D01*
X0022733Y0233473D02*
X0010233Y0233473D01*
X0010233Y0232475D02*
X0011302Y0232475D01*
X0011445Y0231476D02*
X0010233Y0231476D01*
X0010233Y0230478D02*
X0011673Y0230478D01*
X0012016Y0229479D02*
X0010233Y0229479D01*
X0010233Y0228480D02*
X0012455Y0228480D01*
X0013003Y0227482D02*
X0010233Y0227482D01*
X0010233Y0226483D02*
X0013684Y0226483D01*
X0014534Y0225485D02*
X0010233Y0225485D01*
X0010233Y0224486D02*
X0015610Y0224486D01*
X0017020Y0223488D02*
X0010233Y0223488D01*
X0010233Y0222489D02*
X0019098Y0222489D01*
X0022733Y0222489D02*
X0023733Y0222489D01*
X0023733Y0223488D02*
X0022733Y0223488D01*
X0022733Y0224486D02*
X0023733Y0224486D01*
X0023733Y0225485D02*
X0022733Y0225485D01*
X0022733Y0226483D02*
X0023733Y0226483D01*
X0023733Y0227482D02*
X0022733Y0227482D01*
X0022733Y0228480D02*
X0023733Y0228480D01*
X0023733Y0229479D02*
X0022733Y0229479D01*
X0022733Y0230478D02*
X0023733Y0230478D01*
X0023733Y0231476D02*
X0022733Y0231476D01*
X0022733Y0234256D02*
X0011233Y0234256D01*
X0011233Y0234430D01*
X0011384Y0235769D01*
X0011684Y0237083D01*
X0012129Y0238355D01*
X0012714Y0239570D01*
X0013431Y0240711D01*
X0014272Y0241765D01*
X0015225Y0242718D01*
X0016278Y0243558D01*
X0017420Y0244275D01*
X0018634Y0244860D01*
X0019906Y0245305D01*
X0021220Y0245605D01*
X0022559Y0245756D01*
X0022733Y0245756D01*
X0022733Y0234256D01*
X0022733Y0234472D02*
X0023733Y0234472D01*
X0023733Y0235470D02*
X0022733Y0235470D01*
X0022733Y0236469D02*
X0023733Y0236469D01*
X0023733Y0237467D02*
X0022733Y0237467D01*
X0022733Y0238466D02*
X0023733Y0238466D01*
X0023733Y0239464D02*
X0022733Y0239464D01*
X0022733Y0240463D02*
X0023733Y0240463D01*
X0023733Y0241461D02*
X0022733Y0241461D01*
X0022733Y0242460D02*
X0023733Y0242460D01*
X0023733Y0243458D02*
X0022733Y0243458D01*
X0022733Y0244457D02*
X0023733Y0244457D01*
X0023733Y0245455D02*
X0022733Y0245455D01*
X0020564Y0245455D02*
X0010233Y0245455D01*
X0010233Y0244457D02*
X0017797Y0244457D01*
X0016153Y0243458D02*
X0010233Y0243458D01*
X0010233Y0242460D02*
X0014967Y0242460D01*
X0014029Y0241461D02*
X0010233Y0241461D01*
X0010233Y0240463D02*
X0013275Y0240463D01*
X0012663Y0239464D02*
X0010233Y0239464D01*
X0010233Y0238466D02*
X0012182Y0238466D01*
X0011819Y0237467D02*
X0010233Y0237467D01*
X0010233Y0236469D02*
X0011544Y0236469D01*
X0011351Y0235470D02*
X0010233Y0235470D01*
X0010233Y0234472D02*
X0011238Y0234472D01*
X0010233Y0221491D02*
X0029442Y0221491D01*
X0023451Y0215500D02*
X0021639Y0215500D01*
X0047933Y0202519D02*
X0053733Y0202519D01*
X0053733Y0201521D02*
X0047933Y0201521D01*
X0047933Y0200522D02*
X0053733Y0200522D01*
X0053733Y0199524D02*
X0047933Y0199524D01*
X0047933Y0198525D02*
X0053798Y0198525D01*
X0054050Y0197527D02*
X0047868Y0197527D01*
X0047454Y0196528D02*
X0054514Y0196528D01*
X0055323Y0195530D02*
X0047283Y0195530D01*
X0047283Y0194531D02*
X0056708Y0194531D01*
X0058633Y0194531D02*
X0059633Y0194531D01*
X0059633Y0195530D02*
X0058633Y0195530D01*
X0058633Y0196528D02*
X0059633Y0196528D01*
X0059633Y0197527D02*
X0058633Y0197527D01*
X0058633Y0198525D02*
X0059633Y0198525D01*
X0059633Y0199524D02*
X0058633Y0199524D01*
X0058633Y0200522D02*
X0059633Y0200522D01*
X0059633Y0201521D02*
X0058633Y0201521D01*
X0058633Y0202519D02*
X0059633Y0202519D01*
X0059633Y0205515D02*
X0058633Y0205515D01*
X0058633Y0206513D02*
X0059633Y0206513D01*
X0059633Y0207512D02*
X0058633Y0207512D01*
X0058633Y0208510D02*
X0059633Y0208510D01*
X0059633Y0209509D02*
X0058633Y0209509D01*
X0058633Y0210507D02*
X0059633Y0210507D01*
X0059633Y0211506D02*
X0058633Y0211506D01*
X0064533Y0202519D02*
X0100172Y0202519D01*
X0099758Y0201521D02*
X0064533Y0201521D01*
X0064533Y0200522D02*
X0099633Y0200522D01*
X0099633Y0199524D02*
X0064533Y0199524D01*
X0064469Y0198525D02*
X0099633Y0198525D01*
X0099633Y0197527D02*
X0064217Y0197527D01*
X0063753Y0196528D02*
X0099633Y0196528D01*
X0099633Y0195530D02*
X0062944Y0195530D01*
X0061559Y0194531D02*
X0099633Y0194531D01*
X0099633Y0193533D02*
X0047283Y0193533D01*
X0047283Y0192534D02*
X0099633Y0192534D01*
X0099633Y0191536D02*
X0047283Y0191536D01*
X0047283Y0190537D02*
X0099633Y0190537D01*
X0099633Y0189539D02*
X0047283Y0189539D01*
X0047283Y0188540D02*
X0099633Y0188540D01*
X0099633Y0187542D02*
X0047283Y0187542D01*
X0047283Y0186543D02*
X0099633Y0186543D01*
X0099633Y0185545D02*
X0047283Y0185545D01*
X0047283Y0184546D02*
X0099633Y0184546D01*
X0099633Y0183547D02*
X0047283Y0183547D01*
X0047283Y0182549D02*
X0056842Y0182549D01*
X0057060Y0182660D02*
X0056303Y0182274D01*
X0055615Y0181775D01*
X0055014Y0181174D01*
X0054515Y0180486D01*
X0054129Y0179729D01*
X0053866Y0178920D01*
X0053733Y0178081D01*
X0053733Y0174256D01*
X0058633Y0174256D01*
X0058633Y0173256D01*
X0053733Y0173256D01*
X0053733Y0169431D01*
X0053866Y0168591D01*
X0054129Y0167783D01*
X0054515Y0167026D01*
X0055014Y0166338D01*
X0055615Y0165737D01*
X0056303Y0165237D01*
X0057060Y0164852D01*
X0057869Y0164589D01*
X0058633Y0164468D01*
X0058633Y0173256D01*
X0059633Y0173256D01*
X0059633Y0164468D01*
X0060398Y0164589D01*
X0061206Y0164852D01*
X0061964Y0165237D01*
X0062651Y0165737D01*
X0063252Y0166338D01*
X0063752Y0167026D01*
X0064138Y0167783D01*
X0064400Y0168591D01*
X0064533Y0169431D01*
X0064533Y0173256D01*
X0059633Y0173256D01*
X0059633Y0174256D01*
X0058633Y0174256D01*
X0058633Y0183044D01*
X0057869Y0182923D01*
X0057060Y0182660D01*
X0058633Y0182549D02*
X0059633Y0182549D01*
X0059633Y0183044D02*
X0059633Y0174256D01*
X0064533Y0174256D01*
X0064533Y0178081D01*
X0064400Y0178920D01*
X0064138Y0179729D01*
X0063752Y0180486D01*
X0063252Y0181174D01*
X0062651Y0181775D01*
X0061964Y0182274D01*
X0061206Y0182660D01*
X0060398Y0182923D01*
X0059633Y0183044D01*
X0059633Y0181550D02*
X0058633Y0181550D01*
X0058633Y0180552D02*
X0059633Y0180552D01*
X0059633Y0179553D02*
X0058633Y0179553D01*
X0058633Y0178555D02*
X0059633Y0178555D01*
X0059633Y0177556D02*
X0058633Y0177556D01*
X0058633Y0176558D02*
X0059633Y0176558D01*
X0059633Y0175559D02*
X0058633Y0175559D01*
X0058633Y0174561D02*
X0059633Y0174561D01*
X0059633Y0173562D02*
X0098733Y0173562D01*
X0098733Y0172564D02*
X0064533Y0172564D01*
X0064533Y0171565D02*
X0098733Y0171565D01*
X0099023Y0170567D02*
X0064533Y0170567D01*
X0064533Y0169568D02*
X0100021Y0169568D01*
X0101020Y0168570D02*
X0064393Y0168570D01*
X0064030Y0167571D02*
X0102018Y0167571D01*
X0109448Y0167571D02*
X0113337Y0167571D01*
X0113229Y0167783D02*
X0113615Y0167026D01*
X0114114Y0166338D01*
X0114715Y0165737D01*
X0115403Y0165237D01*
X0116160Y0164852D01*
X0116969Y0164589D01*
X0117733Y0164468D01*
X0117733Y0173256D01*
X0112833Y0173256D01*
X0112833Y0169431D01*
X0112966Y0168591D01*
X0113229Y0167783D01*
X0112973Y0168570D02*
X0110447Y0168570D01*
X0111445Y0169568D02*
X0112833Y0169568D01*
X0112833Y0170567D02*
X0112444Y0170567D01*
X0112733Y0171565D02*
X0112833Y0171565D01*
X0112833Y0172564D02*
X0112733Y0172564D01*
X0112733Y0173562D02*
X0117733Y0173562D01*
X0117733Y0173256D02*
X0117733Y0174256D01*
X0112833Y0174256D01*
X0112833Y0178081D01*
X0112966Y0178920D01*
X0113229Y0179729D01*
X0113615Y0180486D01*
X0114114Y0181174D01*
X0114715Y0181775D01*
X0115403Y0182274D01*
X0116160Y0182660D01*
X0116969Y0182923D01*
X0117733Y0183044D01*
X0117733Y0174256D01*
X0118733Y0174256D01*
X0118733Y0183044D01*
X0119498Y0182923D01*
X0120306Y0182660D01*
X0121064Y0182274D01*
X0121751Y0181775D01*
X0122352Y0181174D01*
X0122852Y0180486D01*
X0123238Y0179729D01*
X0123500Y0178920D01*
X0123633Y0178081D01*
X0123633Y0174256D01*
X0118733Y0174256D01*
X0118733Y0173256D01*
X0118733Y0164468D01*
X0119498Y0164589D01*
X0120306Y0164852D01*
X0121064Y0165237D01*
X0121751Y0165737D01*
X0122352Y0166338D01*
X0122852Y0167026D01*
X0123238Y0167783D01*
X0123500Y0168591D01*
X0123633Y0169431D01*
X0123633Y0173256D01*
X0118733Y0173256D01*
X0117733Y0173256D01*
X0117733Y0172564D02*
X0118733Y0172564D01*
X0118733Y0173562D02*
X0130433Y0173562D01*
X0130433Y0173456D02*
X0126433Y0173456D01*
X0126433Y0170617D01*
X0126539Y0169949D01*
X0126748Y0169305D01*
X0127056Y0168702D01*
X0127453Y0168155D01*
X0127932Y0167676D01*
X0128480Y0167278D01*
X0129083Y0166971D01*
X0129726Y0166762D01*
X0130395Y0166656D01*
X0130433Y0166656D01*
X0130433Y0173456D01*
X0130433Y0174056D01*
X0126433Y0174056D01*
X0126433Y0176894D01*
X0126539Y0177563D01*
X0126748Y0178207D01*
X0127056Y0178810D01*
X0127453Y0179357D01*
X0127932Y0179836D01*
X0128480Y0180234D01*
X0129083Y0180541D01*
X0129726Y0180750D01*
X0130395Y0180856D01*
X0130433Y0180856D01*
X0130433Y0174056D01*
X0131033Y0174056D01*
X0131033Y0180856D01*
X0131072Y0180856D01*
X0131740Y0180750D01*
X0132384Y0180541D01*
X0132987Y0180234D01*
X0133535Y0179836D01*
X0134013Y0179357D01*
X0134411Y0178810D01*
X0134718Y0178207D01*
X0134927Y0177563D01*
X0135033Y0176894D01*
X0135033Y0174056D01*
X0131033Y0174056D01*
X0131033Y0173456D01*
X0131033Y0166656D01*
X0131072Y0166656D01*
X0131740Y0166762D01*
X0132384Y0166971D01*
X0132987Y0167278D01*
X0133535Y0167676D01*
X0134013Y0168155D01*
X0134411Y0168702D01*
X0134718Y0169305D01*
X0134927Y0169949D01*
X0135033Y0170617D01*
X0135033Y0173456D01*
X0131033Y0173456D01*
X0130433Y0173456D01*
X0131033Y0173562D02*
X0258433Y0173562D01*
X0258433Y0172564D02*
X0135033Y0172564D01*
X0135033Y0171565D02*
X0258433Y0171565D01*
X0258433Y0170567D02*
X0135025Y0170567D01*
X0134804Y0169568D02*
X0258433Y0169568D01*
X0258433Y0169504D02*
X0259545Y0166821D01*
X0261598Y0164767D01*
X0264281Y0163656D01*
X0267185Y0163656D01*
X0269868Y0164767D01*
X0270991Y0165890D01*
X0271112Y0165598D01*
X0273475Y0163235D01*
X0276562Y0161956D01*
X0279904Y0161956D01*
X0282992Y0163235D01*
X0285354Y0165598D01*
X0286633Y0168685D01*
X0286633Y0179827D01*
X0285354Y0182914D01*
X0282992Y0185277D01*
X0279904Y0186556D01*
X0276562Y0186556D01*
X0273475Y0185277D01*
X0271112Y0182914D01*
X0270698Y0181915D01*
X0269868Y0182745D01*
X0267185Y0183856D01*
X0264281Y0183856D01*
X0261598Y0182745D01*
X0259545Y0180691D01*
X0258433Y0178008D01*
X0258433Y0169504D01*
X0258820Y0168570D02*
X0134315Y0168570D01*
X0133390Y0167571D02*
X0259234Y0167571D01*
X0259793Y0166573D02*
X0122523Y0166573D01*
X0123130Y0167571D02*
X0128076Y0167571D01*
X0127152Y0168570D02*
X0123493Y0168570D01*
X0123633Y0169568D02*
X0126663Y0169568D01*
X0126441Y0170567D02*
X0123633Y0170567D01*
X0123633Y0171565D02*
X0126433Y0171565D01*
X0126433Y0172564D02*
X0123633Y0172564D01*
X0123633Y0174561D02*
X0126433Y0174561D01*
X0126433Y0175559D02*
X0123633Y0175559D01*
X0123633Y0176558D02*
X0126433Y0176558D01*
X0126538Y0177556D02*
X0123633Y0177556D01*
X0123558Y0178555D02*
X0126926Y0178555D01*
X0127650Y0179553D02*
X0123295Y0179553D01*
X0122804Y0180552D02*
X0129117Y0180552D01*
X0130433Y0180552D02*
X0131033Y0180552D01*
X0131033Y0179553D02*
X0130433Y0179553D01*
X0130433Y0178555D02*
X0131033Y0178555D01*
X0131033Y0177556D02*
X0130433Y0177556D01*
X0130433Y0176558D02*
X0131033Y0176558D01*
X0131033Y0175559D02*
X0130433Y0175559D01*
X0130433Y0174561D02*
X0131033Y0174561D01*
X0131033Y0172564D02*
X0130433Y0172564D01*
X0130433Y0171565D02*
X0131033Y0171565D01*
X0131033Y0170567D02*
X0130433Y0170567D01*
X0130433Y0169568D02*
X0131033Y0169568D01*
X0131033Y0168570D02*
X0130433Y0168570D01*
X0130433Y0167571D02*
X0131033Y0167571D01*
X0121527Y0165574D02*
X0260791Y0165574D01*
X0262060Y0164576D02*
X0119415Y0164576D01*
X0118733Y0164576D02*
X0117733Y0164576D01*
X0117051Y0164576D02*
X0060315Y0164576D01*
X0059633Y0164576D02*
X0058633Y0164576D01*
X0057951Y0164576D02*
X0046133Y0164576D01*
X0046852Y0165574D02*
X0055839Y0165574D01*
X0054844Y0166573D02*
X0047266Y0166573D01*
X0047679Y0167571D02*
X0054237Y0167571D01*
X0053873Y0168570D02*
X0047933Y0168570D01*
X0047933Y0169568D02*
X0053733Y0169568D01*
X0053733Y0170567D02*
X0047933Y0170567D01*
X0047933Y0171565D02*
X0053733Y0171565D01*
X0053733Y0172564D02*
X0047933Y0172564D01*
X0047933Y0173562D02*
X0058633Y0173562D01*
X0058633Y0172564D02*
X0059633Y0172564D01*
X0059633Y0171565D02*
X0058633Y0171565D01*
X0058633Y0170567D02*
X0059633Y0170567D01*
X0059633Y0169568D02*
X0058633Y0169568D01*
X0058633Y0168570D02*
X0059633Y0168570D01*
X0059633Y0167571D02*
X0058633Y0167571D01*
X0058633Y0166573D02*
X0059633Y0166573D01*
X0059633Y0165574D02*
X0058633Y0165574D01*
X0062427Y0165574D02*
X0114939Y0165574D01*
X0113944Y0166573D02*
X0063423Y0166573D01*
X0064533Y0174561D02*
X0098733Y0174561D01*
X0098733Y0175559D02*
X0064533Y0175559D01*
X0064533Y0176558D02*
X0098733Y0176558D01*
X0099633Y0177556D02*
X0064533Y0177556D01*
X0064458Y0178555D02*
X0099633Y0178555D01*
X0099633Y0179553D02*
X0064195Y0179553D01*
X0063704Y0180552D02*
X0099633Y0180552D01*
X0099633Y0181550D02*
X0062876Y0181550D01*
X0061425Y0182549D02*
X0099633Y0182549D01*
X0111833Y0182549D02*
X0115942Y0182549D01*
X0114491Y0181550D02*
X0111833Y0181550D01*
X0111833Y0180552D02*
X0113663Y0180552D01*
X0113172Y0179553D02*
X0111833Y0179553D01*
X0111833Y0178555D02*
X0112908Y0178555D01*
X0112833Y0177556D02*
X0111833Y0177556D01*
X0112733Y0176558D02*
X0112833Y0176558D01*
X0112833Y0175559D02*
X0112733Y0175559D01*
X0112733Y0174561D02*
X0112833Y0174561D01*
X0117733Y0174561D02*
X0118733Y0174561D01*
X0118733Y0175559D02*
X0117733Y0175559D01*
X0117733Y0176558D02*
X0118733Y0176558D01*
X0118733Y0177556D02*
X0117733Y0177556D01*
X0117733Y0178555D02*
X0118733Y0178555D01*
X0118733Y0179553D02*
X0117733Y0179553D01*
X0117733Y0180552D02*
X0118733Y0180552D01*
X0118733Y0181550D02*
X0117733Y0181550D01*
X0117733Y0182549D02*
X0118733Y0182549D01*
X0120525Y0182549D02*
X0261403Y0182549D01*
X0260404Y0181550D02*
X0121976Y0181550D01*
X0111833Y0183547D02*
X0263537Y0183547D01*
X0267930Y0183547D02*
X0271746Y0183547D01*
X0270961Y0182549D02*
X0270064Y0182549D01*
X0272744Y0184546D02*
X0111833Y0184546D01*
X0111833Y0185545D02*
X0274121Y0185545D01*
X0276531Y0186543D02*
X0111833Y0186543D01*
X0111833Y0187542D02*
X0349183Y0187542D01*
X0349183Y0188540D02*
X0111833Y0188540D01*
X0111833Y0189539D02*
X0349183Y0189539D01*
X0349183Y0190537D02*
X0111833Y0190537D01*
X0111833Y0191536D02*
X0115163Y0191536D01*
X0113176Y0192534D02*
X0111833Y0192534D01*
X0111833Y0193533D02*
X0112177Y0193533D01*
X0121304Y0191536D02*
X0349183Y0191536D01*
X0349183Y0192534D02*
X0123291Y0192534D01*
X0124289Y0193533D02*
X0349183Y0193533D01*
X0349183Y0194531D02*
X0338233Y0194531D01*
X0338598Y0194589D02*
X0339406Y0194852D01*
X0340164Y0195237D01*
X0340851Y0195737D01*
X0341452Y0196338D01*
X0341952Y0197026D01*
X0342338Y0197783D01*
X0342600Y0198591D01*
X0342733Y0199431D01*
X0342733Y0203256D01*
X0337833Y0203256D01*
X0337833Y0194468D01*
X0338598Y0194589D01*
X0337833Y0194531D02*
X0336833Y0194531D01*
X0336833Y0194468D02*
X0336833Y0203256D01*
X0331933Y0203256D01*
X0331933Y0199431D01*
X0332066Y0198591D01*
X0332329Y0197783D01*
X0332715Y0197026D01*
X0333214Y0196338D01*
X0333815Y0195737D01*
X0334503Y0195237D01*
X0335260Y0194852D01*
X0336069Y0194589D01*
X0336833Y0194468D01*
X0336433Y0194531D02*
X0279133Y0194531D01*
X0279498Y0194589D02*
X0280306Y0194852D01*
X0281064Y0195237D01*
X0281751Y0195737D01*
X0282352Y0196338D01*
X0282852Y0197026D01*
X0283238Y0197783D01*
X0283500Y0198591D01*
X0283633Y0199431D01*
X0283633Y0203256D01*
X0278733Y0203256D01*
X0278733Y0194468D01*
X0279498Y0194589D01*
X0278733Y0194531D02*
X0277733Y0194531D01*
X0277733Y0194468D02*
X0277733Y0203256D01*
X0272833Y0203256D01*
X0272833Y0199431D01*
X0272966Y0198591D01*
X0273229Y0197783D01*
X0273615Y0197026D01*
X0274114Y0196338D01*
X0274715Y0195737D01*
X0275403Y0195237D01*
X0276160Y0194852D01*
X0276969Y0194589D01*
X0277733Y0194468D01*
X0277333Y0194531D02*
X0134298Y0194531D01*
X0135631Y0195530D02*
X0275001Y0195530D01*
X0273976Y0196528D02*
X0136629Y0196528D01*
X0137214Y0197527D02*
X0263138Y0197527D01*
X0262932Y0197676D02*
X0263480Y0197278D01*
X0264083Y0196971D01*
X0264726Y0196762D01*
X0265395Y0196656D01*
X0265433Y0196656D01*
X0265433Y0203456D01*
X0261433Y0203456D01*
X0261433Y0200617D01*
X0261539Y0199949D01*
X0261748Y0199305D01*
X0262056Y0198702D01*
X0262453Y0198155D01*
X0262932Y0197676D01*
X0262184Y0198525D02*
X0137628Y0198525D01*
X0138033Y0199524D02*
X0261677Y0199524D01*
X0261448Y0200522D02*
X0138033Y0200522D01*
X0138033Y0201521D02*
X0261433Y0201521D01*
X0261433Y0202519D02*
X0138033Y0202519D01*
X0138033Y0203518D02*
X0265433Y0203518D01*
X0265433Y0203456D02*
X0265433Y0204056D01*
X0261433Y0204056D01*
X0261433Y0206894D01*
X0261539Y0207563D01*
X0261748Y0208207D01*
X0262056Y0208810D01*
X0262453Y0209357D01*
X0262932Y0209836D01*
X0263480Y0210234D01*
X0264083Y0210541D01*
X0264726Y0210750D01*
X0265395Y0210856D01*
X0265433Y0210856D01*
X0265433Y0204056D01*
X0266033Y0204056D01*
X0266033Y0210856D01*
X0266072Y0210856D01*
X0266740Y0210750D01*
X0267384Y0210541D01*
X0267987Y0210234D01*
X0268535Y0209836D01*
X0269013Y0209357D01*
X0269411Y0208810D01*
X0269718Y0208207D01*
X0269927Y0207563D01*
X0270033Y0206894D01*
X0270033Y0204056D01*
X0266033Y0204056D01*
X0266033Y0203456D01*
X0266033Y0196656D01*
X0266072Y0196656D01*
X0266740Y0196762D01*
X0267384Y0196971D01*
X0267987Y0197278D01*
X0268535Y0197676D01*
X0269013Y0198155D01*
X0269411Y0198702D01*
X0269718Y0199305D01*
X0269927Y0199949D01*
X0270033Y0200617D01*
X0270033Y0203456D01*
X0266033Y0203456D01*
X0265433Y0203456D01*
X0266033Y0203518D02*
X0277733Y0203518D01*
X0277733Y0203256D02*
X0277733Y0204256D01*
X0272833Y0204256D01*
X0272833Y0208081D01*
X0272966Y0208920D01*
X0273229Y0209729D01*
X0273615Y0210486D01*
X0274114Y0211174D01*
X0274715Y0211775D01*
X0275403Y0212274D01*
X0276160Y0212660D01*
X0276969Y0212923D01*
X0277733Y0213044D01*
X0277733Y0204256D01*
X0278733Y0204256D01*
X0278733Y0213044D01*
X0279498Y0212923D01*
X0280306Y0212660D01*
X0281064Y0212274D01*
X0281751Y0211775D01*
X0282352Y0211174D01*
X0282852Y0210486D01*
X0283238Y0209729D01*
X0283500Y0208920D01*
X0283633Y0208081D01*
X0283633Y0204256D01*
X0278733Y0204256D01*
X0278733Y0203256D01*
X0277733Y0203256D01*
X0277733Y0202519D02*
X0278733Y0202519D01*
X0278733Y0201521D02*
X0277733Y0201521D01*
X0277733Y0200522D02*
X0278733Y0200522D01*
X0278733Y0199524D02*
X0277733Y0199524D01*
X0277733Y0198525D02*
X0278733Y0198525D01*
X0278733Y0197527D02*
X0277733Y0197527D01*
X0277733Y0196528D02*
X0278733Y0196528D01*
X0278733Y0195530D02*
X0277733Y0195530D01*
X0281466Y0195530D02*
X0334101Y0195530D01*
X0333076Y0196528D02*
X0282490Y0196528D01*
X0283107Y0197527D02*
X0332460Y0197527D01*
X0332088Y0198525D02*
X0283479Y0198525D01*
X0283633Y0199524D02*
X0331933Y0199524D01*
X0331933Y0200522D02*
X0283633Y0200522D01*
X0283633Y0201521D02*
X0331933Y0201521D01*
X0331933Y0202519D02*
X0283633Y0202519D01*
X0283633Y0204516D02*
X0331933Y0204516D01*
X0331933Y0204256D02*
X0336833Y0204256D01*
X0336833Y0203256D01*
X0337833Y0203256D01*
X0337833Y0204256D01*
X0336833Y0204256D01*
X0336833Y0213044D01*
X0336069Y0212923D01*
X0335260Y0212660D01*
X0334503Y0212274D01*
X0333815Y0211775D01*
X0333214Y0211174D01*
X0332715Y0210486D01*
X0332329Y0209729D01*
X0332066Y0208920D01*
X0331933Y0208081D01*
X0331933Y0204256D01*
X0331933Y0205515D02*
X0283633Y0205515D01*
X0283633Y0206513D02*
X0331933Y0206513D01*
X0331933Y0207512D02*
X0283633Y0207512D01*
X0283565Y0208510D02*
X0332001Y0208510D01*
X0332257Y0209509D02*
X0283309Y0209509D01*
X0282836Y0210507D02*
X0332730Y0210507D01*
X0333546Y0211506D02*
X0282020Y0211506D01*
X0280612Y0212504D02*
X0334954Y0212504D01*
X0336833Y0212504D02*
X0337833Y0212504D01*
X0337833Y0213044D02*
X0337833Y0204256D01*
X0342733Y0204256D01*
X0342733Y0208081D01*
X0342600Y0208920D01*
X0342338Y0209729D01*
X0341952Y0210486D01*
X0341452Y0211174D01*
X0340851Y0211775D01*
X0340164Y0212274D01*
X0339406Y0212660D01*
X0338598Y0212923D01*
X0337833Y0213044D01*
X0337833Y0211506D02*
X0336833Y0211506D01*
X0336833Y0210507D02*
X0337833Y0210507D01*
X0337833Y0209509D02*
X0336833Y0209509D01*
X0336833Y0208510D02*
X0337833Y0208510D01*
X0337833Y0207512D02*
X0336833Y0207512D01*
X0336833Y0206513D02*
X0337833Y0206513D01*
X0337833Y0205515D02*
X0336833Y0205515D01*
X0336833Y0204516D02*
X0337833Y0204516D01*
X0337833Y0203518D02*
X0348533Y0203518D01*
X0348533Y0204516D02*
X0342733Y0204516D01*
X0342733Y0205515D02*
X0348533Y0205515D01*
X0348533Y0206513D02*
X0342733Y0206513D01*
X0342733Y0207512D02*
X0348533Y0207512D01*
X0348533Y0208510D02*
X0342665Y0208510D01*
X0342409Y0209509D02*
X0348609Y0209509D01*
X0349022Y0210507D02*
X0341936Y0210507D01*
X0341120Y0211506D02*
X0349436Y0211506D01*
X0349902Y0212504D02*
X0339712Y0212504D01*
X0350901Y0213503D02*
X0133038Y0213503D01*
X0135109Y0212504D02*
X0275854Y0212504D01*
X0274446Y0211506D02*
X0136107Y0211506D01*
X0136998Y0210507D02*
X0264017Y0210507D01*
X0265433Y0210507D02*
X0266033Y0210507D01*
X0266033Y0209509D02*
X0265433Y0209509D01*
X0265433Y0208510D02*
X0266033Y0208510D01*
X0266033Y0207512D02*
X0265433Y0207512D01*
X0265433Y0206513D02*
X0266033Y0206513D01*
X0266033Y0205515D02*
X0265433Y0205515D01*
X0265433Y0204516D02*
X0266033Y0204516D01*
X0266033Y0202519D02*
X0265433Y0202519D01*
X0265433Y0201521D02*
X0266033Y0201521D01*
X0266033Y0200522D02*
X0265433Y0200522D01*
X0265433Y0199524D02*
X0266033Y0199524D01*
X0266033Y0198525D02*
X0265433Y0198525D01*
X0265433Y0197527D02*
X0266033Y0197527D01*
X0268329Y0197527D02*
X0273360Y0197527D01*
X0272988Y0198525D02*
X0269282Y0198525D01*
X0269789Y0199524D02*
X0272833Y0199524D01*
X0272833Y0200522D02*
X0270018Y0200522D01*
X0270033Y0201521D02*
X0272833Y0201521D01*
X0272833Y0202519D02*
X0270033Y0202519D01*
X0270033Y0204516D02*
X0272833Y0204516D01*
X0272833Y0205515D02*
X0270033Y0205515D01*
X0270033Y0206513D02*
X0272833Y0206513D01*
X0272833Y0207512D02*
X0269936Y0207512D01*
X0269564Y0208510D02*
X0272901Y0208510D01*
X0273157Y0209509D02*
X0268862Y0209509D01*
X0267450Y0210507D02*
X0273630Y0210507D01*
X0277733Y0210507D02*
X0278733Y0210507D01*
X0278733Y0209509D02*
X0277733Y0209509D01*
X0277733Y0208510D02*
X0278733Y0208510D01*
X0278733Y0207512D02*
X0277733Y0207512D01*
X0277733Y0206513D02*
X0278733Y0206513D01*
X0278733Y0205515D02*
X0277733Y0205515D01*
X0277733Y0204516D02*
X0278733Y0204516D01*
X0278733Y0203518D02*
X0336833Y0203518D01*
X0336833Y0202519D02*
X0337833Y0202519D01*
X0337833Y0201521D02*
X0336833Y0201521D01*
X0336833Y0200522D02*
X0337833Y0200522D01*
X0337833Y0199524D02*
X0336833Y0199524D01*
X0336833Y0198525D02*
X0337833Y0198525D01*
X0337833Y0197527D02*
X0336833Y0197527D01*
X0336833Y0196528D02*
X0337833Y0196528D01*
X0337833Y0195530D02*
X0336833Y0195530D01*
X0340566Y0195530D02*
X0349183Y0195530D01*
X0349183Y0196528D02*
X0341590Y0196528D01*
X0342207Y0197527D02*
X0348806Y0197527D01*
X0348533Y0198525D02*
X0342579Y0198525D01*
X0342733Y0199524D02*
X0348533Y0199524D01*
X0348533Y0200522D02*
X0342733Y0200522D01*
X0342733Y0201521D02*
X0348533Y0201521D01*
X0348533Y0202519D02*
X0342733Y0202519D01*
X0351899Y0214501D02*
X0122450Y0214501D01*
X0123766Y0213503D02*
X0128429Y0213503D01*
X0126358Y0212504D02*
X0124764Y0212504D01*
X0137412Y0209509D02*
X0262605Y0209509D01*
X0261903Y0208510D02*
X0137825Y0208510D01*
X0138033Y0207512D02*
X0261531Y0207512D01*
X0261433Y0206513D02*
X0138033Y0206513D01*
X0138033Y0205515D02*
X0261433Y0205515D01*
X0261433Y0204516D02*
X0138033Y0204516D01*
X0127168Y0194531D02*
X0125288Y0194531D01*
X0125741Y0195530D02*
X0125836Y0195530D01*
X0132350Y0180552D02*
X0259487Y0180552D01*
X0259073Y0179553D02*
X0133817Y0179553D01*
X0134541Y0178555D02*
X0258660Y0178555D01*
X0258433Y0177556D02*
X0134928Y0177556D01*
X0135033Y0176558D02*
X0258433Y0176558D01*
X0258433Y0175559D02*
X0135033Y0175559D01*
X0135033Y0174561D02*
X0258433Y0174561D01*
X0269406Y0164576D02*
X0272134Y0164576D01*
X0271136Y0165574D02*
X0270675Y0165574D01*
X0273133Y0163577D02*
X0045134Y0163577D01*
X0043915Y0162579D02*
X0275059Y0162579D01*
X0281408Y0162579D02*
X0353759Y0162579D01*
X0351833Y0163577D02*
X0283334Y0163577D01*
X0284333Y0164576D02*
X0350834Y0164576D01*
X0349836Y0165574D02*
X0339843Y0165574D01*
X0340164Y0165737D02*
X0340851Y0166237D01*
X0341452Y0166838D01*
X0341952Y0167526D01*
X0342338Y0168283D01*
X0342600Y0169091D01*
X0342733Y0169931D01*
X0342733Y0173756D01*
X0337833Y0173756D01*
X0337833Y0164968D01*
X0338598Y0165089D01*
X0339406Y0165352D01*
X0340164Y0165737D01*
X0341187Y0166573D02*
X0349408Y0166573D01*
X0348995Y0167571D02*
X0341975Y0167571D01*
X0342431Y0168570D02*
X0348581Y0168570D01*
X0348533Y0169568D02*
X0342676Y0169568D01*
X0342733Y0170567D02*
X0348533Y0170567D01*
X0348533Y0171565D02*
X0342733Y0171565D01*
X0342733Y0172564D02*
X0348533Y0172564D01*
X0348533Y0173562D02*
X0342733Y0173562D01*
X0342733Y0174756D02*
X0342733Y0178581D01*
X0342600Y0179420D01*
X0342338Y0180229D01*
X0341952Y0180986D01*
X0341452Y0181674D01*
X0340851Y0182275D01*
X0340164Y0182774D01*
X0339406Y0183160D01*
X0338598Y0183423D01*
X0337833Y0183544D01*
X0337833Y0174756D01*
X0336833Y0174756D01*
X0336833Y0173756D01*
X0331933Y0173756D01*
X0331933Y0169931D01*
X0332066Y0169091D01*
X0332329Y0168283D01*
X0332715Y0167526D01*
X0333214Y0166838D01*
X0333815Y0166237D01*
X0334503Y0165737D01*
X0335260Y0165352D01*
X0336069Y0165089D01*
X0336833Y0164968D01*
X0336833Y0173756D01*
X0337833Y0173756D01*
X0337833Y0174756D01*
X0342733Y0174756D01*
X0342733Y0175559D02*
X0348533Y0175559D01*
X0348533Y0174561D02*
X0337833Y0174561D01*
X0337833Y0175559D02*
X0336833Y0175559D01*
X0336833Y0174756D02*
X0336833Y0183544D01*
X0336069Y0183423D01*
X0335260Y0183160D01*
X0334503Y0182774D01*
X0333815Y0182275D01*
X0333214Y0181674D01*
X0332715Y0180986D01*
X0332329Y0180229D01*
X0332066Y0179420D01*
X0331933Y0178581D01*
X0331933Y0174756D01*
X0336833Y0174756D01*
X0336833Y0174561D02*
X0286633Y0174561D01*
X0286633Y0175559D02*
X0331933Y0175559D01*
X0331933Y0176558D02*
X0286633Y0176558D01*
X0286633Y0177556D02*
X0331933Y0177556D01*
X0331933Y0178555D02*
X0286633Y0178555D01*
X0286633Y0179553D02*
X0332110Y0179553D01*
X0332494Y0180552D02*
X0286333Y0180552D01*
X0285919Y0181550D02*
X0333125Y0181550D01*
X0334193Y0182549D02*
X0285506Y0182549D01*
X0284721Y0183547D02*
X0349183Y0183547D01*
X0349183Y0182549D02*
X0340474Y0182549D01*
X0341542Y0181550D02*
X0349183Y0181550D01*
X0348834Y0180552D02*
X0342173Y0180552D01*
X0342557Y0179553D02*
X0348533Y0179553D01*
X0348533Y0178555D02*
X0342733Y0178555D01*
X0342733Y0177556D02*
X0348533Y0177556D01*
X0348533Y0176558D02*
X0342733Y0176558D01*
X0337833Y0176558D02*
X0336833Y0176558D01*
X0336833Y0177556D02*
X0337833Y0177556D01*
X0337833Y0178555D02*
X0336833Y0178555D01*
X0336833Y0179553D02*
X0337833Y0179553D01*
X0337833Y0180552D02*
X0336833Y0180552D01*
X0336833Y0181550D02*
X0337833Y0181550D01*
X0337833Y0182549D02*
X0336833Y0182549D01*
X0336833Y0173562D02*
X0337833Y0173562D01*
X0337833Y0172564D02*
X0336833Y0172564D01*
X0336833Y0171565D02*
X0337833Y0171565D01*
X0337833Y0170567D02*
X0336833Y0170567D01*
X0336833Y0169568D02*
X0337833Y0169568D01*
X0337833Y0168570D02*
X0336833Y0168570D01*
X0336833Y0167571D02*
X0337833Y0167571D01*
X0337833Y0166573D02*
X0336833Y0166573D01*
X0336833Y0165574D02*
X0337833Y0165574D01*
X0334823Y0165574D02*
X0285331Y0165574D01*
X0285758Y0166573D02*
X0333480Y0166573D01*
X0332692Y0167571D02*
X0286172Y0167571D01*
X0286586Y0168570D02*
X0332236Y0168570D01*
X0331991Y0169568D02*
X0286633Y0169568D01*
X0286633Y0170567D02*
X0331933Y0170567D01*
X0331933Y0171565D02*
X0286633Y0171565D01*
X0286633Y0172564D02*
X0331933Y0172564D01*
X0331933Y0173562D02*
X0286633Y0173562D01*
X0283723Y0184546D02*
X0349183Y0184546D01*
X0349183Y0185545D02*
X0282346Y0185545D01*
X0279935Y0186543D02*
X0349183Y0186543D01*
X0364783Y0186543D02*
X0368833Y0186543D01*
X0368833Y0185545D02*
X0364783Y0185545D01*
X0364783Y0184546D02*
X0368833Y0184546D01*
X0368833Y0183547D02*
X0364783Y0183547D01*
X0364783Y0182549D02*
X0368833Y0182549D01*
X0368833Y0181550D02*
X0364783Y0181550D01*
X0365033Y0180552D02*
X0368534Y0180552D01*
X0368233Y0179553D02*
X0365333Y0179553D01*
X0365333Y0178555D02*
X0368233Y0178555D01*
X0368233Y0177556D02*
X0365333Y0177556D01*
X0365333Y0176558D02*
X0368233Y0176558D01*
X0368233Y0175559D02*
X0365333Y0175559D01*
X0365333Y0174561D02*
X0368233Y0174561D01*
X0368233Y0173562D02*
X0365333Y0173562D01*
X0365333Y0172564D02*
X0368233Y0172564D01*
X0368233Y0171565D02*
X0365333Y0171565D01*
X0365333Y0170567D02*
X0368233Y0170567D01*
X0368233Y0169568D02*
X0365333Y0169568D01*
X0365286Y0168570D02*
X0368281Y0168570D01*
X0368695Y0167571D02*
X0364872Y0167571D01*
X0364458Y0166573D02*
X0368833Y0166573D01*
X0368833Y0165574D02*
X0364031Y0165574D01*
X0363033Y0164576D02*
X0368833Y0164576D01*
X0368274Y0163577D02*
X0362034Y0163577D01*
X0360108Y0162579D02*
X0367275Y0162579D01*
X0366277Y0161580D02*
X0041504Y0161580D01*
X0047933Y0174561D02*
X0053733Y0174561D01*
X0053733Y0175559D02*
X0047933Y0175559D01*
X0047933Y0176558D02*
X0053733Y0176558D01*
X0053733Y0177556D02*
X0047933Y0177556D01*
X0047933Y0178555D02*
X0053808Y0178555D01*
X0054072Y0179553D02*
X0047839Y0179553D01*
X0047426Y0180552D02*
X0054563Y0180552D01*
X0055391Y0181550D02*
X0047283Y0181550D01*
X0117733Y0171565D02*
X0118733Y0171565D01*
X0118733Y0170567D02*
X0117733Y0170567D01*
X0117733Y0169568D02*
X0118733Y0169568D01*
X0118733Y0168570D02*
X0117733Y0168570D01*
X0117733Y0167571D02*
X0118733Y0167571D01*
X0118733Y0166573D02*
X0117733Y0166573D01*
X0117733Y0165574D02*
X0118733Y0165574D01*
X0049983Y0132623D02*
X0033132Y0132623D01*
X0042293Y0131625D02*
X0049983Y0131625D01*
X0049983Y0130626D02*
X0044703Y0130626D01*
X0045796Y0129628D02*
X0049983Y0129628D01*
X0049983Y0128629D02*
X0046795Y0128629D01*
X0047643Y0127631D02*
X0049983Y0127631D01*
X0049983Y0126632D02*
X0048057Y0126632D01*
X0048470Y0125634D02*
X0049983Y0125634D01*
X0049983Y0124635D02*
X0048884Y0124635D01*
X0048983Y0123637D02*
X0049983Y0123637D01*
X0049983Y0122638D02*
X0048983Y0122638D01*
X0048983Y0121640D02*
X0049983Y0121640D01*
X0049983Y0120641D02*
X0048983Y0120641D01*
X0049033Y0119643D02*
X0049983Y0119643D01*
X0049983Y0118644D02*
X0049033Y0118644D01*
X0049033Y0117646D02*
X0049983Y0117646D01*
X0049983Y0116647D02*
X0049033Y0116647D01*
X0048983Y0115649D02*
X0049983Y0115649D01*
X0049983Y0114650D02*
X0048983Y0114650D01*
X0048983Y0113652D02*
X0049983Y0113652D01*
X0049983Y0112653D02*
X0048983Y0112653D01*
X0048983Y0111655D02*
X0049983Y0111655D01*
X0049983Y0110656D02*
X0048983Y0110656D01*
X0048983Y0109658D02*
X0049983Y0109658D01*
X0049983Y0108659D02*
X0048983Y0108659D01*
X0048983Y0107661D02*
X0049983Y0107661D01*
X0049983Y0106662D02*
X0048983Y0106662D01*
X0048983Y0105664D02*
X0049983Y0105664D01*
X0068983Y0087690D02*
X0112833Y0087690D01*
X0112833Y0086692D02*
X0068983Y0086692D01*
X0068983Y0085693D02*
X0112833Y0085693D01*
X0112833Y0084695D02*
X0068983Y0084695D01*
X0068983Y0083696D02*
X0112950Y0083696D01*
X0113272Y0082698D02*
X0068810Y0082698D01*
X0068396Y0081699D02*
X0113852Y0081699D01*
X0114765Y0080701D02*
X0067983Y0080701D01*
X0074903Y0064725D02*
X0051564Y0064725D01*
X0051833Y0063726D02*
X0074633Y0063726D01*
X0074633Y0062728D02*
X0051833Y0062728D01*
X0051833Y0061729D02*
X0074633Y0061729D01*
X0074633Y0060731D02*
X0051833Y0060731D01*
X0051833Y0059732D02*
X0074633Y0059732D01*
X0074633Y0058734D02*
X0051833Y0058734D01*
X0051833Y0057735D02*
X0074633Y0057735D01*
X0074633Y0056737D02*
X0051833Y0056737D01*
X0051833Y0055738D02*
X0074633Y0055738D01*
X0074633Y0054740D02*
X0051833Y0054740D01*
X0051833Y0052743D02*
X0074633Y0052743D01*
X0074633Y0051744D02*
X0051833Y0051744D01*
X0051833Y0050745D02*
X0074633Y0050745D01*
X0074633Y0049747D02*
X0051833Y0049747D01*
X0051833Y0048748D02*
X0074633Y0048748D01*
X0080133Y0048748D02*
X0081133Y0048748D01*
X0081133Y0049747D02*
X0080133Y0049747D01*
X0080133Y0050745D02*
X0081133Y0050745D01*
X0081133Y0051744D02*
X0080133Y0051744D01*
X0080133Y0054740D02*
X0081133Y0054740D01*
X0081133Y0055738D02*
X0080133Y0055738D01*
X0080133Y0056737D02*
X0081133Y0056737D01*
X0081133Y0057735D02*
X0080133Y0057735D01*
X0080133Y0058734D02*
X0081133Y0058734D01*
X0081133Y0059732D02*
X0080133Y0059732D01*
X0080133Y0060731D02*
X0081133Y0060731D01*
X0081133Y0061729D02*
X0080133Y0061729D01*
X0080133Y0062728D02*
X0081133Y0062728D01*
X0081133Y0063726D02*
X0080133Y0063726D01*
X0080133Y0064725D02*
X0081133Y0064725D01*
X0086364Y0064725D02*
X0310103Y0064725D01*
X0309833Y0063726D02*
X0086633Y0063726D01*
X0086633Y0062728D02*
X0309833Y0062728D01*
X0309833Y0061729D02*
X0086633Y0061729D01*
X0086633Y0060731D02*
X0309833Y0060731D01*
X0309833Y0059732D02*
X0086633Y0059732D01*
X0086633Y0058734D02*
X0309833Y0058734D01*
X0309833Y0057735D02*
X0086633Y0057735D01*
X0086633Y0056737D02*
X0309833Y0056737D01*
X0309833Y0055738D02*
X0086633Y0055738D01*
X0086633Y0054740D02*
X0309833Y0054740D01*
X0309833Y0052743D02*
X0086633Y0052743D01*
X0086633Y0051744D02*
X0309833Y0051744D01*
X0309833Y0050745D02*
X0086633Y0050745D01*
X0086633Y0049747D02*
X0309833Y0049747D01*
X0309833Y0048748D02*
X0086633Y0048748D01*
X0046333Y0048748D02*
X0045333Y0048748D01*
X0045333Y0049747D02*
X0046333Y0049747D01*
X0046333Y0050745D02*
X0045333Y0050745D01*
X0045333Y0051744D02*
X0046333Y0051744D01*
X0046333Y0052743D02*
X0045333Y0052743D01*
X0045333Y0053741D02*
X0032589Y0053741D01*
X0120259Y0097676D02*
X0147733Y0097676D01*
X0147733Y0096677D02*
X0121849Y0096677D01*
X0130433Y0094680D02*
X0131033Y0094680D01*
X0131033Y0093681D02*
X0130433Y0093681D01*
X0130433Y0092683D02*
X0131033Y0092683D01*
X0131033Y0091684D02*
X0130433Y0091684D01*
X0130433Y0090686D02*
X0131033Y0090686D01*
X0131033Y0089687D02*
X0130433Y0089687D01*
X0130433Y0087690D02*
X0131033Y0087690D01*
X0131033Y0086692D02*
X0130433Y0086692D01*
X0130433Y0085693D02*
X0131033Y0085693D01*
X0131033Y0084695D02*
X0130433Y0084695D01*
X0130433Y0083696D02*
X0131033Y0083696D01*
X0131033Y0082698D02*
X0130433Y0082698D01*
X0133556Y0082698D02*
X0172067Y0082698D01*
X0170893Y0083696D02*
X0134407Y0083696D01*
X0134845Y0084695D02*
X0167085Y0084695D01*
X0164675Y0085693D02*
X0135033Y0085693D01*
X0135033Y0086692D02*
X0163533Y0086692D01*
X0162535Y0087690D02*
X0156274Y0087690D01*
X0154683Y0087690D02*
X0153683Y0087690D01*
X0153683Y0088689D02*
X0154683Y0088689D01*
X0154683Y0089687D02*
X0153683Y0089687D01*
X0153683Y0090686D02*
X0154683Y0090686D01*
X0154683Y0091684D02*
X0153683Y0091684D01*
X0153683Y0092683D02*
X0154683Y0092683D01*
X0154683Y0093681D02*
X0153683Y0093681D01*
X0153683Y0094680D02*
X0154683Y0094680D01*
X0154683Y0095678D02*
X0153683Y0095678D01*
X0153683Y0096677D02*
X0154683Y0096677D01*
X0154683Y0097676D02*
X0153683Y0097676D01*
X0160286Y0091684D02*
X0160433Y0091684D01*
X0160847Y0090686D02*
X0159830Y0090686D01*
X0159153Y0089687D02*
X0161261Y0089687D01*
X0161674Y0088689D02*
X0158110Y0088689D01*
X0152093Y0087690D02*
X0135033Y0087690D01*
X0160336Y0105664D02*
X0160366Y0105664D01*
X0160779Y0106662D02*
X0159924Y0106662D01*
X0159279Y0107661D02*
X0161193Y0107661D01*
X0161606Y0108659D02*
X0158323Y0108659D01*
X0156669Y0109658D02*
X0162371Y0109658D01*
X0163369Y0110656D02*
X0135757Y0110656D01*
X0136756Y0111655D02*
X0164368Y0111655D01*
X0129273Y0108659D02*
X0124416Y0108659D01*
X0125379Y0109658D02*
X0126863Y0109658D01*
X0282040Y0100671D02*
X0327483Y0100671D01*
X0327483Y0099673D02*
X0283596Y0099673D01*
X0284595Y0098674D02*
X0327483Y0098674D01*
X0327483Y0097676D02*
X0285453Y0097676D01*
X0285867Y0096677D02*
X0327483Y0096677D01*
X0327483Y0095678D02*
X0286281Y0095678D01*
X0286633Y0094680D02*
X0327483Y0094680D01*
X0327483Y0093681D02*
X0286633Y0093681D01*
X0286633Y0092683D02*
X0327483Y0092683D01*
X0327483Y0091684D02*
X0286633Y0091684D01*
X0286633Y0090686D02*
X0327483Y0090686D01*
X0327483Y0089687D02*
X0286633Y0089687D01*
X0286633Y0088689D02*
X0327483Y0088689D01*
X0327483Y0087690D02*
X0286633Y0087690D01*
X0286633Y0086692D02*
X0327483Y0086692D01*
X0327483Y0085693D02*
X0286633Y0085693D01*
X0286633Y0084695D02*
X0327483Y0084695D01*
X0327483Y0083696D02*
X0286633Y0083696D01*
X0286224Y0082698D02*
X0327657Y0082698D01*
X0328070Y0081699D02*
X0285811Y0081699D01*
X0285397Y0080701D02*
X0328484Y0080701D01*
X0328897Y0079702D02*
X0284459Y0079702D01*
X0283461Y0078704D02*
X0329850Y0078704D01*
X0330849Y0077705D02*
X0281713Y0077705D01*
X0315333Y0064725D02*
X0316333Y0064725D01*
X0316333Y0063726D02*
X0315333Y0063726D01*
X0315333Y0062728D02*
X0316333Y0062728D01*
X0316333Y0061729D02*
X0315333Y0061729D01*
X0315333Y0060731D02*
X0316333Y0060731D01*
X0316333Y0059732D02*
X0315333Y0059732D01*
X0315333Y0058734D02*
X0316333Y0058734D01*
X0316333Y0057735D02*
X0315333Y0057735D01*
X0315333Y0056737D02*
X0316333Y0056737D01*
X0316333Y0055738D02*
X0315333Y0055738D01*
X0315333Y0054740D02*
X0316333Y0054740D01*
X0316333Y0051744D02*
X0315333Y0051744D01*
X0315333Y0050745D02*
X0316333Y0050745D01*
X0316333Y0049747D02*
X0315333Y0049747D01*
X0315333Y0048748D02*
X0316333Y0048748D01*
X0321833Y0048748D02*
X0344633Y0048748D01*
X0344633Y0049747D02*
X0321833Y0049747D01*
X0321833Y0050745D02*
X0344633Y0050745D01*
X0344633Y0051744D02*
X0321833Y0051744D01*
X0321833Y0052743D02*
X0344633Y0052743D01*
X0344633Y0054740D02*
X0321833Y0054740D01*
X0321833Y0055738D02*
X0344633Y0055738D01*
X0344633Y0056737D02*
X0321833Y0056737D01*
X0321833Y0057735D02*
X0344633Y0057735D01*
X0344633Y0058734D02*
X0321833Y0058734D01*
X0321833Y0059732D02*
X0344633Y0059732D01*
X0344633Y0060731D02*
X0321833Y0060731D01*
X0321833Y0061729D02*
X0344633Y0061729D01*
X0344633Y0062728D02*
X0321833Y0062728D01*
X0321833Y0063726D02*
X0344633Y0063726D01*
X0344903Y0064725D02*
X0321564Y0064725D01*
X0339362Y0075708D02*
X0354605Y0075708D01*
X0352194Y0076707D02*
X0341772Y0076707D01*
X0343118Y0077705D02*
X0350849Y0077705D01*
X0349850Y0078704D02*
X0344116Y0078704D01*
X0345069Y0079702D02*
X0348897Y0079702D01*
X0348484Y0080701D02*
X0345483Y0080701D01*
X0345896Y0081699D02*
X0348070Y0081699D01*
X0347657Y0082698D02*
X0346310Y0082698D01*
X0346483Y0083696D02*
X0347483Y0083696D01*
X0347483Y0084695D02*
X0346483Y0084695D01*
X0346483Y0085693D02*
X0347483Y0085693D01*
X0347483Y0086692D02*
X0346483Y0086692D01*
X0346483Y0087690D02*
X0347483Y0087690D01*
X0347483Y0088689D02*
X0346483Y0088689D01*
X0346483Y0089687D02*
X0347483Y0089687D01*
X0347483Y0090686D02*
X0346483Y0090686D01*
X0346483Y0091684D02*
X0347483Y0091684D01*
X0347483Y0092683D02*
X0346483Y0092683D01*
X0346483Y0093681D02*
X0347483Y0093681D01*
X0347483Y0094680D02*
X0346483Y0094680D01*
X0346483Y0095678D02*
X0347483Y0095678D01*
X0347483Y0096677D02*
X0346483Y0096677D01*
X0346483Y0097676D02*
X0347483Y0097676D01*
X0347483Y0098674D02*
X0346483Y0098674D01*
X0346483Y0099673D02*
X0347483Y0099673D01*
X0347483Y0100671D02*
X0346483Y0100671D01*
X0346483Y0101670D02*
X0347483Y0101670D01*
X0347483Y0102668D02*
X0346483Y0102668D01*
X0346483Y0103667D02*
X0347483Y0103667D01*
X0347483Y0104665D02*
X0346483Y0104665D01*
X0346483Y0105664D02*
X0347483Y0105664D01*
X0347483Y0106662D02*
X0346483Y0106662D01*
X0346483Y0107661D02*
X0347483Y0107661D01*
X0347483Y0108659D02*
X0346483Y0108659D01*
X0346483Y0109658D02*
X0347483Y0109658D01*
X0347483Y0110656D02*
X0346483Y0110656D01*
X0346483Y0111655D02*
X0347483Y0111655D01*
X0347483Y0112653D02*
X0346483Y0112653D01*
X0346483Y0113652D02*
X0347483Y0113652D01*
X0347483Y0114650D02*
X0346483Y0114650D01*
X0346483Y0115649D02*
X0347483Y0115649D01*
X0347483Y0116647D02*
X0346483Y0116647D01*
X0346483Y0117646D02*
X0347483Y0117646D01*
X0347483Y0118644D02*
X0346483Y0118644D01*
X0363296Y0129628D02*
X0366330Y0129628D01*
X0365332Y0130626D02*
X0362203Y0130626D01*
X0364295Y0128629D02*
X0367329Y0128629D01*
X0368327Y0127631D02*
X0365143Y0127631D01*
X0365557Y0126632D02*
X0368833Y0126632D01*
X0368775Y0125634D02*
X0365970Y0125634D01*
X0366384Y0124635D02*
X0368361Y0124635D01*
X0368233Y0123637D02*
X0366483Y0123637D01*
X0366483Y0122638D02*
X0368233Y0122638D01*
X0368233Y0121640D02*
X0366483Y0121640D01*
X0366483Y0120641D02*
X0368233Y0120641D01*
X0368233Y0119643D02*
X0366483Y0119643D01*
X0366483Y0118644D02*
X0368233Y0118644D01*
X0368233Y0117646D02*
X0366483Y0117646D01*
X0366483Y0116647D02*
X0368233Y0116647D01*
X0368233Y0115649D02*
X0366483Y0115649D01*
X0366483Y0114650D02*
X0368233Y0114650D01*
X0368233Y0113652D02*
X0366483Y0113652D01*
X0366483Y0112653D02*
X0368454Y0112653D01*
X0368833Y0111655D02*
X0366483Y0111655D01*
X0366483Y0110656D02*
X0368833Y0110656D01*
X0368833Y0109658D02*
X0366483Y0109658D01*
X0366483Y0108659D02*
X0368833Y0108659D01*
X0368833Y0107661D02*
X0366483Y0107661D01*
X0366483Y0106662D02*
X0368833Y0106662D01*
X0368833Y0105664D02*
X0366483Y0105664D01*
X0366483Y0104665D02*
X0368833Y0104665D01*
X0368833Y0103667D02*
X0366483Y0103667D01*
X0366483Y0102668D02*
X0368833Y0102668D01*
X0368833Y0101670D02*
X0366483Y0101670D01*
X0366483Y0100671D02*
X0368833Y0100671D01*
X0368833Y0099673D02*
X0366483Y0099673D01*
X0366483Y0098674D02*
X0368833Y0098674D01*
X0368833Y0097676D02*
X0366483Y0097676D01*
X0366483Y0096677D02*
X0368833Y0096677D01*
X0368586Y0095678D02*
X0366483Y0095678D01*
X0366483Y0094680D02*
X0368233Y0094680D01*
X0368233Y0093681D02*
X0366483Y0093681D01*
X0366483Y0092683D02*
X0368233Y0092683D01*
X0368233Y0091684D02*
X0366483Y0091684D01*
X0366483Y0090686D02*
X0368233Y0090686D01*
X0368233Y0089687D02*
X0366483Y0089687D01*
X0366483Y0088689D02*
X0368233Y0088689D01*
X0368233Y0087690D02*
X0366483Y0087690D01*
X0366483Y0086692D02*
X0368233Y0086692D01*
X0368233Y0085693D02*
X0366483Y0085693D01*
X0366483Y0084695D02*
X0368233Y0084695D01*
X0368233Y0083696D02*
X0366483Y0083696D01*
X0366310Y0082698D02*
X0368642Y0082698D01*
X0369056Y0081699D02*
X0365896Y0081699D01*
X0365483Y0080701D02*
X0369469Y0080701D01*
X0370408Y0079702D02*
X0365069Y0079702D01*
X0364116Y0078704D02*
X0371406Y0078704D01*
X0373153Y0077705D02*
X0363118Y0077705D01*
X0372733Y0072713D02*
X0373733Y0072713D01*
X0373733Y0071714D02*
X0372733Y0071714D01*
X0372733Y0070716D02*
X0373733Y0070716D01*
X0373733Y0069717D02*
X0372733Y0069717D01*
X0372733Y0068719D02*
X0373733Y0068719D01*
X0373733Y0067720D02*
X0372733Y0067720D01*
X0372733Y0066722D02*
X0373733Y0066722D01*
X0373733Y0065723D02*
X0372733Y0065723D01*
X0372733Y0064725D02*
X0373733Y0064725D01*
X0373733Y0063726D02*
X0372733Y0063726D01*
X0372733Y0062728D02*
X0373733Y0062728D01*
X0373733Y0059732D02*
X0372733Y0059732D01*
X0372733Y0058734D02*
X0373733Y0058734D01*
X0373733Y0057735D02*
X0372733Y0057735D01*
X0372733Y0056737D02*
X0373733Y0056737D01*
X0373733Y0055738D02*
X0372733Y0055738D01*
X0372733Y0054740D02*
X0373733Y0054740D01*
X0373733Y0053741D02*
X0372733Y0053741D01*
X0372733Y0052743D02*
X0373733Y0052743D01*
X0373733Y0051744D02*
X0372733Y0051744D01*
X0372733Y0050745D02*
X0373733Y0050745D01*
X0373733Y0049747D02*
X0372733Y0049747D01*
X0369791Y0049747D02*
X0356633Y0049747D01*
X0356633Y0050745D02*
X0367406Y0050745D01*
X0365914Y0051744D02*
X0356633Y0051744D01*
X0356633Y0052743D02*
X0364776Y0052743D01*
X0356633Y0048748D02*
X0386155Y0048748D01*
X0386155Y0049747D02*
X0376676Y0049747D01*
X0379061Y0050745D02*
X0386155Y0050745D01*
X0386155Y0051744D02*
X0380552Y0051744D01*
X0381690Y0052743D02*
X0386155Y0052743D01*
X0386155Y0053741D02*
X0382589Y0053741D01*
X0383311Y0054740D02*
X0386155Y0054740D01*
X0386155Y0055738D02*
X0383895Y0055738D01*
X0384365Y0056737D02*
X0386155Y0056737D01*
X0386155Y0057735D02*
X0384715Y0057735D01*
X0384966Y0058734D02*
X0386155Y0058734D01*
X0386155Y0059732D02*
X0385138Y0059732D01*
X0385233Y0060731D02*
X0386155Y0060731D01*
X0361734Y0064725D02*
X0356364Y0064725D01*
X0356633Y0063726D02*
X0361489Y0063726D01*
X0361323Y0062728D02*
X0356633Y0062728D01*
X0351133Y0062728D02*
X0350133Y0062728D01*
X0350133Y0063726D02*
X0351133Y0063726D01*
X0351133Y0064725D02*
X0350133Y0064725D01*
X0350133Y0061729D02*
X0351133Y0061729D01*
X0351133Y0060731D02*
X0350133Y0060731D01*
X0350133Y0059732D02*
X0351133Y0059732D01*
X0351133Y0058734D02*
X0350133Y0058734D01*
X0350133Y0057735D02*
X0351133Y0057735D01*
X0351133Y0056737D02*
X0350133Y0056737D01*
X0350133Y0055738D02*
X0351133Y0055738D01*
X0351133Y0054740D02*
X0350133Y0054740D01*
X0350133Y0051744D02*
X0351133Y0051744D01*
X0351133Y0050745D02*
X0350133Y0050745D01*
X0350133Y0049747D02*
X0351133Y0049747D01*
X0351133Y0048748D02*
X0350133Y0048748D01*
X0364783Y0187542D02*
X0368833Y0187542D01*
X0368833Y0188540D02*
X0364783Y0188540D01*
X0364783Y0189539D02*
X0368833Y0189539D01*
X0368833Y0190537D02*
X0364783Y0190537D01*
X0364783Y0191536D02*
X0368833Y0191536D01*
X0368833Y0192534D02*
X0364783Y0192534D01*
X0364783Y0193533D02*
X0368833Y0193533D01*
X0368833Y0194531D02*
X0364783Y0194531D01*
X0364783Y0195530D02*
X0368833Y0195530D01*
X0368833Y0196528D02*
X0364783Y0196528D01*
X0365061Y0197527D02*
X0368506Y0197527D01*
X0368233Y0198525D02*
X0365333Y0198525D01*
X0365333Y0199524D02*
X0368233Y0199524D01*
X0368233Y0200522D02*
X0365333Y0200522D01*
X0365333Y0201521D02*
X0368233Y0201521D01*
X0368233Y0202519D02*
X0365333Y0202519D01*
X0365333Y0203518D02*
X0368233Y0203518D01*
X0367246Y0204516D02*
X0365333Y0204516D01*
X0365333Y0205515D02*
X0366248Y0205515D01*
X0318061Y0232475D02*
X0078405Y0232475D01*
X0079404Y0233473D02*
X0317063Y0233473D01*
X0316104Y0234472D02*
X0080362Y0234472D01*
X0080362Y0235470D02*
X0316104Y0235470D01*
X0316104Y0236469D02*
X0080362Y0236469D01*
X0080362Y0237467D02*
X0316104Y0237467D01*
X0316923Y0238466D02*
X0079544Y0238466D01*
X0078545Y0239464D02*
X0317921Y0239464D01*
X0278733Y0212504D02*
X0277733Y0212504D01*
X0277733Y0211506D02*
X0278733Y0211506D01*
D17*
X0301983Y0211256D03*
X0301983Y0205006D03*
X0301983Y0198756D03*
X0308233Y0198756D03*
X0314483Y0198756D03*
X0320733Y0198756D03*
X0326983Y0198756D03*
X0345733Y0198756D03*
X0345733Y0211256D03*
X0341983Y0218756D03*
X0341983Y0228756D03*
X0350733Y0232506D03*
X0358233Y0231256D03*
X0373233Y0217506D03*
X0383233Y0217506D03*
X0366983Y0196256D03*
X0366983Y0190006D03*
X0366983Y0183756D03*
X0345733Y0178756D03*
X0326983Y0178756D03*
X0320733Y0178756D03*
X0314483Y0178756D03*
X0308233Y0178756D03*
X0301983Y0178756D03*
X0301983Y0172506D03*
X0301983Y0166256D03*
X0301983Y0160006D03*
X0301983Y0152506D03*
X0301983Y0145006D03*
X0301983Y0137506D03*
X0301983Y0130006D03*
X0301983Y0122506D03*
X0301983Y0115006D03*
X0301983Y0107506D03*
X0301983Y0101256D03*
X0310733Y0097506D03*
X0305733Y0092506D03*
X0300733Y0087506D03*
X0295733Y0082506D03*
X0289483Y0077506D03*
X0283233Y0075006D03*
X0275733Y0075006D03*
X0268233Y0075006D03*
X0260733Y0075006D03*
X0253233Y0075006D03*
X0245733Y0075006D03*
X0238233Y0075006D03*
X0230733Y0075006D03*
X0223233Y0075006D03*
X0215733Y0075006D03*
X0208233Y0075006D03*
X0200733Y0075006D03*
X0193233Y0075006D03*
X0185733Y0075006D03*
X0178233Y0075006D03*
X0170733Y0075006D03*
X0163233Y0075006D03*
X0155733Y0075006D03*
X0148233Y0075006D03*
X0140733Y0075006D03*
X0133233Y0075006D03*
X0125733Y0075006D03*
X0118233Y0075006D03*
X0110733Y0075006D03*
X0105733Y0077506D03*
X0100733Y0082506D03*
X0095733Y0087506D03*
X0090733Y0092506D03*
X0085733Y0097506D03*
X0079483Y0098756D03*
X0070733Y0098756D03*
X0070733Y0106256D03*
X0070733Y0113756D03*
X0070733Y0121256D03*
X0070733Y0128756D03*
X0070733Y0136256D03*
X0069483Y0143756D03*
X0064483Y0147506D03*
X0058233Y0147506D03*
X0050733Y0145006D03*
X0048233Y0138756D03*
X0046983Y0133756D03*
X0040733Y0133756D03*
X0038233Y0140006D03*
X0038233Y0147506D03*
X0038233Y0156256D03*
X0050733Y0165006D03*
X0050733Y0177506D03*
X0069483Y0178756D03*
X0075733Y0178756D03*
X0081983Y0178756D03*
X0088233Y0178756D03*
X0088233Y0172506D03*
X0088233Y0166256D03*
X0088233Y0158756D03*
X0088233Y0151256D03*
X0088233Y0143756D03*
X0088233Y0136256D03*
X0088233Y0128756D03*
X0088233Y0121256D03*
X0088233Y0113756D03*
X0088233Y0106256D03*
X0136983Y0138756D03*
X0136983Y0145006D03*
X0143233Y0138756D03*
X0149483Y0138756D03*
X0155733Y0138756D03*
X0161983Y0138756D03*
X0168233Y0138756D03*
X0173233Y0147506D03*
X0175733Y0152506D03*
X0179483Y0147506D03*
X0185733Y0147506D03*
X0186983Y0152506D03*
X0188233Y0157506D03*
X0193233Y0157506D03*
X0198233Y0157506D03*
X0203233Y0157506D03*
X0204483Y0152506D03*
X0198233Y0147506D03*
X0193233Y0141256D03*
X0193233Y0136256D03*
X0210733Y0147506D03*
X0213233Y0151256D03*
X0234483Y0148756D03*
X0234483Y0156256D03*
X0234483Y0163756D03*
X0234483Y0171256D03*
X0231983Y0177506D03*
X0228233Y0182506D03*
X0228233Y0193756D03*
X0228233Y0198756D03*
X0234483Y0198756D03*
X0240733Y0198756D03*
X0245733Y0198756D03*
X0245733Y0205006D03*
X0245733Y0211256D03*
X0245733Y0217506D03*
X0245733Y0225006D03*
X0254483Y0225006D03*
X0261983Y0225006D03*
X0269483Y0225006D03*
X0278233Y0225006D03*
X0285733Y0225006D03*
X0293233Y0225006D03*
X0301983Y0225006D03*
X0301983Y0217506D03*
X0301983Y0245006D03*
X0293233Y0245006D03*
X0285733Y0245006D03*
X0278233Y0245006D03*
X0269483Y0245006D03*
X0261983Y0245006D03*
X0254483Y0245006D03*
X0245733Y0245006D03*
X0234483Y0245006D03*
X0221983Y0245006D03*
X0210733Y0245006D03*
X0200733Y0245006D03*
X0193233Y0245006D03*
X0185733Y0245006D03*
X0178233Y0245006D03*
X0170733Y0245006D03*
X0163233Y0245006D03*
X0155733Y0245006D03*
X0148233Y0245006D03*
X0140733Y0245006D03*
X0133233Y0245006D03*
X0125733Y0245006D03*
X0118233Y0245006D03*
X0110733Y0245006D03*
X0103233Y0245006D03*
X0095733Y0245006D03*
X0088233Y0245006D03*
X0080733Y0245006D03*
X0073233Y0245006D03*
X0065733Y0245006D03*
X0058233Y0245006D03*
X0050733Y0245006D03*
X0043233Y0245006D03*
X0035733Y0245006D03*
X0040733Y0232506D03*
X0051983Y0232506D03*
X0056983Y0223756D03*
X0056983Y0216256D03*
X0050733Y0212506D03*
X0050733Y0200006D03*
X0069483Y0200006D03*
X0075733Y0200006D03*
X0081983Y0200006D03*
X0088233Y0200006D03*
X0088233Y0206256D03*
X0088233Y0212506D03*
X0088233Y0218756D03*
X0088233Y0225006D03*
X0095733Y0225006D03*
X0103233Y0225006D03*
X0110733Y0225006D03*
X0118233Y0225006D03*
X0125733Y0225006D03*
X0133233Y0225006D03*
X0140733Y0225006D03*
X0148233Y0225006D03*
X0155733Y0225006D03*
X0163233Y0225006D03*
X0170733Y0225006D03*
X0178233Y0225006D03*
X0185733Y0225006D03*
X0193233Y0225006D03*
X0200733Y0225006D03*
X0210733Y0225006D03*
X0210733Y0217506D03*
X0210733Y0211256D03*
X0210733Y0205006D03*
X0221983Y0205006D03*
X0221983Y0211256D03*
X0228233Y0211256D03*
X0234483Y0211256D03*
X0234483Y0205006D03*
X0228233Y0205006D03*
X0221983Y0198756D03*
X0215733Y0198756D03*
X0210733Y0198756D03*
X0161983Y0157506D03*
X0155733Y0157506D03*
X0149483Y0157506D03*
X0149483Y0151256D03*
X0143233Y0151256D03*
X0136983Y0151256D03*
X0161983Y0151256D03*
X0168233Y0151256D03*
X0214483Y0121256D03*
X0220733Y0121256D03*
X0220733Y0116256D03*
X0214483Y0116256D03*
X0214483Y0110006D03*
X0220733Y0110006D03*
X0226983Y0110006D03*
X0233233Y0110006D03*
X0233233Y0116256D03*
X0226983Y0116256D03*
X0226983Y0121256D03*
X0233233Y0121256D03*
X0239483Y0121256D03*
X0245733Y0121256D03*
X0245733Y0116256D03*
X0245733Y0110006D03*
X0233233Y0103756D03*
X0226983Y0103756D03*
X0226983Y0098756D03*
X0233233Y0098756D03*
X0220733Y0098756D03*
X0214483Y0098756D03*
X0214483Y0103756D03*
X0220733Y0103756D03*
X0234483Y0126256D03*
X0234483Y0133756D03*
X0234483Y0141256D03*
X0268233Y0132506D03*
X0275733Y0132506D03*
X0280733Y0135006D03*
X0275733Y0138756D03*
X0280733Y0141256D03*
X0275733Y0145006D03*
X0280733Y0147506D03*
X0275733Y0151256D03*
X0280733Y0153756D03*
X0268233Y0155006D03*
X0324483Y0137506D03*
X0326983Y0143756D03*
X0333233Y0147506D03*
X0341983Y0147506D03*
X0348233Y0142506D03*
X0359483Y0140006D03*
X0355733Y0135006D03*
X0349483Y0133756D03*
X0359483Y0147506D03*
X0359483Y0155006D03*
X0361983Y0161256D03*
X0366983Y0166256D03*
X0350733Y0161256D03*
X0345733Y0166256D03*
X0379483Y0148756D03*
X0383233Y0145006D03*
X0379483Y0142506D03*
X0383233Y0138756D03*
X0383233Y0153756D03*
X0324483Y0130006D03*
X0324483Y0122506D03*
X0324483Y0115006D03*
X0324483Y0107506D03*
X0324483Y0101256D03*
X0318233Y0100006D03*
X0318233Y0061256D03*
X0313233Y0061256D03*
X0308233Y0061256D03*
X0308233Y0056256D03*
X0313233Y0056256D03*
X0318233Y0056256D03*
X0318233Y0051256D03*
X0313233Y0051256D03*
X0308233Y0048756D03*
X0304483Y0052506D03*
X0298233Y0052506D03*
X0290733Y0052506D03*
X0283233Y0052506D03*
X0275733Y0052506D03*
X0268233Y0052506D03*
X0260733Y0052506D03*
X0253233Y0052506D03*
X0245733Y0052506D03*
X0238233Y0052506D03*
X0230733Y0052506D03*
X0223233Y0052506D03*
X0215733Y0052506D03*
X0208233Y0052506D03*
X0200733Y0052506D03*
X0193233Y0052506D03*
X0185733Y0052506D03*
X0178233Y0052506D03*
X0170733Y0052506D03*
X0163233Y0052506D03*
X0155733Y0052506D03*
X0148233Y0052506D03*
X0140733Y0052506D03*
X0133233Y0052506D03*
X0125733Y0052506D03*
X0118233Y0052506D03*
X0110733Y0052506D03*
X0103233Y0052506D03*
X0095733Y0052506D03*
X0089483Y0052506D03*
X0086983Y0056256D03*
X0083233Y0056256D03*
X0078233Y0056256D03*
X0078233Y0061256D03*
X0083233Y0061256D03*
X0086983Y0061256D03*
X0083233Y0051256D03*
X0078233Y0051256D03*
X0078233Y0046256D03*
X0083233Y0046256D03*
X0088233Y0047506D03*
X0048233Y0046256D03*
X0043233Y0046256D03*
X0038233Y0050006D03*
X0043233Y0051256D03*
X0048233Y0051256D03*
X0048233Y0056256D03*
X0043233Y0056256D03*
X0038233Y0056256D03*
X0043233Y0061256D03*
X0048233Y0061256D03*
X0011983Y0138756D03*
X0016983Y0142506D03*
X0011983Y0146256D03*
X0016983Y0150006D03*
X0011983Y0153756D03*
X0029483Y0166256D03*
X0029483Y0182506D03*
X0029483Y0188756D03*
X0029483Y0195006D03*
X0029483Y0201256D03*
X0021983Y0217506D03*
X0011983Y0217506D03*
X0310733Y0245006D03*
X0319483Y0245006D03*
X0328233Y0245006D03*
X0336983Y0245006D03*
X0345733Y0245006D03*
X0353233Y0245006D03*
X0360733Y0245006D03*
X0353233Y0061256D03*
X0348233Y0061256D03*
X0348233Y0056256D03*
X0353233Y0056256D03*
X0358233Y0055006D03*
X0353233Y0051256D03*
X0348233Y0051256D03*
X0348233Y0046256D03*
X0353233Y0046256D03*
X0359483Y0050006D03*
X0318233Y0046256D03*
X0313233Y0046256D03*
D18*
X0266233Y0089256D02*
X0265733Y0088756D01*
X0266233Y0089256D02*
X0278233Y0089256D01*
X0185733Y0088756D02*
X0175733Y0088756D01*
X0169783Y0094706D01*
X0169783Y0098756D01*
X0130733Y0118756D02*
X0130233Y0118256D01*
X0118233Y0118256D01*
X0059483Y0088406D02*
X0059483Y0085006D01*
X0059483Y0088406D02*
X0059133Y0088756D01*
X0118233Y0203256D02*
X0130233Y0203256D01*
X0130733Y0203756D01*
X0265733Y0173756D02*
X0275733Y0173756D01*
X0278233Y0176256D01*
X0278233Y0174256D01*
D19*
X0336983Y0136256D02*
X0336983Y0085006D01*
X0356983Y0085006D02*
X0356983Y0122506D01*
X0338233Y0136256D02*
X0336983Y0136256D01*
X0059483Y0136256D02*
X0059483Y0085006D01*
X0039483Y0085006D02*
X0039483Y0118306D01*
X0039533Y0118256D01*
X0039483Y0118306D02*
X0039483Y0122506D01*
D20*
X0028233Y0138756D02*
X0019833Y0130356D01*
X0019833Y0118256D01*
X0019833Y0088756D01*
X0028233Y0138756D02*
X0028233Y0150291D01*
X0027485Y0151039D01*
X0027485Y0154504D01*
X0019833Y0162156D01*
X0019833Y0173756D01*
X0019833Y0203256D01*
X0039483Y0203756D02*
X0039483Y0172506D01*
X0356983Y0173756D02*
X0356983Y0203756D01*
X0376633Y0203756D02*
X0376633Y0174256D01*
X0376633Y0160906D01*
X0369483Y0153756D01*
X0369483Y0151541D01*
X0368981Y0151039D01*
X0369483Y0150537D01*
X0369483Y0137506D01*
X0376633Y0130356D01*
X0376633Y0118756D01*
X0376633Y0089256D01*
D21*
X0376633Y0203756D02*
X0358917Y0221472D01*
X0351481Y0221472D01*
X0130233Y0203256D02*
X0118733Y0203256D01*
X0118233Y0203756D01*
X0109483Y0203756D01*
X0105733Y0200006D01*
X0105733Y0173756D01*
X0044985Y0221472D02*
X0038050Y0221472D01*
X0019833Y0203256D01*
D22*
X0336983Y0088906D02*
X0336983Y0085006D01*
X0336983Y0088906D02*
X0337333Y0089256D01*
X0356933Y0118756D02*
X0356983Y0118806D01*
X0356983Y0122506D01*
D23*
X0105733Y0173756D03*
M02*
