%
M48
M72
T01C0.02362
T02C0.03200
T03C0.04000
T04C0.06600
T05C0.11024
%
T01
X41600Y48933
X41600Y56433
X41600Y63933
X46600Y68933
X41600Y73933
X34100Y78933
X39100Y83933
X39100Y91433
X41600Y96433
X41600Y103933
X51600Y108933
X56600Y103933
X71600Y108933
X76600Y103933
X76600Y113933
X56600Y113933
X41600Y111433
X41600Y118933
X41600Y126433
X41600Y133933
X41600Y141433
X41600Y148933
X51600Y148933
X56600Y153933
X51600Y158933
X41600Y156433
X41600Y163933
X41600Y171433
X44100Y178933
X44100Y186433
X44100Y196433
X64100Y206433
X44100Y216433
X44100Y228933
X49100Y241433
X49100Y248933
X61600Y248933
X71600Y248933
X81600Y248933
X91600Y248933
X101600Y248933
X111600Y248933
X121600Y248933
X124100Y238933
X131600Y238933
X126600Y231433
X131600Y223933
X136600Y231433
X146600Y231433
X141600Y223933
X151600Y223933
X156600Y231433
X166600Y231433
X161600Y223933
X171600Y223933
X176600Y231433
X186600Y231433
X181600Y223933
X191600Y223933
X196600Y231433
X206600Y231433
X201600Y223933
X211600Y223933
X216600Y218933
X224100Y218933
X231600Y218933
X236600Y223933
X231600Y231433
X224100Y231433
X216600Y231433
X211600Y238933
X201600Y238933
X191600Y238933
X181600Y238933
X171600Y238933
X161600Y238933
X151600Y238933
X141600Y238933
X154100Y188933
X161600Y188933
X161600Y178933
X161600Y171433
X154100Y171433
X146600Y171433
X139100Y171433
X139100Y178933
X146600Y178933
X154100Y178933
X169100Y178933
X169100Y171433
X176600Y171433
X184100Y171433
X191600Y171433
X191600Y178933
X184100Y178933
X176600Y178933
X184100Y163933
X191600Y163933
X191600Y156433
X184100Y156433
X184100Y143933
X191600Y143933
X191600Y133933
X184100Y133933
X184100Y126433
X191600Y126433
X199100Y126433
X206600Y126433
X206600Y118933
X199100Y118933
X199100Y113933
X191600Y118933
X199100Y133933
X206600Y133933
X211600Y143933
X219100Y131433
X226600Y131433
X226600Y121433
X219100Y121433
X231600Y96433
X231600Y88933
X231600Y81433
X224100Y81433
X216600Y81433
X209100Y81433
X201600Y81433
X194100Y81433
X186600Y81433
X179100Y81433
X171600Y81433
X164100Y81433
X156600Y81433
X149100Y81433
X141600Y81433
X134100Y81433
X126600Y81433
X116600Y81433
X116600Y88933
X109100Y88933
X106600Y96433
X106600Y106433
X106600Y116433
X106600Y126433
X116600Y126433
X154100Y108933
X154100Y98933
X156600Y88933
X164100Y88933
X149100Y88933
X141600Y88933
X134100Y88933
X126600Y88933
X91600Y61433
X91600Y53933
X99100Y53933
X104100Y51433
X111600Y51433
X119100Y51433
X126600Y51433
X134100Y51433
X141600Y51433
X149100Y51433
X156600Y51433
X164100Y51433
X171600Y51433
X179100Y51433
X186600Y51433
X194100Y51433
X201600Y51433
X209100Y51433
X216600Y51433
X224100Y51433
X231600Y51433
X239100Y51433
X246600Y51433
X254100Y51433
X259100Y53933
X266600Y53933
X266600Y61433
X241600Y81433
X241600Y88933
X249100Y88933
X254100Y96433
X241600Y96433
X281600Y103933
X286600Y108933
X281600Y113933
X301600Y113933
X306600Y108933
X301600Y103933
X319100Y103933
X319100Y93933
X319100Y83933
X316600Y73933
X311600Y68933
X316600Y63933
X316600Y56433
X316600Y48933
X319100Y113933
X319100Y121433
X316600Y131433
X316600Y138933
X316600Y146433
X316600Y153933
X316600Y161433
X316600Y168933
X316600Y176433
X316600Y186433
X316600Y196433
X316600Y206433
X316600Y216433
X316600Y226433
X306600Y243933
X306600Y251433
X296600Y251433
X286600Y251433
X276600Y251433
X266600Y251433
X256600Y251433
X246600Y251433
X236600Y251433
X236600Y243933
X236600Y238933
X229100Y238933
X221600Y238933
X224100Y201433
X216600Y201433
X216600Y193933
X224100Y193933
X229100Y196433
X231600Y201433
X224100Y178933
X216600Y178933
X216600Y171433
X224100Y171433
X231600Y168933
X231600Y176433
X224100Y163933
X216600Y163933
X216600Y156433
X224100Y156433
X281600Y153933
X286600Y148933
X286600Y158933
X301600Y153933
X306600Y148933
X306600Y158933
X199100Y98933
X199100Y88933
X161600Y118933
X161600Y126433
X124100Y178933
X76600Y153933
X71600Y148933
X71600Y158933
X9100Y78933
X9100Y51433
T02
X14100Y93933
X14100Y123933
X14100Y138933
X14100Y168933
X14100Y191433
X14100Y221433
X129100Y141433
X159100Y141433
X344100Y138933
X344100Y123933
X344100Y93933
X344100Y168933
X344100Y191433
X344100Y221433
T03
X334100Y221433
X304100Y221433
X284100Y221433
X264100Y221433
X264100Y191433
X284100Y191433
X304100Y191433
X304100Y168933
X284100Y168933
X264100Y168933
X264100Y138933
X264100Y123933
X284100Y123933
X284100Y138933
X304100Y138933
X304100Y123933
X334100Y123933
X334100Y138933
X334100Y168933
X334100Y191433
X334100Y93933
X304100Y93933
X284100Y93933
X264100Y93933
X94100Y93933
X74100Y93933
X54100Y93933
X24100Y93933
X24100Y123933
X24100Y138933
X54100Y138933
X54100Y123933
X74100Y123933
X74100Y138933
X94100Y138933
X94100Y123933
X94100Y168933
X74100Y168933
X54100Y168933
X24100Y168933
X24100Y191433
X54100Y191433
X74100Y191433
X94100Y191433
X94100Y221433
X74100Y221433
X54100Y221433
X24100Y221433
T04
X128800Y116433
X144400Y116433
T05
X21600Y63933
X21600Y246433
X336600Y246433
X336600Y63933
M30
